<?xml version="1.0" encoding="utf-8"?>
<!-- Generator: Adobe Illustrator 23.0.3, SVG Export Plug-In . SVG Version: 6.00 Build 0)  -->
<svg version="1.1" id="Capa_1" xmlns="http://www.w3.org/2000/svg" xmlns:xlink="http://www.w3.org/1999/xlink" x="0px" y="0px"
	 viewBox="0 0 268.85 94.21" style="enable-background:new 0 0 268.85 94.21;" xml:space="preserve">
<style type="text/css">
	.st0{fill:#FFFFFF;}
	.st1{fill:#BF0811;}
	.st2{fill:url(#SVGID_1_);}
	.st3{fill:url(#SVGID_2_);}
	.st4{fill:url(#SVGID_3_);}
	.st5{fill:url(#SVGID_4_);}
	.st6{fill:url(#SVGID_5_);}
</style>
<g>
	<path d="M-585.64,43.59V22.48h-5.14l2.16-4.31h8.15v25.42H-585.64z"/>
	<path d="M-560.33,43.59v-4.93h-12.36V36.3l12.36-18.64h4.7v17.36h2.7v3.65h-2.7v4.93H-560.33z M-560.26,35.02v-8.84
		c0-0.86,0.01-1.52,0.04-1.96c0.03-0.44,0.07-0.85,0.13-1.23c-0.22,0.6-0.49,1.19-0.79,1.79c-0.3,0.6-0.64,1.18-1,1.75l-5.54,8.49
		H-560.26z"/>
	<path d="M-539.4,43.59V17.92h7c2.76,0,4.93,0.19,6.52,0.58c1.59,0.39,2.99,1.03,4.19,1.93c1.55,1.16,2.73,2.62,3.53,4.37
		c0.8,1.76,1.2,3.76,1.2,6.01c0,2.28-0.41,4.3-1.23,6.06c-0.82,1.76-2.02,3.21-3.59,4.36c-1.17,0.84-2.47,1.45-3.9,1.81
		c-1.43,0.37-3.53,0.55-6.29,0.55h-1.95H-539.4z M-533.91,38.96h3.05c2.88,0,4.97-0.65,6.29-1.96c1.31-1.31,1.97-3.38,1.97-6.22
		c0-2.83-0.66-4.9-1.97-6.22c-1.32-1.32-3.41-1.97-6.29-1.97h-3.05V38.96z"/>
	<path d="M-513.26,43.59V17.92h15.11v4.63h-9.63v5.28h9.63v4.66h-9.63v6.43h9.63v4.66H-513.26z"/>
	<path d="M-486.58,43.59l9.77-25.67h6.28l9.91,25.67h-6.24l-2.09-5.45h-9.94l-1.79,5.45H-486.58z M-470.24,33.83l-2.88-8.29
		c-0.08-0.25-0.19-0.67-0.32-1.26c-0.13-0.6-0.26-1.33-0.4-2.19c-0.15,0.83-0.3,1.58-0.44,2.24c-0.14,0.66-0.25,1.1-0.32,1.32
		l-2.77,8.19H-470.24z"/>
	<path d="M-446.71,30.06h11.69c0.02,0.15,0.04,0.32,0.04,0.49c0.01,0.18,0.01,0.44,0.01,0.81c0,3.85-1.1,6.96-3.3,9.35
		c-2.2,2.38-5.04,3.58-8.52,3.58c-3.99,0-7.27-1.27-9.85-3.81c-2.58-2.54-3.88-5.77-3.88-9.69c0-3.88,1.3-7.09,3.89-9.63
		c2.6-2.54,5.87-3.8,9.84-3.8c2.09,0,4.01,0.44,5.75,1.32c1.74,0.88,3.3,2.19,4.66,3.93l-3.7,2.74c-0.92-1.15-1.89-1.97-2.91-2.48
		s-2.19-0.76-3.52-0.76c-2.54,0-4.57,0.79-6.08,2.37c-1.52,1.58-2.28,3.69-2.28,6.33c0,2.6,0.76,4.69,2.29,6.29
		c1.53,1.6,3.52,2.39,5.97,2.39c1.8,0,3.26-0.42,4.38-1.27c1.12-0.85,1.68-1.96,1.68-3.32v-0.28h-6.17V30.06z"/>
	<path d="M-405.23,30.81c0,1.84-0.34,3.57-1.03,5.21c-0.68,1.64-1.67,3.07-2.95,4.31c-1.33,1.27-2.83,2.25-4.51,2.93
		s-3.4,1.02-5.19,1.02c-1.57,0-3.1-0.27-4.6-0.8c-1.5-0.53-2.88-1.29-4.13-2.29c-1.61-1.29-2.85-2.82-3.71-4.61
		c-0.86-1.79-1.29-3.71-1.29-5.77c0-1.85,0.34-3.58,1.02-5.2c0.68-1.62,1.67-3.06,2.98-4.32c1.29-1.25,2.78-2.22,4.48-2.91
		c1.7-0.69,3.45-1.03,5.25-1.03c1.79,0,3.53,0.35,5.22,1.03c1.69,0.69,3.18,1.66,4.48,2.91c1.3,1.26,2.29,2.71,2.96,4.33
		C-405.57,27.24-405.23,28.97-405.23,30.81z M-418.91,39.38c2.33,0,4.25-0.82,5.76-2.45s2.27-3.67,2.27-6.13
		c0-2.43-0.77-4.48-2.3-6.14c-1.53-1.66-3.44-2.49-5.73-2.49c-2.33,0-4.26,0.83-5.79,2.48c-1.53,1.65-2.3,3.7-2.3,6.15
		c0,2.48,0.75,4.53,2.26,6.15S-421.28,39.38-418.91,39.38z"/>
	<path d="M-403.15,40.33l3.05-3.45c0.39,0.95,1,1.69,1.86,2.24c0.85,0.54,1.81,0.82,2.88,0.82c1.29,0,2.3-0.3,3.05-0.91
		c0.75-0.61,1.12-1.43,1.12-2.45c0-1.22-1.24-2.43-3.73-3.63c-0.81-0.39-1.44-0.7-1.91-0.95c-2.24-1.17-3.8-2.31-4.66-3.43
		c-0.86-1.12-1.3-2.45-1.3-3.99c0-2.12,0.84-3.85,2.52-5.22c1.68-1.36,3.85-2.04,6.53-2.04c1.55,0,2.9,0.27,4.02,0.82
		c1.13,0.54,2.12,1.39,2.99,2.55l-3.24,3.1c-0.39-0.75-0.9-1.31-1.53-1.67c-0.64-0.37-1.41-0.55-2.31-0.55
		c-1.09,0-1.96,0.27-2.63,0.82c-0.67,0.54-1,1.25-1,2.11c0,1.36,1.32,2.59,3.96,3.72c0.53,0.22,0.93,0.4,1.21,0.53
		c2.17,0.99,3.78,2.12,4.83,3.37c1.05,1.25,1.57,2.68,1.57,4.28c0,2.41-0.82,4.33-2.46,5.76c-1.64,1.43-3.85,2.15-6.62,2.15
		c-1.96,0-3.65-0.34-5.05-1.02C-401.41,42.58-402.46,41.6-403.15,40.33z"/>
	<path d="M-372.7,22.59v21.01h-5.51V22.59h-6.28v-4.66h18.06v4.66H-372.7z"/>
	<path d="M-338.07,30.81c0,1.84-0.34,3.57-1.03,5.21c-0.68,1.64-1.67,3.07-2.95,4.31c-1.33,1.27-2.83,2.25-4.51,2.93
		s-3.4,1.02-5.19,1.02c-1.57,0-3.1-0.27-4.6-0.8c-1.5-0.53-2.88-1.29-4.13-2.29c-1.61-1.29-2.85-2.82-3.71-4.61
		c-0.86-1.79-1.29-3.71-1.29-5.77c0-1.85,0.34-3.58,1.02-5.2c0.68-1.62,1.67-3.06,2.98-4.32c1.29-1.25,2.78-2.22,4.48-2.91
		c1.7-0.69,3.45-1.03,5.25-1.03c1.79,0,3.53,0.35,5.22,1.03c1.69,0.69,3.18,1.66,4.48,2.91c1.3,1.26,2.29,2.71,2.96,4.33
		C-338.41,27.24-338.07,28.97-338.07,30.81z M-351.75,39.38c2.33,0,4.25-0.82,5.76-2.45s2.27-3.67,2.27-6.13
		c0-2.43-0.77-4.48-2.3-6.14c-1.53-1.66-3.44-2.49-5.73-2.49c-2.33,0-4.25,0.83-5.79,2.48c-1.53,1.65-2.3,3.7-2.3,6.15
		c0,2.48,0.75,4.53,2.26,6.15C-356.06,38.57-354.12,39.38-351.75,39.38z"/>
</g>
<g>
	<g>
		<polygon points="-622.23,59.44 -637.01,59.44 -637.01,109.25 -204.69,109.25 -219.47,59.44 		"/>
		<g>
			<polygon points="-307.19,59.44 -292.43,59.44 -292.43,109.25 -724.16,109.25 -709.4,59.44 			"/>
		</g>
	</g>
	<g>
		<path class="st0" d="M-688.66,86.51c0.33,0.57,0.71,0.99,1.14,1.26c0.43,0.27,0.94,0.41,1.52,0.41c0.62,0,1.11-0.17,1.46-0.5
			c0.35-0.34,0.53-0.8,0.53-1.39c0-0.38-0.1-0.72-0.3-1.02c-0.2-0.3-0.51-0.56-0.92-0.79c-0.1-0.06-0.25-0.14-0.45-0.25
			c-1.14-0.62-1.91-1.15-2.3-1.59c-0.28-0.32-0.5-0.69-0.65-1.11c-0.15-0.42-0.22-0.86-0.22-1.34c0-1.2,0.43-2.2,1.29-3
			c0.86-0.8,1.95-1.2,3.26-1.2c0.79,0,1.49,0.15,2.11,0.44s1.14,0.74,1.57,1.33l-1.49,1.93c-0.25-0.46-0.55-0.81-0.91-1.04
			c-0.36-0.23-0.78-0.34-1.25-0.34c-0.54,0-0.98,0.15-1.33,0.46c-0.35,0.31-0.53,0.71-0.53,1.19c0,0.63,0.58,1.27,1.73,1.92
			c0.22,0.13,0.39,0.22,0.5,0.29c1.04,0.61,1.75,1.21,2.13,1.8c0.37,0.59,0.56,1.35,0.56,2.28c0,1.3-0.44,2.35-1.32,3.14
			c-0.88,0.8-2.04,1.2-3.49,1.2c-0.88,0-1.67-0.17-2.35-0.52c-0.69-0.35-1.3-0.88-1.84-1.6L-688.66,86.51z"/>
		<path class="st0" d="M-681.33,90.24l7.2-13.9h3.17l3.34,13.9h-3.09l-0.59-2.99h-5.29l-1.5,2.99H-681.33z M-671.84,84.97
			l-0.67-3.29c-0.06-0.34-0.12-0.74-0.17-1.22c-0.05-0.48-0.1-1.05-0.14-1.71c-0.14,0.51-0.29,0.98-0.45,1.41s-0.33,0.84-0.5,1.21
			l-1.69,3.6H-671.84z"/>
		<path class="st0" d="M-666.58,90.24l1.83-13.9h2.92l-1.52,11.43h4.82l-0.32,2.47H-666.58z"/>
		<path class="st0" d="M-657.53,90.24l1.82-13.9h2.92l-1.82,13.9H-657.53z"/>
		<path class="st0" d="M-649.9,90.24l1.51-11.47H-652l0.32-2.43h9.87l-0.31,2.43h-3.36l-1.5,11.47H-649.9z"/>
		<path class="st0" d="M-639.33,90.24h-2.93l1.83-13.9h2.9c1.21,0,2.08,0.06,2.62,0.19c0.53,0.13,1,0.34,1.41,0.65
			c0.45,0.33,0.79,0.73,1.03,1.21c0.23,0.48,0.35,1.01,0.35,1.59c0,1.06-0.3,1.94-0.9,2.63c-0.6,0.69-1.46,1.16-2.58,1.41l3.15,6.22
			h-3.19l-2.86-6.38L-639.33,90.24z M-638.3,82.35h0.43c1.1,0,1.85-0.15,2.25-0.45c0.4-0.3,0.59-0.82,0.59-1.55
			c0-0.63-0.17-1.07-0.5-1.32c-0.33-0.25-0.98-0.38-1.95-0.38h-0.33L-638.3,82.35z"/>
		<path class="st0" d="M-631.4,90.24l1.83-13.9h8.26l-0.3,2.45H-627l-0.41,3.13h5.38l-0.31,2.39h-5.38l-0.46,3.49h5.39l-0.33,2.45
			H-631.4z"/>
		<path class="st0" d="M-621.38,92.05l7.43-16.02h1.93l-7.43,16.02H-621.38z"/>
		<path class="st0" d="M-600.3,80.57c-0.41-0.68-0.92-1.2-1.53-1.56c-0.61-0.36-1.3-0.54-2.05-0.54c-1.39,0-2.53,0.51-3.44,1.53
			c-0.91,1.02-1.36,2.31-1.36,3.87c0,1.29,0.37,2.31,1.12,3.07s1.74,1.14,2.99,1.14c0.86,0,1.61-0.24,2.26-0.71
			c0.64-0.47,1.11-1.13,1.4-1.98h-3.3l0.31-2.43h6.31c-0.15,2.43-0.84,4.31-2.09,5.65c-1.25,1.33-2.93,2-5.05,2
			c-2.1,0-3.78-0.61-5.03-1.82c-1.25-1.21-1.88-2.84-1.88-4.88c0-1,0.18-1.98,0.54-2.94c0.36-0.96,0.87-1.81,1.52-2.56
			c0.67-0.78,1.5-1.37,2.48-1.78s2.07-0.61,3.26-0.61c1.35,0,2.5,0.24,3.47,0.73s1.74,1.22,2.34,2.2L-600.3,80.57z"/>
		<path class="st0" d="M-592.03,76.34l-1.05,7.85c-0.03,0.2-0.04,0.42-0.06,0.65c-0.01,0.23-0.02,0.49-0.02,0.77
			c0,0.86,0.21,1.5,0.63,1.94c0.42,0.44,1.03,0.66,1.84,0.66c0.57,0,1.07-0.12,1.5-0.35c0.43-0.23,0.79-0.57,1.07-1.03
			c0.35-0.58,0.64-1.72,0.86-3.4c0.01-0.1,0.02-0.16,0.03-0.2l0.93-6.9h2.88l-1.03,7.82c-0.17,1.29-0.37,2.24-0.58,2.85
			c-0.22,0.62-0.52,1.16-0.9,1.64c-0.55,0.68-1.23,1.18-2.04,1.5c-0.81,0.32-1.78,0.48-2.92,0.48c-1.75,0-3.06-0.4-3.92-1.19
			c-0.86-0.79-1.29-1.99-1.29-3.58c0-0.23,0.03-0.62,0.08-1.16c0.05-0.54,0.13-1.22,0.23-2.01l0.84-6.35H-592.03z"/>
		<path class="st0" d="M-584.38,90.24l7.2-13.9h3.17l3.34,13.9h-3.09l-0.59-2.99h-5.29l-1.5,2.99H-584.38z M-574.88,84.97
			l-0.67-3.29c-0.06-0.34-0.12-0.74-0.17-1.22c-0.05-0.48-0.1-1.05-0.14-1.71c-0.14,0.51-0.29,0.98-0.45,1.41s-0.33,0.84-0.5,1.21
			l-1.69,3.6H-574.88z"/>
		<path class="st0" d="M-568.76,86.51c0.33,0.57,0.71,0.99,1.14,1.26c0.43,0.27,0.94,0.41,1.52,0.41c0.62,0,1.11-0.17,1.46-0.5
			c0.35-0.34,0.53-0.8,0.53-1.39c0-0.38-0.1-0.72-0.3-1.02c-0.2-0.3-0.51-0.56-0.92-0.79c-0.1-0.06-0.25-0.14-0.45-0.25
			c-1.14-0.62-1.91-1.15-2.3-1.59c-0.28-0.32-0.5-0.69-0.65-1.11c-0.15-0.42-0.22-0.86-0.22-1.34c0-1.2,0.43-2.2,1.29-3
			c0.86-0.8,1.95-1.2,3.26-1.2c0.79,0,1.49,0.15,2.11,0.44s1.14,0.74,1.57,1.33l-1.49,1.93c-0.25-0.46-0.55-0.81-0.91-1.04
			c-0.36-0.23-0.78-0.34-1.25-0.34c-0.54,0-0.98,0.15-1.33,0.46c-0.35,0.31-0.53,0.71-0.53,1.19c0,0.63,0.58,1.27,1.73,1.92
			c0.22,0.13,0.39,0.22,0.5,0.29c1.04,0.61,1.75,1.21,2.13,1.8c0.37,0.59,0.56,1.35,0.56,2.28c0,1.3-0.44,2.35-1.32,3.14
			c-0.88,0.8-2.04,1.2-3.49,1.2c-0.88,0-1.67-0.17-2.35-0.52c-0.69-0.35-1.3-0.88-1.84-1.6L-568.76,86.51z"/>
		<path class="st0" d="M-549.03,89.74c-0.58,0.29-1.21,0.51-1.89,0.66s-1.39,0.22-2.16,0.22c-2.04,0-3.68-0.61-4.92-1.82
			c-1.24-1.21-1.87-2.81-1.87-4.79c0-1.03,0.17-2.02,0.52-2.95c0.35-0.94,0.85-1.78,1.5-2.52c0.73-0.82,1.6-1.45,2.61-1.88
			s2.11-0.65,3.31-0.65c0.85,0,1.64,0.1,2.38,0.31c0.74,0.21,1.44,0.53,2.09,0.95l-0.41,2.73c-0.7-0.51-1.39-0.88-2.05-1.12
			c-0.67-0.24-1.34-0.36-2.01-0.36c-1.46,0-2.66,0.5-3.59,1.5c-0.93,1-1.4,2.28-1.4,3.85c0,1.29,0.37,2.31,1.1,3.07
			c0.73,0.76,1.72,1.14,2.96,1.14c0.8,0,1.55-0.11,2.24-0.33s1.33-0.55,1.91-1L-549.03,89.74z"/>
		<path class="st0" d="M-548.18,90.24l7.2-13.9h3.17l3.34,13.9h-3.09l-0.59-2.99h-5.29l-1.5,2.99H-548.18z M-538.68,84.97
			l-0.67-3.29c-0.06-0.34-0.12-0.74-0.17-1.22c-0.05-0.48-0.1-1.05-0.14-1.71c-0.14,0.51-0.29,0.98-0.45,1.41s-0.33,0.84-0.5,1.21
			l-1.69,3.6H-538.68z"/>
		<path class="st0" d="M-527.88,86.81l0.31-2.39h5.44l-0.3,2.39H-527.88z"/>
		<path class="st0" d="M-509.97,90.24l0.35-2.67h-5.66l0.29-2.19l7.12-8.91h2.35l-1.18,9h1.49l-0.29,2.1h-1.47l-0.35,2.67H-509.97z
			 M-509.29,85.48l0.57-4.03c0.01-0.11,0.05-0.32,0.1-0.62s0.13-0.64,0.22-1.02l-0.06,0.08c-0.53,0.76-0.87,1.24-1.03,1.45
			l-3.23,4.14H-509.29z"/>
		<path class="st0" d="M-498.84,90.24l1.83-13.9h8.26l-0.3,2.45h-5.39l-0.41,3.13h5.38l-0.31,2.39h-5.38l-0.46,3.49h5.39l-0.33,2.45
			H-498.84z"/>
		<path class="st0" d="M-487.36,86.51c0.33,0.57,0.71,0.99,1.14,1.26c0.43,0.27,0.94,0.41,1.52,0.41c0.62,0,1.11-0.17,1.46-0.5
			c0.35-0.34,0.53-0.8,0.53-1.39c0-0.38-0.1-0.72-0.3-1.02c-0.2-0.3-0.51-0.56-0.92-0.79c-0.1-0.06-0.25-0.14-0.45-0.25
			c-1.14-0.62-1.91-1.15-2.3-1.59c-0.28-0.32-0.5-0.69-0.65-1.11c-0.15-0.42-0.22-0.86-0.22-1.34c0-1.2,0.43-2.2,1.29-3
			s1.95-1.2,3.26-1.2c0.79,0,1.49,0.15,2.11,0.44s1.14,0.74,1.57,1.33l-1.49,1.93c-0.25-0.46-0.55-0.81-0.91-1.04
			c-0.36-0.23-0.78-0.34-1.25-0.34c-0.54,0-0.98,0.15-1.33,0.46s-0.53,0.71-0.53,1.19c0,0.63,0.58,1.27,1.73,1.92
			c0.22,0.13,0.39,0.22,0.5,0.29c1.04,0.61,1.75,1.21,2.13,1.8c0.37,0.59,0.56,1.35,0.56,2.28c0,1.3-0.44,2.35-1.32,3.14
			c-0.88,0.8-2.04,1.2-3.49,1.2c-0.88,0-1.67-0.17-2.36-0.52s-1.3-0.88-1.84-1.6L-487.36,86.51z"/>
		<path class="st0" d="M-465.41,91.58h-3.03l-0.82-1.3c-0.46,0.11-0.89,0.19-1.3,0.25s-0.77,0.09-1.12,0.09
			c-2.05,0-3.7-0.61-4.95-1.84c-1.25-1.22-1.88-2.84-1.88-4.86c0-0.98,0.18-1.94,0.53-2.87c0.35-0.93,0.86-1.77,1.51-2.52
			c0.73-0.82,1.61-1.44,2.62-1.88s2.1-0.65,3.28-0.65c2.07,0,3.74,0.6,5,1.8c1.26,1.2,1.89,2.79,1.89,4.75
			c0,1.4-0.28,2.66-0.83,3.77c-0.55,1.12-1.36,2.06-2.42,2.82L-465.41,91.58z M-472.56,84.9h3.03l1.21,1.96
			c0.57-0.59,0.99-1.23,1.27-1.92c0.28-0.69,0.42-1.45,0.42-2.27c0-1.25-0.37-2.26-1.11-3.01c-0.74-0.75-1.72-1.13-2.96-1.13
			c-1.39,0-2.54,0.51-3.45,1.52c-0.92,1.01-1.37,2.29-1.37,3.83c0,1.28,0.37,2.3,1.11,3.06s1.72,1.14,2.94,1.14
			c0.12,0,0.33-0.02,0.64-0.06c0.09-0.01,0.15-0.02,0.18-0.03L-472.56,84.9z"/>
		<path class="st0" d="M-458.03,76.34l-1.05,7.85c-0.03,0.2-0.04,0.42-0.06,0.65c-0.01,0.23-0.02,0.49-0.02,0.77
			c0,0.86,0.21,1.5,0.63,1.94c0.42,0.44,1.03,0.66,1.84,0.66c0.57,0,1.07-0.12,1.5-0.35c0.43-0.23,0.79-0.57,1.07-1.03
			c0.35-0.58,0.64-1.72,0.86-3.4c0.01-0.1,0.02-0.16,0.03-0.2l0.93-6.9h2.88l-1.03,7.82c-0.17,1.29-0.37,2.24-0.58,2.85
			c-0.22,0.62-0.52,1.16-0.9,1.64c-0.55,0.68-1.23,1.18-2.04,1.5c-0.81,0.32-1.78,0.48-2.92,0.48c-1.75,0-3.06-0.4-3.92-1.19
			c-0.86-0.79-1.29-1.99-1.29-3.58c0-0.23,0.03-0.62,0.08-1.16c0.05-0.54,0.13-1.22,0.23-2.01l0.84-6.35H-458.03z"/>
		<path class="st0" d="M-448.71,90.24l1.82-13.9h2.92l-1.82,13.9H-448.71z"/>
		<path class="st0" d="M-443.21,90.24l1.83-13.9h3.03l4.3,7.17c0.46,0.79,0.79,1.38,0.99,1.78s0.35,0.78,0.47,1.13
			c0.03-0.66,0.06-1.24,0.09-1.74c0.04-0.5,0.08-0.9,0.11-1.19l0.96-7.14h2.74l-1.84,13.9h-2.82l-4.79-8.09
			c-0.3-0.49-0.54-0.93-0.72-1.3c-0.18-0.37-0.34-0.73-0.47-1.07v0.45c0,0.48-0.01,0.93-0.04,1.38c-0.03,0.44-0.06,0.86-0.11,1.25
			l-1.04,7.39H-443.21z"/>
		<path class="st0" d="M-429.22,90.24l7.2-13.9h3.17l3.34,13.9h-3.09l-0.59-2.99h-5.29l-1.5,2.99H-429.22z M-419.73,84.97
			l-0.67-3.29c-0.06-0.34-0.12-0.74-0.17-1.22c-0.05-0.48-0.1-1.05-0.14-1.71c-0.14,0.51-0.29,0.98-0.45,1.41s-0.33,0.84-0.5,1.21
			l-1.69,3.6H-419.73z"/>
		<path class="st0" d="M-413.6,86.51c0.33,0.57,0.71,0.99,1.14,1.26c0.43,0.27,0.94,0.41,1.52,0.41c0.62,0,1.11-0.17,1.46-0.5
			c0.35-0.34,0.53-0.8,0.53-1.39c0-0.38-0.1-0.72-0.3-1.02c-0.2-0.3-0.51-0.56-0.92-0.79c-0.1-0.06-0.25-0.14-0.45-0.25
			c-1.14-0.62-1.91-1.15-2.3-1.59c-0.28-0.32-0.5-0.69-0.65-1.11c-0.15-0.42-0.22-0.86-0.22-1.34c0-1.2,0.43-2.2,1.29-3
			s1.95-1.2,3.26-1.2c0.79,0,1.49,0.15,2.11,0.44s1.14,0.74,1.57,1.33l-1.49,1.93c-0.25-0.46-0.55-0.81-0.91-1.04
			c-0.36-0.23-0.78-0.34-1.25-0.34c-0.54,0-0.98,0.15-1.33,0.46s-0.53,0.71-0.53,1.19c0,0.63,0.58,1.27,1.73,1.92
			c0.22,0.13,0.39,0.22,0.5,0.29c1.04,0.61,1.75,1.21,2.13,1.8c0.37,0.59,0.56,1.35,0.56,2.28c0,1.3-0.44,2.35-1.32,3.14
			c-0.88,0.8-2.04,1.2-3.49,1.2c-0.88,0-1.67-0.17-2.36-0.52s-1.3-0.88-1.84-1.6L-413.6,86.51z"/>
		<path class="st0" d="M-399.45,86.81l0.31-2.39h5.44l-0.3,2.39H-399.45z"/>
		<path class="st0" d="M-388.07,90.24l7.2-13.9h3.17l3.34,13.9h-3.09l-0.59-2.99h-5.29l-1.5,2.99H-388.07z M-378.57,84.97
			l-0.67-3.29c-0.06-0.34-0.12-0.74-0.17-1.22c-0.05-0.48-0.1-1.05-0.14-1.71c-0.14,0.51-0.29,0.98-0.45,1.41s-0.33,0.84-0.5,1.21
			l-1.69,3.6H-378.57z"/>
		<path class="st0" d="M-373.32,90.24l1.83-13.9h2.92l-1.52,11.43h4.83l-0.32,2.47H-373.32z"/>
		<path class="st0" d="M-363.25,90.24l1.51-11.47h-3.61l0.32-2.43h9.87l-0.31,2.43h-3.36l-1.5,11.47H-363.25z"/>
		<path class="st0" d="M-349.15,90.61c-2.08,0-3.75-0.61-5-1.82c-1.25-1.21-1.88-2.83-1.88-4.85c0-0.99,0.18-1.95,0.53-2.89
			c0.35-0.94,0.86-1.78,1.51-2.52c0.73-0.82,1.61-1.44,2.62-1.88c1.01-0.43,2.1-0.65,3.28-0.65c2.08,0,3.75,0.6,5,1.8
			c1.25,1.2,1.88,2.79,1.88,4.77c0,1.03-0.16,2-0.48,2.91c-0.32,0.91-0.78,1.71-1.39,2.42c-0.77,0.89-1.67,1.56-2.7,2.02
			C-346.81,90.38-347.93,90.61-349.15,90.61z M-348.26,78.53c-1.38,0-2.53,0.5-3.44,1.51c-0.91,1.01-1.37,2.28-1.37,3.81
			c0,1.29,0.37,2.32,1.11,3.08c0.74,0.76,1.72,1.14,2.96,1.14c1.37,0,2.52-0.51,3.43-1.54c0.92-1.03,1.37-2.3,1.37-3.82
			c0-1.29-0.37-2.31-1.1-3.06C-346.03,78.91-347.02,78.53-348.26,78.53z"/>
		<path class="st0" d="M-334.92,90.24l1.83-13.9h2.92c1.65,0,2.81,0.05,3.5,0.16c0.68,0.1,1.26,0.28,1.72,0.52
			c0.98,0.51,1.72,1.27,2.24,2.28c0.52,1.01,0.78,2.21,0.78,3.6c0,1.35-0.23,2.51-0.7,3.47c-0.46,0.97-1.2,1.81-2.19,2.54
			c-0.67,0.48-1.44,0.82-2.32,1.03c-0.88,0.21-2.25,0.31-4.11,0.31h-1.11H-334.92z M-331.69,87.75c0.04,0,0.1,0,0.17,0
			c0.67,0.03,1.14,0.04,1.42,0.04c1.01,0,1.81-0.09,2.39-0.26c0.58-0.17,1.07-0.46,1.46-0.87c0.43-0.45,0.76-1.01,0.98-1.68
			s0.34-1.42,0.34-2.26c0-1.37-0.29-2.35-0.87-2.96c-0.58-0.6-1.53-0.91-2.86-0.91h-1.87L-331.69,87.75z"/>
		<path class="st0" d="M-320.99,90.24l1.83-13.9h8.26l-0.3,2.45h-5.39l-0.41,3.13h5.38l-0.31,2.39h-5.38l-0.46,3.49h5.39l-0.33,2.45
			H-320.99z"/>
		<path class="st0" d="M-306.37,90.24l7.2-13.9h3.17l3.34,13.9h-3.09l-0.59-2.99h-5.29l-1.5,2.99H-306.37z M-296.87,84.97
			l-0.66-3.29c-0.06-0.34-0.12-0.74-0.17-1.22c-0.05-0.48-0.1-1.05-0.14-1.71c-0.14,0.51-0.29,0.98-0.45,1.41s-0.33,0.84-0.5,1.21
			l-1.69,3.6H-296.87z"/>
		<path class="st0" d="M-288.68,90.24h-2.92l1.83-13.9h2.9c1.21,0,2.08,0.06,2.62,0.19s1,0.34,1.41,0.65
			c0.45,0.33,0.79,0.73,1.03,1.21s0.35,1.01,0.35,1.59c0,1.06-0.3,1.94-0.9,2.63c-0.6,0.69-1.46,1.16-2.58,1.41l3.15,6.22h-3.19
			l-2.86-6.38L-288.68,90.24z M-287.66,82.35h0.43c1.1,0,1.85-0.15,2.25-0.45c0.4-0.3,0.59-0.82,0.59-1.55
			c0-0.63-0.17-1.07-0.5-1.32c-0.33-0.25-0.98-0.38-1.95-0.38h-0.33L-287.66,82.35z"/>
		<path class="st0" d="M-280.75,90.24l1.83-13.9h8.26l-0.3,2.45h-5.39l-0.41,3.13h5.38l-0.31,2.39h-5.38l-0.46,3.49h5.39l-0.33,2.45
			H-280.75z"/>
		<path class="st0" d="M-267.21,90.24h-2.92l1.83-13.9h2.69c1.31,0,2.24,0.07,2.78,0.21c0.54,0.14,1.02,0.37,1.43,0.7
			c0.46,0.36,0.8,0.8,1.04,1.33c0.24,0.53,0.36,1.12,0.36,1.77c0,0.77-0.14,1.46-0.41,2.07s-0.68,1.13-1.22,1.54
			c-0.44,0.35-0.97,0.6-1.57,0.75c-0.6,0.15-1.49,0.23-2.64,0.23h-0.67L-267.21,90.24z M-266.21,82.56h0.45
			c1.1,0,1.85-0.16,2.25-0.48c0.4-0.32,0.59-0.86,0.59-1.62c0-0.65-0.17-1.1-0.49-1.36c-0.33-0.26-0.98-0.39-1.96-0.39h-0.33
			L-266.21,82.56z"/>
		<path class="st0" d="M-262.26,90.24l7.2-13.9h3.17l3.34,13.9h-3.09l-0.59-2.99h-5.29l-1.5,2.99H-262.26z M-252.76,84.97
			l-0.67-3.29c-0.06-0.34-0.12-0.74-0.17-1.22c-0.05-0.48-0.1-1.05-0.14-1.71c-0.14,0.51-0.29,0.98-0.45,1.41s-0.33,0.84-0.5,1.21
			l-1.69,3.6H-252.76z"/>
		<path class="st0" d="M-246.64,86.51c0.33,0.57,0.71,0.99,1.14,1.26c0.43,0.27,0.94,0.41,1.52,0.41c0.62,0,1.11-0.17,1.46-0.5
			c0.35-0.34,0.53-0.8,0.53-1.39c0-0.38-0.1-0.72-0.3-1.02c-0.2-0.3-0.51-0.56-0.92-0.79c-0.1-0.06-0.25-0.14-0.45-0.25
			c-1.14-0.62-1.91-1.15-2.3-1.59c-0.29-0.32-0.5-0.69-0.65-1.11c-0.15-0.42-0.22-0.86-0.22-1.34c0-1.2,0.43-2.2,1.29-3
			s1.95-1.2,3.26-1.2c0.79,0,1.49,0.15,2.11,0.44c0.61,0.29,1.14,0.74,1.57,1.33l-1.49,1.93c-0.25-0.46-0.55-0.81-0.91-1.04
			c-0.36-0.23-0.78-0.34-1.25-0.34c-0.54,0-0.98,0.15-1.33,0.46s-0.53,0.71-0.53,1.19c0,0.63,0.58,1.27,1.73,1.92
			c0.22,0.13,0.39,0.22,0.5,0.29c1.04,0.61,1.75,1.21,2.13,1.8c0.37,0.59,0.56,1.35,0.56,2.28c0,1.3-0.44,2.35-1.32,3.14
			c-0.88,0.8-2.04,1.2-3.49,1.2c-0.88,0-1.67-0.17-2.36-0.52s-1.3-0.88-1.84-1.6L-246.64,86.51z"/>
	</g>
	<g>
		<path d="M-616.9-13.53v0.17c0,0.51,0.17,0.93,0.51,1.25c0.34,0.32,0.78,0.48,1.31,0.48c0.65,0,1.19-0.2,1.6-0.61
			c0.41-0.41,0.62-0.93,0.62-1.56c0-0.61-0.23-1.08-0.68-1.41c-0.46-0.33-1.13-0.5-2.01-0.54l0.28-2.36
			c0.04,0.01,0.1,0.01,0.15,0.01c0.06,0,0.14,0,0.26,0c0.77,0,1.38-0.17,1.81-0.51c0.44-0.34,0.66-0.81,0.66-1.41
			c0-0.49-0.15-0.88-0.46-1.17s-0.73-0.43-1.27-0.43c-0.49,0-0.9,0.14-1.23,0.42s-0.53,0.66-0.6,1.14h-2.51
			c0.16-1.17,0.64-2.08,1.44-2.75c0.8-0.67,1.83-1.01,3.07-1.01c1.28,0,2.31,0.32,3.1,0.95c0.79,0.63,1.18,1.46,1.18,2.48
			c0,0.87-0.26,1.62-0.77,2.25c-0.51,0.63-1.22,1.06-2.13,1.31c0.83,0.26,1.45,0.66,1.87,1.21c0.41,0.55,0.62,1.24,0.62,2.07
			c0,1.2-0.46,2.18-1.39,2.96c-0.93,0.78-2.13,1.16-3.61,1.16c-1.38,0-2.45-0.36-3.22-1.07c-0.77-0.71-1.18-1.73-1.23-3.05H-616.9z"
			/>
		<path d="M-598.18-17.91c0,2.56-0.54,4.62-1.6,6.18c-1.07,1.56-2.47,2.34-4.2,2.34c-1.39,0-2.46-0.51-3.21-1.52
			c-0.75-1.02-1.12-2.48-1.12-4.39c0-2.54,0.53-4.59,1.58-6.15c1.05-1.56,2.43-2.35,4.12-2.35c1.44,0,2.54,0.5,3.3,1.51
			S-598.18-19.82-598.18-17.91z M-602.75-21.31c-0.82,0-1.48,0.59-1.98,1.79c-0.51,1.19-0.76,2.77-0.76,4.74
			c0,0.98,0.14,1.71,0.42,2.19c0.28,0.48,0.71,0.72,1.29,0.72c0.84,0,1.51-0.58,2.01-1.73c0.5-1.16,0.76-2.72,0.76-4.69
			c0-1.03-0.14-1.79-0.42-2.28C-601.72-21.07-602.16-21.31-602.75-21.31z"/>
		<path d="M-592.06-9.76l1.83-13.9h2.92l-0.84,6.26l5.43-6.26h3.44l-5.94,6.67l4.19,7.24h-3.27l-3.93-7.02l-0.91,7.02H-592.06z"/>
		<path d="M-579.91-9.76l1.82-13.9h2.92L-577-9.76H-579.91z"/>
		<path d="M-574.42-9.76l1.83-13.9h2.92l-1.52,11.43h4.82l-0.32,2.47H-574.42z"/>
		<path d="M-559.34-9.39c-2.08,0-3.75-0.61-5-1.82c-1.25-1.21-1.88-2.83-1.88-4.85c0-0.99,0.18-1.95,0.53-2.89
			c0.35-0.94,0.86-1.78,1.51-2.52c0.73-0.82,1.61-1.44,2.62-1.88c1.01-0.43,2.1-0.65,3.28-0.65c2.08,0,3.75,0.6,5,1.8
			c1.25,1.2,1.88,2.79,1.88,4.77c0,1.03-0.16,2-0.48,2.91c-0.32,0.91-0.78,1.71-1.39,2.42c-0.77,0.89-1.67,1.56-2.7,2.02
			C-557-9.62-558.12-9.39-559.34-9.39z M-558.44-21.47c-1.38,0-2.53,0.5-3.44,1.51c-0.91,1.01-1.37,2.28-1.37,3.81
			c0,1.29,0.37,2.32,1.11,3.08c0.74,0.76,1.72,1.14,2.96,1.14c1.37,0,2.52-0.51,3.43-1.54c0.92-1.03,1.37-2.3,1.37-3.82
			c0-1.29-0.37-2.31-1.1-3.06C-556.22-21.09-557.2-21.47-558.44-21.47z"/>
		<path d="M-551.28-9.76l3.93-13.9h3.08l1.32,6.35c0.09,0.49,0.18,1.04,0.25,1.66c0.07,0.62,0.13,1.29,0.18,2.01
			c0.15-0.56,0.32-1.11,0.51-1.64s0.4-1.04,0.64-1.54l3.12-6.85h3.19l0.18,13.9h-2.74l0.08-6.5c0.01-0.73,0.04-1.46,0.08-2.2
			c0.04-0.74,0.1-1.49,0.18-2.25c-0.25,0.73-0.5,1.41-0.75,2.05c-0.25,0.64-0.5,1.22-0.75,1.74l-3.4,7.16h-1.58l-1.69-7.82
			c-0.08-0.4-0.16-0.88-0.23-1.44c-0.07-0.56-0.13-1.18-0.18-1.86c-0.15,0.85-0.27,1.52-0.36,2.02c-0.09,0.5-0.17,0.85-0.23,1.06
			l-1.95,8.03H-551.28z"/>
		<path d="M-533.3-9.76l1.83-13.9h8.26l-0.3,2.45h-5.39l-0.41,3.12h5.38l-0.31,2.39h-5.38l-0.46,3.49h5.39l-0.33,2.45H-533.3z"/>
		<path d="M-520.56-9.76l1.51-11.47h-3.61l0.32-2.43h9.87l-0.31,2.43h-3.36l-1.5,11.47H-520.56z"/>
		<path d="M-509.98-9.76h-2.93l1.83-13.9h2.9c1.21,0,2.08,0.06,2.62,0.19c0.53,0.13,1,0.34,1.41,0.65c0.45,0.33,0.79,0.73,1.03,1.21
			c0.23,0.48,0.35,1.01,0.35,1.59c0,1.06-0.3,1.94-0.9,2.63s-1.46,1.16-2.58,1.41l3.15,6.22h-3.19l-2.86-6.38L-509.98-9.76z
			 M-508.95-17.65h0.43c1.1,0,1.85-0.15,2.25-0.45c0.4-0.3,0.59-0.82,0.59-1.55c0-0.63-0.17-1.07-0.5-1.32
			c-0.33-0.25-0.98-0.38-1.95-0.38h-0.33L-508.95-17.65z"/>
		<path d="M-494.91-9.39c-2.08,0-3.75-0.61-5-1.82c-1.25-1.21-1.88-2.83-1.88-4.85c0-0.99,0.18-1.95,0.53-2.89
			c0.35-0.94,0.86-1.78,1.51-2.52c0.73-0.82,1.61-1.44,2.62-1.88s2.1-0.65,3.28-0.65c2.08,0,3.75,0.6,5,1.8
			c1.25,1.2,1.88,2.79,1.88,4.77c0,1.03-0.16,2-0.48,2.91c-0.32,0.91-0.78,1.71-1.39,2.42c-0.77,0.89-1.67,1.56-2.7,2.02
			S-493.69-9.39-494.91-9.39z M-494.02-21.47c-1.38,0-2.53,0.5-3.44,1.51c-0.91,1.01-1.37,2.28-1.37,3.81
			c0,1.29,0.37,2.32,1.11,3.08s1.72,1.14,2.96,1.14c1.37,0,2.52-0.51,3.43-1.54c0.92-1.03,1.37-2.3,1.37-3.82
			c0-1.29-0.37-2.31-1.1-3.06C-491.79-21.09-492.78-21.47-494.02-21.47z"/>
		<path d="M-485.1-13.49c0.33,0.57,0.71,0.99,1.14,1.26s0.94,0.41,1.52,0.41c0.62,0,1.11-0.17,1.46-0.5
			c0.35-0.34,0.53-0.8,0.53-1.39c0-0.38-0.1-0.72-0.3-1.02c-0.2-0.3-0.51-0.56-0.92-0.79c-0.1-0.06-0.25-0.14-0.45-0.25
			c-1.14-0.62-1.91-1.15-2.3-1.59c-0.29-0.32-0.5-0.69-0.65-1.11c-0.15-0.42-0.22-0.86-0.22-1.34c0-1.2,0.43-2.2,1.29-3
			c0.86-0.8,1.95-1.2,3.26-1.2c0.79,0,1.49,0.15,2.11,0.44c0.61,0.29,1.14,0.74,1.57,1.32l-1.49,1.93
			c-0.25-0.46-0.55-0.81-0.91-1.04c-0.36-0.23-0.78-0.34-1.25-0.34c-0.54,0-0.98,0.16-1.33,0.47c-0.35,0.31-0.53,0.71-0.53,1.19
			c0,0.63,0.58,1.27,1.73,1.92c0.22,0.13,0.39,0.22,0.5,0.29c1.04,0.61,1.75,1.22,2.13,1.8c0.37,0.59,0.56,1.35,0.56,2.28
			c0,1.3-0.44,2.35-1.32,3.14s-2.04,1.2-3.49,1.2c-0.88,0-1.67-0.17-2.35-0.52c-0.69-0.35-1.3-0.88-1.84-1.6L-485.1-13.49z"/>
		<path d="M-471.2-9.76l1.83-13.9h2.92c1.65,0,2.81,0.05,3.5,0.16s1.26,0.28,1.72,0.52c0.98,0.51,1.72,1.27,2.24,2.28
			c0.52,1.01,0.78,2.21,0.78,3.6c0,1.35-0.23,2.51-0.7,3.48c-0.46,0.97-1.2,1.81-2.19,2.54c-0.67,0.48-1.44,0.83-2.32,1.03
			c-0.88,0.21-2.25,0.31-4.11,0.31h-1.11H-471.2z M-467.97-12.25c0.04,0,0.1,0,0.17,0c0.67,0.03,1.14,0.04,1.42,0.04
			c1.01,0,1.81-0.09,2.39-0.26c0.58-0.17,1.07-0.46,1.46-0.87c0.43-0.45,0.76-1.01,0.98-1.68c0.22-0.67,0.34-1.42,0.34-2.25
			c0-1.37-0.29-2.35-0.87-2.96c-0.58-0.6-1.53-0.91-2.86-0.91h-1.87L-467.97-12.25z"/>
		<path d="M-457.27-9.76l1.83-13.9h8.26l-0.3,2.45h-5.39l-0.41,3.12h5.38l-0.31,2.39h-5.38l-0.46,3.49h5.39L-449-9.76H-457.27z"/>
		<path d="M-438.44-9.76h-2.92l1.83-13.9h2.69c1.31,0,2.24,0.07,2.78,0.21c0.54,0.14,1.02,0.37,1.43,0.7
			c0.46,0.36,0.8,0.8,1.04,1.33c0.24,0.53,0.36,1.12,0.36,1.77c0,0.77-0.14,1.46-0.41,2.07s-0.68,1.13-1.22,1.54
			c-0.44,0.35-0.97,0.6-1.57,0.75c-0.6,0.15-1.49,0.23-2.64,0.23h-0.67L-438.44-9.76z M-437.43-17.44h0.45
			c1.1,0,1.85-0.16,2.25-0.48c0.4-0.32,0.59-0.86,0.59-1.62c0-0.65-0.17-1.1-0.49-1.36s-0.98-0.39-1.96-0.39h-0.33L-437.43-17.44z"
			/>
		<path d="M-426.15-23.66l-1.05,7.85c-0.03,0.2-0.04,0.42-0.06,0.66c-0.01,0.23-0.02,0.49-0.02,0.77c0,0.85,0.21,1.5,0.63,1.94
			c0.42,0.44,1.03,0.66,1.84,0.66c0.57,0,1.07-0.12,1.5-0.35s0.79-0.57,1.07-1.03c0.35-0.58,0.64-1.72,0.86-3.4
			c0.01-0.09,0.02-0.16,0.03-0.2l0.93-6.9h2.88l-1.03,7.82c-0.17,1.29-0.37,2.24-0.58,2.85c-0.22,0.62-0.52,1.16-0.9,1.64
			c-0.55,0.68-1.23,1.18-2.04,1.5c-0.81,0.32-1.78,0.48-2.92,0.48c-1.75,0-3.06-0.4-3.92-1.19c-0.86-0.79-1.29-1.98-1.29-3.58
			c0-0.23,0.03-0.61,0.08-1.16c0.05-0.54,0.13-1.22,0.23-2.01l0.84-6.35H-426.15z"/>
		<path d="M-413.95-9.76h-2.92l1.83-13.9h2.9c1.21,0,2.08,0.06,2.62,0.19c0.54,0.13,1,0.34,1.41,0.65c0.45,0.33,0.79,0.73,1.03,1.21
			c0.23,0.48,0.35,1.01,0.35,1.59c0,1.06-0.3,1.94-0.9,2.63c-0.6,0.69-1.46,1.16-2.58,1.41l3.15,6.22h-3.19l-2.86-6.38L-413.95-9.76
			z M-412.93-17.65h0.43c1.1,0,1.85-0.15,2.25-0.45s0.59-0.82,0.59-1.55c0-0.63-0.17-1.07-0.5-1.32c-0.33-0.25-0.98-0.38-1.95-0.38
			h-0.33L-412.93-17.65z"/>
		<path d="M-407.31-9.76l7.2-13.9h3.17l3.34,13.9h-3.09l-0.59-2.99h-5.29l-1.5,2.99H-407.31z M-397.81-15.03l-0.67-3.29
			c-0.06-0.34-0.12-0.74-0.17-1.22c-0.05-0.48-0.1-1.05-0.14-1.71c-0.14,0.51-0.29,0.98-0.45,1.41s-0.33,0.84-0.5,1.21l-1.69,3.6
			H-397.81z"/>
		<path d="M-376.15-10.26c-0.58,0.29-1.21,0.51-1.88,0.66c-0.67,0.15-1.39,0.22-2.16,0.22c-2.04,0-3.68-0.61-4.92-1.82
			c-1.24-1.21-1.87-2.81-1.87-4.79c0-1.03,0.17-2.02,0.52-2.95c0.35-0.94,0.85-1.78,1.5-2.52c0.73-0.82,1.6-1.45,2.61-1.88
			s2.11-0.65,3.31-0.65c0.85,0,1.64,0.1,2.38,0.31s1.44,0.53,2.09,0.95l-0.41,2.73c-0.7-0.51-1.39-0.88-2.05-1.12
			c-0.67-0.24-1.34-0.36-2.01-0.36c-1.46,0-2.66,0.5-3.59,1.5c-0.93,1-1.4,2.28-1.4,3.85c0,1.29,0.37,2.31,1.1,3.07
			c0.73,0.76,1.72,1.14,2.96,1.14c0.8,0,1.55-0.11,2.24-0.33c0.69-0.22,1.33-0.55,1.91-1L-376.15-10.26z"/>
		<path d="M-375.3-9.76l7.2-13.9h3.17l3.34,13.9h-3.09l-0.59-2.99h-5.29l-1.5,2.99H-375.3z M-365.8-15.03l-0.67-3.29
			c-0.06-0.34-0.12-0.74-0.17-1.22c-0.05-0.48-0.1-1.05-0.14-1.71c-0.14,0.51-0.29,0.98-0.45,1.41s-0.33,0.84-0.5,1.21l-1.69,3.6
			H-365.8z"/>
		<path d="M-360.54-9.76l1.83-13.9h3.03l4.3,7.17c0.46,0.79,0.79,1.38,0.99,1.78c0.2,0.4,0.35,0.78,0.48,1.13
			c0.03-0.66,0.06-1.24,0.09-1.74c0.04-0.5,0.08-0.9,0.11-1.19l0.96-7.14h2.74l-1.84,13.9h-2.82l-4.79-8.09
			c-0.3-0.49-0.54-0.93-0.72-1.3c-0.18-0.37-0.34-0.73-0.46-1.07v0.45c0,0.48-0.01,0.93-0.04,1.38c-0.03,0.44-0.06,0.86-0.11,1.25
			l-1.04,7.39H-360.54z"/>
		<path d="M-345.27-9.76l1.83-13.9h2.92c1.65,0,2.81,0.05,3.5,0.16s1.26,0.28,1.72,0.52c0.98,0.51,1.72,1.27,2.24,2.28
			c0.52,1.01,0.78,2.21,0.78,3.6c0,1.35-0.23,2.51-0.7,3.48c-0.46,0.97-1.2,1.81-2.19,2.54c-0.67,0.48-1.44,0.83-2.32,1.03
			c-0.88,0.21-2.25,0.31-4.11,0.31h-1.11H-345.27z M-342.04-12.25c0.04,0,0.1,0,0.17,0c0.67,0.03,1.14,0.04,1.42,0.04
			c1.01,0,1.81-0.09,2.39-0.26c0.58-0.17,1.07-0.46,1.46-0.87c0.43-0.45,0.76-1.01,0.98-1.68c0.22-0.67,0.34-1.42,0.34-2.25
			c0-1.37-0.29-2.35-0.87-2.96c-0.58-0.6-1.53-0.91-2.86-0.91h-1.87L-342.04-12.25z"/>
		<path d="M-331.34-9.76l1.83-13.9h8.26l-0.3,2.45h-5.39l-0.41,3.12h5.38l-0.31,2.39h-5.38l-0.46,3.49h5.39l-0.33,2.45H-331.34z"/>
		<path d="M-320.73-9.76l1.83-13.9h2.92l-1.52,11.43h4.82l-0.32,2.47H-320.73z"/>
		<path d="M-313.01-9.76l7.2-13.9h3.17l3.34,13.9h-3.09l-0.59-2.99h-5.29l-1.5,2.99H-313.01z M-303.51-15.03l-0.67-3.29
			c-0.06-0.34-0.12-0.74-0.17-1.22c-0.05-0.48-0.1-1.05-0.14-1.71c-0.14,0.51-0.29,0.98-0.45,1.41s-0.33,0.84-0.5,1.21l-1.69,3.6
			H-303.51z"/>
	</g>
</g>
<g>
	<polygon class="st1" points="-542.34,-131.15 -547.7,-131.15 -554.11,-80.8 -542.34,-80.8 -390.63,-80.8 -385.26,-131.15 	"/>
	<g>
		<path class="st0" d="M-518.19-89.99c-1.24,0.62-2.57,1.08-4.01,1.39c-1.43,0.31-2.97,0.46-4.59,0.46c-4.34,0-7.83-1.29-10.47-3.88
			c-2.65-2.58-3.97-5.98-3.97-10.18c0-2.19,0.37-4.29,1.11-6.28c0.74-1.99,1.8-3.78,3.19-5.35c1.55-1.75,3.4-3.08,5.54-4
			c2.15-0.92,4.49-1.37,7.04-1.37c1.8,0,3.49,0.22,5.06,0.67c1.57,0.44,3.05,1.12,4.45,2.02l-0.87,5.8
			c-1.49-1.08-2.95-1.87-4.36-2.38c-1.41-0.51-2.84-0.77-4.28-0.77c-3.11,0-5.65,1.06-7.63,3.19c-1.98,2.13-2.97,4.85-2.97,8.18
			c0,2.73,0.78,4.91,2.34,6.52c1.56,1.62,3.66,2.42,6.3,2.42c1.71,0,3.29-0.23,4.76-0.7c1.46-0.46,2.82-1.17,4.07-2.13
			L-518.19-89.99z"/>
		<path class="st0" d="M-508.46-88.92h-6.22l3.9-29.56h6.16c2.57,0,4.43,0.13,5.56,0.4c1.14,0.27,2.14,0.73,3,1.37
			c0.96,0.7,1.68,1.56,2.18,2.57c0.5,1.02,0.75,2.14,0.75,3.38c0,2.26-0.64,4.13-1.91,5.6c-1.27,1.47-3.1,2.47-5.48,3l6.7,13.23
			h-6.79l-6.08-13.57L-508.46-88.92z M-506.28-105.7h0.91c2.34,0,3.93-0.32,4.78-0.96c0.84-0.64,1.26-1.74,1.26-3.3
			c0-1.33-0.35-2.27-1.06-2.81c-0.71-0.54-2.09-0.81-4.15-0.81h-0.71L-506.28-105.7z"/>
		<path class="st0" d="M-477.45-88.13c-4.43,0-7.98-1.29-10.64-3.88c-2.67-2.58-4-6.02-4-10.32c0-2.1,0.38-4.15,1.13-6.14
			c0.75-1.99,1.82-3.78,3.21-5.35c1.56-1.74,3.42-3.07,5.56-3.99c2.15-0.92,4.47-1.38,6.98-1.38c4.43,0,7.98,1.28,10.64,3.83
			c2.67,2.55,4,5.93,4,10.15c0,2.19-0.34,4.26-1.02,6.19c-0.68,1.93-1.67,3.65-2.96,5.14c-1.63,1.88-3.54,3.32-5.73,4.29
			C-472.48-88.62-474.87-88.13-477.45-88.13z M-475.55-113.82c-2.93,0-5.37,1.07-7.31,3.22c-1.94,2.15-2.91,4.85-2.91,8.11
			c0,2.75,0.78,4.93,2.35,6.55c1.57,1.62,3.67,2.43,6.29,2.43c2.92,0,5.35-1.09,7.3-3.27c1.95-2.18,2.92-4.89,2.92-8.12
			c0-2.73-0.78-4.9-2.34-6.51C-470.81-113.02-472.91-113.82-475.55-113.82z"/>
		<path class="st0" d="M-459.47-88.92l3.9-29.56h6.44l9.15,15.25c0.98,1.67,1.68,2.93,2.1,3.78c0.42,0.85,0.75,1.65,1.01,2.4
			c0.05-1.4,0.12-2.64,0.2-3.71c0.08-1.07,0.16-1.91,0.24-2.53l2.04-15.19h5.82l-3.92,29.56h-6l-10.18-17.2
			c-0.63-1.05-1.14-1.97-1.54-2.77c-0.39-0.79-0.72-1.55-0.99-2.28v0.95c0,1.01-0.03,1.99-0.08,2.93c-0.05,0.94-0.13,1.83-0.24,2.67
			l-2.2,15.71H-459.47z"/>
		<path class="st0" d="M-412.85-88.13c-4.43,0-7.98-1.29-10.64-3.88c-2.67-2.58-4-6.02-4-10.32c0-2.1,0.38-4.15,1.13-6.14
			c0.75-1.99,1.82-3.78,3.21-5.35c1.56-1.74,3.42-3.07,5.56-3.99c2.15-0.92,4.47-1.38,6.98-1.38c4.43,0,7.98,1.28,10.64,3.83
			c2.67,2.55,4,5.93,4,10.15c0,2.19-0.34,4.26-1.02,6.19c-0.68,1.93-1.67,3.65-2.96,5.14c-1.63,1.88-3.54,3.32-5.73,4.29
			C-407.87-88.62-410.26-88.13-412.85-88.13z M-410.95-113.82c-2.93,0-5.37,1.07-7.31,3.22c-1.94,2.15-2.91,4.85-2.91,8.11
			c0,2.75,0.78,4.93,2.35,6.55c1.57,1.62,3.67,2.43,6.29,2.43c2.92,0,5.35-1.09,7.3-3.27c1.95-2.18,2.92-4.89,2.92-8.12
			c0-2.73-0.78-4.9-2.34-6.51C-406.21-113.02-408.31-113.82-410.95-113.82z"/>
	</g>
	<g>
		<path d="M-445.27-72.03c-0.08-0.75-0.15-1.64-0.22-2.68c-0.22,0.79-0.45,1.53-0.7,2.21c-0.25,0.68-0.51,1.31-0.79,1.89l-2.64,5.63
			h5.66l-1.04-5.14C-445.11-70.64-445.19-71.28-445.27-72.03z"/>
		<path d="M-478.9-72.03c-0.08-0.75-0.15-1.64-0.22-2.68c-0.22,0.79-0.45,1.53-0.7,2.21c-0.25,0.68-0.51,1.31-0.79,1.89l-2.64,5.63
			h5.66l-1.04-5.14C-478.73-70.64-478.82-71.28-478.9-72.03z"/>
		<path d="M-426.7-74.53h-2.93l-1.83,13.9c0.06,0,0.15,0,0.27,0c1.04,0.04,1.78,0.06,2.23,0.06c1.58,0,2.83-0.14,3.74-0.41
			c0.91-0.27,1.67-0.73,2.29-1.36c0.67-0.7,1.19-1.58,1.54-2.62c0.35-1.04,0.53-2.22,0.53-3.53c0-2.14-0.45-3.68-1.36-4.63
			C-423.13-74.06-424.62-74.53-426.7-74.53z"/>
		<path d="M-537.81-86.4h-5.2l-6.22,35.93h11.42h147.34l5.22-35.93H-537.81z M-526.14-66.02h-8.42l-0.71,5.45h8.44l-0.52,3.83
			h-12.94l2.87-21.74h12.92l-0.48,3.83h-8.44l-0.64,4.89h8.41L-526.14-66.02z M-516.48-69.79c0.35,0.2,0.61,0.35,0.79,0.46
			c1.63,0.96,2.74,1.9,3.33,2.82c0.58,0.92,0.88,2.11,0.88,3.56c0,2.03-0.69,3.67-2.06,4.92c-1.37,1.25-3.19,1.87-5.46,1.87
			c-1.38,0-2.6-0.27-3.68-0.82c-1.08-0.54-2.04-1.38-2.88-2.5l2.47-3.1c0.51,0.89,1.11,1.55,1.78,1.98
			c0.67,0.43,1.47,0.64,2.38,0.64c0.97,0,1.73-0.26,2.28-0.79c0.55-0.52,0.82-1.25,0.82-2.17c0-0.59-0.16-1.12-0.48-1.59
			s-0.8-0.88-1.44-1.23c-0.16-0.09-0.39-0.22-0.7-0.39c-1.78-0.97-2.98-1.8-3.59-2.48c-0.45-0.51-0.78-1.08-1.02-1.73
			c-0.23-0.65-0.35-1.35-0.35-2.1c0-1.87,0.67-3.43,2.02-4.69c1.35-1.25,3.04-1.88,5.09-1.88c1.24,0,2.34,0.23,3.3,0.69
			c0.96,0.46,1.78,1.15,2.45,2.07l-2.33,3.01c-0.39-0.72-0.86-1.26-1.43-1.62s-1.22-0.53-1.96-0.53c-0.84,0-1.54,0.24-2.09,0.73
			c-0.55,0.49-0.82,1.1-0.82,1.86C-519.18-71.81-518.28-70.81-516.48-69.79z M-493.02-57.52c-0.91,0.46-1.89,0.8-2.95,1.02
			c-1.05,0.23-2.18,0.34-3.38,0.34c-3.19,0-5.75-0.95-7.7-2.85c-1.95-1.9-2.92-4.4-2.92-7.48c0-1.61,0.27-3.15,0.82-4.62
			c0.54-1.47,1.33-2.78,2.35-3.94c1.14-1.29,2.5-2.27,4.08-2.94c1.58-0.67,3.3-1.01,5.18-1.01c1.33,0,2.57,0.16,3.72,0.49
			c1.15,0.33,2.24,0.82,3.27,1.49l-0.64,4.26c-1.1-0.79-2.17-1.38-3.21-1.75c-1.04-0.38-2.09-0.56-3.15-0.56
			c-2.29,0-4.16,0.78-5.61,2.35c-1.46,1.56-2.18,3.57-2.18,6.01c0,2.01,0.57,3.61,1.72,4.8c1.15,1.19,2.69,1.78,4.63,1.78
			c1.26,0,2.42-0.17,3.5-0.51c1.07-0.34,2.07-0.86,2.99-1.57L-493.02-57.52z M-475.83-56.74l-0.92-4.68h-8.27l-2.35,4.68h-5.08
			l11.26-21.74h4.96l5.23,21.74H-475.83z M-442.2-56.74l-0.92-4.68h-8.27l-2.35,4.68h-4.3h-0.78h-11.31l2.87-21.74h4.56l-2.38,17.88
			h7.54l-0.24,1.85l10.22-19.73h4.96l5.23,21.74H-442.2z M-420.72-58.83c-1.04,0.75-2.25,1.29-3.63,1.61
			c-1.38,0.32-3.52,0.48-6.42,0.48h-1.74h-3.99l2.87-21.74h4.56c2.57,0,4.4,0.08,5.46,0.25c1.07,0.16,1.97,0.43,2.69,0.81
			c1.52,0.8,2.69,1.99,3.5,3.56c0.81,1.57,1.22,3.45,1.22,5.63c0,2.11-0.36,3.92-1.09,5.44C-418.02-61.28-419.16-59.96-420.72-58.83
			z M-401.4-56.74l-0.92-4.68h-8.27l-2.35,4.68h-5.08l11.26-21.74h4.96l5.23,21.74H-401.4z"/>
		<path d="M-404.47-72.03c-0.08-0.75-0.15-1.64-0.22-2.68c-0.22,0.79-0.45,1.53-0.7,2.21c-0.25,0.68-0.51,1.31-0.79,1.89l-2.64,5.63
			h5.66l-1.04-5.14C-404.31-70.64-404.4-71.28-404.47-72.03z"/>
	</g>
	<g>
		<radialGradient id="SVGID_1_" cx="-396.2639" cy="-152.7957" r="52.0651" gradientUnits="userSpaceOnUse">
			<stop  offset="0" style="stop-color:#E8C84C"/>
			<stop  offset="0.9949" style="stop-color:#DD9D34"/>
		</radialGradient>
		<path class="st2" d="M-395.65-147.44c0,0-11.71,10.57-2.08,21.81c9.63,11.24,15.15,22.16,6.27,36.57c0,0,4.32-12.72-7.08-24.61
			C-407.05-122.53-414.37-137.28-395.65-147.44z"/>
		<radialGradient id="SVGID_2_" cx="-396.3987" cy="-145.4412" r="39.4486" gradientUnits="userSpaceOnUse">
			<stop  offset="0" style="stop-color:#E0A433"/>
			<stop  offset="0.9949" style="stop-color:#D27C35"/>
		</radialGradient>
		<path class="st3" d="M-389.29-97.29c-0.41-4.89-2.32-11.22-8.22-17.37c-3.6-3.75-9.47-11.2-8.27-18.86
			c0.44-2.85,1.86-5.48,4.22-7.87c-1.93,4.45-2.59,10.49,2.74,16.7c5.53,6.45,8.54,11.54,9.77,16.51
			C-388.16-104.59-388.23-100.98-389.29-97.29z"/>
		<radialGradient id="SVGID_3_" cx="-396.2642" cy="-152.7953" r="52.0648" gradientUnits="userSpaceOnUse">
			<stop  offset="0" style="stop-color:#E8C84C"/>
			<stop  offset="0.9949" style="stop-color:#DD9D34"/>
		</radialGradient>
		<path class="st4" d="M-379.51-155.61c0,0-18.92,2.81-17.12,21.54c1.8,18.73,24.66,23.04,6.93,46.27c0,0,25.12-6.3,22.6-26.46
			C-369.62-134.43-392.64-138.26-379.51-155.61z"/>
		
			<radialGradient id="SVGID_4_" cx="-392.7654" cy="-150.2835" r="41.8831" gradientTransform="matrix(0.999 0.045 -0.045 0.999 -5.7501 24.2515)" gradientUnits="userSpaceOnUse">
			<stop  offset="0" style="stop-color:#E0A433"/>
			<stop  offset="0.9949" style="stop-color:#D27C35"/>
		</radialGradient>
		<path class="st5" d="M-385.97-90.78c7.85-11.16,3.7-17.62-0.68-24.42c-2.63-4.1-5.36-8.33-5.65-14.02
			c-0.55-10.9,7.11-14.8,11.58-16.14c-4.82,7.74-0.83,12.99,3.36,18.52c3.27,4.31,6.98,9.2,7.54,16.23
			c0.54,6.81-2.56,12.38-9.21,16.54C-381.48-92.52-384-91.46-385.97-90.78z"/>
		
			<radialGradient id="SVGID_5_" cx="-391.69" cy="-151.0939" r="34.5123" gradientTransform="matrix(0.9955 0.095 -0.095 0.9955 -12.9805 50.9283)" gradientUnits="userSpaceOnUse">
			<stop  offset="0" style="stop-color:#D0742E"/>
			<stop  offset="0.9949" style="stop-color:#C4422E"/>
		</radialGradient>
		<path class="st6" d="M-383.76-92.31c4.53-8.62,1.12-15.23-1.95-21.18c-2.2-4.26-4.28-8.29-4.05-13.4
			c0.27-6.03,3.08-9.37,6.41-11.21c-1.9,6.11,1.33,11.32,4.24,16.04c2.82,4.56,5.74,9.28,5.64,15.7c-0.1,6.05-3.22,10.53-9.54,13.69
			C-383.26-92.55-383.51-92.43-383.76-92.31z"/>
	</g>
</g>
<g>
	<g>
		<polygon class="st1" points="68.65,22.21 62.49,22.21 62.49,72.01 242.68,72.01 236.52,22.21 		"/>
		<g>
			<polygon class="st1" points="199.96,22.21 206.11,22.21 206.11,72.01 26.17,72.01 32.32,22.21 			"/>
		</g>
	</g>
</g>
<g>
	<path class="st0" d="M81.41,53l1.82-13.9h2.92L84.33,53H81.41z"/>
	<path class="st0" d="M86.91,53l1.83-13.9h3.03l4.3,7.17c0.46,0.79,0.79,1.38,0.99,1.78c0.2,0.4,0.35,0.78,0.47,1.13
		c0.03-0.66,0.06-1.24,0.09-1.74c0.04-0.5,0.08-0.9,0.11-1.19l0.96-7.14h2.74L99.6,53h-2.82l-4.79-8.09
		c-0.3-0.49-0.54-0.93-0.72-1.3c-0.18-0.37-0.34-0.73-0.47-1.07v0.45c0,0.48-0.01,0.93-0.04,1.38c-0.03,0.44-0.06,0.86-0.11,1.25
		L89.62,53H86.91z"/>
	<path class="st0" d="M103.04,49.27c0.33,0.57,0.71,0.99,1.14,1.26s0.94,0.41,1.52,0.41c0.62,0,1.11-0.17,1.46-0.5
		c0.35-0.34,0.53-0.8,0.53-1.39c0-0.38-0.1-0.72-0.3-1.02c-0.2-0.3-0.51-0.56-0.92-0.79c-0.1-0.06-0.25-0.14-0.45-0.25
		c-1.14-0.62-1.91-1.15-2.3-1.59c-0.28-0.32-0.5-0.69-0.65-1.11s-0.22-0.86-0.22-1.34c0-1.2,0.43-2.2,1.29-3s1.95-1.2,3.26-1.2
		c0.79,0,1.49,0.15,2.11,0.44c0.61,0.29,1.14,0.74,1.57,1.32l-1.49,1.93c-0.25-0.46-0.55-0.81-0.91-1.04
		c-0.36-0.23-0.78-0.34-1.25-0.34c-0.54,0-0.98,0.16-1.33,0.47s-0.53,0.71-0.53,1.19c0,0.63,0.58,1.27,1.73,1.92
		c0.22,0.13,0.39,0.22,0.5,0.29c1.04,0.61,1.75,1.22,2.13,1.8s0.56,1.35,0.56,2.28c0,1.3-0.44,2.35-1.32,3.14s-2.04,1.2-3.49,1.2
		c-0.88,0-1.67-0.17-2.36-0.52c-0.69-0.35-1.3-0.88-1.84-1.6L103.04,49.27z"/>
	<path class="st0" d="M122.77,52.5c-0.58,0.29-1.21,0.51-1.89,0.66c-0.67,0.15-1.39,0.22-2.16,0.22c-2.04,0-3.68-0.61-4.92-1.82
		c-1.24-1.21-1.87-2.81-1.87-4.79c0-1.03,0.17-2.02,0.52-2.95c0.35-0.94,0.85-1.78,1.5-2.52c0.73-0.82,1.6-1.45,2.61-1.88
		s2.11-0.65,3.31-0.65c0.85,0,1.64,0.1,2.38,0.31c0.74,0.21,1.44,0.53,2.09,0.95l-0.41,2.73c-0.7-0.51-1.39-0.88-2.05-1.12
		c-0.67-0.24-1.34-0.36-2.01-0.36c-1.46,0-2.66,0.5-3.59,1.5c-0.93,1-1.4,2.28-1.4,3.85c0,1.29,0.37,2.31,1.1,3.07
		s1.72,1.14,2.96,1.14c0.8,0,1.55-0.11,2.24-0.33c0.69-0.22,1.33-0.55,1.91-1L122.77,52.5z"/>
	<path class="st0" d="M127.83,53h-2.93l1.83-13.9h2.9c1.21,0,2.08,0.06,2.62,0.19c0.53,0.13,1,0.34,1.41,0.65
		c0.45,0.33,0.79,0.73,1.03,1.21c0.23,0.48,0.35,1.01,0.35,1.59c0,1.06-0.3,1.94-0.9,2.63s-1.46,1.16-2.58,1.41l3.15,6.22h-3.19
		l-2.86-6.38L127.83,53z M128.85,45.11h0.43c1.1,0,1.85-0.15,2.25-0.45c0.4-0.3,0.59-0.82,0.59-1.55c0-0.63-0.17-1.07-0.5-1.32
		c-0.33-0.25-0.98-0.38-1.95-0.38h-0.33L128.85,45.11z"/>
	<path class="st0" d="M135.8,53l1.82-13.9h2.92L138.72,53H135.8z"/>
	<path class="st0" d="M141.3,53l1.83-13.9h2.88c1.21,0,2.09,0.06,2.64,0.19c0.55,0.13,1.02,0.34,1.41,0.65
		c0.39,0.31,0.69,0.67,0.89,1.09c0.2,0.42,0.3,0.88,0.3,1.4c0,0.9-0.26,1.65-0.79,2.24c-0.53,0.59-1.24,0.96-2.15,1.08
		c0.89,0.13,1.58,0.47,2.08,1.01c0.5,0.54,0.75,1.22,0.75,2.05c0,0.72-0.15,1.37-0.46,1.96c-0.3,0.58-0.74,1.06-1.32,1.44
		c-0.44,0.29-0.98,0.5-1.62,0.62c-0.65,0.12-1.73,0.18-3.24,0.18H141.3z M144.47,50.71h0.57c1.21,0,2.05-0.15,2.51-0.45
		c0.46-0.3,0.7-0.81,0.7-1.53c0-0.61-0.19-1.05-0.58-1.31c-0.39-0.26-1.11-0.38-2.18-0.38h-0.52L144.47,50.71z M145.7,41.37
		l-0.45,3.37h0.31c1.08,0,1.83-0.14,2.24-0.42c0.41-0.28,0.62-0.75,0.62-1.42c0-0.57-0.17-0.97-0.5-1.2
		c-0.33-0.23-0.99-0.34-1.97-0.34H145.7z"/>
	<path class="st0" d="M152.16,53l1.82-13.9h2.92L155.08,53H152.16z"/>
	<path class="st0" d="M160.58,53h-2.92l1.83-13.9h2.9c1.21,0,2.08,0.06,2.62,0.19c0.54,0.13,1,0.34,1.41,0.65
		c0.45,0.33,0.79,0.73,1.03,1.21c0.23,0.48,0.35,1.01,0.35,1.59c0,1.06-0.3,1.94-0.9,2.63c-0.6,0.69-1.46,1.16-2.58,1.41l3.15,6.22
		h-3.19l-2.86-6.38L160.58,53z M161.61,45.11h0.43c1.1,0,1.85-0.15,2.25-0.45s0.59-0.82,0.59-1.55c0-0.63-0.17-1.07-0.5-1.32
		c-0.33-0.25-0.98-0.38-1.95-0.38h-0.33L161.61,45.11z"/>
	<path class="st0" d="M169.37,49.27c0.33,0.57,0.71,0.99,1.14,1.26s0.94,0.41,1.52,0.41c0.62,0,1.11-0.17,1.46-0.5
		c0.35-0.34,0.53-0.8,0.53-1.39c0-0.38-0.1-0.72-0.3-1.02c-0.2-0.3-0.51-0.56-0.92-0.79c-0.1-0.06-0.25-0.14-0.45-0.25
		c-1.14-0.62-1.91-1.15-2.3-1.59c-0.28-0.32-0.5-0.69-0.65-1.11s-0.22-0.86-0.22-1.34c0-1.2,0.43-2.2,1.29-3s1.95-1.2,3.26-1.2
		c0.79,0,1.49,0.15,2.11,0.44c0.61,0.29,1.14,0.74,1.57,1.32l-1.49,1.93c-0.25-0.46-0.55-0.81-0.91-1.04
		c-0.36-0.23-0.78-0.34-1.25-0.34c-0.54,0-0.98,0.16-1.33,0.47s-0.53,0.71-0.53,1.19c0,0.63,0.58,1.27,1.73,1.92
		c0.22,0.13,0.39,0.22,0.5,0.29c1.04,0.61,1.75,1.22,2.13,1.8s0.56,1.35,0.56,2.28c0,1.3-0.44,2.35-1.32,3.14s-2.04,1.2-3.49,1.2
		c-0.88,0-1.67-0.17-2.36-0.52c-0.69-0.35-1.3-0.88-1.84-1.6L169.37,49.27z"/>
	<path class="st0" d="M177.99,53l1.83-13.9h8.26l-0.3,2.45h-5.39l-0.41,3.12h5.38l-0.31,2.39h-5.38l-0.46,3.49h5.39L186.26,53
		H177.99z"/>
</g>
</svg>
