<?xml version="1.0" encoding="utf-8"?>
<!-- Generator: Adobe Illustrator 23.0.3, SVG Export Plug-In . SVG Version: 6.00 Build 0)  -->
<svg version="1.1" id="Capa_1" xmlns="http://www.w3.org/2000/svg" xmlns:xlink="http://www.w3.org/1999/xlink" x="0px" y="0px"
	 viewBox="0 0 663.32 279.94" style="enable-background:new 0 0 663.32 279.94;" xml:space="preserve">
<style type="text/css">
	.st0{fill:#070308;}
</style>
<g>
	<g>
		<g>
			<path class="st0" d="M36.89,158.02c0-43.33,90.52-78.66,173.82-79.43l-16.51-34.56c-79.95,0-170.47,45.39-170.47,110.64
				c0,27.85,16.25,81.24,106.77,81.24c62.41,0,106.77-27.6,115.54-36.62l-5.93-5.16C166.1,216.31,36.89,209.34,36.89,158.02z"/>
			<path class="st0" d="M648.11,163.46c-1.03-27.34-43.59-23.04-35.59-42.01h-25.79c-4.38,9.49-4.48,11.77-2.19,15.44
				c-3.75,8.34-8.78,17.3-13.03,17.3c-10.32,0-2.06-23.25,0.26-32.74h-25.79c-4.64,14.23-10.57,33.78-16.76,33.78
				c-9.28,0-2.58-19.56,1.81-33.78h-25.79c-0.45,0,0.63-0.94,0.63,0.12v-0.1c-9.49,14.96-14.11,29.29-18.76,29.29
				c-8.51,0-5.35-29.32,6.52-62.52H466.3c-7.17,18.97-12.11,28.53-14.26,43.26c-11.34,18.49-26,29.05-38.35,29.05
				c-5.99,0-10.24-2.04-11.99-7.21c16.6,2.74,35.72-7.02,35.72-20.75c0-10.83-12.38-15.41-24.24-15.41
				c-17.14,0-34.8,9.65-40.29,26.81c-2.43,4.39-5,7.8-8.19,7.8c-12.64,0,2.58-34.55-15.73-34.55c-18.05,0-21.15,34.56-29.92,34.56
				c-11.35,0,2.06-34.56-17.28-34.56c-19.08,0-21.92,34.56-30.69,34.56c-11.09,0,6.19-47.45-28.63-31.46
				c-2.58,9.8-11.61,33.04-19.34,33.04c-9.03,0-3.87-22.47-1.29-31.95h-27.34c-0.65,0-3.48,7.86-4.45,10.51l0.07-1.06
				c-1.03-2.58-3.35-13-17.54-13c-34.56,0-40.23,62.74-14.18,62.74c11.68,0,23.71-12.97,29.73-27.61
				c0.52,15.11,5.85,27.48,17.46,27.48c12.52,0,24.14-16.2,30.45-26.74c0.75,11.47,3.63,26.71,16.74,26.71
				c10.45,0,21.27-10.85,30.13-25.41c0.71,11.46,3.74,25.4,16.55,25.4c10.69,0,21.56-9.6,30.28-24.73
				c1.28,14.42,6.07,24.73,16.66,24.73c10.79,0,19.28-10.8,25.14-19.92c2.09,13.52,12.74,19.92,27.73,19.92
				c16.2,0,35.71-8.6,51.6-29.84c0.4,16.98,5.68,29.84,17,29.84c10.87,0,21.74-12.1,29.18-24.16c0.08,13.61,4.37,24.16,14.92,24.16
				c11.2,0,20.79-11.42,26.87-26.26c0.49,13.31,4.86,26.26,16.72,26.26c13.38,0,26.54-15.94,35.58-39.82
				c10.56,5.18,27.82,6.22,28.12,19.45c0.26,9.8-9.03,13.15-18.57,12.64l0.26,7.74l19.6,7.23
				C626.19,187.69,648.89,183.06,648.11,163.46z M175.9,152.09c-3.35,0-4.64-2.32-4.64-5.93c0-10.3,11.43-19.66,16.54-9.9
				C184.37,144.61,180.25,152.09,175.9,152.09z M408.78,130.94c6.54,0,0.81,13.11-7.99,16.74c0-0.08-0.01-0.15-0.01-0.23
				C400.79,138.16,404.4,130.94,408.78,130.94z"/>
		</g>
		<g>
			<path class="st0" d="M268.74,217.09c-1.32,0.37-2.82,0.42-5,0.42c-0.91,0-3.14-0.05-4.07-0.05c-1.72,0-2.55,0.05-2.55,0.05
				l0.22-0.42c0.49-0.91,0.61-1.1,0.61-8.46c0-7.13-0.1-7.23-0.61-8.21l-0.22-0.42c0,0,0.88,0.05,2.31,0.05
				c0.83,0,2.92-0.05,3.7-0.05c4.19,0,8.24,0.1,8.24,4.17c0,3.31-2.84,4.1-4.31,4.22c2.57,0.07,4.88,1.15,4.88,4.24
				C271.93,215.48,270.21,216.7,268.74,217.09z M263.57,202.51c-0.64,0-0.86,0.05-0.86,0.05v4.73c0,0,0.22,0.02,0.91,0.02
				c0.56,0,1.08-0.07,1.52-0.22c0.81-0.29,1.32-0.96,1.32-2.18C266.46,202.97,265.41,202.51,263.57,202.51z M263.87,209.81
				c-0.71,0-1.15,0.05-1.15,0.05v5.03c0,0,0.2,0.07,1.15,0.07c0.66,0,1.25-0.07,1.72-0.27c0.81-0.32,1.3-1.01,1.3-2.35
				C266.88,210.35,265.73,209.81,263.87,209.81z"/>
			<path class="st0" d="M285.68,216.48l-0.05,1.01H275.6c-1.32,0-1.89,0.02-1.89,0.02l0.22-0.42c0.49-0.91,0.61-1.1,0.61-8.46
				c0-7.13-0.1-7.23-0.61-8.21l-0.22-0.42c0,0,0.54,0.02,1.86,0.02h9.81c0,0-0.03,0.59-0.03,1.94c0,1.4,0.05,2.06,0.05,2.11
				c-0.02-0.03-0.17-0.25-0.86-0.66c-0.59-0.34-1.55-0.54-2.7-0.54h-2.33v4.44h1.74c1.15,0,2.11-0.12,2.7-0.47
				c0.64-0.37,0.83-0.59,0.88-0.64c0,0.02-0.07,0.69-0.07,2.55c0,1.72,0.07,2.48,0.07,2.53c-0.02-0.02-0.2-0.24-0.88-0.66
				c-0.59-0.34-1.55-0.47-2.7-0.47h-1.74v4.49h2.09c3.04,0,3.43-0.71,4.34-2.03C285.95,212.61,285.83,213.64,285.68,216.48z"/>
			<path class="st0" d="M299.38,217.09c-1.32,0.37-2.82,0.42-5,0.42c-0.91,0-3.14-0.05-4.07-0.05c-1.72,0-2.55,0.05-2.55,0.05
				l0.22-0.42c0.49-0.91,0.61-1.1,0.61-8.46c0-7.13-0.1-7.23-0.61-8.21l-0.22-0.42c0,0,0.88,0.05,2.31,0.05
				c0.83,0,2.92-0.05,3.7-0.05c4.19,0,8.24,0.1,8.24,4.17c0,3.31-2.85,4.1-4.32,4.22c2.57,0.07,4.88,1.15,4.88,4.24
				C302.57,215.48,300.85,216.7,299.38,217.09z M294.21,202.51c-0.64,0-0.86,0.05-0.86,0.05v4.73c0,0,0.22,0.02,0.91,0.02
				c0.56,0,1.08-0.07,1.52-0.22c0.81-0.29,1.32-0.96,1.32-2.18C297.1,202.97,296.04,202.51,294.21,202.51z M294.5,209.81
				c-0.71,0-1.15,0.05-1.15,0.05v5.03c0,0,0.2,0.07,1.15,0.07c0.66,0,1.25-0.07,1.72-0.27c0.81-0.32,1.3-1.01,1.3-2.35
				C297.52,210.35,296.36,209.81,294.5,209.81z"/>
			<path class="st0" d="M307.71,217.46c-2.35,0-3.36,0.05-3.36,0.05l0.22-0.42c0.49-0.93,0.61-1.1,0.61-8.46
				c0-7.13-0.1-7.23-0.61-8.21l-0.22-0.42c0,0,0.93,0.05,3.34,0.05c2.53,0,3.36-0.05,3.36-0.05l-0.22,0.42
				c-0.49,0.93-0.61,1.1-0.61,8.46c0,7.14,0.1,7.23,0.61,8.21l0.22,0.42C311.04,217.51,310.04,217.46,307.71,217.46z"/>
			<path class="st0" d="M319.57,217.51c-0.96,0-3.16-0.07-3.92-0.07c-1.57,0-2.5,0.05-2.5,0.05l0.22-0.42
				c0.49-0.91,0.61-1.1,0.61-8.46c0-7.13-0.1-7.23-0.61-8.21l-0.22-0.42c0,0,0.91,0.05,2.45,0.05c0.98,0,2.94-0.07,4-0.07
				c4.51,0,10.3,0.32,10.3,8.53C329.9,217.29,323.82,217.51,319.57,217.51z M320.11,202.68c-0.71,0-1.13,0.07-1.13,0.07v11.96
				c0,0,0.3,0.07,1.2,0.07c3.7,0,4.41-2.7,4.41-6.08C324.6,205.28,323.86,202.68,320.11,202.68z"/>
			<path class="st0" d="M344.67,217.46c-1.96,0-3.6,0.05-3.6,0.05c0.32-0.22,0.78-0.64,0.78-1.54c0-0.74-0.27-1.82-0.59-3.14
				l-0.19-0.81h-4.83l-0.2,0.81c-0.32,1.32-0.61,2.4-0.61,3.14c0,0.91,0.47,1.32,0.78,1.54c0,0-1.25-0.05-3.02-0.05
				c-1.79,0-2.87,0.05-2.87,0.05c0.91-0.88,1.35-2.38,2.28-5.81l2.77-10.22c0.07-0.29,0.15-0.59,0.15-0.91s-0.12-0.47-0.17-0.51
				h8.24c0,0.02-0.15,0.17-0.15,0.51c0,0.32,0.05,0.61,0.12,0.91l2.55,10.22c0.86,3.46,1.27,4.93,2.18,5.81
				C348.3,217.51,346.85,217.46,344.67,217.46z M338.98,203.22c-0.24-1.05-0.32-1.62-0.34-1.79c-0.02,0.12-0.07,0.64-0.34,1.79
				l-1.4,5.98h3.51L338.98,203.22z"/>
			<path class="st0" d="M369.74,217.46c-2.35,0-3.36,0.05-3.36,0.05l0.22-0.42c0.44-0.86,0.61-1.08,0.61-6.87h-5.17
				c0,5.81,0.12,5.96,0.61,6.87l0.22,0.42c0,0-1.01-0.05-3.34-0.05c-2.35,0-3.36,0.05-3.36,0.05l0.22-0.42
				c0.49-0.93,0.61-1.1,0.61-8.46c0-7.13-0.1-7.23-0.61-8.21l-0.22-0.42c0,0,0.96,0.05,3.36,0.05c2.53,0,3.34-0.05,3.34-0.05
				l-0.22,0.42c-0.44,0.83-0.61,1.05-0.61,6.52h5.17c0-5.47-0.15-5.64-0.61-6.52l-0.22-0.42c0,0,0.96,0.05,3.36,0.05
				c2.53,0,3.34-0.05,3.34-0.05l-0.22,0.42c-0.49,0.91-0.61,1.1-0.61,8.46c0,7.14,0.1,7.23,0.61,8.21l0.22,0.42
				C373.07,217.51,372.07,217.46,369.74,217.46z"/>
			<path class="st0" d="M378.53,217.46c-2.35,0-3.36,0.05-3.36,0.05l0.22-0.42c0.49-0.93,0.61-1.1,0.61-8.46
				c0-7.13-0.1-7.23-0.61-8.21l-0.22-0.42c0,0,0.93,0.05,3.34,0.05c2.53,0,3.36-0.05,3.36-0.05l-0.22,0.42
				c-0.49,0.93-0.61,1.1-0.61,8.46c0,7.14,0.1,7.23,0.61,8.21l0.22,0.42C381.87,217.51,380.86,217.46,378.53,217.46z"/>
			<path class="st0" d="M390.4,217.51c-0.96,0-3.16-0.07-3.92-0.07c-1.57,0-2.5,0.05-2.5,0.05l0.22-0.42
				c0.49-0.91,0.61-1.1,0.61-8.46c0-7.13-0.1-7.23-0.61-8.21l-0.22-0.42c0,0,0.91,0.05,2.45,0.05c0.98,0,2.94-0.07,4-0.07
				c4.51,0,10.3,0.32,10.3,8.53C400.72,217.29,394.64,217.51,390.4,217.51z M390.94,202.68c-0.71,0-1.13,0.07-1.13,0.07v11.96
				c0,0,0.3,0.07,1.2,0.07c3.7,0,4.41-2.7,4.41-6.08C395.42,205.28,394.69,202.68,390.94,202.68z"/>
			<path class="st0" d="M416.01,217.51c-2.18,0-3.16-0.47-4.36-2.75l-1.15-2.18c-0.95-1.82-1.18-2.35-1.99-2.35
				c-0.19,0-0.34,0.02-0.34,0.02c0,5.79,0.15,5.79,0.61,6.67l0.22,0.42c0,0-1.01-0.05-3.21-0.05c-2.18,0-3.21,0.05-3.21,0.05
				l0.22-0.42c0.47-0.88,0.61-1.1,0.61-8.46c0-7.13-0.1-7.23-0.61-8.21l-0.22-0.42c0,0,1.08,0.05,2.5,0.05
				c0.83,0,3.06-0.05,3.85-0.05c4.22,0,8.04,0.17,8.04,4.56c0,4.22-3.34,4.73-4.81,4.86c1.72,0.24,2.48,0.93,3.43,2.87l1.42,2.89
				c0.56,1.15,0.91,1.59,1.74,1.99C418.76,216.99,418.31,217.51,416.01,217.51z M409.02,202.33c-0.64,0-0.86,0.05-0.86,0.05v5.32
				c0,0,0.22,0.03,0.91,0.03c0.49,0,0.91-0.05,1.3-0.17c0.93-0.29,1.55-1.01,1.55-2.53C411.91,202.85,410.86,202.33,409.02,202.33z"
				/>
			<path class="st0" d="M432.4,217.46c-1.96,0-3.6,0.05-3.6,0.05c0.32-0.22,0.78-0.64,0.78-1.54c0-0.74-0.27-1.82-0.59-3.14
				l-0.19-0.81h-4.83l-0.2,0.81c-0.32,1.32-0.61,2.4-0.61,3.14c0,0.91,0.47,1.32,0.78,1.54c0,0-1.25-0.05-3.02-0.05
				c-1.79,0-2.87,0.05-2.87,0.05c0.91-0.88,1.35-2.38,2.28-5.81l2.77-10.22c0.07-0.29,0.15-0.59,0.15-0.91s-0.12-0.47-0.17-0.51
				h8.24c0,0.02-0.15,0.17-0.15,0.51c0,0.32,0.05,0.61,0.12,0.91l2.55,10.22c0.86,3.46,1.27,4.93,2.18,5.81
				C436.03,217.51,434.59,217.46,432.4,217.46z M426.72,203.22c-0.24-1.05-0.32-1.62-0.34-1.79c-0.02,0.12-0.07,0.64-0.34,1.79
				l-1.4,5.98h3.51L426.72,203.22z"/>
			<path class="st0" d="M449.53,204.12c-0.02-0.03-0.17-0.27-0.86-0.69c-0.59-0.34-1.5-0.61-2.65-0.61h-1.23v6.06
				c0,7.14,0.1,7.23,0.61,8.21l0.22,0.42c0,0-1.01-0.05-3.34-0.05c-2.35,0-3.36,0.05-3.36,0.05l0.22-0.42
				c0.49-0.93,0.61-1.1,0.61-8.46v-5.81h-1.23c-1.15,0-2.06,0.27-2.65,0.61c-0.64,0.39-0.84,0.64-0.86,0.69
				c0-0.03,0.05-0.76,0.05-2.16c0-1.35-0.03-1.94-0.03-1.94h14.44c0,0-0.02,0.59-0.02,1.94
				C449.49,203.36,449.53,204.08,449.53,204.12z"/>
			<path class="st0" d="M462.65,217.46c-1.96,0-3.6,0.05-3.6,0.05c0.32-0.22,0.78-0.64,0.78-1.54c0-0.74-0.27-1.82-0.59-3.14
				l-0.19-0.81h-4.83l-0.2,0.81c-0.32,1.32-0.61,2.4-0.61,3.14c0,0.91,0.47,1.32,0.78,1.54c0,0-1.25-0.05-3.02-0.05
				c-1.79,0-2.87,0.05-2.87,0.05c0.91-0.88,1.35-2.38,2.28-5.81l2.77-10.22c0.07-0.29,0.15-0.59,0.15-0.91s-0.12-0.47-0.17-0.51
				h8.24c0,0.02-0.15,0.17-0.15,0.51c0,0.32,0.05,0.61,0.12,0.91l2.55,10.22c0.86,3.46,1.27,4.93,2.18,5.81
				C466.28,217.51,464.83,217.46,462.65,217.46z M456.96,203.22c-0.24-1.05-0.32-1.62-0.34-1.79c-0.02,0.12-0.07,0.64-0.34,1.79
				l-1.4,5.98h3.51L456.96,203.22z"/>
			<path class="st0" d="M483.9,200.42c-0.44,0.86-0.61,1.1-0.61,8.46v8.63c0,0-0.71-0.05-2.48-0.05c-1.89,0-3.41,0.05-3.41,0.05
				l-4.98-10.93c-0.42-0.91-0.69-1.84-0.71-1.94v4.24c0,7.14,0.1,7.23,0.61,8.21l0.22,0.42c0,0-0.78-0.05-2.57-0.05
				c-1.91,0-2.65,0.05-2.65,0.05l0.22-0.42c0.44-0.86,0.61-1.1,0.61-8.46c0-7.13-0.1-7.23-0.61-8.21l-0.22-0.42
				c0,0,1.06,0.05,3.53,0.05c2.11,0,3.21-0.05,3.21-0.05l4.95,10.89c0.49,1.05,0.71,1.99,0.71,1.99v-4.24c0-7.13-0.1-7.23-0.61-8.21
				L478.9,200c0,0,0.78,0.05,2.57,0.05c1.91,0,2.65-0.05,2.65-0.05L483.9,200.42z"/>
			<path class="st0" d="M499.78,204.12c-0.02-0.03-0.17-0.27-0.86-0.69c-0.59-0.34-1.5-0.61-2.65-0.61h-1.23v6.06
				c0,7.14,0.1,7.23,0.61,8.21l0.22,0.42c0,0-1.01-0.05-3.34-0.05c-2.35,0-3.36,0.05-3.36,0.05l0.22-0.42
				c0.49-0.93,0.61-1.1,0.61-8.46v-5.81h-1.23c-1.15,0-2.06,0.27-2.65,0.61c-0.64,0.39-0.84,0.64-0.86,0.69
				c0-0.03,0.05-0.76,0.05-2.16c0-1.35-0.03-1.94-0.03-1.94h14.44c0,0-0.02,0.59-0.02,1.94
				C499.73,203.36,499.78,204.08,499.78,204.12z"/>
			<path class="st0" d="M513.04,216.48l-0.05,1.01h-10.03c-1.32,0-1.89,0.02-1.89,0.02l0.22-0.42c0.49-0.91,0.61-1.1,0.61-8.46
				c0-7.13-0.1-7.23-0.61-8.21l-0.22-0.42c0,0,0.54,0.02,1.86,0.02h9.81c0,0-0.03,0.59-0.03,1.94c0,1.4,0.05,2.06,0.05,2.11
				c-0.02-0.03-0.17-0.25-0.86-0.66c-0.59-0.34-1.55-0.54-2.7-0.54h-2.33v4.44h1.74c1.15,0,2.11-0.12,2.7-0.47
				c0.64-0.37,0.83-0.59,0.88-0.64c0,0.02-0.07,0.69-0.07,2.55c0,1.72,0.07,2.48,0.07,2.53c-0.03-0.02-0.2-0.24-0.88-0.66
				c-0.59-0.34-1.55-0.47-2.7-0.47h-1.74v4.49h2.09c3.04,0,3.43-0.71,4.34-2.03C513.31,212.61,513.18,213.64,513.04,216.48z"/>
			<path class="st0" d="M534.79,216.48l-0.05,1.01h-10.03c-1.32,0-1.89,0.02-1.89,0.02l0.22-0.42c0.49-0.91,0.61-1.1,0.61-8.46
				c0-7.13-0.1-7.23-0.61-8.21l-0.22-0.42c0,0,0.54,0.02,1.86,0.02h9.81c0,0-0.03,0.59-0.03,1.94c0,1.4,0.05,2.06,0.05,2.11
				c-0.02-0.03-0.17-0.25-0.86-0.66c-0.59-0.34-1.55-0.54-2.7-0.54h-2.33v4.44h1.74c1.15,0,2.11-0.12,2.7-0.47
				c0.64-0.37,0.83-0.59,0.88-0.64c0,0.02-0.07,0.69-0.07,2.55c0,1.72,0.07,2.48,0.07,2.53c-0.03-0.02-0.2-0.24-0.88-0.66
				c-0.59-0.34-1.55-0.47-2.7-0.47h-1.74v4.49h2.09c3.04,0,3.43-0.71,4.34-2.03C535.06,212.61,534.93,213.64,534.79,216.48z"/>
			<path class="st0" d="M553.44,200.42c-0.44,0.86-0.61,1.1-0.61,8.46v8.63c0,0-0.71-0.05-2.48-0.05c-1.89,0-3.41,0.05-3.41,0.05
				l-4.98-10.93c-0.42-0.91-0.69-1.84-0.71-1.94v4.24c0,7.14,0.1,7.23,0.61,8.21l0.22,0.42c0,0-0.78-0.05-2.57-0.05
				c-1.91,0-2.65,0.05-2.65,0.05l0.22-0.42c0.44-0.86,0.61-1.1,0.61-8.46c0-7.13-0.1-7.23-0.61-8.21l-0.22-0.42
				c0,0,1.06,0.05,3.53,0.05c2.11,0,3.21-0.05,3.21-0.05l4.95,10.89c0.49,1.05,0.71,1.99,0.71,1.99v-4.24c0-7.13-0.1-7.23-0.61-8.21
				l-0.22-0.42c0,0,0.78,0.05,2.57,0.05c1.91,0,2.65-0.05,2.65-0.05L553.44,200.42z"/>
			<path class="st0" d="M570.44,211.38c-0.98,0-1.86-0.15-1.86-0.15c0,4.41,0.12,4.9,0.69,5.84l0.27,0.44c0,0-0.98-0.05-3.41-0.05
				c-2.35,0-3.34,0.05-3.34,0.05l0.22-0.42c0.49-0.91,0.61-1.1,0.61-8.46c0-7.13-0.1-7.23-0.61-8.21l-0.22-0.42
				c0,0,0.96,0.05,2.57,0.05c1.1,0,3.46-0.07,4.29-0.07c3.02,0,8.07,0.15,8.07,5.44C577.72,210.52,573.67,211.38,570.44,211.38z
				 M569.48,202.56c-0.51,0-0.91,0.02-0.91,0.02v6.18c0,0,0.15,0.05,1.03,0.05c2.82,0,2.92-2.01,2.92-3.26
				C572.52,202.82,570.78,202.56,569.48,202.56z"/>
			<path class="st0" d="M587.91,217.51c-5.64,0-8.41-3.07-8.41-8.8c0-5.76,2.92-9.19,8.36-9.19c5.64,0,8.41,3.06,8.41,8.8
				C596.27,214.08,593.35,217.51,587.91,217.51z M587.91,202.38c-2.4,0-3.02,2.08-3.02,6.15c0,4.12,0.61,6.1,2.97,6.1
				c2.4,0,3.02-2.08,3.02-6.15C590.88,204.37,590.26,202.38,587.91,202.38z"/>
			<path class="st0" d="M609.6,216.48l-0.05,1.01h-9.54c-1.32,0-1.89,0.02-1.89,0.02l0.22-0.42c0.49-0.91,0.61-1.1,0.61-8.46
				c0-7.13-0.1-7.23-0.61-8.21l-0.22-0.42c0,0,0.93,0.05,3.48,0.05c2.53,0,3.34-0.05,3.34-0.05l-0.27,0.44
				c-0.56,0.93-0.69,1.55-0.69,6.5v7.7h1.54c3.04,0,3.43-0.71,4.34-2.03C609.87,212.61,609.75,213.64,609.6,216.48z"/>
			<path class="st0" d="M624.85,205.82l-3.24,11.69c0,0-1.23-0.05-3.51-0.05c-2.23,0-3.63,0.05-3.63,0.05l-3.19-11.69
				c-0.93-3.43-1.37-4.93-2.28-5.81c0,0,0.91,0.05,3.63,0.05c2.8,0,3.78-0.05,3.78-0.05c-0.32,0.22-0.78,0.64-0.78,1.55
				c0,0.86,0.37,2.28,0.81,4.09l1.96,8.04c0.15,0.64,0.27,1.5,0.29,1.62c0.02-0.12,0.15-0.93,0.32-1.59l1.99-8.07
				c0.44-1.84,0.78-3.24,0.78-4.09c0-0.91-0.47-1.32-0.78-1.55c0,0,1.01,0.05,3.26,0.05c2.11,0,2.92-0.05,2.92-0.05
				C626.27,200.89,625.81,202.38,624.85,205.82z"/>
			<path class="st0" d="M635.65,217.51c-5.64,0-8.41-3.07-8.41-8.8c0-5.76,2.92-9.19,8.36-9.19c5.64,0,8.41,3.06,8.41,8.8
				C644.01,214.08,641.1,217.51,635.65,217.51z M635.65,202.38c-2.4,0-3.02,2.08-3.02,6.15c0,4.12,0.61,6.1,2.97,6.1
				c2.4,0,3.02-2.08,3.02-6.15C638.62,204.37,638,202.38,635.65,202.38z"/>
		</g>
	</g>
	<g>
		<path class="st0" d="M642.06,124.99c-7.4,0-12.52-5.29-12.52-12.66c0-7.43,5.18-12.72,12.63-12.72c7.45,0,12.32,5.24,12.32,12.58
			C654.49,119.58,649.4,124.99,642.06,124.99z M642.17,101.31c-6.35,0-10.47,4.72-10.47,11.01c0,6.23,4.1,10.98,10.36,10.98
			c6.23,0,10.3-4.84,10.3-11.13C652.36,106.04,648.46,101.31,642.17,101.31z M647.46,120.12c-1.65,0-2.33-0.57-3.39-2.33l-1.31-2.19
			c-1.14-1.88-1.37-2.31-2.31-2.31h-0.37c0,5.32,0.11,5.52,0.54,6.38l0.2,0.37c0,0-0.65-0.06-2.19-0.06c-1.54,0-2.22,0.06-2.22,0.06
			l0.2-0.37c0.4-0.8,0.54-0.97,0.54-7.46c0-6.32-0.09-6.4-0.54-7.26l-0.2-0.37c0,0,0.74,0.06,1.79,0.06c0.68,0,2.1-0.06,2.85-0.06
			c2.99,0,6.26,0.26,6.26,3.96c0,2.5-1.74,4.12-4.47,4.15c1.71,0.23,2.33,1.05,3.33,2.85l1.11,2.11c0.66,1.17,1.14,1.82,1.91,2.19
			C649.2,119.84,648.83,120.12,647.46,120.12z M641.06,106.27c-0.6,0-0.97,0.06-0.97,0.06v5.29c0,0,0.34,0.03,1.05,0.03
			c0.34,0,0.88-0.03,1.19-0.11c1.02-0.2,1.82-1,1.82-2.62C644.16,106.61,642.85,106.27,641.06,106.27z"/>
	</g>
</g>
</svg>
