<?xml version="1.0" encoding="utf-8"?>
<!-- Generator: Adobe Illustrator 23.0.3, SVG Export Plug-In . SVG Version: 6.00 Build 0)  -->
<svg version="1.1" id="Capa_1" xmlns="http://www.w3.org/2000/svg" xmlns:xlink="http://www.w3.org/1999/xlink" x="0px" y="0px"
	 viewBox="0 0 584.17 295.04" style="enable-background:new 0 0 584.17 295.04;" xml:space="preserve">
<style type="text/css">
	.st0{fill:#FFFFFF;}
	.st1{fill:#BF0811;}
	.st2{fill:url(#SVGID_1_);}
	.st3{fill:url(#SVGID_2_);}
	.st4{fill:url(#SVGID_3_);}
	.st5{fill:url(#SVGID_4_);}
	.st6{fill:url(#SVGID_5_);}
</style>
<g>
	<g>
		<g>
			<path d="M170.87,214.3v-21.11h-5.14l2.16-4.31h8.15v25.42H170.87z"/>
			<path d="M196.18,214.3v-4.93h-12.36V207l12.36-18.64h4.7v17.36h2.7v3.65h-2.7v4.93H196.18z M196.25,205.72v-8.84
				c0-0.86,0.01-1.52,0.04-1.96c0.03-0.44,0.07-0.85,0.13-1.23c-0.22,0.6-0.49,1.19-0.79,1.79c-0.3,0.6-0.64,1.18-1,1.75l-5.54,8.49
				H196.25z"/>
			<path d="M217.11,214.3v-25.67h7c2.76,0,4.93,0.19,6.52,0.58c1.59,0.39,2.99,1.03,4.19,1.93c1.55,1.16,2.73,2.62,3.53,4.37
				c0.8,1.76,1.2,3.76,1.2,6.01c0,2.28-0.41,4.3-1.23,6.06c-0.82,1.76-2.02,3.21-3.59,4.36c-1.17,0.84-2.47,1.45-3.9,1.81
				c-1.43,0.37-3.53,0.55-6.29,0.55h-1.95H217.11z M222.6,209.67h3.05c2.88,0,4.97-0.65,6.29-1.96c1.31-1.31,1.97-3.38,1.97-6.22
				c0-2.83-0.66-4.9-1.97-6.22c-1.32-1.32-3.41-1.97-6.29-1.97h-3.05V209.67z"/>
			<path d="M243.25,214.3v-25.67h15.11v4.63h-9.63v5.28h9.63v4.66h-9.63v6.43h9.63v4.66H243.25z"/>
			<path d="M269.93,214.3l9.77-25.67h6.28l9.91,25.67h-6.24l-2.09-5.45h-9.94l-1.79,5.45H269.93z M286.27,204.53l-2.88-8.29
				c-0.08-0.25-0.19-0.67-0.32-1.26c-0.13-0.6-0.26-1.33-0.4-2.19c-0.15,0.83-0.3,1.58-0.44,2.24c-0.14,0.66-0.25,1.1-0.32,1.32
				l-2.77,8.19H286.27z"/>
			<path d="M309.8,200.76h11.69c0.02,0.15,0.04,0.32,0.04,0.49c0.01,0.18,0.01,0.44,0.01,0.81c0,3.85-1.1,6.96-3.3,9.35
				c-2.2,2.38-5.04,3.58-8.52,3.58c-3.99,0-7.27-1.27-9.85-3.81c-2.58-2.54-3.88-5.77-3.88-9.69c0-3.88,1.3-7.09,3.89-9.63
				c2.6-2.54,5.87-3.8,9.84-3.8c2.09,0,4.01,0.44,5.75,1.32c1.74,0.88,3.3,2.19,4.66,3.93l-3.7,2.74c-0.92-1.15-1.89-1.97-2.91-2.48
				s-2.19-0.76-3.52-0.76c-2.54,0-4.57,0.79-6.08,2.37c-1.52,1.58-2.28,3.69-2.28,6.33c0,2.6,0.76,4.69,2.29,6.29
				s3.52,2.39,5.97,2.39c1.8,0,3.26-0.42,4.38-1.27c1.12-0.85,1.68-1.96,1.68-3.32v-0.28h-6.17V200.76z"/>
			<path d="M351.28,201.51c0,1.84-0.34,3.57-1.03,5.21c-0.68,1.64-1.67,3.07-2.95,4.31c-1.33,1.27-2.83,2.25-4.51,2.93
				c-1.67,0.68-3.4,1.02-5.19,1.02c-1.57,0-3.1-0.27-4.6-0.8c-1.5-0.53-2.88-1.29-4.13-2.29c-1.61-1.29-2.85-2.82-3.71-4.61
				c-0.86-1.79-1.29-3.71-1.29-5.77c0-1.85,0.34-3.58,1.02-5.2c0.68-1.62,1.67-3.06,2.98-4.32c1.29-1.25,2.78-2.22,4.48-2.91
				c1.7-0.69,3.45-1.03,5.25-1.03c1.79,0,3.53,0.35,5.22,1.03c1.69,0.69,3.18,1.66,4.48,2.91c1.3,1.26,2.29,2.71,2.96,4.33
				C350.94,197.95,351.28,199.68,351.28,201.51z M337.6,210.09c2.33,0,4.25-0.82,5.76-2.45c1.51-1.63,2.27-3.67,2.27-6.13
				c0-2.43-0.77-4.48-2.3-6.14c-1.53-1.66-3.44-2.49-5.73-2.49c-2.33,0-4.25,0.83-5.79,2.48c-1.53,1.65-2.3,3.7-2.3,6.15
				c0,2.48,0.75,4.53,2.26,6.15S335.23,210.09,337.6,210.09z"/>
			<path d="M353.36,211.03l3.05-3.45c0.39,0.95,1,1.69,1.86,2.24c0.85,0.54,1.81,0.82,2.88,0.82c1.29,0,2.3-0.3,3.05-0.91
				c0.75-0.61,1.12-1.43,1.12-2.45c0-1.22-1.24-2.43-3.73-3.63c-0.81-0.39-1.44-0.7-1.91-0.95c-2.24-1.17-3.8-2.31-4.66-3.43
				c-0.86-1.12-1.3-2.45-1.3-3.99c0-2.12,0.84-3.85,2.52-5.22c1.68-1.36,3.85-2.04,6.53-2.04c1.55,0,2.9,0.27,4.02,0.82
				c1.13,0.54,2.12,1.39,2.99,2.55l-3.24,3.1c-0.39-0.75-0.9-1.31-1.53-1.67c-0.64-0.37-1.41-0.55-2.31-0.55
				c-1.09,0-1.96,0.27-2.63,0.82c-0.67,0.54-1,1.25-1,2.11c0,1.36,1.32,2.59,3.96,3.72c0.53,0.22,0.93,0.4,1.21,0.53
				c2.17,0.99,3.78,2.12,4.83,3.37c1.05,1.25,1.57,2.68,1.57,4.28c0,2.41-0.82,4.33-2.46,5.76c-1.64,1.43-3.85,2.15-6.62,2.15
				c-1.96,0-3.65-0.34-5.05-1.02C355.1,213.28,354.05,212.31,353.36,211.03z"/>
			<path d="M383.81,193.29v21.01h-5.51v-21.01h-6.28v-4.66h18.06v4.66H383.81z"/>
			<path d="M418.44,201.51c0,1.84-0.34,3.57-1.03,5.21c-0.68,1.64-1.67,3.07-2.95,4.31c-1.33,1.27-2.83,2.25-4.51,2.93
				c-1.67,0.68-3.4,1.02-5.19,1.02c-1.57,0-3.1-0.27-4.6-0.8c-1.5-0.53-2.88-1.29-4.13-2.29c-1.61-1.29-2.85-2.82-3.71-4.61
				c-0.86-1.79-1.29-3.71-1.29-5.77c0-1.85,0.34-3.58,1.02-5.2c0.68-1.62,1.67-3.06,2.98-4.32c1.29-1.25,2.78-2.22,4.48-2.91
				c1.7-0.69,3.45-1.03,5.25-1.03c1.79,0,3.53,0.35,5.22,1.03c1.69,0.69,3.18,1.66,4.48,2.91c1.3,1.26,2.29,2.71,2.96,4.33
				C418.1,197.95,418.44,199.68,418.44,201.51z M404.76,210.09c2.33,0,4.25-0.82,5.76-2.45c1.51-1.63,2.27-3.67,2.27-6.13
				c0-2.43-0.77-4.48-2.3-6.14c-1.53-1.66-3.44-2.49-5.73-2.49c-2.33,0-4.25,0.83-5.79,2.48c-1.53,1.65-2.3,3.7-2.3,6.15
				c0,2.48,0.75,4.53,2.26,6.15C400.45,209.28,402.39,210.09,404.76,210.09z"/>
		</g>
		<g>
			<g>
				<polygon points="134.28,230.15 119.5,230.15 119.5,279.95 551.82,279.95 537.04,230.15 				"/>
				<g>
					<polygon points="449.32,230.15 464.08,230.15 464.08,279.95 32.35,279.95 47.11,230.15 					"/>
				</g>
			</g>
			<g>
				<path class="st0" d="M67.85,257.21c0.33,0.57,0.71,0.99,1.14,1.26c0.43,0.27,0.94,0.41,1.52,0.41c0.62,0,1.11-0.17,1.46-0.5
					c0.35-0.34,0.53-0.8,0.53-1.39c0-0.38-0.1-0.72-0.3-1.02c-0.2-0.3-0.51-0.56-0.92-0.79c-0.1-0.06-0.25-0.14-0.45-0.25
					c-1.14-0.62-1.91-1.15-2.3-1.59c-0.28-0.32-0.5-0.69-0.65-1.11c-0.15-0.42-0.22-0.86-0.22-1.34c0-1.2,0.43-2.2,1.29-3
					c0.86-0.8,1.95-1.2,3.26-1.2c0.79,0,1.49,0.15,2.11,0.44s1.14,0.74,1.57,1.33l-1.49,1.93c-0.25-0.46-0.55-0.81-0.91-1.04
					c-0.36-0.23-0.78-0.34-1.25-0.34c-0.54,0-0.98,0.15-1.33,0.46c-0.35,0.31-0.53,0.71-0.53,1.19c0,0.63,0.58,1.27,1.73,1.92
					c0.22,0.13,0.39,0.22,0.5,0.29c1.04,0.61,1.75,1.21,2.13,1.8c0.37,0.59,0.56,1.35,0.56,2.28c0,1.3-0.44,2.35-1.32,3.14
					c-0.88,0.8-2.04,1.2-3.49,1.2c-0.88,0-1.67-0.17-2.35-0.52c-0.69-0.35-1.3-0.88-1.84-1.6L67.85,257.21z"/>
				<path class="st0" d="M75.18,260.95l7.2-13.9h3.17l3.34,13.9H85.8l-0.59-2.99h-5.29l-1.5,2.99H75.18z M84.68,255.68l-0.67-3.29
					c-0.06-0.34-0.12-0.74-0.17-1.22c-0.05-0.48-0.1-1.05-0.14-1.71c-0.14,0.51-0.29,0.98-0.45,1.41s-0.33,0.84-0.5,1.21l-1.69,3.6
					H84.68z"/>
				<path class="st0" d="M89.93,260.95l1.83-13.9h2.92l-1.52,11.43h4.82l-0.32,2.47H89.93z"/>
				<path class="st0" d="M98.98,260.95l1.82-13.9h2.92l-1.82,13.9H98.98z"/>
				<path class="st0" d="M106.61,260.95l1.51-11.47h-3.61l0.32-2.43h9.87l-0.31,2.43h-3.36l-1.5,11.47H106.61z"/>
				<path class="st0" d="M117.19,260.95h-2.93l1.83-13.9h2.9c1.21,0,2.08,0.06,2.62,0.19c0.53,0.13,1,0.34,1.41,0.65
					c0.45,0.33,0.79,0.73,1.03,1.21c0.23,0.48,0.35,1.01,0.35,1.59c0,1.06-0.3,1.94-0.9,2.63c-0.6,0.69-1.46,1.16-2.58,1.41
					l3.15,6.22h-3.19l-2.86-6.38L117.19,260.95z M118.21,253.05h0.43c1.1,0,1.85-0.15,2.25-0.45c0.4-0.3,0.59-0.82,0.59-1.55
					c0-0.63-0.17-1.07-0.5-1.32c-0.33-0.25-0.98-0.38-1.95-0.38h-0.33L118.21,253.05z"/>
				<path class="st0" d="M125.11,260.95l1.83-13.9h8.26l-0.3,2.45h-5.39l-0.41,3.13h5.38l-0.31,2.39h-5.38l-0.46,3.49h5.39
					l-0.33,2.45H125.11z"/>
				<path class="st0" d="M135.13,262.75l7.43-16.02h1.93l-7.43,16.02H135.13z"/>
				<path class="st0" d="M156.21,251.28c-0.41-0.68-0.92-1.2-1.53-1.56c-0.61-0.36-1.3-0.54-2.05-0.54c-1.39,0-2.53,0.51-3.44,1.53
					c-0.91,1.02-1.36,2.31-1.36,3.87c0,1.29,0.37,2.31,1.12,3.07s1.74,1.14,2.99,1.14c0.86,0,1.61-0.24,2.26-0.71
					c0.64-0.47,1.11-1.13,1.4-1.98h-3.3l0.31-2.43h6.31c-0.15,2.43-0.84,4.31-2.09,5.65c-1.25,1.33-2.93,2-5.05,2
					c-2.1,0-3.78-0.61-5.03-1.82c-1.25-1.21-1.88-2.84-1.88-4.88c0-1,0.18-1.98,0.54-2.94c0.36-0.96,0.87-1.81,1.52-2.56
					c0.67-0.78,1.5-1.37,2.48-1.78s2.07-0.61,3.26-0.61c1.35,0,2.5,0.24,3.47,0.73s1.74,1.22,2.34,2.2L156.21,251.28z"/>
				<path class="st0" d="M164.48,247.04l-1.05,7.85c-0.03,0.2-0.04,0.42-0.06,0.65c-0.01,0.23-0.02,0.49-0.02,0.77
					c0,0.86,0.21,1.5,0.63,1.94c0.42,0.44,1.03,0.66,1.84,0.66c0.57,0,1.07-0.12,1.5-0.35c0.43-0.23,0.79-0.57,1.07-1.03
					c0.35-0.58,0.64-1.72,0.86-3.4c0.01-0.1,0.02-0.16,0.03-0.2l0.93-6.9h2.88l-1.03,7.82c-0.17,1.29-0.37,2.24-0.58,2.85
					c-0.22,0.62-0.52,1.16-0.9,1.64c-0.55,0.68-1.23,1.18-2.04,1.5c-0.81,0.32-1.78,0.48-2.92,0.48c-1.75,0-3.06-0.4-3.92-1.19
					c-0.86-0.79-1.29-1.99-1.29-3.58c0-0.23,0.03-0.62,0.08-1.16c0.05-0.54,0.13-1.22,0.23-2.01l0.84-6.35H164.48z"/>
				<path class="st0" d="M172.14,260.95l7.2-13.9h3.17l3.34,13.9h-3.09l-0.59-2.99h-5.29l-1.5,2.99H172.14z M181.63,255.68
					l-0.67-3.29c-0.06-0.34-0.12-0.74-0.17-1.22c-0.05-0.48-0.1-1.05-0.14-1.71c-0.14,0.51-0.29,0.98-0.45,1.41s-0.33,0.84-0.5,1.21
					l-1.69,3.6H181.63z"/>
				<path class="st0" d="M187.76,257.21c0.33,0.57,0.71,0.99,1.14,1.26c0.43,0.27,0.94,0.41,1.52,0.41c0.62,0,1.11-0.17,1.46-0.5
					c0.35-0.34,0.53-0.8,0.53-1.39c0-0.38-0.1-0.72-0.3-1.02c-0.2-0.3-0.51-0.56-0.92-0.79c-0.1-0.06-0.25-0.14-0.45-0.25
					c-1.14-0.62-1.91-1.15-2.3-1.59c-0.28-0.32-0.5-0.69-0.65-1.11c-0.15-0.42-0.22-0.86-0.22-1.34c0-1.2,0.43-2.2,1.29-3
					c0.86-0.8,1.95-1.2,3.26-1.2c0.79,0,1.49,0.15,2.11,0.44s1.14,0.74,1.57,1.33l-1.49,1.93c-0.25-0.46-0.55-0.81-0.91-1.04
					c-0.36-0.23-0.78-0.34-1.25-0.34c-0.54,0-0.98,0.15-1.33,0.46c-0.35,0.31-0.53,0.71-0.53,1.19c0,0.63,0.58,1.27,1.73,1.92
					c0.22,0.13,0.39,0.22,0.5,0.29c1.04,0.61,1.75,1.21,2.13,1.8c0.37,0.59,0.56,1.35,0.56,2.28c0,1.3-0.44,2.35-1.32,3.14
					c-0.88,0.8-2.04,1.2-3.49,1.2c-0.88,0-1.67-0.17-2.35-0.52c-0.69-0.35-1.3-0.88-1.84-1.6L187.76,257.21z"/>
				<path class="st0" d="M207.48,260.44c-0.58,0.29-1.21,0.51-1.89,0.66s-1.39,0.22-2.16,0.22c-2.04,0-3.68-0.61-4.92-1.82
					c-1.24-1.21-1.87-2.81-1.87-4.79c0-1.03,0.17-2.02,0.52-2.95c0.35-0.94,0.85-1.78,1.5-2.52c0.73-0.82,1.6-1.45,2.61-1.88
					s2.11-0.65,3.31-0.65c0.85,0,1.64,0.1,2.38,0.31c0.74,0.21,1.44,0.53,2.09,0.95l-0.41,2.73c-0.7-0.51-1.39-0.88-2.05-1.12
					c-0.67-0.24-1.34-0.36-2.01-0.36c-1.46,0-2.66,0.5-3.59,1.5c-0.93,1-1.4,2.28-1.4,3.85c0,1.29,0.37,2.31,1.1,3.07
					c0.73,0.76,1.72,1.14,2.96,1.14c0.8,0,1.55-0.11,2.24-0.33s1.33-0.55,1.91-1L207.48,260.44z"/>
				<path class="st0" d="M208.33,260.95l7.2-13.9h3.17l3.34,13.9h-3.09l-0.59-2.99h-5.29l-1.5,2.99H208.33z M217.83,255.68
					l-0.67-3.29c-0.06-0.34-0.12-0.74-0.17-1.22c-0.05-0.48-0.1-1.05-0.14-1.71c-0.14,0.51-0.29,0.98-0.45,1.41s-0.33,0.84-0.5,1.21
					l-1.69,3.6H217.83z"/>
				<path class="st0" d="M228.63,257.51l0.31-2.39h5.44l-0.3,2.39H228.63z"/>
				<path class="st0" d="M246.54,260.95l0.35-2.67h-5.66l0.29-2.19l7.12-8.91h2.35l-1.18,9h1.49l-0.29,2.1h-1.47l-0.35,2.67H246.54z
					 M247.22,256.18l0.57-4.03c0.01-0.11,0.05-0.32,0.1-0.62s0.13-0.64,0.22-1.02l-0.06,0.08c-0.53,0.76-0.87,1.24-1.03,1.45
					l-3.23,4.14H247.22z"/>
				<path class="st0" d="M257.67,260.95l1.83-13.9h8.26l-0.3,2.45h-5.39l-0.41,3.13h5.38l-0.31,2.39h-5.38l-0.46,3.49h5.39
					l-0.33,2.45H257.67z"/>
				<path class="st0" d="M269.15,257.21c0.33,0.57,0.71,0.99,1.14,1.26c0.43,0.27,0.94,0.41,1.52,0.41c0.62,0,1.11-0.17,1.46-0.5
					c0.35-0.34,0.53-0.8,0.53-1.39c0-0.38-0.1-0.72-0.3-1.02c-0.2-0.3-0.51-0.56-0.92-0.79c-0.1-0.06-0.25-0.14-0.45-0.25
					c-1.14-0.62-1.91-1.15-2.3-1.59c-0.28-0.32-0.5-0.69-0.65-1.11c-0.15-0.42-0.22-0.86-0.22-1.34c0-1.2,0.43-2.2,1.29-3
					s1.95-1.2,3.26-1.2c0.79,0,1.49,0.15,2.11,0.44s1.14,0.74,1.57,1.33l-1.49,1.93c-0.25-0.46-0.55-0.81-0.91-1.04
					c-0.36-0.23-0.78-0.34-1.25-0.34c-0.54,0-0.98,0.15-1.33,0.46s-0.53,0.71-0.53,1.19c0,0.63,0.58,1.27,1.73,1.92
					c0.22,0.13,0.39,0.22,0.5,0.29c1.04,0.61,1.75,1.21,2.13,1.8c0.37,0.59,0.56,1.35,0.56,2.28c0,1.3-0.44,2.35-1.32,3.14
					c-0.88,0.8-2.04,1.2-3.49,1.2c-0.88,0-1.67-0.17-2.36-0.52s-1.3-0.88-1.84-1.6L269.15,257.21z"/>
				<path class="st0" d="M291.1,262.29h-3.03l-0.82-1.3c-0.46,0.11-0.89,0.19-1.3,0.25s-0.77,0.09-1.12,0.09
					c-2.05,0-3.7-0.61-4.95-1.84c-1.25-1.22-1.88-2.84-1.88-4.86c0-0.98,0.18-1.94,0.53-2.87c0.35-0.93,0.86-1.77,1.51-2.52
					c0.73-0.82,1.61-1.44,2.62-1.88s2.1-0.65,3.28-0.65c2.07,0,3.74,0.6,5,1.8c1.26,1.2,1.89,2.79,1.89,4.75
					c0,1.4-0.28,2.66-0.83,3.77c-0.55,1.12-1.36,2.06-2.42,2.82L291.1,262.29z M283.95,255.6h3.03l1.21,1.96
					c0.57-0.59,0.99-1.23,1.27-1.92c0.28-0.69,0.42-1.45,0.42-2.27c0-1.25-0.37-2.26-1.11-3.01c-0.74-0.75-1.72-1.13-2.96-1.13
					c-1.39,0-2.54,0.51-3.45,1.52c-0.92,1.01-1.37,2.29-1.37,3.83c0,1.28,0.37,2.3,1.11,3.06s1.72,1.14,2.94,1.14
					c0.12,0,0.33-0.02,0.64-0.06c0.09-0.01,0.15-0.02,0.18-0.03L283.95,255.6z"/>
				<path class="st0" d="M298.48,247.04l-1.05,7.85c-0.03,0.2-0.04,0.42-0.06,0.65c-0.01,0.23-0.02,0.49-0.02,0.77
					c0,0.86,0.21,1.5,0.63,1.94c0.42,0.44,1.03,0.66,1.84,0.66c0.57,0,1.07-0.12,1.5-0.35c0.43-0.23,0.79-0.57,1.07-1.03
					c0.35-0.58,0.64-1.72,0.86-3.4c0.01-0.1,0.02-0.16,0.03-0.2l0.93-6.9h2.88l-1.03,7.82c-0.17,1.29-0.37,2.24-0.58,2.85
					c-0.22,0.62-0.52,1.16-0.9,1.64c-0.55,0.68-1.23,1.18-2.04,1.5c-0.81,0.32-1.78,0.48-2.92,0.48c-1.75,0-3.06-0.4-3.92-1.19
					c-0.86-0.79-1.29-1.99-1.29-3.58c0-0.23,0.03-0.62,0.08-1.16c0.05-0.54,0.13-1.22,0.23-2.01l0.84-6.35H298.48z"/>
				<path class="st0" d="M307.8,260.95l1.82-13.9h2.92l-1.82,13.9H307.8z"/>
				<path class="st0" d="M313.3,260.95l1.83-13.9h3.03l4.3,7.17c0.46,0.79,0.79,1.38,0.99,1.78s0.35,0.78,0.47,1.13
					c0.03-0.66,0.06-1.24,0.09-1.74c0.04-0.5,0.08-0.9,0.11-1.19l0.96-7.14h2.74l-1.84,13.9h-2.82l-4.79-8.09
					c-0.3-0.49-0.54-0.93-0.72-1.3c-0.18-0.37-0.34-0.73-0.47-1.07v0.45c0,0.48-0.01,0.93-0.04,1.38c-0.03,0.44-0.06,0.86-0.11,1.25
					l-1.04,7.39H313.3z"/>
				<path class="st0" d="M327.29,260.95l7.2-13.9h3.17l3.34,13.9h-3.09l-0.59-2.99h-5.29l-1.5,2.99H327.29z M336.78,255.68
					l-0.67-3.29c-0.06-0.34-0.12-0.74-0.17-1.22c-0.05-0.48-0.1-1.05-0.14-1.71c-0.14,0.51-0.29,0.98-0.45,1.41s-0.33,0.84-0.5,1.21
					l-1.69,3.6H336.78z"/>
				<path class="st0" d="M342.91,257.21c0.33,0.57,0.71,0.99,1.14,1.26c0.43,0.27,0.94,0.41,1.52,0.41c0.62,0,1.11-0.17,1.46-0.5
					c0.35-0.34,0.53-0.8,0.53-1.39c0-0.38-0.1-0.72-0.3-1.02c-0.2-0.3-0.51-0.56-0.92-0.79c-0.1-0.06-0.25-0.14-0.45-0.25
					c-1.14-0.62-1.91-1.15-2.3-1.59c-0.28-0.32-0.5-0.69-0.65-1.11c-0.15-0.42-0.22-0.86-0.22-1.34c0-1.2,0.43-2.2,1.29-3
					s1.95-1.2,3.26-1.2c0.79,0,1.49,0.15,2.11,0.44s1.14,0.74,1.57,1.33l-1.49,1.93c-0.25-0.46-0.55-0.81-0.91-1.04
					c-0.36-0.23-0.78-0.34-1.25-0.34c-0.54,0-0.98,0.15-1.33,0.46s-0.53,0.71-0.53,1.19c0,0.63,0.58,1.27,1.73,1.92
					c0.22,0.13,0.39,0.22,0.5,0.29c1.04,0.61,1.75,1.21,2.13,1.8c0.37,0.59,0.56,1.35,0.56,2.28c0,1.3-0.44,2.35-1.32,3.14
					c-0.88,0.8-2.04,1.2-3.49,1.2c-0.88,0-1.67-0.17-2.36-0.52s-1.3-0.88-1.84-1.6L342.91,257.21z"/>
				<path class="st0" d="M357.07,257.51l0.31-2.39h5.44l-0.3,2.39H357.07z"/>
				<path class="st0" d="M368.44,260.95l7.2-13.9h3.17l3.34,13.9h-3.09l-0.59-2.99h-5.29l-1.5,2.99H368.44z M377.94,255.68
					l-0.67-3.29c-0.06-0.34-0.12-0.74-0.17-1.22c-0.05-0.48-0.1-1.05-0.14-1.71c-0.14,0.51-0.29,0.98-0.45,1.41s-0.33,0.84-0.5,1.21
					l-1.69,3.6H377.94z"/>
				<path class="st0" d="M383.2,260.95l1.83-13.9h2.92l-1.52,11.43h4.83l-0.32,2.47H383.2z"/>
				<path class="st0" d="M393.26,260.95l1.51-11.47h-3.61l0.32-2.43h9.87l-0.31,2.43h-3.36l-1.5,11.47H393.26z"/>
				<path class="st0" d="M407.36,261.32c-2.08,0-3.75-0.61-5-1.82c-1.25-1.21-1.88-2.83-1.88-4.85c0-0.99,0.18-1.95,0.53-2.89
					c0.35-0.94,0.86-1.78,1.51-2.52c0.73-0.82,1.61-1.44,2.62-1.88c1.01-0.43,2.1-0.65,3.28-0.65c2.08,0,3.75,0.6,5,1.8
					c1.25,1.2,1.88,2.79,1.88,4.77c0,1.03-0.16,2-0.48,2.91c-0.32,0.91-0.78,1.71-1.39,2.42c-0.77,0.89-1.67,1.56-2.7,2.02
					C409.7,261.09,408.58,261.32,407.36,261.32z M408.25,249.24c-1.38,0-2.53,0.5-3.44,1.51c-0.91,1.01-1.37,2.28-1.37,3.81
					c0,1.29,0.37,2.32,1.11,3.08c0.74,0.76,1.72,1.14,2.96,1.14c1.37,0,2.52-0.51,3.43-1.54c0.92-1.03,1.37-2.3,1.37-3.82
					c0-1.29-0.37-2.31-1.1-3.06C410.48,249.62,409.49,249.24,408.25,249.24z"/>
				<path class="st0" d="M421.59,260.95l1.83-13.9h2.92c1.65,0,2.81,0.05,3.5,0.16c0.68,0.1,1.26,0.28,1.72,0.52
					c0.98,0.51,1.72,1.27,2.24,2.28c0.52,1.01,0.78,2.21,0.78,3.6c0,1.35-0.23,2.51-0.7,3.47c-0.46,0.97-1.2,1.81-2.19,2.54
					c-0.67,0.48-1.44,0.82-2.32,1.03c-0.88,0.21-2.25,0.31-4.11,0.31h-1.11H421.59z M424.82,258.46c0.04,0,0.1,0,0.17,0
					c0.67,0.03,1.14,0.04,1.42,0.04c1.01,0,1.81-0.09,2.39-0.26c0.58-0.17,1.07-0.46,1.46-0.87c0.43-0.45,0.76-1.01,0.98-1.68
					s0.34-1.42,0.34-2.26c0-1.37-0.29-2.35-0.87-2.96c-0.58-0.6-1.53-0.91-2.86-0.91h-1.87L424.82,258.46z"/>
				<path class="st0" d="M435.52,260.95l1.83-13.9h8.26l-0.3,2.45h-5.39l-0.41,3.13h5.38l-0.31,2.39h-5.38l-0.46,3.49h5.39
					l-0.33,2.45H435.52z"/>
				<path class="st0" d="M450.15,260.95l7.2-13.9h3.17l3.34,13.9h-3.09l-0.59-2.99h-5.29l-1.5,2.99H450.15z M459.64,255.68
					l-0.66-3.29c-0.06-0.34-0.12-0.74-0.17-1.22c-0.05-0.48-0.1-1.05-0.14-1.71c-0.14,0.51-0.29,0.98-0.45,1.41s-0.33,0.84-0.5,1.21
					l-1.69,3.6H459.64z"/>
				<path class="st0" d="M467.83,260.95h-2.92l1.83-13.9h2.9c1.21,0,2.08,0.06,2.62,0.19s1,0.34,1.41,0.65
					c0.45,0.33,0.79,0.73,1.03,1.21s0.35,1.01,0.35,1.59c0,1.06-0.3,1.94-0.9,2.63c-0.6,0.69-1.46,1.16-2.58,1.41l3.15,6.22h-3.19
					l-2.86-6.38L467.83,260.95z M468.85,253.05h0.43c1.1,0,1.85-0.15,2.25-0.45c0.4-0.3,0.59-0.82,0.59-1.55
					c0-0.63-0.17-1.07-0.5-1.32c-0.33-0.25-0.98-0.38-1.95-0.38h-0.33L468.85,253.05z"/>
				<path class="st0" d="M475.76,260.95l1.83-13.9h8.26l-0.3,2.45h-5.39l-0.41,3.13h5.38l-0.31,2.39h-5.38l-0.46,3.49h5.39
					l-0.33,2.45H475.76z"/>
				<path class="st0" d="M489.3,260.95h-2.92l1.83-13.9h2.69c1.31,0,2.24,0.07,2.78,0.21c0.54,0.14,1.02,0.37,1.43,0.7
					c0.46,0.36,0.8,0.8,1.04,1.33c0.24,0.53,0.36,1.12,0.36,1.77c0,0.77-0.14,1.46-0.41,2.07s-0.68,1.13-1.22,1.54
					c-0.44,0.35-0.97,0.6-1.57,0.75c-0.6,0.15-1.49,0.23-2.64,0.23h-0.67L489.3,260.95z M490.3,253.26h0.45
					c1.1,0,1.85-0.16,2.25-0.48c0.4-0.32,0.59-0.86,0.59-1.62c0-0.65-0.17-1.1-0.49-1.36c-0.33-0.26-0.98-0.39-1.96-0.39h-0.33
					L490.3,253.26z"/>
				<path class="st0" d="M494.25,260.95l7.2-13.9h3.17l3.34,13.9h-3.09l-0.59-2.99H499l-1.5,2.99H494.25z M503.75,255.68l-0.67-3.29
					c-0.06-0.34-0.12-0.74-0.17-1.22c-0.05-0.48-0.1-1.05-0.14-1.71c-0.14,0.51-0.29,0.98-0.45,1.41s-0.33,0.84-0.5,1.21l-1.69,3.6
					H503.75z"/>
				<path class="st0" d="M509.87,257.21c0.33,0.57,0.71,0.99,1.14,1.26c0.43,0.27,0.94,0.41,1.52,0.41c0.62,0,1.11-0.17,1.46-0.5
					c0.35-0.34,0.53-0.8,0.53-1.39c0-0.38-0.1-0.72-0.3-1.02c-0.2-0.3-0.51-0.56-0.92-0.79c-0.1-0.06-0.25-0.14-0.45-0.25
					c-1.14-0.62-1.91-1.15-2.3-1.59c-0.29-0.32-0.5-0.69-0.65-1.11c-0.15-0.42-0.22-0.86-0.22-1.34c0-1.2,0.43-2.2,1.29-3
					s1.95-1.2,3.26-1.2c0.79,0,1.49,0.15,2.11,0.44c0.61,0.29,1.14,0.74,1.57,1.33l-1.49,1.93c-0.25-0.46-0.55-0.81-0.91-1.04
					c-0.36-0.23-0.78-0.34-1.25-0.34c-0.54,0-0.98,0.15-1.33,0.46s-0.53,0.71-0.53,1.19c0,0.63,0.58,1.27,1.73,1.92
					c0.22,0.13,0.39,0.22,0.5,0.29c1.04,0.61,1.75,1.21,2.13,1.8c0.37,0.59,0.56,1.35,0.56,2.28c0,1.3-0.44,2.35-1.32,3.14
					c-0.88,0.8-2.04,1.2-3.49,1.2c-0.88,0-1.67-0.17-2.36-0.52s-1.3-0.88-1.84-1.6L509.87,257.21z"/>
			</g>
			<g>
				<path d="M139.61,157.18v0.17c0,0.51,0.17,0.93,0.51,1.25c0.34,0.32,0.78,0.48,1.31,0.48c0.65,0,1.19-0.2,1.6-0.61
					c0.41-0.41,0.62-0.93,0.62-1.56c0-0.61-0.23-1.08-0.68-1.41c-0.46-0.33-1.13-0.5-2.01-0.54l0.28-2.36
					c0.04,0.01,0.1,0.01,0.15,0.01c0.06,0,0.14,0,0.26,0c0.77,0,1.38-0.17,1.81-0.51c0.44-0.34,0.66-0.81,0.66-1.41
					c0-0.49-0.15-0.88-0.46-1.17s-0.73-0.43-1.27-0.43c-0.49,0-0.9,0.14-1.23,0.42s-0.53,0.66-0.6,1.14h-2.51
					c0.16-1.17,0.64-2.08,1.44-2.75c0.8-0.67,1.83-1.01,3.07-1.01c1.28,0,2.31,0.32,3.1,0.95c0.79,0.63,1.18,1.46,1.18,2.48
					c0,0.87-0.26,1.62-0.77,2.25c-0.51,0.63-1.22,1.06-2.13,1.31c0.83,0.26,1.45,0.66,1.87,1.21c0.41,0.55,0.62,1.24,0.62,2.07
					c0,1.2-0.46,2.18-1.39,2.96c-0.93,0.78-2.13,1.16-3.61,1.16c-1.38,0-2.45-0.36-3.22-1.07c-0.77-0.71-1.18-1.73-1.23-3.05H139.61
					z"/>
				<path d="M158.33,152.8c0,2.56-0.54,4.62-1.6,6.18c-1.07,1.56-2.47,2.34-4.2,2.34c-1.39,0-2.46-0.51-3.21-1.52
					c-0.75-1.02-1.12-2.48-1.12-4.39c0-2.54,0.53-4.59,1.58-6.15c1.05-1.56,2.43-2.35,4.12-2.35c1.44,0,2.54,0.5,3.3,1.51
					S158.33,150.89,158.33,152.8z M153.76,149.39c-0.82,0-1.48,0.59-1.98,1.79c-0.51,1.19-0.76,2.77-0.76,4.74
					c0,0.98,0.14,1.71,0.42,2.19c0.28,0.48,0.71,0.72,1.29,0.72c0.84,0,1.51-0.58,2.01-1.73c0.5-1.16,0.76-2.72,0.76-4.69
					c0-1.03-0.14-1.79-0.42-2.28C154.79,149.63,154.35,149.39,153.76,149.39z"/>
				<path d="M164.45,160.95l1.83-13.9h2.92l-0.84,6.26l5.43-6.26h3.44l-5.94,6.67l4.19,7.24h-3.27l-3.93-7.02l-0.91,7.02H164.45z"/>
				<path d="M176.6,160.95l1.82-13.9h2.92l-1.82,13.9H176.6z"/>
				<path d="M182.09,160.95l1.83-13.9h2.92l-1.52,11.43h4.82l-0.32,2.47H182.09z"/>
				<path d="M197.17,161.32c-2.08,0-3.75-0.61-5-1.82c-1.25-1.21-1.88-2.83-1.88-4.85c0-0.99,0.18-1.95,0.53-2.89
					c0.35-0.94,0.86-1.78,1.51-2.52c0.73-0.82,1.61-1.44,2.62-1.88c1.01-0.43,2.1-0.65,3.28-0.65c2.08,0,3.75,0.6,5,1.8
					c1.25,1.2,1.88,2.79,1.88,4.77c0,1.03-0.16,2-0.48,2.91c-0.32,0.91-0.78,1.71-1.39,2.42c-0.77,0.89-1.67,1.56-2.7,2.02
					C199.51,161.09,198.39,161.32,197.17,161.32z M198.07,149.24c-1.38,0-2.53,0.5-3.44,1.51c-0.91,1.01-1.37,2.28-1.37,3.81
					c0,1.29,0.37,2.32,1.11,3.08c0.74,0.76,1.72,1.14,2.96,1.14c1.37,0,2.52-0.51,3.43-1.54c0.92-1.03,1.37-2.3,1.37-3.82
					c0-1.29-0.37-2.31-1.1-3.06C200.3,149.62,199.31,149.24,198.07,149.24z"/>
				<path d="M205.23,160.95l3.93-13.9h3.08l1.32,6.35c0.09,0.49,0.18,1.04,0.25,1.66c0.07,0.62,0.13,1.29,0.18,2.01
					c0.15-0.56,0.32-1.11,0.51-1.64s0.4-1.04,0.64-1.54l3.12-6.85h3.19l0.18,13.9h-2.74l0.08-6.5c0.01-0.73,0.04-1.46,0.08-2.2
					c0.04-0.74,0.1-1.49,0.18-2.25c-0.25,0.73-0.5,1.41-0.75,2.05c-0.25,0.64-0.5,1.22-0.75,1.74l-3.4,7.16h-1.58l-1.69-7.82
					c-0.08-0.4-0.16-0.88-0.23-1.44c-0.07-0.56-0.13-1.18-0.18-1.86c-0.15,0.85-0.27,1.52-0.36,2.02c-0.09,0.5-0.17,0.85-0.23,1.06
					l-1.95,8.03H205.23z"/>
				<path d="M223.21,160.95l1.83-13.9h8.26l-0.3,2.45h-5.39l-0.41,3.12h5.38l-0.31,2.39h-5.38l-0.46,3.49h5.39l-0.33,2.45H223.21z"
					/>
				<path d="M235.95,160.95l1.51-11.47h-3.61l0.32-2.43h9.87l-0.31,2.43h-3.36l-1.5,11.47H235.95z"/>
				<path d="M246.53,160.95h-2.93l1.83-13.9h2.9c1.21,0,2.08,0.06,2.62,0.19c0.53,0.13,1,0.34,1.41,0.65
					c0.45,0.33,0.79,0.73,1.03,1.21c0.23,0.48,0.35,1.01,0.35,1.59c0,1.06-0.3,1.94-0.9,2.63s-1.46,1.16-2.58,1.41l3.15,6.22h-3.19
					l-2.86-6.38L246.53,160.95z M247.56,153.05h0.43c1.1,0,1.85-0.15,2.25-0.45c0.4-0.3,0.59-0.82,0.59-1.55
					c0-0.63-0.17-1.07-0.5-1.32c-0.33-0.25-0.98-0.38-1.95-0.38h-0.33L247.56,153.05z"/>
				<path d="M261.6,161.32c-2.08,0-3.75-0.61-5-1.82c-1.25-1.21-1.88-2.83-1.88-4.85c0-0.99,0.18-1.95,0.53-2.89
					c0.35-0.94,0.86-1.78,1.51-2.52c0.73-0.82,1.61-1.44,2.62-1.88s2.1-0.65,3.28-0.65c2.08,0,3.75,0.6,5,1.8
					c1.25,1.2,1.88,2.79,1.88,4.77c0,1.03-0.16,2-0.48,2.91c-0.32,0.91-0.78,1.71-1.39,2.42c-0.77,0.89-1.67,1.56-2.7,2.02
					S262.82,161.32,261.6,161.32z M262.49,149.24c-1.38,0-2.53,0.5-3.44,1.51c-0.91,1.01-1.37,2.28-1.37,3.81
					c0,1.29,0.37,2.32,1.11,3.08s1.72,1.14,2.96,1.14c1.37,0,2.52-0.51,3.43-1.54c0.92-1.03,1.37-2.3,1.37-3.82
					c0-1.29-0.37-2.31-1.1-3.06C264.72,149.62,263.74,149.24,262.49,149.24z"/>
				<path d="M271.41,157.21c0.33,0.57,0.71,0.99,1.14,1.26s0.94,0.41,1.52,0.41c0.62,0,1.11-0.17,1.46-0.5
					c0.35-0.34,0.53-0.8,0.53-1.39c0-0.38-0.1-0.72-0.3-1.02c-0.2-0.3-0.51-0.56-0.92-0.79c-0.1-0.06-0.25-0.14-0.45-0.25
					c-1.14-0.62-1.91-1.15-2.3-1.59c-0.29-0.32-0.5-0.69-0.65-1.11c-0.15-0.42-0.22-0.86-0.22-1.34c0-1.2,0.43-2.2,1.29-3
					c0.86-0.8,1.95-1.2,3.26-1.2c0.79,0,1.49,0.15,2.11,0.44c0.61,0.29,1.14,0.74,1.57,1.32l-1.49,1.93
					c-0.25-0.46-0.55-0.81-0.91-1.04c-0.36-0.23-0.78-0.34-1.25-0.34c-0.54,0-0.98,0.16-1.33,0.47c-0.35,0.31-0.53,0.71-0.53,1.19
					c0,0.63,0.58,1.27,1.73,1.92c0.22,0.13,0.39,0.22,0.5,0.29c1.04,0.61,1.75,1.22,2.13,1.8c0.37,0.59,0.56,1.35,0.56,2.28
					c0,1.3-0.44,2.35-1.32,3.14s-2.04,1.2-3.49,1.2c-0.88,0-1.67-0.17-2.35-0.52c-0.69-0.35-1.3-0.88-1.84-1.6L271.41,157.21z"/>
				<path d="M285.31,160.95l1.83-13.9h2.92c1.65,0,2.81,0.05,3.5,0.16s1.26,0.28,1.72,0.52c0.98,0.51,1.72,1.27,2.24,2.28
					c0.52,1.01,0.78,2.21,0.78,3.6c0,1.35-0.23,2.51-0.7,3.48c-0.46,0.97-1.2,1.81-2.19,2.54c-0.67,0.48-1.44,0.83-2.32,1.03
					c-0.88,0.21-2.25,0.31-4.11,0.31h-1.11H285.31z M288.54,158.46c0.04,0,0.1,0,0.17,0c0.67,0.03,1.14,0.04,1.42,0.04
					c1.01,0,1.81-0.09,2.39-0.26c0.58-0.17,1.07-0.46,1.46-0.87c0.43-0.45,0.76-1.01,0.98-1.68c0.22-0.67,0.34-1.42,0.34-2.25
					c0-1.37-0.29-2.35-0.87-2.96c-0.58-0.6-1.53-0.91-2.86-0.91h-1.87L288.54,158.46z"/>
				<path d="M299.24,160.95l1.83-13.9h8.26l-0.3,2.45h-5.39l-0.41,3.12h5.38l-0.31,2.39h-5.38l-0.46,3.49h5.39l-0.33,2.45H299.24z"
					/>
				<path d="M318.07,160.95h-2.92l1.83-13.9h2.69c1.31,0,2.24,0.07,2.78,0.21c0.54,0.14,1.02,0.37,1.43,0.7
					c0.46,0.36,0.8,0.8,1.04,1.33c0.24,0.53,0.36,1.12,0.36,1.77c0,0.77-0.14,1.46-0.41,2.07s-0.68,1.13-1.22,1.54
					c-0.44,0.35-0.97,0.6-1.57,0.75c-0.6,0.15-1.49,0.23-2.64,0.23h-0.67L318.07,160.95z M319.08,153.26h0.45
					c1.1,0,1.85-0.16,2.25-0.48c0.4-0.32,0.59-0.86,0.59-1.62c0-0.65-0.17-1.1-0.49-1.36s-0.98-0.39-1.96-0.39h-0.33L319.08,153.26z
					"/>
				<path d="M330.36,147.04l-1.05,7.85c-0.03,0.2-0.04,0.42-0.06,0.66c-0.01,0.23-0.02,0.49-0.02,0.77c0,0.85,0.21,1.5,0.63,1.94
					c0.42,0.44,1.03,0.66,1.84,0.66c0.57,0,1.07-0.12,1.5-0.35s0.79-0.57,1.07-1.03c0.35-0.58,0.64-1.72,0.86-3.4
					c0.01-0.09,0.02-0.16,0.03-0.2l0.93-6.9h2.88l-1.03,7.82c-0.17,1.29-0.37,2.24-0.58,2.85c-0.22,0.62-0.52,1.16-0.9,1.64
					c-0.55,0.68-1.23,1.18-2.04,1.5c-0.81,0.32-1.78,0.48-2.92,0.48c-1.75,0-3.06-0.4-3.92-1.19c-0.86-0.79-1.29-1.98-1.29-3.58
					c0-0.23,0.03-0.61,0.08-1.16c0.05-0.54,0.13-1.22,0.23-2.01l0.84-6.35H330.36z"/>
				<path d="M342.56,160.95h-2.92l1.83-13.9h2.9c1.21,0,2.08,0.06,2.62,0.19c0.54,0.13,1,0.34,1.41,0.65
					c0.45,0.33,0.79,0.73,1.03,1.21c0.23,0.48,0.35,1.01,0.35,1.59c0,1.06-0.3,1.94-0.9,2.63c-0.6,0.69-1.46,1.16-2.58,1.41
					l3.15,6.22h-3.19l-2.86-6.38L342.56,160.95z M343.58,153.05h0.43c1.1,0,1.85-0.15,2.25-0.45s0.59-0.82,0.59-1.55
					c0-0.63-0.17-1.07-0.5-1.32c-0.33-0.25-0.98-0.38-1.95-0.38h-0.33L343.58,153.05z"/>
				<path d="M349.2,160.95l7.2-13.9h3.17l3.34,13.9h-3.09l-0.59-2.99h-5.29l-1.5,2.99H349.2z M358.7,155.68l-0.67-3.29
					c-0.06-0.34-0.12-0.74-0.17-1.22c-0.05-0.48-0.1-1.05-0.14-1.71c-0.14,0.51-0.29,0.98-0.45,1.41s-0.33,0.84-0.5,1.21l-1.69,3.6
					H358.7z"/>
				<path d="M380.36,160.44c-0.58,0.29-1.21,0.51-1.88,0.66c-0.67,0.15-1.39,0.22-2.16,0.22c-2.04,0-3.68-0.61-4.92-1.82
					c-1.24-1.21-1.87-2.81-1.87-4.79c0-1.03,0.17-2.02,0.52-2.95c0.35-0.94,0.85-1.78,1.5-2.52c0.73-0.82,1.6-1.45,2.61-1.88
					s2.11-0.65,3.31-0.65c0.85,0,1.64,0.1,2.38,0.31s1.44,0.53,2.09,0.95l-0.41,2.73c-0.7-0.51-1.39-0.88-2.05-1.12
					c-0.67-0.24-1.34-0.36-2.01-0.36c-1.46,0-2.66,0.5-3.59,1.5c-0.93,1-1.4,2.28-1.4,3.85c0,1.29,0.37,2.31,1.1,3.07
					c0.73,0.76,1.72,1.14,2.96,1.14c0.8,0,1.55-0.11,2.24-0.33c0.69-0.22,1.33-0.55,1.91-1L380.36,160.44z"/>
				<path d="M381.21,160.95l7.2-13.9h3.17l3.34,13.9h-3.09l-0.59-2.99h-5.29l-1.5,2.99H381.21z M390.71,155.68l-0.67-3.29
					c-0.06-0.34-0.12-0.74-0.17-1.22c-0.05-0.48-0.1-1.05-0.14-1.71c-0.14,0.51-0.29,0.98-0.45,1.41s-0.33,0.84-0.5,1.21l-1.69,3.6
					H390.71z"/>
				<path d="M395.97,160.95l1.83-13.9h3.03l4.3,7.17c0.46,0.79,0.79,1.38,0.99,1.78c0.2,0.4,0.35,0.78,0.48,1.13
					c0.03-0.66,0.06-1.24,0.09-1.74c0.04-0.5,0.08-0.9,0.11-1.19l0.96-7.14h2.74l-1.84,13.9h-2.82l-4.79-8.09
					c-0.3-0.49-0.54-0.93-0.72-1.3c-0.18-0.37-0.34-0.73-0.46-1.07v0.45c0,0.48-0.01,0.93-0.04,1.38c-0.03,0.44-0.06,0.86-0.11,1.25
					l-1.04,7.39H395.97z"/>
				<path d="M411.24,160.95l1.83-13.9h2.92c1.65,0,2.81,0.05,3.5,0.16s1.26,0.28,1.72,0.52c0.98,0.51,1.72,1.27,2.24,2.28
					c0.52,1.01,0.78,2.21,0.78,3.6c0,1.35-0.23,2.51-0.7,3.48c-0.46,0.97-1.2,1.81-2.19,2.54c-0.67,0.48-1.44,0.83-2.32,1.03
					c-0.88,0.21-2.25,0.31-4.11,0.31h-1.11H411.24z M414.47,158.46c0.04,0,0.1,0,0.17,0c0.67,0.03,1.14,0.04,1.42,0.04
					c1.01,0,1.81-0.09,2.39-0.26c0.58-0.17,1.07-0.46,1.46-0.87c0.43-0.45,0.76-1.01,0.98-1.68c0.22-0.67,0.34-1.42,0.34-2.25
					c0-1.37-0.29-2.35-0.87-2.96c-0.58-0.6-1.53-0.91-2.86-0.91h-1.87L414.47,158.46z"/>
				<path d="M425.17,160.95l1.83-13.9h8.26l-0.3,2.45h-5.39l-0.41,3.12h5.38l-0.31,2.39h-5.38l-0.46,3.49h5.39l-0.33,2.45H425.17z"
					/>
				<path d="M435.78,160.95l1.83-13.9h2.92l-1.52,11.43h4.82l-0.32,2.47H435.78z"/>
				<path d="M443.5,160.95l7.2-13.9h3.17l3.34,13.9h-3.09l-0.59-2.99h-5.29l-1.5,2.99H443.5z M453,155.68l-0.67-3.29
					c-0.06-0.34-0.12-0.74-0.17-1.22c-0.05-0.48-0.1-1.05-0.14-1.71c-0.14,0.51-0.29,0.98-0.45,1.41s-0.33,0.84-0.5,1.21l-1.69,3.6
					H453z"/>
			</g>
		</g>
	</g>
	<g>
		<polygon class="st1" points="214.17,39.55 208.82,39.55 202.41,89.91 214.17,89.91 365.88,89.91 371.25,39.55 		"/>
		<g>
			<path class="st0" d="M238.33,80.71c-1.24,0.62-2.57,1.08-4.01,1.39c-1.43,0.31-2.97,0.46-4.59,0.46c-4.34,0-7.82-1.29-10.47-3.88
				c-2.65-2.58-3.97-5.98-3.97-10.18c0-2.19,0.37-4.29,1.11-6.28c0.74-1.99,1.8-3.78,3.19-5.35c1.55-1.75,3.4-3.08,5.54-4
				c2.15-0.92,4.49-1.37,7.04-1.37c1.8,0,3.49,0.22,5.06,0.67c1.57,0.44,3.05,1.12,4.45,2.02l-0.87,5.8
				c-1.49-1.08-2.95-1.87-4.36-2.38c-1.41-0.51-2.84-0.77-4.28-0.77c-3.11,0-5.65,1.06-7.63,3.19c-1.98,2.13-2.97,4.85-2.97,8.18
				c0,2.73,0.78,4.91,2.34,6.52s3.66,2.42,6.3,2.42c1.71,0,3.29-0.23,4.76-0.7c1.46-0.46,2.82-1.17,4.07-2.13L238.33,80.71z"/>
			<path class="st0" d="M248.05,81.78h-6.22l3.9-29.56h6.16c2.57,0,4.43,0.13,5.56,0.4c1.14,0.27,2.14,0.73,3,1.37
				c0.96,0.7,1.68,1.56,2.18,2.57c0.5,1.02,0.75,2.14,0.75,3.38c0,2.26-0.64,4.13-1.91,5.6c-1.27,1.47-3.1,2.47-5.48,3l6.7,13.23
				h-6.79l-6.08-13.57L248.05,81.78z M250.23,65h0.91c2.34,0,3.93-0.32,4.78-0.96c0.84-0.64,1.26-1.74,1.26-3.3
				c0-1.33-0.35-2.27-1.06-2.81c-0.71-0.54-2.09-0.81-4.15-0.81h-0.71L250.23,65z"/>
			<path class="st0" d="M279.06,82.57c-4.43,0-7.98-1.29-10.64-3.88c-2.67-2.58-4-6.02-4-10.32c0-2.1,0.38-4.15,1.13-6.14
				c0.75-1.99,1.82-3.78,3.21-5.35c1.56-1.74,3.42-3.07,5.56-3.99c2.15-0.92,4.47-1.38,6.98-1.38c4.43,0,7.98,1.28,10.64,3.83
				c2.67,2.55,4,5.93,4,10.15c0,2.19-0.34,4.26-1.02,6.19c-0.68,1.93-1.67,3.65-2.96,5.14c-1.63,1.88-3.54,3.32-5.73,4.29
				C284.03,82.08,281.64,82.57,279.06,82.57z M280.96,56.88c-2.93,0-5.37,1.07-7.31,3.22c-1.94,2.15-2.91,4.85-2.91,8.11
				c0,2.75,0.78,4.93,2.35,6.55c1.57,1.62,3.67,2.43,6.29,2.43c2.92,0,5.35-1.09,7.3-3.27c1.95-2.18,2.92-4.89,2.92-8.12
				c0-2.73-0.78-4.9-2.34-6.51C285.7,57.69,283.6,56.88,280.96,56.88z"/>
			<path class="st0" d="M297.04,81.78l3.9-29.56h6.44l9.15,15.25c0.98,1.67,1.68,2.93,2.1,3.78c0.42,0.85,0.75,1.65,1.01,2.4
				c0.05-1.4,0.12-2.64,0.2-3.71c0.08-1.07,0.16-1.91,0.24-2.53l2.04-15.19h5.82l-3.92,29.56h-6l-10.18-17.2
				c-0.63-1.05-1.14-1.97-1.54-2.77c-0.39-0.79-0.72-1.55-0.99-2.28v0.95c0,1.01-0.03,1.99-0.08,2.93
				c-0.05,0.94-0.13,1.83-0.24,2.67l-2.2,15.71H297.04z"/>
			<path class="st0" d="M343.66,82.57c-4.43,0-7.98-1.29-10.64-3.88c-2.67-2.58-4-6.02-4-10.32c0-2.1,0.38-4.15,1.13-6.14
				c0.75-1.99,1.82-3.78,3.21-5.35c1.56-1.74,3.42-3.07,5.56-3.99c2.15-0.92,4.47-1.38,6.98-1.38c4.43,0,7.98,1.28,10.64,3.83
				c2.67,2.55,4,5.93,4,10.15c0,2.19-0.34,4.26-1.02,6.19c-0.68,1.93-1.67,3.65-2.96,5.14c-1.63,1.88-3.54,3.32-5.73,4.29
				C348.64,82.08,346.25,82.57,343.66,82.57z M345.56,56.88c-2.93,0-5.37,1.07-7.31,3.22c-1.94,2.15-2.91,4.85-2.91,8.11
				c0,2.75,0.78,4.93,2.35,6.55c1.57,1.62,3.67,2.43,6.29,2.43c2.92,0,5.35-1.09,7.3-3.27c1.95-2.18,2.92-4.89,2.92-8.12
				c0-2.73-0.78-4.9-2.34-6.51C350.3,57.69,348.2,56.88,345.56,56.88z"/>
		</g>
		<g>
			<path d="M311.24,98.68c-0.08-0.75-0.15-1.64-0.22-2.68c-0.22,0.79-0.45,1.53-0.7,2.21c-0.25,0.68-0.51,1.31-0.79,1.89l-2.64,5.63
				h5.66l-1.04-5.14C311.41,100.06,311.32,99.42,311.24,98.68z"/>
			<path d="M277.61,98.68c-0.08-0.75-0.15-1.64-0.22-2.68c-0.22,0.79-0.45,1.53-0.7,2.21c-0.25,0.68-0.51,1.31-0.79,1.89l-2.64,5.63
				h5.66l-1.04-5.14C277.78,100.06,277.69,99.42,277.61,98.68z"/>
			<path d="M329.81,96.17h-2.93l-1.83,13.9c0.06,0,0.15,0,0.27,0c1.04,0.04,1.78,0.06,2.23,0.06c1.58,0,2.83-0.14,3.74-0.41
				c0.91-0.27,1.67-0.73,2.29-1.36c0.67-0.7,1.19-1.58,1.54-2.62c0.35-1.04,0.53-2.22,0.53-3.53c0-2.14-0.45-3.68-1.36-4.63
				C333.38,96.65,331.89,96.17,329.81,96.17z"/>
			<path d="M218.7,84.3h-5.2l-6.22,35.93h11.42h147.34l5.22-35.93H218.7z M230.37,104.68h-8.42l-0.71,5.45h8.44l-0.52,3.83h-12.94
				l2.87-21.74h12.92l-0.48,3.83h-8.44l-0.64,4.89h8.41L230.37,104.68z M240.04,100.91c0.35,0.2,0.61,0.35,0.79,0.46
				c1.63,0.96,2.74,1.9,3.33,2.82c0.58,0.92,0.88,2.11,0.88,3.56c0,2.03-0.69,3.67-2.06,4.92c-1.37,1.25-3.19,1.87-5.46,1.87
				c-1.38,0-2.6-0.27-3.68-0.82c-1.08-0.54-2.04-1.38-2.88-2.5l2.47-3.1c0.51,0.89,1.11,1.55,1.78,1.98
				c0.67,0.43,1.47,0.64,2.38,0.64c0.97,0,1.73-0.26,2.28-0.79c0.55-0.52,0.82-1.25,0.82-2.17c0-0.59-0.16-1.12-0.48-1.59
				c-0.32-0.47-0.8-0.88-1.44-1.23c-0.16-0.09-0.39-0.22-0.7-0.39c-1.78-0.97-2.98-1.8-3.59-2.48c-0.45-0.51-0.78-1.08-1.02-1.73
				c-0.23-0.65-0.35-1.35-0.35-2.1c0-1.87,0.67-3.43,2.02-4.69c1.35-1.25,3.04-1.88,5.09-1.88c1.24,0,2.34,0.23,3.3,0.69
				c0.96,0.46,1.78,1.15,2.45,2.07l-2.33,3.01c-0.39-0.72-0.86-1.26-1.43-1.62c-0.56-0.36-1.22-0.53-1.96-0.53
				c-0.84,0-1.54,0.24-2.09,0.73c-0.55,0.49-0.82,1.1-0.82,1.86C237.33,98.89,238.23,99.89,240.04,100.91z M263.49,113.18
				c-0.91,0.46-1.89,0.8-2.95,1.02c-1.05,0.23-2.18,0.34-3.38,0.34c-3.19,0-5.75-0.95-7.7-2.85c-1.95-1.9-2.92-4.4-2.92-7.48
				c0-1.61,0.27-3.15,0.82-4.62c0.54-1.47,1.33-2.78,2.35-3.94c1.14-1.29,2.5-2.27,4.08-2.94c1.58-0.67,3.3-1.01,5.18-1.01
				c1.33,0,2.57,0.16,3.72,0.49c1.15,0.33,2.24,0.82,3.27,1.49l-0.64,4.26c-1.1-0.79-2.17-1.38-3.21-1.75
				c-1.04-0.38-2.09-0.56-3.15-0.56c-2.29,0-4.16,0.78-5.61,2.35c-1.46,1.56-2.18,3.57-2.18,6.01c0,2.01,0.57,3.61,1.72,4.8
				c1.15,1.19,2.69,1.78,4.63,1.78c1.26,0,2.42-0.17,3.5-0.51c1.07-0.34,2.07-0.86,2.99-1.57L263.49,113.18z M280.69,113.97
				l-0.92-4.68h-8.27l-2.35,4.68h-5.08l11.26-21.74h4.96l5.23,21.74H280.69z M314.31,113.97l-0.92-4.68h-8.27l-2.35,4.68h-4.3h-0.78
				h-11.31l2.87-21.74h4.56l-2.38,17.88h7.54l-0.24,1.85l10.22-19.73h4.96l5.23,21.74H314.31z M335.79,111.87
				c-1.04,0.75-2.25,1.29-3.63,1.61c-1.38,0.32-3.52,0.48-6.42,0.48H324h-3.99l2.87-21.74h4.56c2.57,0,4.4,0.08,5.46,0.25
				c1.07,0.16,1.97,0.43,2.69,0.81c1.52,0.8,2.69,1.99,3.5,3.56c0.81,1.57,1.22,3.45,1.22,5.63c0,2.11-0.36,3.92-1.09,5.44
				C338.49,109.42,337.35,110.74,335.79,111.87z M355.11,113.97l-0.92-4.68h-8.27l-2.35,4.68h-5.08l11.26-21.74h4.96l5.23,21.74
				H355.11z"/>
			<path d="M352.04,98.68c-0.08-0.75-0.15-1.64-0.22-2.68c-0.22,0.79-0.45,1.53-0.7,2.21c-0.25,0.68-0.51,1.31-0.79,1.89l-2.64,5.63
				h5.66l-1.04-5.14C352.2,100.06,352.11,99.42,352.04,98.68z"/>
		</g>
		<g>
			<radialGradient id="SVGID_1_" cx="360.2467" cy="17.9079" r="52.0651" gradientUnits="userSpaceOnUse">
				<stop  offset="0" style="stop-color:#E8C84C"/>
				<stop  offset="0.9949" style="stop-color:#DD9D34"/>
			</radialGradient>
			<path class="st2" d="M360.86,23.27c0,0-11.71,10.57-2.08,21.81c9.63,11.24,15.15,22.16,6.27,36.57c0,0,4.32-12.72-7.08-24.61
				C349.46,48.17,342.14,33.43,360.86,23.27z"/>
			<radialGradient id="SVGID_2_" cx="360.1119" cy="25.2624" r="39.4486" gradientUnits="userSpaceOnUse">
				<stop  offset="0" style="stop-color:#E0A433"/>
				<stop  offset="0.9949" style="stop-color:#D27C35"/>
			</radialGradient>
			<path class="st3" d="M367.22,73.41c-0.41-4.89-2.32-11.22-8.22-17.37c-3.6-3.75-9.47-11.2-8.27-18.86
				c0.44-2.85,1.86-5.48,4.22-7.87c-1.93,4.45-2.59,10.49,2.74,16.7c5.53,6.45,8.54,11.54,9.77,16.51
				C368.35,66.12,368.28,69.72,367.22,73.41z"/>
			<radialGradient id="SVGID_3_" cx="360.2464" cy="17.9084" r="52.0648" gradientUnits="userSpaceOnUse">
				<stop  offset="0" style="stop-color:#E8C84C"/>
				<stop  offset="0.9949" style="stop-color:#DD9D34"/>
			</radialGradient>
			<path class="st4" d="M377,15.1c0,0-18.92,2.81-17.12,21.54c1.8,18.73,24.66,23.04,6.93,46.27c0,0,25.12-6.3,22.6-26.46
				C386.89,36.27,363.87,32.45,377,15.1z"/>
			
				<radialGradient id="SVGID_4_" cx="363.7453" cy="20.4201" r="41.8831" gradientTransform="matrix(0.999 0.045 -0.045 0.999 2.6881 -9.6208)" gradientUnits="userSpaceOnUse">
				<stop  offset="0" style="stop-color:#E0A433"/>
				<stop  offset="0.9949" style="stop-color:#D27C35"/>
			</radialGradient>
			<path class="st5" d="M370.54,79.93c7.85-11.16,3.7-17.62-0.68-24.42c-2.63-4.1-5.36-8.33-5.65-14.02
				c-0.56-10.9,7.11-14.8,11.58-16.14c-4.82,7.74-0.83,12.99,3.36,18.52c3.27,4.31,6.98,9.2,7.54,16.23
				c0.54,6.81-2.56,12.38-9.21,16.54C375.03,78.18,372.51,79.24,370.54,79.93z"/>
			
				<radialGradient id="SVGID_5_" cx="364.8207" cy="19.6097" r="34.5123" gradientTransform="matrix(0.9955 0.095 -0.095 0.9955 6.6407 -20.172)" gradientUnits="userSpaceOnUse">
				<stop  offset="0" style="stop-color:#D0742E"/>
				<stop  offset="0.9949" style="stop-color:#C4422E"/>
			</radialGradient>
			<path class="st6" d="M372.75,78.39c4.53-8.62,1.12-15.23-1.95-21.18c-2.2-4.26-4.28-8.29-4.05-13.4
				c0.27-6.03,3.08-9.37,6.41-11.21c-1.9,6.11,1.33,11.32,4.24,16.04c2.82,4.56,5.74,9.28,5.64,15.7
				c-0.1,6.05-3.22,10.53-9.54,13.69C373.25,78.15,373,78.27,372.75,78.39z"/>
		</g>
	</g>
</g>
</svg>
