<?xml version="1.0" encoding="utf-8"?>
<!-- Generator: Adobe Illustrator 23.0.3, SVG Export Plug-In . SVG Version: 6.00 Build 0)  -->
<svg version="1.1" id="Capa_1" xmlns="http://www.w3.org/2000/svg" xmlns:xlink="http://www.w3.org/1999/xlink" x="0px" y="0px"
	 viewBox="0 0 584.17 327" style="enable-background:new 0 0 584.17 327;" xml:space="preserve">
<style type="text/css">
	.st0{fill:#211915;}
	.st1{fill:#FFFFFF;}
	.st2{fill:#BE0811;}
	.st3{fill:url(#SVGID_1_);}
	.st4{fill:url(#SVGID_2_);}
	.st5{fill:url(#SVGID_3_);}
	.st6{fill:url(#SVGID_4_);}
	.st7{fill:url(#SVGID_5_);}
</style>
<g>
	<g>
		<path class="st0" d="M163.63,235.94v-22.37h-5.44l2.29-4.57h8.64v26.94H163.63z"/>
		<path class="st0" d="M190.46,235.94v-5.22h-13.1v-2.51l13.1-19.75h4.98v18.39h2.86v3.86h-2.86v5.22H190.46z M190.53,226.85v-9.36
			c0-0.92,0.02-1.61,0.05-2.08c0.03-0.47,0.08-0.9,0.14-1.3c-0.24,0.63-0.51,1.26-0.84,1.9c-0.32,0.63-0.68,1.25-1.06,1.86
			l-5.87,8.99H190.53z"/>
		<path class="st0" d="M212.64,235.94v-27.2h7.41c2.92,0,5.23,0.2,6.91,0.61c1.68,0.41,3.16,1.09,4.44,2.04
			c1.65,1.23,2.9,2.77,3.74,4.64c0.85,1.86,1.27,3.99,1.27,6.36c0,2.42-0.43,4.56-1.3,6.42c-0.87,1.86-2.14,3.4-3.81,4.62
			c-1.24,0.89-2.62,1.53-4.13,1.92c-1.52,0.39-3.74,0.59-6.66,0.59h-2.06H212.64z M218.45,231.03h3.23c3.05,0,5.27-0.69,6.66-2.08
			c1.39-1.39,2.09-3.59,2.09-6.6c0-3-0.7-5.19-2.09-6.59c-1.39-1.39-3.61-2.09-6.66-2.09h-3.23V231.03z"/>
		<path class="st0" d="M240.33,235.94v-27.2h16.02v4.91h-10.2v5.59h10.2v4.94h-10.2v6.82h10.2v4.94H240.33z"/>
		<path class="st0" d="M268.61,235.94l10.35-27.2h6.65l10.5,27.2h-6.61l-2.21-5.78h-10.53l-1.9,5.78H268.61z M285.92,225.59
			l-3.05-8.79c-0.09-0.26-0.2-0.71-0.33-1.34c-0.14-0.63-0.28-1.41-0.43-2.32c-0.16,0.88-0.32,1.67-0.46,2.37
			c-0.15,0.7-0.26,1.17-0.33,1.4l-2.94,8.68H285.92z"/>
		<path class="st0" d="M310.85,221.59h12.39c0.02,0.16,0.04,0.33,0.05,0.52c0.01,0.19,0.01,0.47,0.01,0.85
			c0,4.08-1.16,7.38-3.49,9.9c-2.33,2.53-5.34,3.79-9.03,3.79c-4.22,0-7.7-1.35-10.44-4.04c-2.74-2.69-4.11-6.12-4.11-10.27
			c0-4.11,1.38-7.51,4.12-10.2c2.75-2.69,6.22-4.03,10.42-4.03c2.22,0,4.25,0.46,6.09,1.39c1.85,0.93,3.49,2.32,4.94,4.16l-3.92,2.9
			c-0.98-1.21-2.01-2.09-3.08-2.63s-2.32-0.81-3.73-0.81c-2.69,0-4.84,0.84-6.45,2.51c-1.61,1.67-2.42,3.91-2.42,6.71
			c0,2.75,0.81,4.97,2.42,6.66c1.62,1.69,3.73,2.54,6.33,2.54c1.91,0,3.46-0.45,4.65-1.35c1.19-0.9,1.78-2.07,1.78-3.52v-0.3h-6.54
			V221.59z"/>
		<path class="st0" d="M354.81,222.39c0,1.94-0.36,3.78-1.09,5.52c-0.72,1.73-1.77,3.26-3.13,4.57c-1.41,1.35-3,2.38-4.78,3.1
			c-1.77,0.72-3.6,1.08-5.5,1.08c-1.66,0-3.29-0.28-4.88-0.85c-1.59-0.56-3.05-1.37-4.38-2.42c-1.71-1.36-3.02-2.99-3.93-4.89
			c-0.91-1.9-1.37-3.93-1.37-6.11c0-1.96,0.36-3.79,1.08-5.51c0.72-1.72,1.77-3.24,3.16-4.58c1.36-1.33,2.95-2.35,4.75-3.08
			c1.8-0.73,3.66-1.1,5.56-1.1c1.9,0,3.74,0.37,5.53,1.1c1.79,0.73,3.37,1.76,4.75,3.08c1.37,1.34,2.42,2.87,3.14,4.59
			C354.45,218.61,354.81,220.45,354.81,222.39z M340.32,231.48c2.46,0,4.5-0.86,6.1-2.59c1.6-1.73,2.41-3.89,2.41-6.49
			c0-2.58-0.81-4.74-2.43-6.5c-1.62-1.76-3.65-2.64-6.08-2.64c-2.46,0-4.51,0.88-6.13,2.63c-1.62,1.75-2.43,3.92-2.43,6.51
			c0,2.63,0.8,4.8,2.4,6.51S337.8,231.48,340.32,231.48z"/>
		<path class="st0" d="M357.02,232.48l3.23-3.66c0.41,1,1.06,1.79,1.97,2.37c0.9,0.58,1.92,0.86,3.05,0.86
			c1.36,0,2.44-0.32,3.23-0.97c0.79-0.64,1.19-1.51,1.19-2.6c0-1.29-1.32-2.57-3.96-3.85c-0.85-0.41-1.53-0.74-2.03-1
			c-2.38-1.24-4.03-2.45-4.94-3.63c-0.92-1.18-1.37-2.59-1.37-4.23c0-2.24,0.89-4.08,2.67-5.53c1.78-1.44,4.08-2.16,6.92-2.16
			c1.65,0,3.07,0.29,4.26,0.86c1.2,0.58,2.25,1.48,3.17,2.7l-3.44,3.29c-0.41-0.79-0.95-1.38-1.63-1.77
			c-0.68-0.39-1.49-0.59-2.44-0.59c-1.15,0-2.08,0.29-2.79,0.86c-0.71,0.58-1.06,1.32-1.06,2.24c0,1.44,1.4,2.75,4.2,3.94
			c0.56,0.24,0.98,0.42,1.28,0.56c2.3,1.05,4.01,2.24,5.12,3.57c1.11,1.33,1.66,2.84,1.66,4.53c0,2.55-0.87,4.59-2.61,6.1
			c-1.74,1.52-4.08,2.28-7.01,2.28c-2.08,0-3.86-0.36-5.35-1.08C358.86,234.86,357.75,233.83,357.02,232.48z"/>
		<path class="st0" d="M389.29,213.68v22.26h-5.83v-22.26h-6.65v-4.94h19.14v4.94H389.29z"/>
		<path class="st0" d="M425.98,222.39c0,1.94-0.36,3.78-1.09,5.52c-0.72,1.73-1.77,3.26-3.13,4.57c-1.41,1.35-3,2.38-4.78,3.1
			c-1.77,0.72-3.6,1.08-5.5,1.08c-1.66,0-3.29-0.28-4.88-0.85c-1.59-0.56-3.05-1.37-4.38-2.42c-1.71-1.36-3.02-2.99-3.93-4.89
			c-0.91-1.9-1.37-3.93-1.37-6.11c0-1.96,0.36-3.79,1.08-5.51c0.72-1.72,1.77-3.24,3.16-4.58c1.36-1.33,2.94-2.35,4.75-3.08
			c1.8-0.73,3.66-1.1,5.57-1.1c1.89,0,3.74,0.37,5.53,1.1c1.79,0.73,3.37,1.76,4.75,3.08c1.37,1.34,2.42,2.87,3.14,4.59
			C425.62,218.61,425.98,220.45,425.98,222.39z M411.49,231.48c2.46,0,4.5-0.86,6.1-2.59c1.6-1.73,2.41-3.89,2.41-6.49
			c0-2.58-0.81-4.74-2.43-6.5c-1.62-1.76-3.65-2.64-6.08-2.64c-2.47,0-4.51,0.88-6.13,2.63c-1.62,1.75-2.43,3.92-2.43,6.51
			c0,2.63,0.8,4.8,2.4,6.51C406.92,230.62,408.98,231.48,411.49,231.48z"/>
	</g>
	<g>
		<polygon points="124.86,256.73 109.2,256.73 109.2,309.51 567.32,309.51 551.66,256.73 		"/>
		<g>
			<polygon points="458.71,256.73 474.35,256.73 474.35,309.51 16.85,309.51 32.49,256.73 			"/>
		</g>
	</g>
	<g>
		<path class="st1" d="M54.46,285.41c0.35,0.6,0.75,1.05,1.21,1.34c0.46,0.29,0.99,0.43,1.61,0.43c0.66,0,1.17-0.18,1.54-0.53
			c0.37-0.35,0.56-0.85,0.56-1.47c0-0.4-0.11-0.76-0.32-1.08c-0.21-0.32-0.54-0.59-0.98-0.84c-0.11-0.06-0.27-0.15-0.47-0.26
			c-1.21-0.66-2.02-1.22-2.44-1.68c-0.3-0.34-0.53-0.73-0.69-1.17c-0.16-0.44-0.24-0.91-0.24-1.42c0-1.27,0.46-2.33,1.37-3.18
			c0.91-0.85,2.06-1.27,3.45-1.27c0.84,0,1.58,0.16,2.23,0.47c0.65,0.31,1.2,0.78,1.66,1.4l-1.58,2.04
			c-0.26-0.49-0.58-0.86-0.97-1.1c-0.38-0.24-0.83-0.36-1.33-0.36c-0.57,0-1.04,0.16-1.41,0.49c-0.37,0.33-0.56,0.75-0.56,1.26
			c0,0.66,0.61,1.34,1.83,2.03c0.23,0.13,0.41,0.24,0.53,0.31c1.11,0.65,1.86,1.29,2.25,1.91c0.4,0.62,0.59,1.43,0.59,2.42
			c0,1.38-0.46,2.49-1.39,3.33c-0.93,0.85-2.16,1.27-3.7,1.27c-0.93,0-1.76-0.18-2.5-0.55c-0.73-0.37-1.38-0.93-1.95-1.69
			L54.46,285.41z"/>
		<path class="st1" d="M62.23,289.37l7.63-14.73h3.36l3.54,14.73h-3.27l-0.62-3.17h-5.61l-1.59,3.17H62.23z M72.29,283.78l-0.7-3.48
			c-0.07-0.36-0.13-0.79-0.18-1.29c-0.05-0.51-0.1-1.11-0.15-1.82c-0.15,0.54-0.31,1.03-0.47,1.49c-0.17,0.46-0.35,0.89-0.53,1.28
			l-1.79,3.81H72.29z"/>
		<path class="st1" d="M77.87,289.37l1.94-14.73h3.09l-1.61,12.12h5.11l-0.34,2.62H77.87z"/>
		<path class="st1" d="M87.45,289.37l1.93-14.73h3.09l-1.93,14.73H87.45z"/>
		<path class="st1" d="M95.53,289.37l1.6-12.16h-3.82l0.34-2.58h10.46l-0.33,2.58h-3.56l-1.59,12.16H95.53z"/>
		<path class="st1" d="M106.74,289.37h-3.1l1.94-14.73h3.07c1.28,0,2.21,0.07,2.77,0.2c0.57,0.13,1.07,0.36,1.49,0.68
			c0.48,0.35,0.84,0.78,1.09,1.28c0.25,0.51,0.37,1.07,0.37,1.68c0,1.13-0.32,2.06-0.95,2.79c-0.63,0.74-1.54,1.23-2.73,1.49
			l3.34,6.59h-3.38l-3.03-6.76L106.74,289.37z M107.83,281.01h0.45c1.17,0,1.96-0.16,2.38-0.48c0.42-0.32,0.63-0.87,0.63-1.64
			c0-0.66-0.18-1.13-0.53-1.4c-0.35-0.27-1.04-0.4-2.07-0.4h-0.35L107.83,281.01z"/>
		<path class="st1" d="M115.14,289.37l1.94-14.73h8.76l-0.32,2.6h-5.72l-0.43,3.31h5.7l-0.33,2.54h-5.71l-0.48,3.69h5.72l-0.35,2.6
			H115.14z"/>
		<path class="st1" d="M125.76,291.28l7.87-16.98h2.04l-7.87,16.98H125.76z"/>
		<path class="st1" d="M148.1,279.12c-0.43-0.72-0.97-1.27-1.62-1.65c-0.65-0.38-1.38-0.57-2.17-0.57c-1.47,0-2.69,0.54-3.65,1.62
			c-0.96,1.08-1.44,2.45-1.44,4.1c0,1.36,0.4,2.45,1.19,3.25c0.79,0.81,1.85,1.21,3.17,1.21c0.91,0,1.71-0.25,2.39-0.75
			c0.68-0.5,1.18-1.2,1.48-2.1h-3.49l0.33-2.58h6.68c-0.15,2.58-0.89,4.57-2.21,5.98c-1.32,1.41-3.11,2.12-5.35,2.12
			c-2.23,0-4-0.64-5.33-1.93c-1.33-1.29-1.99-3.01-1.99-5.17c0-1.06,0.19-2.1,0.57-3.11c0.38-1.01,0.92-1.92,1.62-2.72
			c0.71-0.83,1.59-1.46,2.63-1.89c1.04-0.43,2.19-0.65,3.45-0.65c1.43,0,2.65,0.26,3.67,0.78c1.02,0.52,1.85,1.29,2.48,2.33
			L148.1,279.12z"/>
		<path class="st1" d="M156.86,274.64l-1.12,8.32c-0.03,0.21-0.05,0.45-0.06,0.69c-0.01,0.25-0.02,0.52-0.02,0.82
			c0,0.91,0.22,1.59,0.67,2.06c0.45,0.47,1.1,0.7,1.95,0.7c0.6,0,1.13-0.12,1.59-0.37c0.46-0.25,0.83-0.61,1.14-1.09
			c0.38-0.62,0.68-1.82,0.92-3.6c0.01-0.1,0.02-0.17,0.03-0.21l0.99-7.32h3.05l-1.09,8.28c-0.18,1.36-0.39,2.37-0.62,3.02
			c-0.23,0.65-0.55,1.23-0.95,1.74c-0.58,0.72-1.31,1.25-2.16,1.59c-0.86,0.34-1.89,0.51-3.09,0.51c-1.86,0-3.24-0.42-4.16-1.26
			c-0.91-0.84-1.37-2.1-1.37-3.79c0-0.24,0.03-0.65,0.09-1.23s0.14-1.29,0.25-2.13l0.89-6.73H156.86z"/>
		<path class="st1" d="M164.97,289.37l7.63-14.73h3.36l3.54,14.73h-3.27l-0.62-3.17h-5.61l-1.59,3.17H164.97z M175.04,283.78
			l-0.7-3.48c-0.07-0.36-0.13-0.79-0.18-1.29c-0.05-0.51-0.1-1.11-0.15-1.82c-0.15,0.54-0.31,1.03-0.47,1.49
			c-0.17,0.46-0.35,0.89-0.53,1.28l-1.79,3.81H175.04z"/>
		<path class="st1" d="M181.53,285.41c0.35,0.6,0.75,1.05,1.21,1.34c0.46,0.29,0.99,0.43,1.61,0.43c0.66,0,1.17-0.18,1.54-0.53
			c0.37-0.35,0.56-0.85,0.56-1.47c0-0.4-0.11-0.76-0.32-1.08c-0.21-0.32-0.54-0.59-0.98-0.84c-0.11-0.06-0.27-0.15-0.47-0.26
			c-1.21-0.66-2.02-1.22-2.44-1.68c-0.3-0.34-0.53-0.73-0.69-1.17c-0.16-0.44-0.24-0.91-0.24-1.42c0-1.27,0.46-2.33,1.37-3.18
			c0.91-0.85,2.06-1.27,3.45-1.27c0.84,0,1.58,0.16,2.23,0.47c0.65,0.31,1.2,0.78,1.66,1.4l-1.58,2.04
			c-0.26-0.49-0.58-0.86-0.97-1.1c-0.38-0.24-0.83-0.36-1.33-0.36c-0.57,0-1.04,0.16-1.41,0.49c-0.37,0.33-0.56,0.75-0.56,1.26
			c0,0.66,0.61,1.34,1.83,2.03c0.23,0.13,0.41,0.24,0.53,0.31c1.11,0.65,1.86,1.29,2.25,1.91c0.4,0.62,0.59,1.43,0.59,2.42
			c0,1.38-0.46,2.49-1.39,3.33c-0.93,0.85-2.16,1.27-3.7,1.27c-0.93,0-1.76-0.18-2.5-0.55c-0.73-0.37-1.38-0.93-1.95-1.69
			L181.53,285.41z"/>
		<path class="st1" d="M202.43,288.84c-0.62,0.31-1.28,0.54-2,0.69c-0.71,0.15-1.48,0.23-2.29,0.23c-2.16,0-3.9-0.64-5.22-1.93
			c-1.32-1.29-1.98-2.98-1.98-5.07c0-1.09,0.18-2.14,0.55-3.13c0.37-0.99,0.9-1.88,1.59-2.67c0.77-0.87,1.69-1.54,2.76-1.99
			c1.07-0.46,2.24-0.68,3.51-0.68c0.9,0,1.74,0.11,2.52,0.33c0.78,0.22,1.52,0.56,2.22,1.01l-0.43,2.89
			c-0.74-0.54-1.47-0.93-2.17-1.19c-0.7-0.26-1.42-0.38-2.13-0.38c-1.55,0-2.82,0.53-3.8,1.59c-0.99,1.06-1.48,2.42-1.48,4.08
			c0,1.36,0.39,2.45,1.17,3.25c0.78,0.8,1.83,1.21,3.14,1.21c0.85,0,1.64-0.12,2.37-0.35c0.73-0.23,1.4-0.59,2.03-1.06
			L202.43,288.84z"/>
		<path class="st1" d="M203.33,289.37l7.63-14.73h3.36l3.54,14.73h-3.27l-0.62-3.17h-5.61l-1.59,3.17H203.33z M213.4,283.78
			l-0.7-3.48c-0.07-0.36-0.13-0.79-0.18-1.29c-0.05-0.51-0.1-1.11-0.15-1.82c-0.15,0.54-0.31,1.03-0.47,1.49
			c-0.17,0.46-0.35,0.89-0.53,1.28l-1.79,3.81H213.4z"/>
		<path class="st1" d="M224.84,285.73l0.33-2.54h5.77l-0.32,2.54H224.84z"/>
		<path class="st1" d="M243.82,289.37l0.37-2.83h-6l0.31-2.33l7.55-9.44h2.49l-1.25,9.54h1.58l-0.31,2.22H247l-0.37,2.83H243.82z
			 M244.55,284.32l0.6-4.27c0.01-0.12,0.05-0.34,0.11-0.66c0.06-0.32,0.14-0.68,0.23-1.08l-0.06,0.08c-0.56,0.8-0.92,1.32-1.09,1.54
			l-3.42,4.39H244.55z"/>
		<path class="st1" d="M255.61,289.37l1.94-14.73h8.76l-0.32,2.6h-5.72l-0.43,3.31h5.7l-0.33,2.54h-5.71l-0.48,3.69h5.72l-0.35,2.6
			H255.61z"/>
		<path class="st1" d="M267.78,285.41c0.35,0.6,0.75,1.05,1.21,1.34c0.46,0.29,0.99,0.43,1.61,0.43c0.66,0,1.17-0.18,1.54-0.53
			c0.37-0.35,0.56-0.85,0.56-1.47c0-0.4-0.11-0.76-0.32-1.08c-0.21-0.32-0.54-0.59-0.98-0.84c-0.11-0.06-0.26-0.15-0.47-0.26
			c-1.21-0.66-2.02-1.22-2.44-1.68c-0.3-0.34-0.53-0.73-0.69-1.17c-0.16-0.44-0.24-0.91-0.24-1.42c0-1.27,0.46-2.33,1.37-3.18
			c0.91-0.85,2.06-1.27,3.45-1.27c0.84,0,1.58,0.16,2.23,0.47c0.65,0.31,1.21,0.78,1.66,1.4l-1.58,2.04
			c-0.26-0.49-0.58-0.86-0.97-1.1c-0.38-0.24-0.82-0.36-1.33-0.36c-0.57,0-1.04,0.16-1.42,0.49c-0.37,0.33-0.56,0.75-0.56,1.26
			c0,0.66,0.61,1.34,1.83,2.03c0.23,0.13,0.41,0.24,0.53,0.31c1.11,0.65,1.86,1.29,2.25,1.91c0.4,0.62,0.59,1.43,0.59,2.42
			c0,1.38-0.46,2.49-1.39,3.33c-0.93,0.85-2.16,1.27-3.7,1.27c-0.93,0-1.76-0.18-2.5-0.55c-0.73-0.37-1.38-0.93-1.95-1.69
			L267.78,285.41z"/>
		<path class="st1" d="M291.04,290.79h-3.21l-0.87-1.38c-0.49,0.11-0.95,0.2-1.37,0.26c-0.43,0.06-0.82,0.09-1.18,0.09
			c-2.17,0-3.92-0.65-5.25-1.95c-1.33-1.3-1.99-3.01-1.99-5.15c0-1.04,0.19-2.05,0.56-3.04c0.38-0.99,0.91-1.88,1.6-2.67
			c0.78-0.87,1.7-1.53,2.77-1.99c1.07-0.46,2.23-0.69,3.48-0.69c2.19,0,3.96,0.64,5.29,1.91c1.34,1.28,2,2.95,2,5.03
			c0,1.48-0.29,2.82-0.88,4c-0.58,1.18-1.44,2.18-2.57,2.98L291.04,290.79z M283.46,283.7h3.21l1.28,2.08
			c0.6-0.62,1.05-1.3,1.35-2.03c0.29-0.73,0.44-1.53,0.44-2.41c0-1.33-0.39-2.39-1.17-3.19c-0.78-0.8-1.83-1.2-3.13-1.2
			c-1.47,0-2.69,0.54-3.66,1.61c-0.97,1.07-1.46,2.43-1.46,4.06c0,1.36,0.39,2.44,1.17,3.25c0.78,0.81,1.82,1.21,3.11,1.21
			c0.13,0,0.35-0.02,0.67-0.06c0.09-0.01,0.16-0.02,0.19-0.03L283.46,283.7z"/>
		<path class="st1" d="M298.86,274.64l-1.12,8.32c-0.03,0.21-0.05,0.45-0.06,0.69c-0.01,0.25-0.02,0.52-0.02,0.82
			c0,0.91,0.22,1.59,0.67,2.06c0.45,0.47,1.1,0.7,1.95,0.7c0.6,0,1.13-0.12,1.59-0.37c0.46-0.25,0.84-0.61,1.14-1.09
			c0.38-0.62,0.68-1.82,0.92-3.6c0.01-0.1,0.02-0.17,0.03-0.21l0.99-7.32h3.05l-1.09,8.28c-0.18,1.36-0.39,2.37-0.62,3.02
			c-0.23,0.65-0.55,1.23-0.95,1.74c-0.58,0.72-1.31,1.25-2.16,1.59c-0.86,0.34-1.89,0.51-3.09,0.51c-1.86,0-3.24-0.42-4.16-1.26
			c-0.91-0.84-1.37-2.1-1.37-3.79c0-0.24,0.03-0.65,0.09-1.23c0.06-0.58,0.14-1.29,0.25-2.13l0.89-6.73H298.86z"/>
		<path class="st1" d="M308.74,289.37l1.93-14.73h3.09l-1.93,14.73H308.74z"/>
		<path class="st1" d="M314.57,289.37l1.94-14.73h3.21l4.56,7.6c0.49,0.83,0.84,1.46,1.05,1.88c0.21,0.42,0.37,0.82,0.5,1.2
			c0.03-0.7,0.06-1.31,0.1-1.85c0.04-0.53,0.08-0.95,0.12-1.26l1.02-7.57h2.9l-1.95,14.73h-2.99l-5.07-8.57
			c-0.32-0.52-0.57-0.98-0.77-1.38c-0.19-0.4-0.36-0.78-0.49-1.14v0.47c0,0.5-0.01,0.99-0.04,1.46c-0.03,0.47-0.07,0.91-0.12,1.33
			l-1.1,7.83H314.57z"/>
		<path class="st1" d="M329.39,289.37l7.63-14.73h3.36l3.54,14.73h-3.27l-0.62-3.17h-5.61l-1.59,3.17H329.39z M339.45,283.78
			l-0.7-3.48c-0.07-0.36-0.13-0.79-0.18-1.29c-0.05-0.51-0.1-1.11-0.15-1.82c-0.15,0.54-0.31,1.03-0.47,1.49
			c-0.17,0.46-0.35,0.89-0.53,1.28l-1.79,3.81H339.45z"/>
		<path class="st1" d="M345.94,285.41c0.35,0.6,0.75,1.05,1.21,1.34c0.46,0.29,0.99,0.43,1.61,0.43c0.66,0,1.17-0.18,1.54-0.53
			c0.37-0.35,0.56-0.85,0.56-1.47c0-0.4-0.11-0.76-0.32-1.08c-0.21-0.32-0.54-0.59-0.98-0.84c-0.11-0.06-0.26-0.15-0.47-0.26
			c-1.21-0.66-2.02-1.22-2.44-1.68c-0.3-0.34-0.53-0.73-0.69-1.17c-0.16-0.44-0.24-0.91-0.24-1.42c0-1.27,0.46-2.33,1.37-3.18
			c0.91-0.85,2.06-1.27,3.45-1.27c0.84,0,1.58,0.16,2.23,0.47c0.65,0.31,1.21,0.78,1.66,1.4l-1.58,2.04
			c-0.26-0.49-0.58-0.86-0.97-1.1c-0.38-0.24-0.82-0.36-1.33-0.36c-0.57,0-1.04,0.16-1.42,0.49c-0.37,0.33-0.56,0.75-0.56,1.26
			c0,0.66,0.61,1.34,1.83,2.03c0.23,0.13,0.41,0.24,0.53,0.31c1.11,0.65,1.86,1.29,2.25,1.91c0.4,0.62,0.59,1.43,0.59,2.42
			c0,1.38-0.46,2.49-1.39,3.33c-0.93,0.85-2.16,1.27-3.7,1.27c-0.93,0-1.76-0.18-2.5-0.55c-0.73-0.37-1.38-0.93-1.95-1.69
			L345.94,285.41z"/>
		<path class="st1" d="M360.94,285.73l0.33-2.54h5.77l-0.32,2.54H360.94z"/>
		<path class="st1" d="M373,289.37l7.63-14.73h3.36l3.54,14.73h-3.27l-0.62-3.17h-5.61l-1.59,3.17H373z M383.06,283.78l-0.7-3.48
			c-0.07-0.36-0.13-0.79-0.18-1.29c-0.05-0.51-0.1-1.11-0.15-1.82c-0.15,0.54-0.31,1.03-0.47,1.49c-0.17,0.46-0.35,0.89-0.53,1.28
			l-1.79,3.81H383.06z"/>
		<path class="st1" d="M388.64,289.37l1.94-14.73h3.09l-1.61,12.12h5.11l-0.34,2.62H388.64z"/>
		<path class="st1" d="M399.3,289.37l1.6-12.16h-3.82l0.34-2.58h10.46l-0.33,2.58h-3.56l-1.59,12.16H399.3z"/>
		<path class="st1" d="M414.24,289.76c-2.21,0-3.98-0.64-5.3-1.93c-1.33-1.29-1.99-3-1.99-5.14c0-1.05,0.19-2.07,0.56-3.06
			c0.38-0.99,0.91-1.88,1.6-2.67c0.78-0.87,1.7-1.53,2.77-1.99c1.07-0.46,2.23-0.69,3.48-0.69c2.21,0,3.98,0.64,5.3,1.91
			c1.33,1.27,1.99,2.96,1.99,5.06c0,1.09-0.17,2.12-0.51,3.08c-0.34,0.96-0.83,1.82-1.48,2.56c-0.81,0.94-1.76,1.65-2.86,2.14
			C416.72,289.52,415.53,289.76,414.24,289.76z M415.19,276.96c-1.46,0-2.68,0.54-3.64,1.61c-0.97,1.07-1.45,2.42-1.45,4.04
			c0,1.37,0.39,2.46,1.17,3.27c0.78,0.81,1.83,1.21,3.13,1.21c1.46,0,2.67-0.54,3.64-1.63c0.97-1.09,1.46-2.44,1.46-4.05
			c0-1.36-0.39-2.44-1.17-3.25C417.55,277.36,416.5,276.96,415.19,276.96z"/>
		<path class="st1" d="M429.33,289.37l1.94-14.73h3.09c1.74,0,2.98,0.05,3.7,0.17c0.72,0.11,1.33,0.29,1.82,0.55
			c1.03,0.54,1.82,1.35,2.37,2.42c0.55,1.07,0.83,2.34,0.83,3.81c0,1.43-0.25,2.66-0.74,3.68c-0.49,1.03-1.27,1.92-2.32,2.69
			c-0.7,0.51-1.52,0.87-2.46,1.09c-0.94,0.22-2.39,0.33-4.35,0.33h-1.18H429.33z M432.75,286.73c0.04,0,0.1,0,0.18,0
			c0.7,0.03,1.21,0.04,1.51,0.04c1.07,0,1.92-0.09,2.54-0.28c0.62-0.18,1.13-0.49,1.55-0.92c0.46-0.48,0.8-1.07,1.04-1.78
			c0.24-0.71,0.36-1.5,0.36-2.39c0-1.45-0.31-2.49-0.92-3.13c-0.61-0.64-1.62-0.96-3.03-0.96h-1.98L432.75,286.73z"/>
		<path class="st1" d="M444.09,289.37l1.94-14.73h8.76l-0.32,2.6h-5.72l-0.43,3.31h5.7l-0.33,2.54h-5.71l-0.48,3.69h5.72l-0.35,2.6
			H444.09z"/>
		<path class="st1" d="M459.58,289.37l7.63-14.73h3.36l3.54,14.73h-3.27l-0.62-3.17h-5.61l-1.59,3.17H459.58z M469.65,283.78
			l-0.7-3.48c-0.07-0.36-0.13-0.79-0.18-1.29c-0.05-0.51-0.1-1.11-0.15-1.82c-0.15,0.54-0.31,1.03-0.47,1.49
			c-0.17,0.46-0.35,0.89-0.53,1.28l-1.79,3.81H469.65z"/>
		<path class="st1" d="M478.32,289.37h-3.1l1.94-14.73h3.07c1.28,0,2.21,0.07,2.77,0.2c0.57,0.13,1.06,0.36,1.49,0.68
			c0.48,0.35,0.84,0.78,1.09,1.28c0.25,0.51,0.37,1.07,0.37,1.68c0,1.13-0.32,2.06-0.95,2.79c-0.63,0.74-1.54,1.23-2.73,1.49
			l3.34,6.59h-3.38l-3.03-6.76L478.32,289.37z M479.41,281.01h0.45c1.17,0,1.96-0.16,2.38-0.48s0.63-0.87,0.63-1.64
			c0-0.66-0.18-1.13-0.53-1.4c-0.35-0.27-1.04-0.4-2.07-0.4h-0.35L479.41,281.01z"/>
		<path class="st1" d="M486.72,289.37l1.94-14.73h8.76l-0.32,2.6h-5.72l-0.43,3.31h5.7l-0.33,2.54h-5.71l-0.48,3.69h5.72l-0.35,2.6
			H486.72z"/>
		<path class="st1" d="M501.07,289.37h-3.1l1.94-14.73h2.85c1.39,0,2.37,0.07,2.95,0.22c0.58,0.15,1.08,0.4,1.52,0.75
			c0.48,0.38,0.85,0.84,1.1,1.4c0.25,0.56,0.38,1.19,0.38,1.88c0,0.81-0.15,1.54-0.44,2.19c-0.29,0.65-0.72,1.19-1.29,1.63
			c-0.47,0.37-1.03,0.63-1.67,0.79c-0.64,0.16-1.57,0.24-2.8,0.24h-0.7L501.07,289.37z M502.14,281.23h0.47
			c1.17,0,1.96-0.17,2.38-0.5c0.42-0.33,0.63-0.91,0.63-1.72c0-0.68-0.17-1.16-0.52-1.44c-0.35-0.27-1.04-0.41-2.07-0.41h-0.35
			L502.14,281.23z"/>
		<path class="st1" d="M506.32,289.37l7.63-14.73h3.36l3.54,14.73h-3.27l-0.62-3.17h-5.61l-1.59,3.17H506.32z M516.39,283.78
			l-0.7-3.48c-0.07-0.36-0.13-0.79-0.18-1.29c-0.05-0.51-0.1-1.11-0.15-1.82c-0.15,0.54-0.31,1.03-0.47,1.49
			c-0.17,0.46-0.35,0.89-0.53,1.28l-1.79,3.81H516.39z"/>
		<path class="st1" d="M522.87,285.41c0.35,0.6,0.75,1.05,1.21,1.34c0.46,0.29,0.99,0.43,1.61,0.43c0.66,0,1.17-0.18,1.54-0.53
			c0.37-0.35,0.56-0.85,0.56-1.47c0-0.4-0.11-0.76-0.32-1.08c-0.21-0.32-0.54-0.59-0.98-0.84c-0.11-0.06-0.26-0.15-0.47-0.26
			c-1.21-0.66-2.02-1.22-2.44-1.68c-0.3-0.34-0.53-0.73-0.69-1.17c-0.16-0.44-0.24-0.91-0.24-1.42c0-1.27,0.46-2.33,1.37-3.18
			c0.91-0.85,2.06-1.27,3.45-1.27c0.84,0,1.58,0.16,2.23,0.47c0.65,0.31,1.21,0.78,1.66,1.4l-1.58,2.04
			c-0.26-0.49-0.58-0.86-0.97-1.1c-0.38-0.24-0.82-0.36-1.33-0.36c-0.57,0-1.04,0.16-1.42,0.49c-0.37,0.33-0.56,0.75-0.56,1.26
			c0,0.66,0.61,1.34,1.83,2.03c0.23,0.13,0.41,0.24,0.53,0.31c1.11,0.65,1.86,1.29,2.25,1.91c0.4,0.62,0.59,1.43,0.59,2.42
			c0,1.38-0.46,2.49-1.39,3.33c-0.93,0.85-2.16,1.27-3.7,1.27c-0.93,0-1.76-0.18-2.5-0.55c-0.73-0.37-1.38-0.93-1.95-1.69
			L522.87,285.41z"/>
	</g>
</g>
<g>
	<path d="M150.28,175.32v0.16c0,0.48,0.16,0.86,0.47,1.16c0.31,0.3,0.72,0.45,1.22,0.45c0.61,0,1.1-0.19,1.49-0.57
		c0.39-0.38,0.58-0.86,0.58-1.45c0-0.57-0.21-1.01-0.64-1.31c-0.42-0.3-1.05-0.47-1.87-0.5l0.26-2.19c0.04,0.01,0.09,0.01,0.14,0.01
		c0.05,0,0.13,0,0.24,0c0.72,0,1.28-0.16,1.69-0.47c0.41-0.31,0.61-0.75,0.61-1.31c0-0.46-0.14-0.82-0.43-1.09
		c-0.29-0.27-0.68-0.4-1.18-0.4c-0.46,0-0.84,0.13-1.14,0.39c-0.3,0.26-0.49,0.61-0.56,1.06h-2.33c0.15-1.08,0.59-1.94,1.34-2.56
		c0.75-0.62,1.7-0.94,2.85-0.94c1.19,0,2.15,0.29,2.88,0.88c0.73,0.59,1.1,1.36,1.1,2.31c0,0.81-0.24,1.51-0.72,2.09
		c-0.48,0.58-1.14,0.99-1.98,1.22c0.77,0.24,1.35,0.62,1.74,1.13c0.39,0.51,0.58,1.15,0.58,1.93c0,1.11-0.43,2.03-1.29,2.75
		s-1.98,1.08-3.36,1.08c-1.28,0-2.28-0.33-3-0.99c-0.72-0.66-1.1-1.61-1.14-2.84H150.28z"/>
	<path d="M167.69,171.25c0,2.38-0.5,4.29-1.49,5.75c-1,1.45-2.3,2.18-3.9,2.18c-1.3,0-2.29-0.47-2.99-1.42
		c-0.69-0.94-1.04-2.31-1.04-4.09c0-2.36,0.49-4.27,1.47-5.72c0.98-1.45,2.26-2.18,3.83-2.18c1.34,0,2.36,0.47,3.07,1.41
		C167.33,168.12,167.69,169.47,167.69,171.25z M163.44,168.08c-0.76,0-1.38,0.55-1.85,1.66c-0.47,1.11-0.71,2.58-0.71,4.41
		c0,0.91,0.13,1.59,0.39,2.04c0.26,0.45,0.66,0.67,1.2,0.67c0.78,0,1.4-0.54,1.87-1.61c0.47-1.07,0.7-2.53,0.7-4.36
		c0-0.96-0.13-1.67-0.39-2.12C164.39,168.31,163.99,168.08,163.44,168.08z"/>
	<path d="M173.38,178.83l1.71-12.93h2.71l-0.78,5.82l5.05-5.82h3.2l-5.52,6.2l3.9,6.73h-3.04l-3.66-6.53l-0.85,6.53H173.38z"/>
	<path d="M184.68,178.83l1.7-12.93h2.71l-1.7,12.93H184.68z"/>
	<path d="M189.79,178.83l1.71-12.93h2.71l-1.41,10.63h4.49l-0.3,2.3H189.79z"/>
	<path d="M204.8,179.17c-1.94,0-3.49-0.56-4.66-1.7c-1.17-1.13-1.75-2.64-1.75-4.51c0-0.92,0.16-1.81,0.49-2.68s0.8-1.65,1.4-2.34
		c0.68-0.76,1.49-1.34,2.43-1.74c0.94-0.4,1.96-0.61,3.05-0.61c1.94,0,3.49,0.56,4.66,1.67c1.17,1.12,1.75,2.6,1.75,4.44
		c0,0.96-0.15,1.86-0.45,2.71c-0.3,0.85-0.73,1.59-1.29,2.25c-0.71,0.82-1.55,1.45-2.51,1.88
		C206.98,178.96,205.93,179.17,204.8,179.17z M205.63,167.94c-1.28,0-2.35,0.47-3.2,1.41c-0.85,0.94-1.27,2.12-1.27,3.55
		c0,1.2,0.34,2.16,1.03,2.87c0.69,0.71,1.6,1.06,2.75,1.06c1.28,0,2.34-0.48,3.19-1.43c0.85-0.95,1.28-2.14,1.28-3.55
		c0-1.19-0.34-2.15-1.02-2.85C207.7,168.29,206.79,167.94,205.63,167.94z M208.86,161.4l-3.24,3.1h-1.25l1.99-3.1H208.86z"/>
	<path d="M212.29,178.83l3.66-12.93h2.86l1.23,5.91c0.09,0.45,0.17,0.97,0.23,1.55c0.07,0.58,0.12,1.2,0.16,1.87
		c0.14-0.52,0.3-1.03,0.48-1.52c0.18-0.49,0.37-0.97,0.59-1.43l2.91-6.37h2.97l0.17,12.93h-2.55l0.07-6.04
		c0.01-0.68,0.04-1.36,0.08-2.05c0.04-0.69,0.09-1.39,0.16-2.09c-0.24,0.68-0.47,1.31-0.7,1.9c-0.23,0.59-0.46,1.13-0.69,1.62
		l-3.16,6.66h-1.47l-1.57-7.27c-0.08-0.37-0.15-0.82-0.21-1.34c-0.07-0.52-0.12-1.1-0.17-1.73c-0.14,0.79-0.25,1.42-0.34,1.88
		c-0.09,0.47-0.16,0.8-0.21,0.99l-1.81,7.47H212.29z"/>
	<path d="M229.02,178.83l1.71-12.93h7.68l-0.28,2.28h-5.02l-0.38,2.91h5l-0.29,2.23h-5.01l-0.42,3.24h5.02l-0.31,2.28H229.02z"/>
	<path d="M240.87,178.83l1.4-10.67h-3.36l0.3-2.26h9.18l-0.29,2.26h-3.13l-1.4,10.67H240.87z"/>
	<path d="M250.71,178.83h-2.72l1.71-12.93h2.69c1.12,0,1.94,0.06,2.43,0.18c0.5,0.12,0.93,0.32,1.31,0.6
		c0.42,0.31,0.74,0.68,0.95,1.13c0.22,0.44,0.33,0.94,0.33,1.48c0,0.99-0.28,1.81-0.83,2.45c-0.56,0.65-1.36,1.08-2.4,1.31
		l2.93,5.79h-2.97l-2.66-5.94L250.71,178.83z M251.66,171.49h0.4c1.02,0,1.72-0.14,2.09-0.42c0.37-0.28,0.55-0.76,0.55-1.44
		c0-0.58-0.15-0.99-0.46-1.23c-0.31-0.23-0.91-0.35-1.81-0.35h-0.31L251.66,171.49z"/>
	<path d="M264.72,179.17c-1.94,0-3.49-0.56-4.66-1.7c-1.17-1.13-1.75-2.64-1.75-4.51c0-0.92,0.16-1.81,0.49-2.68
		c0.33-0.87,0.8-1.65,1.4-2.34c0.68-0.76,1.49-1.34,2.43-1.74c0.94-0.4,1.96-0.61,3.05-0.61c1.94,0,3.49,0.56,4.65,1.67
		c1.17,1.12,1.75,2.6,1.75,4.44c0,0.96-0.15,1.86-0.45,2.71c-0.3,0.85-0.73,1.59-1.29,2.25c-0.71,0.82-1.55,1.45-2.51,1.88
		C266.9,178.96,265.85,179.17,264.72,179.17z M265.55,167.94c-1.28,0-2.35,0.47-3.2,1.41c-0.85,0.94-1.27,2.12-1.27,3.55
		c0,1.2,0.34,2.16,1.03,2.87c0.69,0.71,1.6,1.06,2.75,1.06c1.28,0,2.34-0.48,3.19-1.43c0.85-0.95,1.28-2.14,1.28-3.55
		c0-1.19-0.34-2.15-1.03-2.85C267.63,168.29,266.71,167.94,265.55,167.94z"/>
	<path d="M273.84,175.36c0.31,0.53,0.66,0.92,1.06,1.18c0.4,0.25,0.87,0.38,1.41,0.38c0.58,0,1.03-0.16,1.36-0.47
		c0.33-0.31,0.49-0.74,0.49-1.29c0-0.35-0.09-0.67-0.28-0.94c-0.19-0.28-0.47-0.52-0.86-0.73c-0.09-0.05-0.23-0.13-0.42-0.23
		c-1.06-0.58-1.77-1.07-2.14-1.47c-0.27-0.3-0.47-0.64-0.61-1.03c-0.14-0.39-0.21-0.8-0.21-1.25c0-1.11,0.4-2.04,1.2-2.79
		c0.8-0.74,1.81-1.12,3.03-1.12c0.74,0,1.39,0.14,1.96,0.41c0.57,0.27,1.06,0.68,1.46,1.23l-1.39,1.79
		c-0.23-0.43-0.51-0.75-0.85-0.96c-0.34-0.21-0.72-0.32-1.17-0.32c-0.5,0-0.91,0.14-1.24,0.43c-0.33,0.29-0.49,0.66-0.49,1.1
		c0,0.58,0.54,1.18,1.61,1.78c0.21,0.12,0.36,0.21,0.47,0.27c0.97,0.57,1.63,1.13,1.98,1.68c0.35,0.55,0.52,1.25,0.52,2.12
		c0,1.21-0.41,2.18-1.22,2.92s-1.9,1.11-3.25,1.11c-0.82,0-1.55-0.16-2.19-0.49c-0.64-0.32-1.21-0.82-1.71-1.48L273.84,175.36z"/>
	<path d="M286.77,178.83l1.7-12.93h2.71c1.53,0,2.61,0.05,3.25,0.15c0.64,0.1,1.17,0.26,1.6,0.48c0.91,0.48,1.6,1.18,2.08,2.12
		c0.48,0.94,0.72,2.05,0.72,3.35c0,1.25-0.22,2.33-0.65,3.23s-1.11,1.69-2.04,2.36c-0.62,0.45-1.34,0.77-2.16,0.96
		c-0.82,0.19-2.1,0.29-3.82,0.29h-1.03H286.77z M289.77,176.52c0.04,0,0.09,0,0.16,0c0.62,0.02,1.06,0.04,1.33,0.04
		c0.94,0,1.68-0.08,2.23-0.24c0.54-0.16,1-0.43,1.36-0.81c0.4-0.42,0.7-0.94,0.91-1.56c0.21-0.62,0.31-1.32,0.31-2.1
		c0-1.27-0.27-2.19-0.81-2.75c-0.54-0.56-1.43-0.84-2.66-0.84h-1.74L289.77,176.52z"/>
	<path d="M299.73,178.83l1.7-12.93h7.68l-0.28,2.28h-5.02l-0.38,2.91h5l-0.29,2.23h-5.01l-0.42,3.24h5.02l-0.31,2.28H299.73z"/>
	<path d="M317.24,178.83h-2.72l1.7-12.93h2.5c1.22,0,2.08,0.06,2.59,0.19c0.51,0.13,0.95,0.35,1.33,0.65
		c0.42,0.33,0.75,0.74,0.97,1.23c0.22,0.49,0.33,1.04,0.33,1.65c0,0.71-0.13,1.35-0.38,1.92c-0.26,0.57-0.63,1.05-1.13,1.43
		c-0.41,0.32-0.9,0.56-1.46,0.7s-1.38,0.21-2.46,0.21h-0.62L317.24,178.83z M318.18,171.69h0.41c1.02,0,1.72-0.15,2.09-0.44
		c0.37-0.29,0.55-0.8,0.55-1.51c0-0.6-0.15-1.02-0.46-1.26c-0.31-0.24-0.91-0.36-1.82-0.36h-0.31L318.18,171.69z"/>
	<path d="M328.67,165.9l-0.98,7.3c-0.02,0.19-0.04,0.39-0.05,0.61c-0.01,0.22-0.02,0.46-0.02,0.72c0,0.79,0.2,1.4,0.59,1.81
		c0.39,0.41,0.96,0.61,1.71,0.61c0.53,0,1-0.11,1.4-0.32c0.4-0.22,0.73-0.53,1-0.96c0.33-0.54,0.6-1.6,0.8-3.16
		c0.01-0.09,0.02-0.15,0.03-0.19l0.87-6.42h2.68l-0.95,7.27c-0.16,1.19-0.34,2.08-0.54,2.65c-0.2,0.57-0.48,1.08-0.84,1.52
		c-0.51,0.63-1.15,1.1-1.9,1.4c-0.75,0.3-1.66,0.45-2.71,0.45c-1.63,0-2.85-0.37-3.65-1.1c-0.8-0.74-1.2-1.85-1.2-3.33
		c0-0.21,0.03-0.57,0.08-1.08c0.05-0.51,0.12-1.13,0.22-1.87l0.78-5.91H328.67z"/>
	<path d="M340.02,178.83h-2.72l1.7-12.93h2.69c1.12,0,1.94,0.06,2.43,0.18c0.5,0.12,0.93,0.32,1.31,0.6
		c0.42,0.31,0.74,0.68,0.95,1.13c0.22,0.44,0.33,0.94,0.33,1.48c0,0.99-0.28,1.81-0.84,2.45c-0.56,0.65-1.36,1.08-2.4,1.31
		l2.93,5.79h-2.97l-2.66-5.94L340.02,178.83z M340.97,171.49h0.4c1.02,0,1.72-0.14,2.09-0.42c0.37-0.28,0.55-0.76,0.55-1.44
		c0-0.58-0.15-0.99-0.46-1.23c-0.31-0.23-0.91-0.35-1.82-0.35h-0.31L340.97,171.49z"/>
	<path d="M346.2,178.83l6.7-12.93h2.95l3.11,12.93h-2.87l-0.55-2.78h-4.92l-1.4,2.78H346.2z M355.03,173.93l-0.62-3.06
		c-0.06-0.31-0.11-0.69-0.16-1.14c-0.05-0.44-0.09-0.98-0.13-1.59c-0.13,0.47-0.27,0.91-0.42,1.31c-0.15,0.4-0.3,0.78-0.47,1.13
		l-1.57,3.35H355.03z"/>
	<path d="M375.18,178.36c-0.54,0.27-1.13,0.47-1.75,0.61c-0.63,0.13-1.3,0.2-2.01,0.2c-1.9,0-3.42-0.56-4.58-1.7
		c-1.16-1.13-1.74-2.61-1.74-4.45c0-0.96,0.16-1.88,0.49-2.75c0.32-0.87,0.79-1.65,1.4-2.34c0.68-0.77,1.49-1.35,2.42-1.75
		c0.94-0.4,1.97-0.6,3.08-0.6c0.79,0,1.53,0.1,2.21,0.29c0.69,0.19,1.34,0.49,1.95,0.88l-0.38,2.53c-0.65-0.47-1.29-0.82-1.91-1.04
		c-0.62-0.22-1.24-0.34-1.87-0.34c-1.36,0-2.47,0.47-3.34,1.4c-0.87,0.93-1.3,2.12-1.3,3.58c0,1.2,0.34,2.15,1.02,2.85
		c0.68,0.71,1.6,1.06,2.76,1.06c0.75,0,1.44-0.1,2.08-0.3c0.64-0.2,1.23-0.51,1.78-0.93L375.18,178.36z"/>
	<path d="M375.97,178.83l6.7-12.93h2.95l3.11,12.93h-2.87l-0.55-2.78h-4.92l-1.4,2.78H375.97z M384.8,173.93l-0.62-3.06
		c-0.06-0.31-0.11-0.69-0.16-1.14c-0.05-0.44-0.09-0.98-0.13-1.59c-0.13,0.47-0.27,0.91-0.42,1.31c-0.15,0.4-0.3,0.78-0.47,1.13
		l-1.57,3.35H384.8z"/>
	<path d="M389.69,178.83l1.7-12.93h2.82l4,6.67c0.43,0.73,0.74,1.28,0.92,1.65c0.18,0.37,0.33,0.72,0.44,1.05
		c0.02-0.61,0.05-1.15,0.09-1.62s0.07-0.84,0.11-1.11l0.89-6.64h2.54l-1.71,12.93h-2.62l-4.45-7.52c-0.28-0.46-0.5-0.86-0.67-1.21
		c-0.17-0.35-0.31-0.68-0.43-1v0.42c0,0.44-0.01,0.87-0.04,1.28c-0.02,0.41-0.06,0.8-0.11,1.17l-0.96,6.87H389.69z"/>
	<path d="M403.89,178.83l1.7-12.93h2.71c1.53,0,2.61,0.05,3.25,0.15c0.64,0.1,1.17,0.26,1.6,0.48c0.91,0.48,1.6,1.18,2.08,2.12
		c0.48,0.94,0.72,2.05,0.72,3.35c0,1.25-0.22,2.33-0.65,3.23c-0.43,0.9-1.11,1.69-2.04,2.36c-0.62,0.45-1.34,0.77-2.16,0.96
		c-0.82,0.19-2.09,0.29-3.82,0.29h-1.03H403.89z M406.9,176.52c0.04,0,0.09,0,0.16,0c0.62,0.02,1.06,0.04,1.33,0.04
		c0.94,0,1.68-0.08,2.23-0.24c0.54-0.16,1-0.43,1.36-0.81c0.4-0.42,0.7-0.94,0.91-1.56c0.21-0.62,0.31-1.32,0.31-2.1
		c0-1.27-0.27-2.19-0.81-2.75c-0.54-0.56-1.43-0.84-2.66-0.84h-1.74L406.9,176.52z"/>
	<path d="M416.85,178.83l1.7-12.93h7.68l-0.28,2.28h-5.02l-0.38,2.91h5l-0.29,2.23h-5.01l-0.42,3.24h5.02l-0.31,2.28H416.85z"/>
	<path d="M426.72,178.83l1.7-12.93h2.71l-1.41,10.63h4.49l-0.3,2.3H426.72z"/>
	<path d="M433.9,178.83l6.7-12.93h2.95l3.11,12.93h-2.87l-0.55-2.78h-4.92l-1.4,2.78H433.9z M442.73,173.93l-0.62-3.06
		c-0.06-0.31-0.11-0.69-0.16-1.14c-0.05-0.44-0.09-0.98-0.13-1.59c-0.13,0.47-0.27,0.91-0.42,1.31c-0.15,0.4-0.3,0.78-0.47,1.13
		l-1.57,3.35H442.73z"/>
</g>
<g>
	<polygon class="st2" points="178.12,43.57 170.66,43.57 161.74,113.7 178.12,113.7 389.41,113.7 396.89,43.57 	"/>
	<g>
		<path class="st1" d="M211.76,100.89c-1.72,0.86-3.59,1.51-5.58,1.94c-2,0.43-4.13,0.65-6.4,0.65c-6.04,0-10.9-1.8-14.58-5.4
			c-3.68-3.6-5.53-8.32-5.53-14.17c0-3.06,0.52-5.97,1.55-8.75c1.03-2.77,2.51-5.26,4.44-7.45c2.16-2.44,4.73-4.29,7.72-5.57
			c2.99-1.27,6.26-1.91,9.8-1.91c2.51,0,4.86,0.31,7.05,0.93c2.18,0.62,4.25,1.56,6.2,2.81l-1.21,8.07
			c-2.08-1.5-4.11-2.61-6.07-3.32c-1.97-0.71-3.96-1.07-5.96-1.07c-4.33,0-7.87,1.48-10.63,4.44c-2.76,2.96-4.13,6.76-4.13,11.39
			c0,3.81,1.09,6.83,3.26,9.08s5.1,3.37,8.77,3.37c2.38,0,4.59-0.32,6.62-0.97c2.03-0.65,3.92-1.64,5.67-2.97L211.76,100.89z"/>
		<path class="st1" d="M225.31,102.38h-8.66l5.43-41.17h8.58c3.58,0,6.16,0.19,7.75,0.56c1.58,0.38,2.98,1.01,4.18,1.91
			c1.33,0.98,2.34,2.17,3.04,3.59c0.69,1.42,1.04,2.99,1.04,4.71c0,3.15-0.89,5.75-2.66,7.8c-1.77,2.05-4.32,3.45-7.64,4.18
			l9.34,18.42h-9.45l-8.47-18.9L225.31,102.38z M228.34,79.01h1.27c3.26,0,5.48-0.45,6.65-1.34c1.17-0.89,1.76-2.42,1.76-4.6
			c0-1.86-0.49-3.16-1.48-3.91c-0.98-0.75-2.91-1.12-5.78-1.12h-0.98L228.34,79.01z"/>
		<path class="st1" d="M268.49,103.48c-6.17,0-11.11-1.8-14.82-5.4c-3.71-3.6-5.57-8.39-5.57-14.37c0-2.93,0.52-5.77,1.58-8.55
			c1.05-2.77,2.54-5.26,4.47-7.45c2.17-2.42,4.76-4.27,7.75-5.55c2.99-1.28,6.23-1.93,9.72-1.93c6.17,0,11.11,1.78,14.82,5.33
			c3.71,3.55,5.57,8.26,5.57,14.13c0,3.06-0.47,5.93-1.42,8.62c-0.95,2.69-2.32,5.08-4.12,7.16c-2.27,2.63-4.93,4.62-7.99,5.98
			C275.42,102.8,272.09,103.48,268.49,103.48z M271.14,67.71c-4.09,0-7.48,1.5-10.18,4.49c-2.7,2.99-4.05,6.75-4.05,11.29
			c0,3.83,1.09,6.87,3.28,9.13c2.18,2.26,5.1,3.39,8.76,3.39c4.07,0,7.46-1.52,10.17-4.56c2.71-3.04,4.06-6.81,4.06-11.31
			c0-3.81-1.09-6.83-3.26-9.07C277.74,68.83,274.81,67.71,271.14,67.71z"/>
		<path class="st1" d="M293.54,102.38l5.43-41.17h8.97l12.74,21.23c1.37,2.33,2.34,4.08,2.92,5.26c0.58,1.18,1.05,2.3,1.41,3.35
			c0.07-1.95,0.17-3.67,0.28-5.16c0.11-1.49,0.23-2.67,0.34-3.53l2.84-21.15h8.1l-5.46,41.17h-8.35l-14.17-23.96
			c-0.88-1.46-1.59-2.75-2.14-3.85c-0.54-1.11-1-2.17-1.38-3.18v1.32c0,1.41-0.04,2.77-0.11,4.08c-0.07,1.31-0.19,2.55-0.34,3.71
			l-3.07,21.88H293.54z"/>
		<path class="st1" d="M358.47,103.48c-6.17,0-11.11-1.8-14.82-5.4c-3.71-3.6-5.57-8.39-5.57-14.37c0-2.93,0.52-5.77,1.58-8.55
			c1.05-2.77,2.54-5.26,4.47-7.45c2.17-2.42,4.76-4.27,7.75-5.55c2.99-1.28,6.23-1.93,9.72-1.93c6.17,0,11.11,1.78,14.82,5.33
			c3.71,3.55,5.57,8.26,5.57,14.13c0,3.06-0.47,5.93-1.42,8.62c-0.95,2.69-2.32,5.08-4.12,7.16c-2.27,2.63-4.93,4.62-7.99,5.98
			C365.4,102.8,362.07,103.48,358.47,103.48z M361.11,67.71c-4.09,0-7.48,1.5-10.18,4.49c-2.7,2.99-4.05,6.75-4.05,11.29
			c0,3.83,1.09,6.87,3.28,9.13c2.18,2.26,5.1,3.39,8.76,3.39c4.07,0,7.46-1.52,10.17-4.56s4.06-6.81,4.06-11.31
			c0-3.81-1.09-6.83-3.26-9.07C367.71,68.83,364.79,67.71,361.11,67.71z"/>
	</g>
	<g>
		<path class="st0" d="M313.31,125.91c-0.11-1.04-0.21-2.29-0.31-3.73c-0.3,1.1-0.63,2.13-0.97,3.07c-0.35,0.94-0.71,1.82-1.1,2.64
			l-3.68,7.84h7.88l-1.45-7.16C313.54,127.84,313.42,126.95,313.31,125.91z"/>
		<path class="st0" d="M266.48,125.91c-0.11-1.04-0.21-2.29-0.31-3.73c-0.3,1.1-0.63,2.13-0.97,3.07c-0.34,0.94-0.71,1.82-1.1,2.64
			l-3.68,7.84h7.88l-1.45-7.16C266.71,127.84,266.59,126.95,266.48,125.91z"/>
		<path class="st0" d="M339.18,122.43h-4.08l-2.54,19.36c0.08,0,0.21,0,0.37,0c1.45,0.06,2.48,0.08,3.1,0.08
			c2.21,0,3.94-0.19,5.21-0.57c1.27-0.38,2.33-1.01,3.18-1.89c0.94-0.98,1.65-2.2,2.14-3.65c0.49-1.45,0.73-3.09,0.73-4.91
			c0-2.98-0.63-5.13-1.89-6.44C344.15,123.09,342.07,122.43,339.18,122.43z"/>
		<path class="st0" d="M184.43,105.9h-7.24l-8.67,50.04h15.91h205.2l7.26-50.04H184.43z M200.69,134.28h-11.73l-0.99,7.59h11.75
			l-0.72,5.34h-18.02l3.99-30.28h17.99l-0.66,5.34h-11.75l-0.89,6.8h11.71L200.69,134.28z M214.14,129.03
			c0.48,0.28,0.85,0.49,1.1,0.64c2.28,1.34,3.82,2.65,4.63,3.93c0.81,1.28,1.22,2.94,1.22,4.96c0,2.83-0.95,5.11-2.86,6.85
			c-1.91,1.74-4.44,2.61-7.6,2.61c-1.92,0-3.63-0.38-5.13-1.14c-1.5-0.76-2.84-1.92-4.01-3.47l3.43-4.32
			c0.72,1.24,1.54,2.16,2.48,2.75c0.94,0.59,2.04,0.89,3.31,0.89c1.35,0,2.41-0.37,3.17-1.1c0.77-0.73,1.15-1.74,1.15-3.02
			c0-0.83-0.22-1.57-0.66-2.21c-0.44-0.65-1.11-1.22-2.01-1.72c-0.22-0.12-0.54-0.3-0.97-0.54c-2.48-1.35-4.15-2.5-5.01-3.45
			c-0.62-0.7-1.09-1.51-1.42-2.41c-0.32-0.9-0.49-1.88-0.49-2.93c0-2.61,0.94-4.78,2.81-6.53c1.88-1.74,4.24-2.62,7.09-2.62
			c1.72,0,3.25,0.32,4.59,0.96c1.34,0.64,2.47,1.6,3.41,2.89l-3.25,4.2c-0.54-1.01-1.2-1.76-1.99-2.25c-0.79-0.5-1.7-0.74-2.73-0.74
			c-1.17,0-2.14,0.34-2.91,1.01c-0.77,0.68-1.15,1.54-1.15,2.59C210.38,126.21,211.63,127.61,214.14,129.03z M246.81,146.11
			c-1.27,0.63-2.64,1.11-4.11,1.43c-1.47,0.32-3.04,0.48-4.71,0.48c-4.44,0-8.01-1.32-10.72-3.97c-2.71-2.65-4.06-6.12-4.06-10.42
			c0-2.25,0.38-4.39,1.14-6.43c0.76-2.04,1.85-3.87,3.27-5.48c1.59-1.79,3.48-3.16,5.68-4.1c2.2-0.94,4.6-1.41,7.21-1.41
			c1.85,0,3.57,0.23,5.18,0.68c1.61,0.46,3.13,1.14,4.56,2.07l-0.89,5.94c-1.53-1.1-3.02-1.92-4.47-2.44
			c-1.45-0.52-2.91-0.79-4.39-0.79c-3.19,0-5.79,1.09-7.82,3.27c-2.03,2.18-3.04,4.97-3.04,8.38c0,2.8,0.8,5.03,2.4,6.68
			c1.6,1.65,3.75,2.48,6.45,2.48c1.75,0,3.37-0.24,4.87-0.71c1.5-0.48,2.89-1.2,4.17-2.18L246.81,146.11z M270.76,147.21l-1.28-6.52
			h-11.52l-3.27,6.52h-7.07l15.68-30.28h6.91l7.28,30.28H270.76z M317.59,147.21l-1.28-6.52h-11.52l-3.27,6.52h-5.99h-1.08h-15.75
			l3.99-30.28h6.35l-3.31,24.9h10.51l-0.34,2.58l14.23-27.48h6.91l7.28,30.28H317.59z M347.51,144.29c-1.45,1.05-3.13,1.8-5.06,2.24
			c-1.92,0.45-4.91,0.67-8.95,0.67h-2.42h-5.56l3.99-30.28h6.35c3.58,0,6.12,0.11,7.61,0.34c1.49,0.23,2.74,0.6,3.74,1.13
			c2.12,1.12,3.75,2.77,4.88,4.96c1.13,2.19,1.7,4.81,1.7,7.84c0,2.94-0.51,5.46-1.52,7.57
			C351.26,140.88,349.68,142.72,347.51,144.29z M374.41,147.21l-1.28-6.52h-11.52l-3.27,6.52h-7.07l15.68-30.28h6.91l7.28,30.28
			H374.41z"/>
		<path class="st0" d="M370.13,125.91c-0.11-1.04-0.21-2.29-0.31-3.73c-0.3,1.1-0.63,2.13-0.97,3.07c-0.35,0.94-0.71,1.82-1.1,2.64
			l-3.68,7.84h7.88l-1.45-7.16C370.36,127.84,370.24,126.95,370.13,125.91z"/>
	</g>
	<g>
		<radialGradient id="SVGID_1_" cx="381.5654" cy="13.4235" r="72.5126" gradientUnits="userSpaceOnUse">
			<stop  offset="0" style="stop-color:#E7C64B"/>
			<stop  offset="0.9949" style="stop-color:#DC9B33"/>
		</radialGradient>
		<path class="st3" d="M382.41,20.89c0,0-16.31,14.72-2.89,30.38c13.41,15.66,21.1,30.87,8.73,50.93c0,0,6.02-17.72-9.86-34.27
			C366.54,55.57,356.35,35.04,382.41,20.89z"/>
		<radialGradient id="SVGID_2_" cx="381.3776" cy="23.6663" r="54.9413" gradientUnits="userSpaceOnUse">
			<stop  offset="0" style="stop-color:#DFA231"/>
			<stop  offset="0.9949" style="stop-color:#D17B34"/>
		</radialGradient>
		<path class="st4" d="M391.28,90.72c-0.57-6.81-3.23-15.63-11.45-24.19c-5.02-5.23-13.19-15.59-11.52-26.27
			c0.62-3.97,2.59-7.64,5.88-10.96c-2.69,6.19-3.6,14.62,3.81,23.26c7.7,8.98,11.89,16.07,13.61,22.99
			C392.85,80.57,392.75,85.59,391.28,90.72z"/>
		<radialGradient id="SVGID_3_" cx="381.565" cy="13.4241" r="72.5122" gradientUnits="userSpaceOnUse">
			<stop  offset="0" style="stop-color:#E7C64B"/>
			<stop  offset="0.9949" style="stop-color:#DC9B33"/>
		</radialGradient>
		<path class="st5" d="M404.9,9.51c0,0-26.35,3.92-23.84,30c2.51,26.08,34.34,32.09,9.65,64.44c0,0,34.99-8.77,31.48-36.86
			C418.68,39,386.62,33.67,404.9,9.51z"/>
		
			<radialGradient id="SVGID_4_" cx="382.0494" cy="21.691" r="58.3318" gradientTransform="matrix(0.999 0.045 -0.045 0.999 7.7041 -12.5699)" gradientUnits="userSpaceOnUse">
			<stop  offset="0" style="stop-color:#DFA231"/>
			<stop  offset="0.9949" style="stop-color:#D17B34"/>
		</radialGradient>
		<path class="st6" d="M395.91,99.8c10.93-15.54,5.15-24.53-0.94-34.01c-3.67-5.7-7.46-11.6-7.86-19.52
			c-0.77-15.18,9.9-20.61,16.12-22.48c-6.71,10.78-1.16,18.09,4.68,25.79c4.56,6,9.72,12.81,10.5,22.61
			c0.75,9.49-3.56,17.24-12.82,23.03C402.16,97.37,398.64,98.84,395.91,99.8z"/>
		
			<radialGradient id="SVGID_5_" cx="379.0949" cy="26.0843" r="48.0663" gradientTransform="matrix(0.9955 0.095 -0.095 0.9955 17.3924 -26.1352)" gradientUnits="userSpaceOnUse">
			<stop  offset="0" style="stop-color:#CF742D"/>
			<stop  offset="0.9949" style="stop-color:#C3412E"/>
		</radialGradient>
		<path class="st7" d="M398.98,97.66c6.31-12.01,1.56-21.21-2.71-29.5c-3.06-5.94-5.96-11.55-5.64-18.66
			c0.37-8.39,4.3-13.05,8.93-15.61c-2.64,8.52,1.85,15.77,5.91,22.33c3.93,6.35,8,12.92,7.85,21.87
			c-0.13,8.42-4.48,14.66-13.29,19.07C399.68,97.33,399.33,97.5,398.98,97.66z"/>
	</g>
</g>
</svg>
