<?xml version="1.0" encoding="utf-8"?>
<!-- Generator: Adobe Illustrator 23.0.3, SVG Export Plug-In . SVG Version: 6.00 Build 0)  -->
<svg version="1.1" id="Capa_1" xmlns="http://www.w3.org/2000/svg" xmlns:xlink="http://www.w3.org/1999/xlink" x="0px" y="0px"
	 viewBox="0 0 584.17 295.04" style="enable-background:new 0 0 584.17 295.04;" xml:space="preserve">
<style type="text/css">
	.st0{fill:#211915;}
	.st1{fill:#FFFFFF;}
	.st2{fill:#BE0811;}
	.st3{fill:url(#SVGID_1_);}
	.st4{fill:url(#SVGID_2_);}
	.st5{fill:url(#SVGID_3_);}
	.st6{fill:url(#SVGID_4_);}
	.st7{fill:url(#SVGID_5_);}
</style>
<g>
	<path class="st0" d="M191.65,211.13v-17.49h-4.26l1.79-3.57h6.76v21.07H191.65z"/>
	<path class="st0" d="M212.62,211.13v-4.08h-10.24v-1.96l10.24-15.44h3.89v14.38h2.24v3.02h-2.24v4.08H212.62z M212.68,204.03v-7.32
		c0-0.72,0.01-1.26,0.04-1.63c0.02-0.37,0.06-0.71,0.11-1.02c-0.18,0.49-0.4,0.99-0.65,1.48c-0.25,0.49-0.53,0.98-0.83,1.45
		l-4.59,7.03H212.68z"/>
	<path class="st0" d="M229.96,211.13v-21.27h5.8c2.29,0,4.09,0.16,5.4,0.48c1.32,0.32,2.47,0.85,3.47,1.6
		c1.29,0.96,2.26,2.17,2.93,3.62c0.66,1.46,1,3.12,1,4.98c0,1.89-0.34,3.56-1.02,5.02c-0.68,1.46-1.67,2.66-2.98,3.61
		c-0.97,0.7-2.05,1.2-3.23,1.5c-1.19,0.3-2.92,0.46-5.21,0.46h-1.61H229.96z M234.51,207.3h2.53c2.38,0,4.12-0.54,5.21-1.63
		c1.09-1.08,1.63-2.8,1.63-5.16c0-2.34-0.54-4.06-1.63-5.15c-1.09-1.09-2.83-1.63-5.21-1.63h-2.53V207.3z"/>
	<path class="st0" d="M251.62,211.13v-21.27h12.52v3.84h-7.98v4.37h7.98v3.86h-7.98v5.33h7.98v3.86H251.62z"/>
	<path class="st0" d="M273.73,211.13l8.09-21.27h5.2l8.21,21.27h-5.17l-1.73-4.52h-8.24l-1.48,4.52H273.73z M287.27,203.04
		l-2.38-6.87c-0.07-0.2-0.16-0.55-0.26-1.05c-0.11-0.49-0.22-1.1-0.33-1.82c-0.13,0.69-0.25,1.31-0.36,1.85
		c-0.12,0.55-0.2,0.91-0.26,1.1l-2.3,6.78H287.27z"/>
	<path class="st0" d="M306.76,199.92h9.69c0.02,0.13,0.03,0.26,0.04,0.41c0,0.15,0.01,0.37,0.01,0.67c0,3.19-0.91,5.77-2.73,7.74
		c-1.82,1.98-4.17,2.96-7.06,2.96c-3.3,0-6.02-1.05-8.16-3.16c-2.14-2.11-3.21-4.78-3.21-8.03c0-3.22,1.08-5.87,3.23-7.98
		c2.15-2.1,4.87-3.15,8.15-3.15c1.73,0,3.32,0.36,4.77,1.09c1.44,0.73,2.73,1.81,3.86,3.25l-3.07,2.27
		c-0.77-0.95-1.57-1.63-2.41-2.06c-0.84-0.42-1.82-0.63-2.92-0.63c-2.1,0-3.78,0.65-5.04,1.96c-1.26,1.31-1.89,3.06-1.89,5.24
		c0,2.15,0.63,3.89,1.9,5.21c1.26,1.32,2.91,1.98,4.95,1.98c1.49,0,2.7-0.35,3.63-1.05c0.93-0.7,1.39-1.62,1.39-2.75v-0.23h-5.11
		V199.92z"/>
	<path class="st0" d="M341.13,200.54c0,1.52-0.28,2.96-0.85,4.31c-0.57,1.36-1.38,2.55-2.45,3.57c-1.1,1.06-2.35,1.86-3.73,2.43
		c-1.39,0.56-2.82,0.84-4.3,0.84c-1.3,0-2.57-0.22-3.81-0.66c-1.24-0.44-2.39-1.07-3.42-1.9c-1.34-1.07-2.36-2.34-3.07-3.82
		c-0.71-1.48-1.07-3.08-1.07-4.78c0-1.53,0.28-2.97,0.84-4.31c0.56-1.34,1.39-2.54,2.47-3.58c1.07-1.04,2.3-1.84,3.71-2.41
		s2.86-0.86,4.35-0.86c1.48,0,2.92,0.29,4.32,0.86c1.4,0.57,2.64,1.38,3.71,2.41c1.08,1.05,1.89,2.24,2.45,3.59
		C340.85,197.59,341.13,199.02,341.13,200.54z M329.8,207.65c1.93,0,3.52-0.68,4.77-2.03s1.88-3.04,1.88-5.08
		c0-2.01-0.63-3.71-1.9-5.08s-2.85-2.06-4.75-2.06c-1.93,0-3.53,0.69-4.79,2.06c-1.27,1.37-1.9,3.07-1.9,5.09
		c0,2.05,0.62,3.75,1.87,5.09C326.23,206.98,327.83,207.65,329.8,207.65z"/>
	<path class="st0" d="M342.86,208.43l2.53-2.86c0.32,0.78,0.83,1.4,1.54,1.85c0.71,0.45,1.5,0.68,2.38,0.68
		c1.07,0,1.91-0.25,2.53-0.76c0.62-0.5,0.93-1.18,0.93-2.03c0-1.01-1.03-2.01-3.09-3.01c-0.67-0.32-1.2-0.58-1.58-0.78
		c-1.86-0.97-3.15-1.92-3.86-2.84c-0.72-0.92-1.08-2.03-1.08-3.31c0-1.75,0.69-3.19,2.08-4.32c1.39-1.13,3.19-1.69,5.41-1.69
		c1.29,0,2.4,0.23,3.33,0.68c0.93,0.45,1.76,1.15,2.48,2.11l-2.69,2.57c-0.32-0.62-0.74-1.08-1.27-1.39
		c-0.53-0.3-1.16-0.46-1.91-0.46c-0.9,0-1.63,0.23-2.18,0.68c-0.55,0.45-0.83,1.03-0.83,1.75c0,1.12,1.09,2.15,3.28,3.08
		c0.44,0.18,0.77,0.33,1,0.44c1.8,0.82,3.14,1.75,4,2.79c0.87,1.04,1.3,2.22,1.3,3.55c0,2-0.68,3.59-2.04,4.77
		c-1.36,1.19-3.19,1.78-5.48,1.78c-1.63,0-3.02-0.28-4.18-0.84C344.3,210.3,343.43,209.49,342.86,208.43z"/>
	<path class="st0" d="M368.09,193.73v17.41h-4.56v-17.41h-5.2v-3.86h14.96v3.86H368.09z"/>
	<path class="st0" d="M396.78,200.54c0,1.52-0.28,2.96-0.85,4.31c-0.57,1.36-1.38,2.55-2.45,3.57c-1.1,1.06-2.35,1.86-3.73,2.43
		c-1.39,0.56-2.82,0.84-4.3,0.84c-1.3,0-2.57-0.22-3.81-0.66c-1.24-0.44-2.38-1.07-3.42-1.9c-1.34-1.07-2.36-2.34-3.07-3.82
		c-0.71-1.48-1.07-3.08-1.07-4.78c0-1.53,0.28-2.97,0.84-4.31c0.56-1.34,1.38-2.54,2.47-3.58c1.07-1.04,2.3-1.84,3.71-2.41
		c1.41-0.57,2.86-0.86,4.35-0.86c1.48,0,2.92,0.29,4.32,0.86c1.4,0.57,2.64,1.38,3.71,2.41c1.08,1.05,1.89,2.24,2.45,3.59
		C396.5,197.59,396.78,199.02,396.78,200.54z M385.45,207.65c1.93,0,3.52-0.68,4.77-2.03s1.88-3.04,1.88-5.08
		c0-2.01-0.63-3.71-1.9-5.08s-2.85-2.06-4.75-2.06c-1.93,0-3.53,0.69-4.79,2.06c-1.27,1.37-1.9,3.07-1.9,5.09
		c0,2.05,0.62,3.75,1.87,5.09C381.88,206.98,383.48,207.65,385.45,207.65z"/>
</g>
<g>
	<polygon points="161.33,224.27 149.08,224.27 149.08,265.53 507.3,265.53 495.05,224.27 	"/>
	<g>
		<polygon points="422.37,224.27 434.6,224.27 434.6,265.53 76.87,265.53 89.1,224.27 		"/>
	</g>
</g>
<g>
	<path class="st1" d="M106.28,246.69c0.27,0.47,0.59,0.82,0.94,1.05c0.36,0.23,0.78,0.34,1.26,0.34c0.51,0,0.92-0.14,1.21-0.42
		c0.29-0.28,0.44-0.66,0.44-1.15c0-0.31-0.08-0.6-0.25-0.84c-0.17-0.25-0.42-0.46-0.76-0.65c-0.08-0.05-0.21-0.12-0.37-0.21
		c-0.94-0.51-1.58-0.95-1.9-1.31c-0.24-0.27-0.42-0.57-0.54-0.92s-0.19-0.71-0.19-1.11c0-0.99,0.36-1.82,1.07-2.48
		c0.71-0.66,1.61-1,2.7-1c0.66,0,1.24,0.12,1.75,0.37c0.51,0.24,0.94,0.61,1.3,1.1l-1.24,1.6c-0.2-0.38-0.46-0.67-0.76-0.86
		c-0.3-0.19-0.65-0.28-1.04-0.28c-0.45,0-0.81,0.13-1.11,0.39s-0.44,0.58-0.44,0.98c0,0.52,0.48,1.05,1.43,1.59
		c0.18,0.11,0.32,0.19,0.42,0.24c0.87,0.51,1.45,1.01,1.76,1.5c0.31,0.49,0.46,1.12,0.46,1.89c0,1.08-0.36,1.94-1.09,2.6
		c-0.73,0.66-1.69,0.99-2.89,0.99c-0.73,0-1.38-0.14-1.95-0.43s-1.08-0.73-1.53-1.32L106.28,246.69z"/>
	<path class="st1" d="M112.36,249.79l5.96-11.52h2.63l2.77,11.52h-2.56l-0.49-2.48h-4.38l-1.24,2.48H112.36z M120.23,245.42
		l-0.55-2.72c-0.05-0.28-0.1-0.62-0.14-1.01c-0.04-0.4-0.08-0.87-0.12-1.42c-0.12,0.42-0.24,0.81-0.37,1.17
		c-0.13,0.36-0.27,0.69-0.42,1l-1.4,2.98H120.23z"/>
	<path class="st1" d="M124.58,249.79l1.52-11.52h2.42l-1.26,9.47h4l-0.27,2.05H124.58z"/>
	<path class="st1" d="M132.08,249.79l1.51-11.52h2.42l-1.51,11.52H132.08z"/>
	<path class="st1" d="M138.4,249.79l1.25-9.51h-2.99l0.27-2.01h8.18l-0.26,2.01h-2.79l-1.24,9.51H138.4z"/>
	<path class="st1" d="M147.16,249.79h-2.42l1.52-11.52h2.4c1,0,1.72,0.05,2.17,0.16c0.44,0.11,0.83,0.28,1.17,0.54
		c0.37,0.27,0.66,0.61,0.85,1c0.19,0.4,0.29,0.83,0.29,1.32c0,0.88-0.25,1.61-0.74,2.18c-0.5,0.58-1.21,0.96-2.14,1.17l2.61,5.15
		h-2.64l-2.37-5.29L147.16,249.79z M148.01,243.25h0.35c0.91,0,1.53-0.13,1.86-0.37c0.33-0.25,0.49-0.68,0.49-1.29
		c0-0.52-0.14-0.88-0.41-1.09c-0.28-0.21-0.81-0.31-1.62-0.31h-0.28L148.01,243.25z"/>
	<path class="st1" d="M153.73,249.79l1.52-11.52h6.85l-0.25,2.03h-4.47l-0.34,2.59h4.45l-0.26,1.98h-4.46l-0.38,2.89h4.47
		l-0.28,2.03H153.73z"/>
	<path class="st1" d="M162.03,251.28l6.15-13.28h1.6l-6.15,13.28H162.03z"/>
	<path class="st1" d="M179.5,241.78c-0.34-0.56-0.76-0.99-1.27-1.29c-0.51-0.3-1.08-0.45-1.7-0.45c-1.15,0-2.1,0.42-2.85,1.27
		c-0.75,0.85-1.13,1.92-1.13,3.21c0,1.07,0.31,1.91,0.93,2.54c0.62,0.63,1.45,0.94,2.48,0.94c0.71,0,1.34-0.2,1.87-0.59
		c0.53-0.39,0.92-0.94,1.16-1.64h-2.73l0.26-2.01h5.23c-0.12,2.01-0.7,3.57-1.73,4.68c-1.03,1.1-2.43,1.66-4.19,1.66
		c-1.74,0-3.13-0.5-4.17-1.51c-1.04-1-1.55-2.35-1.55-4.04c0-0.83,0.15-1.64,0.44-2.43c0.3-0.79,0.72-1.5,1.26-2.12
		c0.56-0.65,1.24-1.14,2.05-1.48c0.81-0.34,1.71-0.51,2.7-0.51c1.12,0,2.07,0.2,2.87,0.61c0.8,0.4,1.44,1.01,1.94,1.83L179.5,241.78
		z"/>
	<path class="st1" d="M186.35,238.27l-0.87,6.51c-0.02,0.17-0.04,0.35-0.05,0.54c-0.01,0.19-0.02,0.41-0.02,0.64
		c0,0.71,0.17,1.24,0.52,1.61c0.35,0.36,0.86,0.55,1.52,0.55c0.47,0,0.89-0.1,1.24-0.29c0.36-0.19,0.65-0.48,0.89-0.85
		c0.29-0.48,0.53-1.42,0.72-2.82c0.01-0.08,0.02-0.13,0.02-0.17l0.77-5.72h2.38l-0.85,6.48c-0.14,1.06-0.3,1.85-0.48,2.36
		c-0.18,0.51-0.43,0.96-0.74,1.36c-0.46,0.56-1.02,0.98-1.69,1.24c-0.67,0.27-1.48,0.4-2.42,0.4c-1.45,0-2.54-0.33-3.25-0.98
		c-0.71-0.66-1.07-1.64-1.07-2.97c0-0.19,0.02-0.51,0.07-0.96s0.11-1.01,0.19-1.67l0.69-5.26H186.35z"/>
	<path class="st1" d="M192.7,249.79l5.96-11.52h2.63l2.77,11.52h-2.56l-0.49-2.48h-4.38l-1.24,2.48H192.7z M200.56,245.42
		l-0.55-2.72c-0.05-0.28-0.1-0.62-0.14-1.01c-0.04-0.4-0.08-0.87-0.12-1.42c-0.12,0.42-0.24,0.81-0.37,1.17
		c-0.13,0.36-0.27,0.69-0.42,1l-1.4,2.98H200.56z"/>
	<path class="st1" d="M205.64,246.69c0.27,0.47,0.59,0.82,0.94,1.05c0.36,0.23,0.78,0.34,1.26,0.34c0.51,0,0.92-0.14,1.21-0.42
		c0.29-0.28,0.44-0.66,0.44-1.15c0-0.31-0.08-0.6-0.25-0.84c-0.17-0.25-0.42-0.46-0.76-0.65c-0.08-0.05-0.21-0.12-0.37-0.21
		c-0.94-0.51-1.58-0.95-1.9-1.31c-0.24-0.27-0.42-0.57-0.54-0.92s-0.19-0.71-0.19-1.11c0-0.99,0.36-1.82,1.07-2.48
		c0.71-0.66,1.61-1,2.7-1c0.66,0,1.24,0.12,1.75,0.37c0.51,0.24,0.94,0.61,1.3,1.1l-1.24,1.6c-0.2-0.38-0.46-0.67-0.76-0.86
		c-0.3-0.19-0.65-0.28-1.04-0.28c-0.45,0-0.81,0.13-1.11,0.39s-0.44,0.58-0.44,0.98c0,0.52,0.48,1.05,1.43,1.59
		c0.18,0.11,0.32,0.19,0.42,0.24c0.87,0.51,1.45,1.01,1.76,1.5c0.31,0.49,0.46,1.12,0.46,1.89c0,1.08-0.36,1.94-1.09,2.6
		c-0.73,0.66-1.69,0.99-2.89,0.99c-0.73,0-1.38-0.14-1.95-0.43s-1.08-0.73-1.53-1.32L205.64,246.69z"/>
	<path class="st1" d="M221.98,249.37c-0.48,0.24-1,0.42-1.56,0.54c-0.56,0.12-1.16,0.18-1.79,0.18c-1.69,0-3.05-0.5-4.08-1.51
		c-1.03-1.01-1.55-2.33-1.55-3.97c0-0.86,0.14-1.67,0.43-2.45s0.7-1.47,1.24-2.09c0.6-0.68,1.32-1.2,2.16-1.56s1.75-0.54,2.74-0.54
		c0.7,0,1.36,0.09,1.97,0.26c0.61,0.17,1.19,0.44,1.73,0.79l-0.34,2.26c-0.58-0.42-1.15-0.73-1.7-0.93c-0.55-0.2-1.11-0.3-1.67-0.3
		c-1.21,0-2.2,0.42-2.97,1.24c-0.77,0.83-1.16,1.89-1.16,3.19c0,1.07,0.3,1.91,0.91,2.54c0.61,0.63,1.43,0.94,2.46,0.94
		c0.67,0,1.28-0.09,1.85-0.27c0.57-0.18,1.1-0.46,1.59-0.83L221.98,249.37z"/>
	<path class="st1" d="M222.69,249.79l5.96-11.52h2.63l2.77,11.52h-2.56l-0.49-2.48h-4.38l-1.24,2.48H222.69z M230.56,245.42
		l-0.55-2.72c-0.05-0.28-0.1-0.62-0.14-1.01c-0.04-0.4-0.08-0.87-0.12-1.42c-0.12,0.42-0.24,0.81-0.37,1.17
		c-0.13,0.36-0.27,0.69-0.42,1l-1.4,2.98H230.56z"/>
	<path class="st1" d="M239.51,246.94l0.26-1.98h4.51l-0.25,1.98H239.51z"/>
	<path class="st1" d="M254.35,249.79l0.29-2.21h-4.69l0.24-1.82l5.9-7.38h1.94l-0.98,7.46h1.24l-0.24,1.74h-1.22l-0.29,2.21H254.35z
		 M254.91,245.84l0.47-3.34c0.01-0.09,0.04-0.27,0.09-0.52c0.05-0.25,0.11-0.53,0.18-0.85l-0.05,0.06c-0.44,0.63-0.72,1.03-0.85,1.2
		l-2.68,3.43H254.91z"/>
	<path class="st1" d="M263.57,249.79l1.52-11.52h6.85l-0.25,2.03h-4.47l-0.34,2.59h4.45l-0.26,1.98h-4.46l-0.38,2.89h4.47
		l-0.28,2.03H263.57z"/>
	<path class="st1" d="M273.08,246.69c0.27,0.47,0.59,0.82,0.94,1.05s0.78,0.34,1.26,0.34c0.51,0,0.92-0.14,1.21-0.42
		c0.29-0.28,0.44-0.66,0.44-1.15c0-0.31-0.08-0.6-0.25-0.84c-0.17-0.25-0.42-0.46-0.76-0.65c-0.08-0.05-0.21-0.12-0.37-0.21
		c-0.94-0.51-1.58-0.95-1.9-1.31c-0.24-0.27-0.42-0.57-0.54-0.92s-0.18-0.71-0.18-1.11c0-0.99,0.36-1.82,1.07-2.48
		c0.71-0.66,1.61-1,2.7-1c0.66,0,1.24,0.12,1.75,0.37c0.51,0.24,0.94,0.61,1.3,1.1l-1.24,1.6c-0.21-0.38-0.46-0.67-0.76-0.86
		c-0.3-0.19-0.64-0.28-1.04-0.28c-0.45,0-0.81,0.13-1.11,0.39c-0.29,0.26-0.44,0.58-0.44,0.98c0,0.52,0.48,1.05,1.43,1.59
		c0.18,0.11,0.32,0.19,0.42,0.24c0.87,0.51,1.45,1.01,1.76,1.5c0.31,0.49,0.46,1.12,0.46,1.89c0,1.08-0.36,1.94-1.09,2.6
		s-1.69,0.99-2.89,0.99c-0.73,0-1.38-0.14-1.95-0.43c-0.57-0.29-1.08-0.73-1.53-1.32L273.08,246.69z"/>
	<path class="st1" d="M291.27,250.9h-2.51l-0.68-1.08c-0.38,0.09-0.74,0.16-1.07,0.21c-0.33,0.05-0.64,0.07-0.92,0.07
		c-1.7,0-3.07-0.51-4.1-1.52c-1.04-1.01-1.55-2.36-1.55-4.03c0-0.81,0.15-1.6,0.44-2.38c0.29-0.77,0.71-1.47,1.25-2.09
		c0.61-0.68,1.33-1.19,2.17-1.55c0.84-0.36,1.74-0.54,2.72-0.54c1.71,0,3.09,0.5,4.14,1.5s1.57,2.31,1.57,3.93
		c0,1.16-0.23,2.2-0.68,3.13c-0.46,0.93-1.13,1.7-2.01,2.33L291.27,250.9z M285.34,245.36h2.51l1,1.63
		c0.47-0.49,0.82-1.02,1.05-1.59c0.23-0.57,0.35-1.2,0.35-1.88c0-1.04-0.31-1.87-0.92-2.5c-0.61-0.62-1.43-0.94-2.45-0.94
		c-1.15,0-2.1,0.42-2.86,1.26c-0.76,0.84-1.14,1.9-1.14,3.17c0,1.06,0.31,1.91,0.92,2.54s1.42,0.95,2.44,0.95
		c0.1,0,0.28-0.02,0.53-0.05c0.07-0.01,0.12-0.02,0.15-0.02L285.34,245.36z"/>
	<path class="st1" d="M297.38,238.27l-0.87,6.51c-0.02,0.17-0.04,0.35-0.05,0.54s-0.02,0.41-0.02,0.64c0,0.71,0.17,1.24,0.52,1.61
		c0.35,0.36,0.86,0.55,1.52,0.55c0.47,0,0.89-0.1,1.24-0.29c0.36-0.19,0.65-0.48,0.89-0.85c0.29-0.48,0.53-1.42,0.72-2.82
		c0.01-0.08,0.02-0.13,0.02-0.17l0.77-5.72h2.38l-0.85,6.48c-0.14,1.06-0.3,1.85-0.48,2.36c-0.18,0.51-0.43,0.96-0.74,1.36
		c-0.46,0.56-1.02,0.98-1.69,1.24c-0.67,0.27-1.48,0.4-2.42,0.4c-1.45,0-2.54-0.33-3.25-0.98c-0.71-0.66-1.07-1.64-1.07-2.97
		c0-0.19,0.02-0.51,0.07-0.96c0.04-0.45,0.11-1.01,0.19-1.67l0.69-5.26H297.38z"/>
	<path class="st1" d="M305.11,249.79l1.51-11.52h2.42l-1.51,11.52H305.11z"/>
	<path class="st1" d="M309.67,249.79l1.52-11.52h2.51l3.57,5.94c0.38,0.65,0.66,1.14,0.82,1.47c0.16,0.33,0.29,0.64,0.39,0.94
		c0.02-0.55,0.05-1.03,0.08-1.44s0.06-0.75,0.09-0.99l0.79-5.92h2.27l-1.53,11.52h-2.34l-3.97-6.7c-0.25-0.41-0.45-0.77-0.6-1.08
		s-0.28-0.61-0.39-0.89v0.37c0,0.39-0.01,0.77-0.03,1.14c-0.02,0.37-0.05,0.71-0.09,1.04l-0.86,6.12H309.67z"/>
	<path class="st1" d="M321.25,249.79l5.96-11.52h2.63l2.77,11.52h-2.56l-0.49-2.48h-4.38l-1.24,2.48H321.25z M329.12,245.42
		l-0.55-2.72c-0.05-0.28-0.1-0.62-0.14-1.01c-0.04-0.4-0.08-0.87-0.12-1.42c-0.12,0.42-0.24,0.81-0.37,1.17s-0.27,0.69-0.42,1
		l-1.4,2.98H329.12z"/>
	<path class="st1" d="M334.2,246.69c0.27,0.47,0.59,0.82,0.94,1.05s0.78,0.34,1.26,0.34c0.51,0,0.92-0.14,1.21-0.42
		c0.29-0.28,0.44-0.66,0.44-1.15c0-0.31-0.08-0.6-0.25-0.84c-0.17-0.25-0.42-0.46-0.76-0.65c-0.08-0.05-0.21-0.12-0.37-0.21
		c-0.94-0.51-1.58-0.95-1.9-1.31c-0.24-0.27-0.42-0.57-0.54-0.92s-0.18-0.71-0.18-1.11c0-0.99,0.36-1.82,1.07-2.48
		c0.71-0.66,1.61-1,2.7-1c0.66,0,1.24,0.12,1.75,0.37c0.51,0.24,0.94,0.61,1.3,1.1l-1.24,1.6c-0.21-0.38-0.46-0.67-0.76-0.86
		c-0.3-0.19-0.64-0.28-1.04-0.28c-0.45,0-0.81,0.13-1.11,0.39c-0.29,0.26-0.44,0.58-0.44,0.98c0,0.52,0.48,1.05,1.43,1.59
		c0.18,0.11,0.32,0.19,0.42,0.24c0.87,0.51,1.45,1.01,1.76,1.5c0.31,0.49,0.46,1.12,0.46,1.89c0,1.08-0.36,1.94-1.09,2.6
		s-1.69,0.99-2.89,0.99c-0.73,0-1.38-0.14-1.95-0.43c-0.57-0.29-1.08-0.73-1.53-1.32L334.2,246.69z"/>
	<path class="st1" d="M345.93,246.94l0.26-1.98h4.51l-0.25,1.98H345.93z"/>
	<path class="st1" d="M355.35,249.79l5.96-11.52h2.63l2.77,11.52h-2.56l-0.49-2.48h-4.38l-1.24,2.48H355.35z M363.22,245.42
		l-0.55-2.72c-0.05-0.28-0.1-0.62-0.14-1.01c-0.04-0.4-0.08-0.87-0.12-1.42c-0.12,0.42-0.24,0.81-0.37,1.17s-0.27,0.69-0.42,1
		l-1.4,2.98H363.22z"/>
	<path class="st1" d="M367.58,249.79l1.52-11.52h2.42l-1.26,9.47h4l-0.27,2.05H367.58z"/>
	<path class="st1" d="M375.92,249.79l1.25-9.51h-2.99l0.27-2.01h8.18l-0.26,2.01h-2.79l-1.24,9.51H375.92z"/>
	<path class="st1" d="M387.6,250.09c-1.73,0-3.11-0.5-4.15-1.51c-1.04-1.01-1.56-2.35-1.56-4.02c0-0.82,0.15-1.62,0.44-2.39
		c0.29-0.78,0.71-1.47,1.25-2.09c0.61-0.68,1.33-1.19,2.17-1.55c0.84-0.36,1.74-0.54,2.72-0.54c1.73,0,3.11,0.5,4.15,1.49
		c1.04,0.99,1.56,2.31,1.56,3.95c0,0.86-0.13,1.66-0.4,2.41s-0.65,1.42-1.15,2c-0.63,0.73-1.38,1.29-2.23,1.67
		C389.54,249.9,388.61,250.09,387.6,250.09z M388.34,240.08c-1.14,0-2.09,0.42-2.85,1.26c-0.76,0.84-1.13,1.89-1.13,3.16
		c0,1.07,0.31,1.92,0.92,2.55s1.43,0.95,2.45,0.95c1.14,0,2.09-0.42,2.84-1.28c0.76-0.85,1.14-1.9,1.14-3.16
		c0-1.06-0.3-1.91-0.91-2.54C390.19,240.4,389.37,240.08,388.34,240.08z"/>
	<path class="st1" d="M399.4,249.79l1.52-11.52h2.42c1.36,0,2.33,0.04,2.9,0.13s1.04,0.23,1.42,0.43c0.81,0.42,1.43,1.05,1.86,1.89
		c0.43,0.83,0.65,1.83,0.65,2.98c0,1.12-0.19,2.08-0.58,2.88s-0.99,1.5-1.81,2.1c-0.55,0.4-1.19,0.68-1.92,0.85
		c-0.73,0.17-1.87,0.26-3.4,0.26h-0.92H399.4z M402.07,247.73c0.03,0,0.08,0,0.14,0c0.55,0.02,0.94,0.03,1.18,0.03
		c0.84,0,1.5-0.07,1.98-0.22c0.48-0.14,0.89-0.38,1.21-0.72c0.36-0.37,0.63-0.83,0.81-1.39c0.19-0.55,0.28-1.18,0.28-1.87
		c0-1.13-0.24-1.95-0.72-2.45c-0.48-0.5-1.27-0.75-2.37-0.75h-1.55L402.07,247.73z"/>
	<path class="st1" d="M410.94,249.79l1.52-11.52h6.85l-0.25,2.03h-4.47l-0.34,2.59h4.45l-0.26,1.98h-4.46l-0.38,2.89h4.47
		l-0.28,2.03H410.94z"/>
	<path class="st1" d="M423.05,249.79l5.96-11.52h2.63l2.77,11.52h-2.56l-0.49-2.48h-4.38l-1.24,2.48H423.05z M430.92,245.42
		l-0.55-2.72c-0.05-0.28-0.1-0.62-0.14-1.01c-0.04-0.4-0.08-0.87-0.12-1.42c-0.12,0.42-0.24,0.81-0.37,1.17s-0.27,0.69-0.42,1
		l-1.4,2.98H430.92z"/>
	<path class="st1" d="M437.7,249.79h-2.42l1.52-11.52h2.4c1,0,1.72,0.05,2.17,0.16c0.44,0.11,0.83,0.28,1.17,0.54
		c0.37,0.27,0.66,0.61,0.85,1c0.19,0.4,0.29,0.83,0.29,1.32c0,0.88-0.25,1.61-0.74,2.18c-0.5,0.58-1.21,0.96-2.14,1.17l2.61,5.15
		h-2.64l-2.37-5.29L437.7,249.79z M438.55,243.25h0.35c0.91,0,1.53-0.13,1.86-0.37s0.49-0.68,0.49-1.29c0-0.52-0.14-0.88-0.41-1.09
		c-0.28-0.21-0.81-0.31-1.62-0.31h-0.28L438.55,243.25z"/>
	<path class="st1" d="M444.27,249.79l1.52-11.52h6.85l-0.25,2.03h-4.47l-0.34,2.59h4.45l-0.26,1.98h-4.46l-0.38,2.89h4.47
		l-0.28,2.03H444.27z"/>
	<path class="st1" d="M455.49,249.79h-2.42l1.52-11.52h2.23c1.09,0,1.85,0.06,2.31,0.17c0.45,0.12,0.85,0.31,1.19,0.58
		c0.38,0.29,0.67,0.66,0.86,1.1c0.2,0.44,0.3,0.93,0.3,1.47c0,0.63-0.11,1.21-0.34,1.71s-0.57,0.93-1.01,1.28
		c-0.37,0.29-0.8,0.5-1.3,0.62s-1.23,0.19-2.19,0.19h-0.55L455.49,249.79z M456.33,243.42h0.37c0.91,0,1.53-0.13,1.86-0.39
		c0.33-0.26,0.49-0.71,0.49-1.35c0-0.54-0.14-0.91-0.41-1.13c-0.27-0.21-0.81-0.32-1.62-0.32h-0.28L456.33,243.42z"/>
	<path class="st1" d="M459.6,249.79l5.96-11.52h2.63l2.77,11.52h-2.56l-0.49-2.48h-4.38l-1.24,2.48H459.6z M467.47,245.42
		l-0.55-2.72c-0.05-0.28-0.1-0.62-0.14-1.01c-0.04-0.4-0.08-0.87-0.12-1.42c-0.12,0.42-0.24,0.81-0.37,1.17s-0.27,0.69-0.42,1
		l-1.4,2.98H467.47z"/>
	<path class="st1" d="M472.54,246.69c0.27,0.47,0.59,0.82,0.94,1.05s0.78,0.34,1.26,0.34c0.51,0,0.92-0.14,1.21-0.42
		c0.29-0.28,0.44-0.66,0.44-1.15c0-0.31-0.08-0.6-0.25-0.84c-0.17-0.25-0.42-0.46-0.76-0.65c-0.08-0.05-0.21-0.12-0.37-0.21
		c-0.94-0.51-1.58-0.95-1.9-1.31c-0.24-0.27-0.42-0.57-0.54-0.92s-0.18-0.71-0.18-1.11c0-0.99,0.36-1.82,1.07-2.48
		c0.71-0.66,1.61-1,2.7-1c0.66,0,1.24,0.12,1.75,0.37c0.51,0.24,0.94,0.61,1.3,1.1l-1.24,1.6c-0.21-0.38-0.46-0.67-0.76-0.86
		c-0.3-0.19-0.64-0.28-1.04-0.28c-0.45,0-0.81,0.13-1.11,0.39c-0.29,0.26-0.44,0.58-0.44,0.98c0,0.52,0.48,1.05,1.43,1.59
		c0.18,0.11,0.32,0.19,0.42,0.24c0.87,0.51,1.45,1.01,1.76,1.5c0.31,0.49,0.46,1.12,0.46,1.89c0,1.08-0.36,1.94-1.09,2.6
		s-1.69,0.99-2.89,0.99c-0.73,0-1.38-0.14-1.95-0.43c-0.57-0.29-1.08-0.73-1.53-1.32L472.54,246.69z"/>
</g>
<g>
	<path d="M165.75,163.81v0.14c0,0.42,0.14,0.77,0.42,1.04c0.28,0.26,0.64,0.4,1.09,0.4c0.54,0,0.98-0.17,1.33-0.51
		c0.34-0.34,0.52-0.77,0.52-1.29c0-0.51-0.19-0.9-0.57-1.17c-0.38-0.27-0.93-0.42-1.67-0.45l0.24-1.95c0.04,0,0.08,0.01,0.13,0.01
		c0.05,0,0.12,0,0.21,0c0.64,0,1.14-0.14,1.5-0.42c0.36-0.28,0.54-0.67,0.54-1.17c0-0.41-0.13-0.73-0.38-0.97s-0.6-0.35-1.05-0.35
		c-0.41,0-0.75,0.12-1.02,0.35c-0.27,0.23-0.44,0.55-0.5,0.94h-2.08c0.13-0.96,0.53-1.73,1.2-2.28c0.67-0.56,1.51-0.83,2.54-0.83
		c1.06,0,1.92,0.26,2.57,0.79c0.65,0.52,0.98,1.21,0.98,2.05c0,0.72-0.21,1.35-0.64,1.87c-0.43,0.52-1.01,0.88-1.76,1.09
		c0.69,0.21,1.2,0.55,1.55,1c0.34,0.45,0.52,1.03,0.52,1.72c0,0.99-0.38,1.81-1.15,2.45s-1.77,0.96-2.99,0.96
		c-1.14,0-2.03-0.29-2.67-0.88c-0.64-0.59-0.98-1.43-1.02-2.53H165.75z"/>
	<path d="M181.26,160.18c0,2.12-0.44,3.83-1.33,5.12s-2.05,1.94-3.48,1.94c-1.15,0-2.04-0.42-2.66-1.26
		c-0.62-0.84-0.93-2.05-0.93-3.64c0-2.1,0.44-3.8,1.31-5.1c0.87-1.29,2.01-1.94,3.41-1.94c1.19,0,2.1,0.42,2.73,1.25
		C180.94,157.38,181.26,158.59,181.26,160.18z M177.47,157.35c-0.68,0-1.23,0.49-1.64,1.48c-0.42,0.99-0.63,2.3-0.63,3.93
		c0,0.81,0.12,1.42,0.35,1.82c0.23,0.4,0.59,0.6,1.07,0.6c0.69,0,1.25-0.48,1.66-1.44c0.42-0.96,0.63-2.25,0.63-3.88
		c0-0.86-0.12-1.49-0.35-1.89S177.96,157.35,177.47,157.35z"/>
	<path d="M186.33,166.93l1.52-11.52h2.42l-0.69,5.19l4.5-5.19h2.85l-4.92,5.52l3.47,6h-2.71l-3.26-5.82l-0.76,5.82H186.33z"/>
	<path d="M196.39,166.93l1.51-11.52h2.42l-1.51,11.52H196.39z"/>
	<path d="M200.95,166.93l1.52-11.52h2.42l-1.26,9.47h4l-0.27,2.05H200.95z"/>
	<path d="M214.32,167.24c-1.73,0-3.11-0.5-4.15-1.51c-1.04-1.01-1.56-2.35-1.56-4.02c0-0.82,0.15-1.62,0.44-2.39
		s0.71-1.47,1.25-2.09c0.61-0.68,1.33-1.19,2.17-1.55c0.84-0.36,1.74-0.54,2.72-0.54c1.73,0,3.11,0.5,4.15,1.49
		c1.04,0.99,1.56,2.31,1.56,3.95c0,0.86-0.13,1.66-0.4,2.41c-0.27,0.75-0.65,1.42-1.15,2c-0.63,0.73-1.38,1.29-2.23,1.67
		C216.26,167.05,215.33,167.24,214.32,167.24z M215.06,157.23c-1.14,0-2.09,0.42-2.85,1.26c-0.76,0.84-1.13,1.89-1.13,3.16
		c0,1.07,0.31,1.92,0.92,2.55c0.61,0.63,1.43,0.95,2.45,0.95c1.14,0,2.09-0.42,2.84-1.28c0.76-0.85,1.14-1.9,1.14-3.16
		c0-1.06-0.3-1.91-0.91-2.54C216.91,157.54,216.09,157.23,215.06,157.23z M217.94,151.4l-2.89,2.76h-1.11l1.77-2.76H217.94z"/>
	<path d="M220.99,166.93l3.26-11.52h2.55l1.09,5.26c0.08,0.4,0.15,0.86,0.21,1.38c0.06,0.51,0.11,1.07,0.15,1.67
		c0.13-0.47,0.27-0.92,0.43-1.36c0.16-0.44,0.33-0.86,0.53-1.28l2.59-5.67h2.64l0.15,11.52h-2.27l0.06-5.38
		c0.01-0.6,0.03-1.21,0.07-1.83c0.03-0.61,0.08-1.24,0.15-1.87c-0.21,0.6-0.42,1.17-0.63,1.7c-0.21,0.53-0.41,1.01-0.62,1.44
		l-2.82,5.93h-1.31l-1.4-6.48c-0.07-0.33-0.13-0.73-0.19-1.2c-0.06-0.47-0.11-0.98-0.15-1.54c-0.12,0.7-0.22,1.26-0.3,1.68
		c-0.08,0.42-0.14,0.71-0.19,0.88l-1.61,6.66H220.99z"/>
	<path d="M235.9,166.93l1.52-11.52h6.85l-0.25,2.03h-4.47l-0.34,2.59h4.45l-0.26,1.98h-4.46l-0.38,2.89h4.47l-0.28,2.03H235.9z"/>
	<path d="M246.46,166.93l1.25-9.51h-2.99l0.27-2.01h8.18l-0.26,2.01h-2.79l-1.24,9.51H246.46z"/>
	<path d="M255.22,166.93h-2.42l1.52-11.52h2.4c1,0,1.72,0.05,2.17,0.16c0.44,0.11,0.83,0.28,1.17,0.54c0.37,0.27,0.66,0.61,0.85,1
		c0.19,0.4,0.29,0.83,0.29,1.32c0,0.88-0.25,1.61-0.74,2.18c-0.5,0.58-1.21,0.96-2.14,1.17l2.61,5.15h-2.64l-2.37-5.29
		L255.22,166.93z M256.07,160.39h0.35c0.91,0,1.53-0.13,1.86-0.37c0.33-0.25,0.49-0.68,0.49-1.29c0-0.52-0.14-0.88-0.41-1.09
		c-0.28-0.21-0.81-0.31-1.62-0.31h-0.28L256.07,160.39z"/>
	<path d="M267.71,167.24c-1.73,0-3.11-0.5-4.15-1.51c-1.04-1.01-1.56-2.35-1.56-4.02c0-0.82,0.15-1.62,0.44-2.39
		s0.71-1.47,1.25-2.09c0.61-0.68,1.33-1.19,2.17-1.55c0.84-0.36,1.74-0.54,2.72-0.54c1.72,0,3.11,0.5,4.15,1.49s1.56,2.31,1.56,3.95
		c0,0.86-0.13,1.66-0.4,2.41c-0.26,0.75-0.65,1.42-1.15,2c-0.63,0.73-1.38,1.29-2.23,1.67
		C269.65,167.05,268.71,167.24,267.71,167.24z M268.45,157.23c-1.14,0-2.09,0.42-2.85,1.26c-0.76,0.84-1.13,1.89-1.13,3.16
		c0,1.07,0.31,1.92,0.92,2.55c0.61,0.63,1.43,0.95,2.45,0.95c1.14,0,2.09-0.42,2.84-1.28c0.76-0.85,1.14-1.9,1.14-3.16
		c0-1.06-0.3-1.91-0.91-2.54C270.29,157.54,269.48,157.23,268.45,157.23z"/>
	<path d="M275.83,163.84c0.27,0.47,0.59,0.82,0.94,1.05s0.78,0.34,1.26,0.34c0.51,0,0.92-0.14,1.21-0.42
		c0.29-0.28,0.44-0.66,0.44-1.15c0-0.31-0.08-0.6-0.25-0.84c-0.17-0.25-0.42-0.46-0.76-0.65c-0.08-0.05-0.21-0.12-0.37-0.21
		c-0.94-0.51-1.58-0.95-1.9-1.31c-0.24-0.27-0.42-0.57-0.54-0.92s-0.18-0.71-0.18-1.11c0-0.99,0.36-1.82,1.07-2.48
		c0.71-0.66,1.61-1,2.7-1c0.66,0,1.24,0.12,1.75,0.37c0.51,0.24,0.94,0.61,1.3,1.1l-1.24,1.6c-0.21-0.38-0.46-0.67-0.76-0.86
		c-0.3-0.19-0.64-0.28-1.04-0.28c-0.45,0-0.81,0.13-1.11,0.39c-0.29,0.26-0.44,0.58-0.44,0.98c0,0.52,0.48,1.05,1.43,1.59
		c0.18,0.11,0.32,0.19,0.42,0.24c0.87,0.51,1.45,1.01,1.76,1.5c0.31,0.49,0.46,1.12,0.46,1.89c0,1.08-0.36,1.94-1.09,2.6
		s-1.69,0.99-2.89,0.99c-0.73,0-1.38-0.14-1.95-0.43c-0.57-0.29-1.08-0.73-1.53-1.32L275.83,163.84z"/>
	<path d="M287.35,166.93l1.52-11.52h2.42c1.36,0,2.33,0.04,2.9,0.13s1.04,0.23,1.42,0.43c0.81,0.42,1.43,1.05,1.86,1.89
		c0.43,0.83,0.65,1.83,0.65,2.98c0,1.12-0.19,2.08-0.58,2.88s-0.99,1.5-1.81,2.1c-0.55,0.4-1.19,0.68-1.92,0.85
		c-0.73,0.17-1.87,0.26-3.4,0.26h-0.92H287.35z M290.03,164.87c0.03,0,0.08,0,0.14,0c0.55,0.02,0.94,0.03,1.18,0.03
		c0.84,0,1.5-0.07,1.98-0.22c0.48-0.14,0.89-0.38,1.21-0.72c0.36-0.37,0.63-0.83,0.81-1.39c0.19-0.55,0.28-1.18,0.28-1.87
		c0-1.13-0.24-1.95-0.72-2.45c-0.48-0.5-1.27-0.75-2.37-0.75H291L290.03,164.87z"/>
	<path d="M298.9,166.93l1.52-11.52h6.85l-0.25,2.03h-4.47l-0.34,2.59h4.45l-0.26,1.98h-4.46l-0.38,2.89h4.47l-0.28,2.03H298.9z"/>
	<path d="M314.5,166.93h-2.42l1.52-11.52h2.23c1.09,0,1.85,0.06,2.31,0.17c0.45,0.12,0.85,0.31,1.19,0.58
		c0.38,0.29,0.67,0.66,0.86,1.1c0.2,0.44,0.3,0.93,0.3,1.47c0,0.63-0.11,1.21-0.34,1.71s-0.57,0.93-1.01,1.28
		c-0.37,0.29-0.8,0.5-1.3,0.62s-1.23,0.19-2.19,0.19h-0.55L314.5,166.93z M315.33,160.56h0.37c0.91,0,1.53-0.13,1.86-0.39
		c0.33-0.26,0.49-0.71,0.49-1.35c0-0.54-0.14-0.91-0.41-1.13c-0.27-0.21-0.81-0.32-1.62-0.32h-0.28L315.33,160.56z"/>
	<path d="M324.68,155.41l-0.87,6.51c-0.02,0.17-0.04,0.35-0.05,0.54s-0.02,0.41-0.02,0.64c0,0.71,0.17,1.24,0.52,1.61
		c0.35,0.36,0.86,0.55,1.52,0.55c0.47,0,0.89-0.1,1.24-0.29c0.36-0.19,0.65-0.48,0.89-0.85c0.29-0.48,0.53-1.42,0.72-2.82
		c0.01-0.08,0.02-0.13,0.02-0.17l0.77-5.72h2.38l-0.85,6.48c-0.14,1.06-0.3,1.85-0.48,2.36c-0.18,0.51-0.43,0.96-0.74,1.36
		c-0.46,0.56-1.02,0.98-1.69,1.24c-0.67,0.27-1.48,0.4-2.42,0.4c-1.45,0-2.54-0.33-3.25-0.98c-0.71-0.66-1.07-1.64-1.07-2.97
		c0-0.19,0.02-0.51,0.07-0.96c0.04-0.45,0.11-1.01,0.19-1.67l0.69-5.26H324.68z"/>
	<path d="M334.79,166.93h-2.42l1.52-11.52h2.4c1,0,1.72,0.05,2.17,0.16c0.44,0.11,0.83,0.28,1.17,0.54c0.37,0.27,0.66,0.61,0.85,1
		c0.19,0.4,0.29,0.83,0.29,1.32c0,0.88-0.25,1.61-0.74,2.18c-0.5,0.58-1.21,0.96-2.14,1.17l2.61,5.15h-2.64l-2.37-5.29
		L334.79,166.93z M335.64,160.39h0.35c0.91,0,1.53-0.13,1.86-0.37s0.49-0.68,0.49-1.29c0-0.52-0.14-0.88-0.41-1.09
		c-0.28-0.21-0.81-0.31-1.62-0.31h-0.28L335.64,160.39z"/>
	<path d="M340.29,166.93l5.96-11.52h2.63l2.77,11.52h-2.56l-0.49-2.48h-4.38l-1.24,2.48H340.29z M348.16,162.56l-0.55-2.72
		c-0.05-0.28-0.1-0.62-0.14-1.01c-0.04-0.4-0.08-0.87-0.12-1.42c-0.12,0.42-0.24,0.81-0.37,1.17s-0.27,0.69-0.42,1l-1.4,2.98H348.16
		z"/>
	<path d="M366.11,166.51c-0.48,0.24-1,0.42-1.56,0.54c-0.56,0.12-1.16,0.18-1.79,0.18c-1.69,0-3.05-0.5-4.08-1.51
		c-1.03-1.01-1.55-2.33-1.55-3.97c0-0.86,0.14-1.67,0.43-2.45c0.29-0.78,0.7-1.47,1.24-2.09c0.6-0.68,1.32-1.2,2.16-1.56
		c0.84-0.36,1.75-0.54,2.74-0.54c0.7,0,1.36,0.09,1.97,0.26c0.61,0.17,1.19,0.44,1.74,0.79l-0.34,2.26
		c-0.58-0.42-1.15-0.73-1.7-0.93c-0.55-0.2-1.11-0.3-1.67-0.3c-1.21,0-2.2,0.42-2.97,1.24c-0.77,0.83-1.16,1.89-1.16,3.19
		c0,1.07,0.3,1.91,0.91,2.54c0.61,0.63,1.43,0.94,2.46,0.94c0.67,0,1.28-0.09,1.85-0.27c0.57-0.18,1.1-0.46,1.59-0.83L366.11,166.51
		z"/>
	<path d="M366.82,166.93l5.96-11.52h2.63l2.77,11.52h-2.56l-0.49-2.48h-4.38l-1.24,2.48H366.82z M374.69,162.56l-0.55-2.72
		c-0.05-0.28-0.1-0.62-0.14-1.01c-0.04-0.4-0.08-0.87-0.12-1.42c-0.12,0.42-0.24,0.81-0.37,1.17s-0.27,0.69-0.42,1l-1.4,2.98H374.69
		z"/>
	<path d="M379.04,166.93l1.52-11.52h2.51l3.57,5.94c0.38,0.65,0.66,1.14,0.82,1.47c0.16,0.33,0.29,0.64,0.39,0.94
		c0.02-0.55,0.05-1.03,0.08-1.44s0.06-0.75,0.09-0.99l0.79-5.92h2.27l-1.53,11.52h-2.34l-3.97-6.7c-0.25-0.41-0.45-0.77-0.6-1.08
		s-0.28-0.61-0.39-0.89v0.37c0,0.39-0.01,0.77-0.03,1.14c-0.02,0.37-0.05,0.71-0.09,1.04l-0.86,6.12H379.04z"/>
	<path d="M391.7,166.93l1.52-11.52h2.42c1.36,0,2.33,0.04,2.9,0.13s1.04,0.23,1.42,0.43c0.81,0.42,1.43,1.05,1.86,1.89
		c0.43,0.83,0.65,1.83,0.65,2.98c0,1.12-0.19,2.08-0.58,2.88s-0.99,1.5-1.81,2.1c-0.55,0.4-1.19,0.68-1.92,0.85
		c-0.73,0.17-1.87,0.26-3.4,0.26h-0.92H391.7z M394.37,164.87c0.03,0,0.08,0,0.14,0c0.55,0.02,0.94,0.03,1.18,0.03
		c0.84,0,1.5-0.07,1.98-0.22c0.48-0.14,0.89-0.38,1.21-0.72c0.36-0.37,0.63-0.83,0.81-1.39c0.19-0.55,0.28-1.18,0.28-1.87
		c0-1.13-0.24-1.95-0.72-2.45c-0.48-0.5-1.27-0.75-2.37-0.75h-1.55L394.37,164.87z"/>
	<path d="M403.24,166.93l1.52-11.52h6.85l-0.25,2.03h-4.47l-0.34,2.59H411l-0.26,1.98h-4.46l-0.38,2.89h4.47l-0.28,2.03H403.24z"/>
	<path d="M412.04,166.93l1.52-11.52h2.42l-1.26,9.47h4l-0.27,2.05H412.04z"/>
	<path d="M418.43,166.93l5.96-11.52h2.63l2.77,11.52h-2.56l-0.49-2.48h-4.38l-1.24,2.48H418.43z M426.3,162.56l-0.55-2.72
		c-0.05-0.28-0.1-0.62-0.14-1.01c-0.04-0.4-0.08-0.87-0.12-1.42c-0.12,0.42-0.24,0.81-0.37,1.17s-0.27,0.69-0.42,1l-1.4,2.98H426.3z
		"/>
</g>
<g>
	<polygon class="st2" points="227.52,49.77 223.09,49.77 217.78,91.49 227.52,91.49 353.23,91.49 357.68,49.77 	"/>
	<g>
		<path class="st1" d="M247.54,83.88c-1.03,0.51-2.13,0.9-3.32,1.15c-1.19,0.26-2.46,0.38-3.81,0.38c-3.59,0-6.48-1.07-8.68-3.21
			c-2.19-2.14-3.29-4.95-3.29-8.43c0-1.82,0.31-3.55,0.92-5.2c0.61-1.65,1.49-3.13,2.64-4.43c1.28-1.45,2.81-2.55,4.59-3.31
			c1.78-0.76,3.72-1.14,5.83-1.14c1.49,0,2.89,0.18,4.19,0.55c1.3,0.37,2.53,0.93,3.69,1.67l-0.72,4.8
			c-1.24-0.89-2.44-1.55-3.61-1.97c-1.17-0.42-2.35-0.64-3.55-0.64c-2.58,0-4.68,0.88-6.32,2.64c-1.64,1.76-2.46,4.02-2.46,6.78
			c0,2.26,0.65,4.07,1.94,5.4c1.29,1.34,3.03,2.01,5.22,2.01c1.42,0,2.73-0.19,3.94-0.58c1.21-0.38,2.33-0.97,3.37-1.77
			L247.54,83.88z"/>
		<path class="st1" d="M255.6,84.76h-5.15l3.23-24.5h5.1c2.13,0,3.67,0.11,4.61,0.33c0.94,0.22,1.77,0.6,2.48,1.14
			c0.79,0.58,1.39,1.29,1.81,2.13c0.41,0.84,0.62,1.78,0.62,2.8c0,1.87-0.53,3.42-1.58,4.64c-1.05,1.22-2.57,2.05-4.54,2.48
			l5.56,10.96h-5.62l-5.04-11.24L255.6,84.76z M257.41,70.86h0.75c1.94,0,3.26-0.26,3.96-0.79c0.7-0.53,1.05-1.44,1.05-2.74
			c0-1.1-0.29-1.88-0.88-2.33c-0.59-0.45-1.73-0.67-3.44-0.67h-0.59L257.41,70.86z"/>
		<path class="st1" d="M281.29,85.41c-3.67,0-6.61-1.07-8.82-3.21c-2.21-2.14-3.31-4.99-3.31-8.55c0-1.74,0.31-3.44,0.94-5.09
			c0.62-1.65,1.51-3.13,2.66-4.43c1.29-1.44,2.83-2.54,4.61-3.3c1.78-0.76,3.71-1.15,5.78-1.15c3.67,0,6.61,1.06,8.82,3.17
			c2.21,2.11,3.31,4.92,3.31,8.41c0,1.82-0.28,3.53-0.84,5.13c-0.56,1.6-1.38,3.02-2.45,4.26c-1.35,1.56-2.93,2.75-4.75,3.56
			C285.41,85.01,283.43,85.41,281.29,85.41z M282.87,64.13c-2.43,0-4.45,0.89-6.06,2.67c-1.61,1.78-2.41,4.02-2.41,6.72
			c0,2.28,0.65,4.09,1.95,5.43c1.3,1.34,3.04,2.02,5.21,2.02c2.42,0,4.44-0.9,6.05-2.71c1.61-1.81,2.42-4.05,2.42-6.73
			c0-2.26-0.65-4.06-1.94-5.4C286.79,64.8,285.05,64.13,282.87,64.13z"/>
		<path class="st1" d="M296.19,84.76l3.23-24.5h5.34l7.58,12.63c0.81,1.38,1.39,2.43,1.74,3.13c0.35,0.7,0.62,1.37,0.84,1.99
			c0.04-1.16,0.1-2.18,0.17-3.07c0.07-0.89,0.13-1.59,0.2-2.1l1.69-12.58h4.82l-3.25,24.5h-4.97l-8.43-14.26
			c-0.52-0.87-0.95-1.63-1.27-2.29c-0.32-0.66-0.6-1.29-0.82-1.89v0.79c0,0.84-0.02,1.65-0.07,2.43c-0.04,0.78-0.11,1.52-0.2,2.21
			l-1.82,13.02H296.19z"/>
		<path class="st1" d="M334.82,85.41c-3.67,0-6.61-1.07-8.82-3.21c-2.21-2.14-3.31-4.99-3.31-8.55c0-1.74,0.31-3.44,0.94-5.09
			c0.62-1.65,1.51-3.13,2.66-4.43c1.29-1.44,2.83-2.54,4.61-3.3c1.78-0.76,3.71-1.15,5.78-1.15c3.67,0,6.61,1.06,8.82,3.17
			c2.21,2.11,3.31,4.92,3.31,8.41c0,1.82-0.28,3.53-0.84,5.13c-0.56,1.6-1.38,3.02-2.45,4.26c-1.35,1.56-2.93,2.75-4.75,3.56
			C338.94,85.01,336.96,85.41,334.82,85.41z M336.39,64.13c-2.43,0-4.45,0.89-6.06,2.67c-1.61,1.78-2.41,4.02-2.41,6.72
			c0,2.28,0.65,4.09,1.95,5.43c1.3,1.34,3.04,2.02,5.21,2.02c2.42,0,4.44-0.9,6.05-2.71c1.61-1.81,2.42-4.05,2.42-6.73
			c0-2.26-0.65-4.06-1.94-5.4C340.32,64.8,338.58,64.13,336.39,64.13z"/>
	</g>
	<g>
		<path class="st0" d="M307.95,98.76c-0.07-0.62-0.13-1.36-0.18-2.22c-0.18,0.66-0.37,1.27-0.58,1.83
			c-0.21,0.56-0.42,1.09-0.65,1.57l-2.19,4.66h4.69l-0.86-4.26C308.09,99.91,308.02,99.38,307.95,98.76z"/>
		<path class="st0" d="M280.09,98.76c-0.07-0.62-0.13-1.36-0.18-2.22c-0.18,0.66-0.37,1.27-0.58,1.83
			c-0.21,0.56-0.42,1.09-0.65,1.57l-2.19,4.66h4.69l-0.86-4.26C280.23,99.91,280.16,99.38,280.09,98.76z"/>
		<path class="st0" d="M323.34,96.69h-2.42l-1.51,11.52c0.05,0,0.12,0,0.22,0c0.86,0.03,1.48,0.05,1.85,0.05
			c1.31,0,2.35-0.11,3.1-0.34c0.75-0.23,1.39-0.6,1.89-1.13c0.56-0.58,0.98-1.31,1.27-2.17c0.29-0.87,0.44-1.84,0.44-2.92
			c0-1.77-0.38-3.05-1.13-3.83C326.3,97.08,325.07,96.69,323.34,96.69z"/>
		<path class="st0" d="M231.28,86.85h-4.31l-5.16,29.77h9.46h122.08l4.32-29.77H231.28z M240.95,103.74h-6.98l-0.59,4.52h6.99
			l-0.43,3.17h-10.72l2.37-18.02h10.71l-0.39,3.17h-6.99l-0.53,4.05h6.96L240.95,103.74z M248.96,100.61
			c0.29,0.16,0.5,0.29,0.65,0.38c1.35,0.8,2.27,1.58,2.76,2.34c0.48,0.76,0.73,1.75,0.73,2.95c0,1.68-0.57,3.04-1.7,4.07
			c-1.14,1.03-2.64,1.55-4.52,1.55c-1.14,0-2.16-0.23-3.05-0.68c-0.89-0.45-1.69-1.14-2.39-2.07l2.04-2.57
			c0.43,0.74,0.92,1.28,1.48,1.64c0.56,0.35,1.21,0.53,1.97,0.53c0.8,0,1.43-0.22,1.89-0.65c0.46-0.43,0.68-1.03,0.68-1.8
			c0-0.49-0.13-0.93-0.39-1.32c-0.26-0.39-0.66-0.73-1.19-1.02c-0.13-0.07-0.32-0.18-0.58-0.32c-1.48-0.8-2.47-1.49-2.98-2.05
			c-0.37-0.42-0.65-0.9-0.84-1.43c-0.19-0.54-0.29-1.12-0.29-1.74c0-1.55,0.56-2.84,1.67-3.88c1.12-1.04,2.52-1.56,4.22-1.56
			c1.03,0,1.94,0.19,2.73,0.57c0.8,0.38,1.47,0.95,2.03,1.72l-1.93,2.5c-0.32-0.6-0.71-1.05-1.18-1.34
			c-0.47-0.3-1.01-0.44-1.62-0.44c-0.7,0-1.27,0.2-1.73,0.6c-0.46,0.4-0.68,0.91-0.68,1.54C246.72,98.94,247.46,99.77,248.96,100.61
			z M268.39,110.78c-0.75,0.38-1.57,0.66-2.44,0.85c-0.87,0.19-1.81,0.28-2.8,0.28c-2.64,0-4.77-0.79-6.38-2.36
			c-1.61-1.58-2.42-3.64-2.42-6.2c0-1.34,0.23-2.61,0.68-3.83c0.45-1.21,1.1-2.3,1.94-3.26c0.94-1.07,2.07-1.88,3.38-2.44
			c1.31-0.56,2.74-0.84,4.29-0.84c1.1,0,2.13,0.14,3.08,0.41c0.96,0.27,1.86,0.68,2.71,1.23l-0.53,3.53
			c-0.91-0.66-1.8-1.14-2.66-1.45c-0.86-0.31-1.73-0.47-2.61-0.47c-1.9,0-3.45,0.65-4.65,1.94c-1.21,1.3-1.81,2.96-1.81,4.98
			c0,1.67,0.48,2.99,1.43,3.97c0.95,0.98,2.23,1.48,3.84,1.48c1.04,0,2.01-0.14,2.9-0.42c0.89-0.28,1.72-0.72,2.48-1.3
			L268.39,110.78z M282.64,111.43l-0.76-3.88h-6.85l-1.94,3.88h-4.21l9.33-18.02h4.11l4.33,18.02H282.64z M310.5,111.43l-0.76-3.88
			h-6.85l-1.94,3.88h-3.56h-0.64h-9.37l2.38-18.02h3.78l-1.97,14.82h6.25l-0.2,1.53l8.46-16.35h4.11l4.33,18.02H310.5z
			 M328.3,109.69c-0.86,0.62-1.86,1.07-3.01,1.34c-1.14,0.27-2.92,0.4-5.32,0.4h-1.44h-3.31l2.37-18.02h3.78
			c2.13,0,3.64,0.07,4.53,0.2c0.89,0.14,1.63,0.36,2.23,0.67c1.26,0.66,2.23,1.65,2.9,2.95c0.67,1.3,1.01,2.86,1.01,4.66
			c0,1.75-0.3,3.25-0.9,4.5C330.54,107.66,329.59,108.76,328.3,109.69z M344.31,111.43l-0.76-3.88h-6.85l-1.94,3.88h-4.21
			l9.33-18.02h4.11l4.33,18.02H344.31z"/>
		<path class="st0" d="M341.76,98.76c-0.07-0.62-0.13-1.36-0.18-2.22c-0.18,0.66-0.37,1.27-0.58,1.83
			c-0.21,0.56-0.42,1.09-0.65,1.57l-2.19,4.66h4.69l-0.86-4.26C341.9,99.91,341.83,99.38,341.76,98.76z"/>
	</g>
	<g>
		<radialGradient id="SVGID_1_" cx="348.5632" cy="31.8368" r="43.1407" gradientUnits="userSpaceOnUse">
			<stop  offset="0" style="stop-color:#E7C64B"/>
			<stop  offset="0.9949" style="stop-color:#DC9B33"/>
		</radialGradient>
		<path class="st3" d="M349.07,36.28c0,0-9.7,8.76-1.72,18.07c7.98,9.31,12.55,18.36,5.19,30.3c0,0,3.58-10.54-5.87-20.39
			C339.62,56.91,333.56,44.7,349.07,36.28z"/>
		<radialGradient id="SVGID_2_" cx="348.4515" cy="37.9307" r="32.6868" gradientUnits="userSpaceOnUse">
			<stop  offset="0" style="stop-color:#DFA231"/>
			<stop  offset="0.9949" style="stop-color:#D17B34"/>
		</radialGradient>
		<path class="st4" d="M354.34,77.83c-0.34-4.05-1.92-9.3-6.81-14.39c-2.98-3.11-7.84-9.28-6.86-15.63c0.37-2.36,1.54-4.54,3.5-6.52
			c-1.6,3.68-2.14,8.7,2.27,13.84c4.58,5.34,7.08,9.56,8.1,13.68C355.28,71.78,355.22,74.77,354.34,77.83z"/>
		<radialGradient id="SVGID_3_" cx="348.5629" cy="31.8372" r="43.1405" gradientUnits="userSpaceOnUse">
			<stop  offset="0" style="stop-color:#E7C64B"/>
			<stop  offset="0.9949" style="stop-color:#DC9B33"/>
		</radialGradient>
		<path class="st5" d="M362.45,29.51c0,0-15.68,2.33-14.18,17.85c1.49,15.52,20.43,19.09,5.74,38.34c0,0,20.82-5.22,18.73-21.93
			C370.64,47.05,351.57,43.88,362.45,29.51z"/>
		
			<radialGradient id="SVGID_4_" cx="346.9114" cy="36.4879" r="34.704" gradientTransform="matrix(0.999 0.045 -0.045 0.999 7.7041 -12.5699)" gradientUnits="userSpaceOnUse">
			<stop  offset="0" style="stop-color:#DFA231"/>
			<stop  offset="0.9949" style="stop-color:#D17B34"/>
		</radialGradient>
		<path class="st6" d="M357.1,83.23c6.5-9.25,3.06-14.6-0.56-20.23c-2.18-3.39-4.44-6.9-4.68-11.61
			c-0.46-9.03,5.89-12.26,9.59-13.38c-3.99,6.41-0.69,10.76,2.79,15.34c2.71,3.57,5.78,7.62,6.25,13.45
			c0.45,5.64-2.12,10.26-7.63,13.7C360.81,81.78,358.72,82.66,357.1,83.23z"/>
		
			<radialGradient id="SVGID_5_" cx="342.7993" cy="38.9211" r="28.5966" gradientTransform="matrix(0.9955 0.095 -0.095 0.9955 17.3924 -26.1352)" gradientUnits="userSpaceOnUse">
			<stop  offset="0" style="stop-color:#CF742D"/>
			<stop  offset="0.9949" style="stop-color:#C3412E"/>
		</radialGradient>
		<path class="st7" d="M358.92,81.95c3.75-7.15,0.93-12.62-1.61-17.55c-1.82-3.53-3.54-6.87-3.36-11.1
			c0.22-4.99,2.56-7.76,5.31-9.29c-1.57,5.07,1.1,9.38,3.51,13.29c2.34,3.78,4.76,7.69,4.67,13.01c-0.08,5.01-2.67,8.72-7.91,11.34
			C359.34,81.76,359.13,81.86,358.92,81.95z"/>
	</g>
</g>
</svg>
