<?xml version="1.0" encoding="utf-8"?>
<!-- Generator: Adobe Illustrator 25.2.3, SVG Export Plug-In . SVG Version: 6.00 Build 0)  -->
<svg version="1.1" id="Layer_1" xmlns="http://www.w3.org/2000/svg" xmlns:xlink="http://www.w3.org/1999/xlink" x="0px" y="0px"
	 viewBox="0 0 595.28 101" style="enable-background:new 0 0 595.28 101;" xml:space="preserve">
<style type="text/css">
	.st0{fill:#ED1C24;}
	.st1{fill:#FFFFFF;}
</style>
<g>
	<g>
		<path class="st0" d="M301.73,28.52c-4.11-6.7-11.76-10.1-22.74-10.1c-2.93,0-256.8,0.72-256.8,0.72L3.72,83.86
			c0,0,250.68,0.72,262.63,0.72c9.73,0,17.79-2.8,23.93-8.32c5.72-5.13,9.96-12.73,12.61-22.59
			C305.82,42.81,305.44,34.58,301.73,28.52z"/>
	</g>
	<g>
		<g>
			<path class="st1" d="M60.6,50.53C56.2,66.08,46.9,73.86,32.69,73.86H15.34L28.1,29.14h17.66c7.61,0,12.48,1.84,14.6,5.51
				C62.48,38.32,62.56,43.62,60.6,50.53z M41.13,60.1c1.2-1.68,2.35-4.48,3.46-8.39c1.11-3.91,1.51-6.7,1.19-8.35
				c-0.32-1.66-1.73-2.48-4.22-2.48h-1.51l-6.18,21.74h1.8C38.11,62.62,39.94,61.78,41.13,60.1z"/>
		</g>
		<g>
			<path class="st1" d="M74.09,73.86H58.9l12.64-44.71h15.15L74.09,73.86z"/>
		</g>
		<g>
			<path class="st1" d="M86.68,43.47c1.34-4.75,3.82-8.45,7.43-11.09c3.61-2.64,7.97-3.96,13.07-3.96c5.1,0,10.22,0.48,15.36,1.44
				l-5.2,12.67c-5.65-1.2-9.41-1.8-11.28-1.8c-1.87,0-2.96,0.58-3.29,1.73c-0.12,0.43-0.06,0.73,0.18,0.9
				c0.24,0.17,0.42,0.3,0.54,0.4c0.12,0.1,0.36,0.22,0.73,0.36c0.37,0.14,0.67,0.28,0.89,0.4c0.23,0.12,0.99,0.48,2.29,1.08
				c1.29,0.6,2.26,1.08,2.9,1.44c0.64,0.36,1.5,0.95,2.56,1.76c3.05,2.45,3.92,6.05,2.59,10.8c-1.33,4.75-3.77,8.44-7.34,11.05
				c-3.56,2.62-8,3.92-13.3,3.92s-10.32-0.65-15.04-1.94l4.43-12.17c5.97,1.63,10.08,2.45,12.33,2.45c1.49,0,2.38-0.53,2.68-1.58
				c0.13-0.48,0.06-0.86-0.22-1.15c-0.28-0.29-0.72-0.6-1.32-0.94c-0.6-0.33-1.5-0.78-2.68-1.33c-1.19-0.55-2.18-1.03-2.98-1.44
				c-0.8-0.41-1.7-1.04-2.7-1.91C86.22,51.92,85.34,48.22,86.68,43.47z"/>
		</g>
		<g>
			<path class="st1" d="M155.34,41.31h-9.49l-9.05,32.54h-15.34l9.08-32.54h-9.99l4.05-12.17h34.97L155.34,41.31z"/>
		</g>
		<g>
			<path class="st1" d="M193.02,43.54c-0.79,2.88-1.89,5.17-3.3,6.88c-1.4,1.7-3.27,3.2-5.59,4.5l1.47,18.94H169.7l-0.2-15.41h-1.15
				l-4.26,15.41h-14.76l12.41-44.71h19.03c5.55,0,9.33,1.16,11.32,3.49C194.07,34.96,194.38,38.6,193.02,43.54z M174.89,48.69
				c0.63-0.65,1.18-1.79,1.63-3.42c0.45-1.63,0.52-2.76,0.22-3.38c-0.31-0.62-0.96-0.94-1.97-0.94h-1.87l-2.41,8.71h1.8
				C173.39,49.66,174.25,49.34,174.89,48.69z"/>
		</g>
		<g>
			<path class="st1" d="M205.48,73.86h-15.19l12.3-44.71h15.15L205.48,73.86z"/>
		</g>
		<g>
			<path class="st1" d="M251.77,41.31h-9.49l-8.87,32.54h-15.34l8.9-32.54h-9.99l3.98-12.17h34.97L251.77,41.31z"/>
		</g>
		<g>
			<path class="st1" d="M250.66,51.21c2.17-7.99,5.34-13.79,9.5-17.39c4.16-3.6,9.89-5.4,17.19-5.4c7.3,0,12.04,1.78,14.22,5.33
				c2.18,3.55,2.19,9.32,0.04,17.32c-2.15,7.99-5.37,13.91-9.64,17.75c-4.28,3.84-10.03,5.76-17.25,5.76
				c-7.22,0-11.92-1.9-14.08-5.69C248.48,65.1,248.49,59.2,250.66,51.21z M277.5,42.64c-0.29-1.22-1.47-1.84-3.53-1.84
				c-2.06,0-3.54,0.6-4.44,1.8c-0.9,1.2-1.88,3.77-2.95,7.7l-0.86,3.17c-1.09,4.03-1.49,6.65-1.19,7.85c0.3,1.2,1.5,1.8,3.61,1.8
				s3.59-0.58,4.42-1.73c0.84-1.15,1.8-3.72,2.87-7.7l0.9-3.31C277.4,46.45,277.79,43.87,277.5,42.64z"/>
		</g>
	</g>
</g>
<g>
	<path class="st1" d="M401.26,94.63h-38.94l29.93-86.25h38.85L401.26,94.63z"/>
	<path class="st1" d="M495.02,94.63h-40.18l4.65-30h-1.38l-10.32,30h-38.94l29.82-86.25h38.85l-12.09,35h1.38l19.25-35h38.85
		l-24.29,43.33L495.02,94.63z"/>
	<path class="st1" d="M560.19,94.63h-62.13l29.62-86.25h64.61l-11.77,28.33H556.8l-1.71,5h23.16l-9.26,23.06h-21.8l-1.71,5h25.25
		L560.19,94.63z"/>
	<path class="st1" d="M357.4,8.37h-52.07l-4.57,13.07c1.64,1.46,3.05,3.15,4.23,5.07c4.29,7.01,4.82,16.21,1.6,28.15
		c-2.85,10.58-7.48,18.8-13.75,24.44c-4.24,3.81-9.26,6.45-15,7.93l-2.65,7.59h52.75c11.14,0,19.84-2.15,26.12-6.46
		c6.27-4.3,10.85-10.62,13.74-18.96c3.69-10.65,2.68-17.27-3.04-19.86l0.19-0.55c3.86-1.85,6.82-4.07,8.87-6.67
		c2.05-2.59,3.9-6.25,5.54-10.97C384.65,15.97,377.33,8.37,357.4,8.37z M324.4,76.99h-4.42l5.94-17.08h4.42L324.4,76.99z
		 M335.85,44.07h-4.41l5.04-14.45h4.41L335.85,44.07z"/>
</g>
</svg>
