<?xml version="1.0" encoding="utf-8"?>
<!-- Generator: Adobe Illustrator 23.0.3, SVG Export Plug-In . SVG Version: 6.00 Build 0)  -->
<svg version="1.1" id="Capa_1" xmlns="http://www.w3.org/2000/svg" xmlns:xlink="http://www.w3.org/1999/xlink" x="0px" y="0px"
	 viewBox="0 0 451.4 483.28" style="enable-background:new 0 0 451.4 483.28;" xml:space="preserve">
<style type="text/css">
	.st0{fill:#BF0811;}
	.st1{fill:#FFFFFF;}
	.st2{fill:url(#SVGID_1_);}
	.st3{fill:url(#SVGID_2_);}
	.st4{fill:url(#SVGID_3_);}
	.st5{fill:url(#SVGID_4_);}
	.st6{fill:url(#SVGID_5_);}
</style>
<text transform="matrix(1 0 0 1 -1068.8192 -169.0252)" style="font-family:'FuturaBT-HeavyItalic'; font-size:55.0075px; letter-spacing:-1;">INSCRIPCIONES</text>
<g>
	
		<text transform="matrix(1 0 0 1 -1070.985 -77.9969)" class="st0" style="font-family:'FuturaBT-HeavyItalic'; font-size:95.1027px; letter-spacing:-2;">ABIERTAS</text>
</g>
<g>
	<g>
		<g>
			<path d="M-810.92,324.92h-22.19l17.06-49.15h22.14L-810.92,324.92z"/>
			<path d="M-757.5,324.92h-22.9l2.65-17.1h-0.79l-5.88,17.1h-22.19l16.99-49.15h22.14l-6.89,19.94h0.79l10.97-19.94h22.14
				l-13.84,24.69L-757.5,324.92z"/>
			<path d="M-720.36,324.92h-35.41l16.88-49.15h36.82l-6.71,16.15h-13.51l-0.98,2.85h13.2l-5.28,13.14h-12.42l-0.97,2.85h14.39
				L-720.36,324.92z"/>
			<g>
				<g>
					<path class="st0" d="M-867.64,287.25c-2.34-3.82-6.7-5.75-12.96-5.75c-1.67,0-146.34,0.41-146.34,0.41l-10.52,36.88
						c0,0,142.85,0.41,149.66,0.41c5.55,0,10.14-1.6,13.64-4.74c3.26-2.93,5.68-7.26,7.19-12.87
						C-865.31,295.39-865.53,290.71-867.64,287.25z"/>
				</g>
				<g>
					<g>
						<path class="st1" d="M-1005.04,299.79c-2.51,8.86-7.81,13.29-15.91,13.29h-9.89l7.27-25.48h10.07c4.34,0,7.11,1.05,8.32,3.14
							C-1003.97,292.84-1003.93,295.85-1005.04,299.79z M-1016.14,305.25c0.68-0.96,1.34-2.55,1.97-4.78
							c0.63-2.23,0.86-3.82,0.68-4.76c-0.18-0.94-0.98-1.42-2.4-1.42h-0.86l-3.52,12.39h1.02
							C-1017.86,306.68-1016.82,306.21-1016.14,305.25z"/>
					</g>
					<g>
						<path class="st1" d="M-997.36,313.08h-8.66l7.2-25.48h8.63L-997.36,313.08z"/>
					</g>
					<g>
						<path class="st1" d="M-990.19,295.77c0.76-2.71,2.17-4.81,4.24-6.32c2.06-1.5,4.54-2.26,7.45-2.26c2.9,0,5.82,0.27,8.75,0.82
							l-2.96,7.22c-3.22-0.68-5.36-1.03-6.43-1.03c-1.06,0-1.69,0.33-1.87,0.98c-0.07,0.25-0.03,0.42,0.1,0.51
							c0.14,0.1,0.24,0.17,0.3,0.23c0.07,0.06,0.2,0.12,0.41,0.21c0.21,0.08,0.38,0.16,0.51,0.23c0.13,0.07,0.56,0.27,1.3,0.62
							c0.74,0.34,1.29,0.62,1.65,0.82c0.37,0.21,0.85,0.54,1.46,1.01c1.74,1.4,2.23,3.45,1.47,6.15s-2.15,4.81-4.18,6.3
							c-2.03,1.49-4.56,2.24-7.58,2.24c-3.02,0-5.88-0.37-8.57-1.11l2.53-6.93c3.4,0.93,5.74,1.4,7.03,1.4c0.85,0,1.36-0.3,1.52-0.9
							c0.08-0.27,0.04-0.49-0.12-0.66c-0.16-0.16-0.41-0.34-0.75-0.53c-0.34-0.19-0.85-0.44-1.53-0.76
							c-0.68-0.31-1.24-0.59-1.7-0.82c-0.45-0.23-0.97-0.59-1.54-1.09C-990.45,300.59-990.95,298.48-990.19,295.77z"/>
					</g>
					<g>
						<path class="st1" d="M-951.06,294.54h-5.41l-5.16,18.54h-8.74l5.18-18.54h-5.69l2.31-6.93h19.93L-951.06,294.54z"/>
					</g>
					<g>
						<path class="st1" d="M-929.59,295.81c-0.45,1.64-1.08,2.95-1.88,3.92c-0.8,0.97-1.86,1.83-3.19,2.56l0.84,10.79h-9.07
							l-0.12-8.78h-0.66l-2.43,8.78h-8.41l7.07-25.48h10.84c3.16,0,5.31,0.66,6.45,1.99C-928.99,290.92-928.81,292.99-929.59,295.81
							z M-939.92,298.75c0.36-0.37,0.67-1.02,0.93-1.95c0.26-0.93,0.3-1.57,0.12-1.93c-0.18-0.36-0.55-0.53-1.12-0.53h-1.06
							l-1.37,4.96h1.02C-940.77,299.3-940.28,299.11-939.92,298.75z"/>
					</g>
					<g>
						<path class="st1" d="M-922.49,313.08h-8.66l7.01-25.48h8.63L-922.49,313.08z"/>
					</g>
					<g>
						<path class="st1" d="M-896.11,294.54h-5.41l-5.05,18.54h-8.74l5.07-18.54h-5.69l2.27-6.93h19.93L-896.11,294.54z"/>
					</g>
					<g>
						<path class="st1" d="M-896.74,300.18c1.24-4.55,3.04-7.86,5.42-9.91c2.37-2.05,5.64-3.08,9.8-3.08c4.16,0,6.86,1.01,8.1,3.04
							c1.24,2.02,1.25,5.31,0.02,9.87c-1.23,4.55-3.06,7.93-5.49,10.11c-2.44,2.19-5.71,3.28-9.83,3.28c-4.12,0-6.79-1.08-8.02-3.24
							C-897.98,308.09-897.98,304.74-896.74,300.18z M-881.45,295.3c-0.17-0.7-0.84-1.05-2.01-1.05c-1.17,0-2.02,0.34-2.53,1.03
							c-0.51,0.68-1.07,2.15-1.68,4.39l-0.49,1.81c-0.62,2.3-0.85,3.79-0.68,4.47c0.17,0.68,0.86,1.03,2.06,1.03
							c1.2,0,2.04-0.33,2.52-0.98c0.48-0.66,1.02-2.12,1.64-4.39l0.51-1.89C-881.5,297.47-881.28,296-881.45,295.3z"/>
					</g>
				</g>
			</g>
			<path d="M-835.92,275.77h-29.67l-2.6,7.45c0.93,0.83,1.74,1.8,2.41,2.89c2.45,3.99,2.75,9.24,0.91,16.04
				c-1.62,6.03-4.26,10.71-7.84,13.93c-2.42,2.17-5.28,3.68-8.54,4.52l-1.51,4.33h30.06c6.35,0,11.31-1.23,14.89-3.68
				c3.58-2.45,6.19-6.05,7.83-10.8c2.1-6.07,1.53-9.84-1.73-11.32l0.11-0.32c2.2-1.06,3.88-2.32,5.05-3.8
				c1.17-1.48,2.22-3.56,3.16-6.25C-820.39,280.1-824.56,275.77-835.92,275.77z M-854.72,314.87h-2.52l3.39-9.73h2.52
				L-854.72,314.87z M-848.2,296.11h-2.52l2.87-8.23h2.51L-848.2,296.11z"/>
		</g>
		<polygon class="st0" points="-1093.5,44.52 -1108.14,44.52 -1125.66,182.2 -1093.5,182.2 -678.7,182.2 -664.01,44.52 		"/>
		<g>
			<path class="st1" d="M-1027.45,157.06c-3.39,1.69-7.04,2.96-10.96,3.81c-3.92,0.85-8.11,1.27-12.56,1.27
				c-11.85,0-21.39-3.53-28.63-10.6c-7.23-7.07-10.85-16.34-10.85-27.83c0-6,1.01-11.72,3.04-17.17c2.02-5.45,4.93-10.32,8.72-14.63
				c4.23-4.78,9.28-8.43,15.16-10.93c5.87-2.5,12.28-3.75,19.24-3.75c4.93,0,9.54,0.61,13.83,1.82c4.29,1.21,8.35,3.06,12.17,5.52
				l-2.37,15.85c-4.09-2.94-8.06-5.12-11.93-6.52c-3.86-1.4-7.77-2.1-11.7-2.1c-8.5,0-15.46,2.91-20.87,8.72
				c-5.41,5.82-8.12,13.27-8.12,22.36c0,7.47,2.13,13.42,6.4,17.83c4.27,4.42,10.01,6.63,17.23,6.63c4.67,0,9.01-0.64,13-1.91
				c3.99-1.27,7.7-3.21,11.13-5.82L-1027.45,157.06z"/>
			<path class="st1" d="M-1000.86,159.99h-17l10.66-80.83h16.84c7.03,0,12.1,0.37,15.21,1.1c3.11,0.74,5.84,1.99,8.2,3.75
				c2.61,1.91,4.6,4.26,5.96,7.04c1.36,2.78,2.04,5.86,2.04,9.25c0,6.18-1.74,11.29-5.22,15.32c-3.48,4.03-8.47,6.76-14.99,8.2
				l18.33,36.16h-18.55l-16.62-37.1L-1000.86,159.99z M-994.9,114.11h2.49c6.4,0,10.76-0.87,13.06-2.62
				c2.3-1.75,3.45-4.76,3.45-9.03c0-3.64-0.97-6.2-2.9-7.67c-1.93-1.47-5.71-2.21-11.35-2.21h-1.93L-994.9,114.11z"/>
			<path class="st1" d="M-916.08,162.14c-12.11,0-21.81-3.53-29.1-10.6c-7.29-7.07-10.93-16.47-10.93-28.21
				c0-5.74,1.03-11.34,3.09-16.78c2.06-5.45,4.99-10.32,8.78-14.63c4.27-4.75,9.34-8.38,15.21-10.9c5.87-2.52,12.23-3.78,19.08-3.78
				c12.11,0,21.81,3.49,29.1,10.46c7.29,6.98,10.93,16.22,10.93,27.74c0,6-0.93,11.64-2.79,16.92c-1.86,5.28-4.56,9.97-8.09,14.05
				c-4.45,5.15-9.68,9.06-15.68,11.73C-902.48,160.81-909.01,162.14-916.08,162.14z M-910.89,91.91c-8.02,0-14.69,2.94-19.99,8.81
				c-5.3,5.87-7.95,13.26-7.95,22.17c0,7.51,2.14,13.48,6.43,17.92c4.29,4.44,10.02,6.65,17.2,6.65c7.99,0,14.64-2.98,19.96-8.94
				c5.32-5.96,7.98-13.36,7.98-22.2c0-7.47-2.13-13.41-6.4-17.81C-897.93,94.11-903.68,91.91-910.89,91.91z"/>
			<path class="st1" d="M-866.91,159.99l10.66-80.83h17.61l25.01,41.68c2.69,4.56,4.6,8.01,5.74,10.32
				c1.14,2.32,2.06,4.51,2.76,6.57c0.15-3.83,0.33-7.21,0.55-10.13c0.22-2.93,0.44-5.24,0.66-6.93l5.58-41.52h15.9l-10.71,80.83
				h-16.4l-27.83-47.04c-1.73-2.87-3.13-5.39-4.2-7.56c-1.07-2.17-1.97-4.25-2.71-6.24v2.59c0,2.76-0.07,5.43-0.22,8.01
				c-0.15,2.58-0.37,5.01-0.66,7.29l-6.02,42.95H-866.91z"/>
			<path class="st1" d="M-739.45,162.14c-12.11,0-21.81-3.53-29.1-10.6c-7.29-7.07-10.93-16.47-10.93-28.21
				c0-5.74,1.03-11.34,3.09-16.78c2.06-5.45,4.99-10.32,8.78-14.63c4.27-4.75,9.34-8.38,15.21-10.9c5.87-2.52,12.23-3.78,19.08-3.78
				c12.11,0,21.81,3.49,29.1,10.46c7.29,6.98,10.93,16.22,10.93,27.74c0,6-0.93,11.64-2.79,16.92c-1.86,5.28-4.56,9.97-8.09,14.05
				c-4.45,5.15-9.68,9.06-15.68,11.73C-725.85,160.81-732.38,162.14-739.45,162.14z M-734.26,91.91c-8.02,0-14.69,2.94-19.99,8.81
				c-5.3,5.87-7.95,13.26-7.95,22.17c0,7.51,2.14,13.48,6.43,17.92c4.29,4.44,10.02,6.65,17.2,6.65c7.99,0,14.64-2.98,19.96-8.94
				c5.32-5.96,7.98-13.36,7.98-22.2c0-7.47-2.13-13.41-6.4-17.81C-721.3,94.11-727.04,91.91-734.26,91.91z"/>
		</g>
		<g>
			<path d="M-828.1,206.18c-0.22-2.04-0.42-4.49-0.61-7.33c-0.6,2.17-1.23,4.18-1.91,6.03c-0.68,1.85-1.39,3.58-2.15,5.18
				l-7.23,15.39h15.47l-2.84-14.05C-827.64,209.96-827.89,208.23-828.1,206.18z"/>
			<path d="M-920.04,206.18c-0.22-2.04-0.42-4.49-0.61-7.33c-0.6,2.17-1.23,4.18-1.91,6.03c-0.68,1.85-1.39,3.58-2.15,5.18
				l-7.23,15.39h15.47l-2.84-14.05C-919.58,209.96-919.82,208.23-920.04,206.18z"/>
			<path d="M-777.32,199.34h-8l-4.99,38.01c0.16,0,0.41,0,0.73,0c2.84,0.11,4.87,0.16,6.09,0.16c4.33,0,7.74-0.37,10.23-1.12
				c2.49-0.74,4.57-1.98,6.25-3.72c1.84-1.92,3.24-4.31,4.2-7.17c0.96-2.86,1.44-6.07,1.44-9.64c0-5.85-1.24-10.06-3.72-12.65
				C-767.56,200.63-771.64,199.34-777.32,199.34z"/>
			<path d="M-1081.11,166.88h-14.21l-17.02,98.24h31.23h402.84l14.26-98.24H-1081.11z M-1049.19,222.61h-23.02l-1.95,14.9h23.06
				l-1.42,10.48h-35.37l7.84-59.44h35.33l-1.3,10.48h-23.06l-1.75,13.36h22.98L-1049.19,222.61z M-1022.78,212.29
				c0.95,0.54,1.66,0.96,2.15,1.26c4.47,2.63,7.5,5.2,9.1,7.72c1.6,2.52,2.4,5.77,2.4,9.74c0,5.55-1.87,10.03-5.62,13.44
				c-3.75,3.41-8.72,5.12-14.92,5.12c-3.76,0-7.12-0.75-10.07-2.23c-2.95-1.49-5.58-3.76-7.88-6.82l6.74-8.49
				c1.41,2.44,3.03,4.24,4.87,5.4c1.84,1.16,4.01,1.75,6.5,1.75c2.65,0,4.73-0.72,6.23-2.15c1.5-1.43,2.25-3.41,2.25-5.93
				c0-1.62-0.43-3.07-1.3-4.34s-2.18-2.4-3.94-3.37c-0.43-0.24-1.07-0.59-1.91-1.06c-4.87-2.65-8.15-4.91-9.83-6.78
				c-1.22-1.38-2.15-2.96-2.78-4.73c-0.64-1.77-0.95-3.69-0.95-5.75c0-5.12,1.84-9.39,5.52-12.81c3.68-3.42,8.32-5.14,13.93-5.14
				c3.38,0,6.39,0.63,9.01,1.89c2.63,1.26,4.86,3.15,6.7,5.66l-6.37,8.24c-1.06-1.98-2.35-3.45-3.9-4.43s-3.33-1.46-5.36-1.46
				c-2.3,0-4.2,0.66-5.71,1.99c-1.5,1.33-2.25,3.02-2.25,5.08C-1030.17,206.77-1027.7,209.5-1022.78,212.29z M-958.64,245.83
				c-2.49,1.25-5.18,2.18-8.06,2.8c-2.88,0.62-5.96,0.93-9.24,0.93c-8.72,0-15.73-2.6-21.05-7.8c-5.32-5.2-7.98-12.02-7.98-20.46
				c0-4.41,0.74-8.62,2.23-12.63c1.49-4.01,3.63-7.59,6.42-10.76c3.11-3.52,6.83-6.2,11.15-8.04c4.32-1.84,9.03-2.76,14.15-2.76
				c3.63,0,7.02,0.45,10.17,1.34c3.15,0.89,6.14,2.25,8.95,4.06l-1.75,11.65c-3-2.17-5.93-3.76-8.77-4.79
				c-2.84-1.03-5.71-1.54-8.61-1.54c-6.25,0-11.37,2.14-15.35,6.42c-3.98,4.28-5.97,9.76-5.97,16.44c0,5.5,1.57,9.87,4.71,13.12
				c3.14,3.25,7.36,4.87,12.67,4.87c3.44,0,6.62-0.47,9.56-1.4c2.94-0.93,5.66-2.36,8.18-4.28L-958.64,245.83z M-911.63,247.98
				l-2.52-12.79h-22.62l-6.42,12.79h-13.89l30.78-59.44h13.56l14.29,59.44H-911.63z M-819.7,247.98l-2.52-12.79h-22.62l-6.41,12.79
				h-11.76h-2.13h-30.92l7.84-59.44h12.47l-6.5,48.89h20.63l-0.66,5.06l27.93-53.95h13.56l14.29,59.44H-819.7z M-760.96,242.26
				c-2.84,2.06-6.15,3.53-9.93,4.41c-3.78,0.88-9.63,1.32-17.56,1.32h-4.75h-10.92l7.84-59.44h12.47c7.04,0,12.02,0.22,14.94,0.67
				c2.92,0.45,5.37,1.18,7.35,2.21c4.17,2.19,7.36,5.44,9.58,9.75c2.22,4.3,3.33,9.43,3.33,15.39c0,5.77-0.99,10.72-2.98,14.86
				C-753.59,235.56-756.71,239.17-760.96,242.26z M-708.15,247.98l-2.52-12.79h-22.62l-6.41,12.79h-13.89l30.78-59.44h13.56
				l14.29,59.44H-708.15z"/>
			<path d="M-716.55,206.18c-0.22-2.04-0.42-4.49-0.61-7.33c-0.6,2.17-1.23,4.18-1.91,6.03c-0.68,1.85-1.39,3.58-2.15,5.18
				l-7.23,15.39h15.47l-2.84-14.05C-716.09,209.96-716.34,208.23-716.55,206.18z"/>
		</g>
		<g>
			<radialGradient id="SVGID_1_" cx="-694.1032" cy="-14.652" r="142.3525" gradientUnits="userSpaceOnUse">
				<stop  offset="0" style="stop-color:#E8C84C"/>
				<stop  offset="0.9949" style="stop-color:#DD9D34"/>
			</radialGradient>
			<path class="st2" d="M-692.44,0c0,0-32.01,28.9-5.68,59.64c26.33,30.73,41.43,60.6,17.14,99.98c0,0,11.81-34.79-19.36-67.28
				C-723.61,68.09-743.61,27.78-692.44,0z"/>
			<radialGradient id="SVGID_2_" cx="-694.4719" cy="5.4562" r="107.8575" gradientUnits="userSpaceOnUse">
				<stop  offset="0" style="stop-color:#E0A433"/>
				<stop  offset="0.9949" style="stop-color:#D27C35"/>
			</radialGradient>
			<path class="st3" d="M-675.03,137.1c-1.12-13.36-6.35-30.68-22.47-47.49c-9.85-10.26-25.89-30.61-22.62-51.57
				c1.21-7.8,5.08-15,11.53-21.52c-5.28,12.16-7.07,28.69,7.48,45.67c15.11,17.64,23.35,31.56,26.72,45.14
				C-671.95,117.16-672.15,127.02-675.03,137.1z"/>
			<radialGradient id="SVGID_3_" cx="-694.1041" cy="-14.6507" r="142.3518" gradientUnits="userSpaceOnUse">
				<stop  offset="0" style="stop-color:#E8C84C"/>
				<stop  offset="0.9949" style="stop-color:#DD9D34"/>
			</radialGradient>
			<path class="st4" d="M-648.29-22.34c0,0-51.72,7.69-46.8,58.89c4.92,51.2,67.41,63,18.94,126.51c0,0,68.69-17.22,61.79-72.36
				C-621.25,35.56-684.19,25.1-648.29-22.34z"/>
			
				<radialGradient id="SVGID_4_" cx="-692.7431" cy="1.9669" r="114.5136" gradientTransform="matrix(0.999 0.045 -0.045 0.999 11.4438 39.8185)" gradientUnits="userSpaceOnUse">
				<stop  offset="0" style="stop-color:#E0A433"/>
				<stop  offset="0.9949" style="stop-color:#D27C35"/>
			</radialGradient>
			<path class="st5" d="M-665.95,154.92c21.45-30.51,10.11-48.17-1.85-66.76c-7.2-11.2-14.64-22.78-15.44-38.32
				c-1.52-29.81,19.43-40.46,31.65-44.14c-13.18,21.16-2.28,35.52,9.2,50.63c8.94,11.78,19.08,25.14,20.61,44.38
				c1.48,18.62-6.99,33.84-25.18,45.21C-653.68,150.14-660.58,153.04-665.95,154.92z"/>
			
				<radialGradient id="SVGID_5_" cx="-697.6326" cy="10.9678" r="94.361" gradientTransform="matrix(0.9955 0.095 -0.095 0.9955 22.512 84.7227)" gradientUnits="userSpaceOnUse">
				<stop  offset="0" style="stop-color:#D0742E"/>
				<stop  offset="0.9949" style="stop-color:#C4422E"/>
			</radialGradient>
			<path class="st6" d="M-659.92,150.72c12.39-23.58,3.07-41.64-5.32-57.91c-6.01-11.66-11.69-22.67-11.07-36.64
				c0.73-16.47,8.43-25.62,17.53-30.65c-5.19,16.72,3.62,30.96,11.6,43.84c7.72,12.47,15.7,25.37,15.42,42.93
				c-0.26,16.54-8.8,28.78-26.09,37.43C-658.54,150.07-659.23,150.4-659.92,150.72z"/>
		</g>
	</g>
	<circle class="st0" cx="-604.31" cy="166.88" r="72.02"/>
	<g>
		<g>
			<path class="st1" d="M-645.37,174.8v0.44c0,1.32,0.44,2.4,1.31,3.22c0.87,0.82,2,1.24,3.39,1.24c1.68,0,3.06-0.53,4.13-1.58
				c1.07-1.05,1.6-2.4,1.6-4.03c0-1.58-0.59-2.8-1.76-3.64c-1.18-0.84-2.91-1.3-5.19-1.38l0.73-6.08c0.11,0.02,0.24,0.03,0.39,0.04
				c0.15,0.01,0.37,0.01,0.66,0.01c1.99,0,3.55-0.44,4.68-1.31s1.69-2.09,1.69-3.64c0-1.27-0.4-2.28-1.19-3.01
				c-0.79-0.73-1.88-1.1-3.27-1.1c-1.27,0-2.33,0.36-3.17,1.08c-0.84,0.72-1.36,1.7-1.56,2.94h-6.47c0.41-3.01,1.65-5.37,3.72-7.1
				c2.07-1.73,4.71-2.6,7.91-2.6c3.3,0,5.97,0.82,8,2.45c2.03,1.63,3.05,3.76,3.05,6.39c0,2.25-0.66,4.19-1.98,5.81
				c-1.32,1.62-3.15,2.74-5.49,3.38c2.14,0.67,3.74,1.71,4.81,3.12c1.07,1.41,1.6,3.2,1.6,5.35c0,3.09-1.2,5.63-3.59,7.63
				c-2.39,2-5.5,3-9.32,3c-3.56,0-6.33-0.92-8.32-2.76s-3.04-4.46-3.17-7.88H-645.37z"/>
			<path class="st1" d="M-597.09,163.5c0,6.6-1.38,11.91-4.14,15.94c-2.76,4.03-6.37,6.04-10.83,6.04c-3.59,0-6.35-1.31-8.28-3.93
				c-1.93-2.62-2.89-6.4-2.89-11.33c0-6.55,1.36-11.84,4.08-15.88s6.26-6.05,10.62-6.05c3.71,0,6.54,1.3,8.5,3.91
				C-598.07,154.8-597.09,158.57-597.09,163.5z M-608.87,154.71c-2.11,0-3.81,1.54-5.12,4.61c-1.31,3.07-1.96,7.15-1.96,12.22
				c0,2.53,0.36,4.42,1.09,5.66c0.73,1.24,1.83,1.86,3.32,1.86c2.16,0,3.88-1.49,5.18-4.47s1.95-7.01,1.95-12.09
				c0-2.66-0.36-4.63-1.09-5.89C-606.23,155.34-607.35,154.71-608.87,154.71z"/>
		</g>
		<g>
			<path class="st1" d="M-593.28,180.62l1.77-13.44h2.82l-0.81,6.05l5.25-6.05h3.32l-5.74,6.44l4.05,7h-3.16l-3.8-6.78l-0.88,6.78
				H-593.28z"/>
			<path class="st1" d="M-582.45,180.62l3.8-13.44h2.97l1.28,6.14c0.09,0.47,0.17,1.01,0.24,1.61c0.07,0.6,0.13,1.25,0.17,1.95
				c0.15-0.54,0.31-1.07,0.5-1.58s0.39-1.01,0.62-1.49l3.02-6.62h3.08l0.17,13.44h-2.65l0.07-6.28c0.01-0.7,0.04-1.41,0.08-2.13
				c0.04-0.72,0.1-1.44,0.17-2.18c-0.24,0.7-0.49,1.36-0.73,1.98c-0.24,0.62-0.48,1.18-0.72,1.68l-3.29,6.92h-1.52l-1.63-7.56
				c-0.08-0.39-0.15-0.85-0.22-1.4c-0.07-0.54-0.13-1.14-0.17-1.8c-0.14,0.82-0.26,1.47-0.35,1.96s-0.17,0.83-0.22,1.03l-1.88,7.77
				H-582.45z"/>
			<path class="st1" d="M-564.23,177.01c0.32,0.55,0.69,0.96,1.1,1.22c0.42,0.26,0.91,0.39,1.47,0.39c0.6,0,1.07-0.16,1.41-0.49
				c0.34-0.32,0.51-0.77,0.51-1.34c0-0.37-0.1-0.69-0.29-0.98c-0.2-0.29-0.49-0.54-0.89-0.76c-0.1-0.06-0.24-0.13-0.43-0.24
				c-1.1-0.6-1.84-1.11-2.22-1.53c-0.28-0.31-0.49-0.67-0.63-1.07c-0.14-0.4-0.22-0.83-0.22-1.3c0-1.16,0.42-2.12,1.25-2.9
				c0.83-0.77,1.88-1.16,3.15-1.16c0.77,0,1.44,0.14,2.04,0.43c0.59,0.28,1.1,0.71,1.51,1.28l-1.44,1.86
				c-0.24-0.45-0.53-0.78-0.88-1s-0.75-0.33-1.21-0.33c-0.52,0-0.95,0.15-1.29,0.45c-0.34,0.3-0.51,0.68-0.51,1.15
				c0,0.61,0.56,1.22,1.67,1.85c0.21,0.12,0.38,0.22,0.49,0.28c1.01,0.59,1.7,1.18,2.06,1.74c0.36,0.57,0.54,1.3,0.54,2.2
				c0,1.25-0.42,2.27-1.27,3.04c-0.85,0.77-1.97,1.16-3.37,1.16c-0.85,0-1.61-0.17-2.28-0.5c-0.67-0.34-1.26-0.85-1.78-1.54
				L-564.23,177.01z"/>
		</g>
	</g>
</g>
<g>
	<path d="M-1065.92,466.11v-34.16h-8.31l3.49-6.98h13.19v41.14H-1065.92z"/>
	<path d="M-1024.96,466.11v-7.97h-20v-3.83l20-30.16h7.6v28.09h4.37v5.9h-4.37v7.97H-1024.96z M-1024.84,452.24v-14.3
		c0-1.4,0.02-2.46,0.07-3.18c0.05-0.72,0.12-1.38,0.21-1.99c-0.36,0.96-0.79,1.93-1.28,2.89c-0.49,0.96-1.03,1.91-1.62,2.84
		l-8.97,13.73H-1024.84z"/>
	<path d="M-991.09,466.11v-41.54h11.32c4.46,0,7.98,0.31,10.55,0.94c2.57,0.62,4.83,1.66,6.78,3.12c2.52,1.87,4.42,4.23,5.72,7.08
		c1.3,2.85,1.94,6.09,1.94,9.72c0,3.69-0.66,6.96-1.99,9.8c-1.32,2.85-3.26,5.2-5.82,7.05c-1.89,1.36-4,2.34-6.31,2.94
		c-2.32,0.6-5.71,0.89-10.17,0.89h-3.15H-991.09z M-982.21,458.62h4.94c4.65,0,8.04-1.06,10.17-3.18c2.13-2.12,3.19-5.48,3.19-10.07
		c0-4.58-1.06-7.93-3.19-10.06c-2.13-2.13-5.52-3.19-10.17-3.19h-4.94V458.62z"/>
	<path d="M-948.79,466.11v-41.54h24.46v7.49h-15.58v8.54h15.58v7.55h-15.58v10.41h15.58v7.55H-948.79z"/>
	<path d="M-905.62,466.11l15.8-41.54h10.16l16.03,41.54h-10.1l-3.38-8.82h-16.09l-2.89,8.82H-905.62z M-879.17,450.31l-4.65-13.42
		c-0.13-0.4-0.3-1.08-0.51-2.04c-0.21-0.96-0.43-2.15-0.65-3.55c-0.25,1.34-0.48,2.55-0.71,3.62c-0.23,1.07-0.4,1.78-0.51,2.14
		l-4.48,13.25H-879.17z"/>
	<path d="M-841.1,444.21h18.93c0.04,0.25,0.06,0.51,0.07,0.79c0.01,0.28,0.01,0.72,0.01,1.31c0,6.22-1.78,11.26-5.33,15.12
		c-3.56,3.86-8.15,5.79-13.79,5.79c-6.45,0-11.77-2.06-15.95-6.17c-4.18-4.11-6.27-9.34-6.27-15.68c0-6.28,2.1-11.47,6.3-15.58
		c4.2-4.1,9.51-6.16,15.92-6.16c3.39,0,6.49,0.71,9.31,2.13c2.82,1.42,5.33,3.54,7.55,6.36l-5.99,4.43
		c-1.49-1.85-3.06-3.19-4.71-4.02c-1.65-0.82-3.55-1.23-5.7-1.23c-4.11,0-7.39,1.28-9.85,3.83c-2.46,2.55-3.69,5.97-3.69,10.24
		c0,4.2,1.23,7.59,3.7,10.17s5.69,3.87,9.66,3.87c2.91,0,5.28-0.69,7.09-2.06c1.82-1.37,2.72-3.16,2.72-5.38v-0.45h-9.99V444.21z"/>
	<path d="M-773.98,445.43c0,2.97-0.55,5.78-1.66,8.43c-1.11,2.65-2.7,4.98-4.78,6.98c-2.16,2.06-4.59,3.64-7.29,4.74
		s-5.5,1.65-8.4,1.65c-2.53,0-5.02-0.43-7.45-1.29c-2.43-0.86-4.66-2.09-6.68-3.7c-2.61-2.08-4.61-4.57-6-7.46
		c-1.39-2.89-2.09-6.01-2.09-9.33c0-2.99,0.55-5.79,1.65-8.41c1.1-2.62,2.71-4.95,4.82-6.99c2.08-2.02,4.5-3.59,7.25-4.71
		s5.58-1.67,8.5-1.67c2.89,0,5.71,0.56,8.44,1.67c2.73,1.12,5.15,2.69,7.25,4.71c2.1,2.04,3.7,4.38,4.79,7.01
		C-774.53,439.66-773.98,442.46-773.98,445.43z M-796.11,459.3c3.76,0,6.87-1.32,9.32-3.96s3.67-5.94,3.67-9.92
		c0-3.93-1.24-7.24-3.72-9.93c-2.48-2.69-5.57-4.03-9.28-4.03c-3.76,0-6.89,1.34-9.36,4.01c-2.48,2.68-3.72,5.99-3.72,9.95
		c0,4.01,1.22,7.33,3.66,9.95C-803.09,457.99-799.95,459.3-796.11,459.3z"/>
	<path d="M-770.61,460.83l4.94-5.59c0.62,1.53,1.63,2.74,3.01,3.62c1.38,0.88,2.93,1.32,4.65,1.32c2.08,0,3.73-0.49,4.94-1.48
		c1.21-0.98,1.82-2.31,1.82-3.97c0-1.97-2.01-3.92-6.04-5.87c-1.31-0.62-2.34-1.14-3.09-1.53c-3.63-1.89-6.15-3.74-7.55-5.55
		c-1.4-1.81-2.1-3.96-2.1-6.46c0-3.42,1.36-6.24,4.07-8.44c2.71-2.2,6.24-3.31,10.57-3.31c2.52,0,4.69,0.44,6.51,1.32
		c1.83,0.88,3.44,2.26,4.84,4.13l-5.25,5.02c-0.62-1.21-1.45-2.11-2.48-2.71c-1.03-0.6-2.27-0.89-3.73-0.89
		c-1.76,0-3.18,0.44-4.26,1.32c-1.08,0.88-1.62,2.02-1.62,3.42c0,2.19,2.14,4.2,6.41,6.01c0.85,0.36,1.5,0.64,1.96,0.85
		c3.52,1.61,6.12,3.42,7.82,5.45c1.69,2.02,2.54,4.33,2.54,6.92c0,3.9-1.33,7-3.99,9.32c-2.66,2.32-6.23,3.48-10.71,3.48
		c-3.18,0-5.9-0.55-8.17-1.65C-767.8,464.47-769.49,462.9-770.61,460.83z"/>
	<path d="M-721.33,432.12v33.99h-8.91v-33.99h-10.16v-7.55h29.22v7.55H-721.33z"/>
	<path d="M-665.3,445.43c0,2.97-0.55,5.78-1.66,8.43c-1.11,2.65-2.7,4.98-4.78,6.98c-2.16,2.06-4.59,3.64-7.29,4.74
		s-5.5,1.65-8.4,1.65c-2.54,0-5.02-0.43-7.45-1.29c-2.43-0.86-4.66-2.09-6.68-3.7c-2.61-2.08-4.61-4.57-6-7.46
		c-1.39-2.89-2.09-6.01-2.09-9.33c0-2.99,0.55-5.79,1.65-8.41c1.1-2.62,2.7-4.95,4.82-6.99c2.08-2.02,4.5-3.59,7.25-4.71
		s5.58-1.67,8.5-1.67c2.89,0,5.71,0.56,8.44,1.67c2.73,1.12,5.15,2.69,7.25,4.71c2.1,2.04,3.7,4.38,4.79,7.01
		C-665.84,439.66-665.3,442.46-665.3,445.43z M-687.43,459.3c3.76,0,6.87-1.32,9.32-3.96s3.67-5.94,3.67-9.92
		c0-3.93-1.24-7.24-3.72-9.93c-2.48-2.69-5.57-4.03-9.28-4.03c-3.76,0-6.89,1.34-9.36,4.01c-2.48,2.68-3.72,5.99-3.72,9.95
		c0,4.01,1.22,7.33,3.66,9.95C-694.41,457.99-691.27,459.3-687.43,459.3z"/>
</g>
<g>
	<g>
		<polygon points="-1125.13,491.76 -1149.05,491.76 -1149.05,572.35 -449.46,572.35 -473.37,491.76 		"/>
		<g>
			<polygon points="-615.32,491.76 -591.43,491.76 -591.43,572.35 -1290.07,572.35 -1266.19,491.76 			"/>
		</g>
	</g>
	
		<text transform="matrix(1 0 0 1 -1234.9998 541.6036)" class="st1" style="font-family:'FuturaBT-HeavyItalic'; font-size:31.4745px;">SALITRE/GUASCA - 4 ESQUINAS - ALTO DE AREPAS</text>
</g>
<text transform="matrix(1 0 0 1 -1083.8474 651.6044)" style="font-family:'FuturaBT-HeavyItalic'; font-size:31.4745px;">Información e inscripciones en</text>
<g>
	<g>
		<g>
			<polygon class="st0" points="-1041.64,667.73 -1057.74,667.73 -1057.74,721.86 -586.87,721.86 -602.97,667.73 			"/>
			<g>
				<polygon class="st0" points="-698.51,667.73 -682.43,667.73 -682.43,721.86 -1152.66,721.86 -1136.58,667.73 				"/>
			</g>
		</g>
	</g>
	<g>
		<g>
			<path class="st1" d="M-1090.73,709.05l-1.91-15.92c-0.16-1.25-0.26-2.29-0.32-3.12s-0.09-1.63-0.09-2.41
				c-0.1,1.04-0.26,2.07-0.48,3.1s-0.48,2.03-0.79,3.04l-4.8,15.31h-5.68l-7.13-28.59h5.88l3.96,17.07c0.21,0.9,0.37,1.71,0.5,2.42
				c0.12,0.72,0.21,1.37,0.26,1.97c0.09-0.87,0.25-1.81,0.48-2.8c0.23-1,0.52-2.06,0.89-3.19l4.8-15.47h6.07l2.15,16.02
				c0.13,0.81,0.22,1.57,0.28,2.29s0.09,1.43,0.09,2.12c0,0.12-0.01,0.29-0.02,0.52c-0.01,0.23-0.02,0.4-0.02,0.52
				c0.22-1.29,0.46-2.43,0.72-3.44c0.26-1,0.54-1.86,0.84-2.56l6.46-15.47h6.09l-12.64,28.59H-1090.73z"/>
			<path class="st1" d="M-1053.33,709.05l-1.91-15.92c-0.16-1.25-0.26-2.29-0.32-3.12s-0.09-1.63-0.09-2.41
				c-0.1,1.04-0.26,2.07-0.48,3.1s-0.48,2.03-0.79,3.04l-4.8,15.31h-5.68l-7.13-28.59h5.88l3.96,17.07c0.21,0.9,0.37,1.71,0.5,2.42
				c0.12,0.72,0.21,1.37,0.26,1.97c0.09-0.87,0.25-1.81,0.48-2.8c0.23-1,0.52-2.06,0.89-3.19l4.8-15.47h6.07l2.15,16.02
				c0.13,0.81,0.22,1.57,0.28,2.29s0.09,1.43,0.09,2.12c0,0.12-0.01,0.29-0.02,0.52c-0.01,0.23-0.02,0.4-0.02,0.52
				c0.22-1.29,0.46-2.43,0.72-3.44c0.26-1,0.54-1.86,0.84-2.56l6.46-15.47h6.09l-12.64,28.59H-1053.33z"/>
			<path class="st1" d="M-1015.93,709.05l-1.91-15.92c-0.16-1.25-0.26-2.29-0.32-3.12s-0.09-1.63-0.09-2.41
				c-0.1,1.04-0.26,2.07-0.48,3.1s-0.48,2.03-0.79,3.04l-4.8,15.31h-5.68l-7.13-28.59h5.88l3.96,17.07c0.21,0.9,0.37,1.71,0.5,2.42
				c0.12,0.72,0.21,1.37,0.26,1.97c0.09-0.87,0.25-1.81,0.48-2.8c0.23-1,0.52-2.06,0.89-3.19l4.8-15.47h6.07l2.15,16.02
				c0.13,0.81,0.22,1.57,0.28,2.29s0.09,1.43,0.09,2.12c0,0.12-0.01,0.29-0.02,0.52c-0.01,0.23-0.02,0.4-0.02,0.52
				c0.22-1.29,0.46-2.43,0.72-3.44c0.26-1,0.54-1.86,0.84-2.56l6.46-15.47h6.09l-12.64,28.59H-1015.93z"/>
			<path class="st1" d="M-1003.99,706.26c0-0.94,0.33-1.74,0.99-2.4c0.66-0.66,1.45-1,2.37-1c0.92,0,1.72,0.33,2.37,1
				c0.66,0.66,0.99,1.46,0.99,2.4c0,0.92-0.33,1.71-0.98,2.35c-0.65,0.64-1.45,0.97-2.38,0.97s-1.73-0.32-2.38-0.97
				C-1003.67,707.97-1003.99,707.18-1003.99,706.26z"/>
			<path class="st1" d="M-991.92,709.05l3.77-28.59h6c3.39,0,5.78,0.11,7.19,0.32s2.58,0.57,3.54,1.06c2,1.05,3.54,2.62,4.61,4.69
				c1.07,2.07,1.6,4.54,1.6,7.4c0,2.77-0.48,5.16-1.44,7.15s-2.46,3.73-4.5,5.21c-1.37,0.99-2.96,1.7-4.78,2.12
				s-4.63,0.63-8.45,0.63h-2.29H-991.92z M-985.28,703.93c0.08,0,0.2,0,0.35,0c1.37,0.05,2.34,0.08,2.93,0.08
				c2.08,0,3.72-0.18,4.92-0.54c1.2-0.36,2.2-0.95,3.01-1.79c0.89-0.92,1.56-2.07,2.02-3.45c0.46-1.37,0.69-2.92,0.69-4.64
				c0-2.81-0.6-4.84-1.79-6.08s-3.15-1.87-5.89-1.87h-3.85L-985.28,703.93z"/>
			<path class="st1" d="M-962.18,709.05l3.75-28.59h6l-3.75,28.59H-962.18z"/>
			<path class="st1" d="M-948.1,701.38c0.68,1.17,1.46,2.04,2.34,2.6c0.89,0.56,1.93,0.84,3.13,0.84c1.28,0,2.28-0.34,3-1.04
				s1.08-1.64,1.08-2.85c0-0.78-0.21-1.48-0.63-2.09c-0.42-0.61-1.05-1.15-1.89-1.62c-0.21-0.12-0.51-0.29-0.92-0.51
				c-2.34-1.28-3.92-2.36-4.73-3.26c-0.59-0.66-1.03-1.42-1.34-2.28c-0.31-0.85-0.46-1.77-0.46-2.76c0-2.46,0.89-4.51,2.66-6.16
				c1.77-1.65,4-2.47,6.7-2.47c1.63,0,3.07,0.3,4.34,0.91c1.26,0.61,2.34,1.51,3.22,2.72l-3.07,3.96c-0.51-0.95-1.13-1.66-1.88-2.13
				s-1.6-0.7-2.58-0.7c-1.11,0-2.02,0.32-2.74,0.96s-1.08,1.45-1.08,2.44c0,1.29,1.18,2.6,3.55,3.95c0.46,0.26,0.8,0.46,1.04,0.61
				c2.15,1.26,3.61,2.5,4.38,3.71c0.77,1.21,1.15,2.77,1.15,4.69c0,2.67-0.9,4.82-2.71,6.46c-1.8,1.64-4.2,2.46-7.18,2.46
				c-1.81,0-3.42-0.36-4.84-1.07c-1.42-0.72-2.68-1.81-3.79-3.28L-948.1,701.38z"/>
			<path class="st1" d="M-925.01,709.05l3.11-23.59h-7.42l0.66-5h20.29l-0.64,5h-6.91l-3.09,23.59H-925.01z"/>
			<path class="st1" d="M-902.26,709.05h-6.02l3.77-28.59h5.96c2.49,0,4.28,0.13,5.38,0.39c1.1,0.26,2.07,0.7,2.9,1.33
				c0.92,0.68,1.63,1.51,2.11,2.49c0.48,0.98,0.72,2.07,0.72,3.27c0,2.19-0.62,3.99-1.85,5.42s-3,2.39-5.3,2.9l6.48,12.79h-6.56
				l-5.88-13.13L-902.26,709.05z M-900.15,692.82h0.88c2.27,0,3.81-0.31,4.62-0.93c0.81-0.62,1.22-1.68,1.22-3.19
				c0-1.29-0.34-2.19-1.03-2.71s-2.02-0.78-4.01-0.78h-0.68L-900.15,692.82z"/>
			<path class="st1" d="M-884.85,709.05l3.75-28.59h6l-3.75,28.59H-884.85z"/>
			<path class="st1" d="M-868.17,709.05l3.11-23.59h-7.42l0.66-5h20.29l-0.64,5h-6.91l-3.09,23.59H-868.17z"/>
			<path class="st1" d="M-838.17,709.81c-4.28,0-7.71-1.25-10.29-3.75s-3.87-5.83-3.87-9.98c0-2.03,0.36-4.01,1.09-5.94
				s1.76-3.65,3.11-5.18c1.51-1.68,3.3-2.97,5.38-3.86s4.33-1.34,6.75-1.34c4.28,0,7.71,1.23,10.29,3.7s3.87,5.74,3.87,9.81
				c0,2.12-0.33,4.12-0.99,5.99s-1.61,3.53-2.86,4.97c-1.58,1.82-3.42,3.21-5.55,4.15S-835.67,709.81-838.17,709.81z
				 M-836.34,684.97c-2.84,0-5.2,1.04-7.07,3.12s-2.81,4.69-2.81,7.84c0,2.66,0.76,4.77,2.28,6.34s3.54,2.35,6.08,2.35
				c2.83,0,5.18-1.05,7.06-3.16s2.82-4.73,2.82-7.85c0-2.64-0.75-4.74-2.27-6.3S-833.79,684.97-836.34,684.97z"/>
			<path class="st1" d="M-818.78,709.05l3.77-28.59h5.92c2.49,0,4.3,0.13,5.43,0.39s2.1,0.7,2.89,1.33
				c0.81,0.64,1.42,1.39,1.83,2.25s0.62,1.82,0.62,2.87c0,1.85-0.54,3.39-1.62,4.61s-2.55,1.97-4.41,2.23
				c1.82,0.27,3.25,0.97,4.29,2.08s1.55,2.52,1.55,4.21c0,1.48-0.31,2.83-0.94,4.02s-1.53,2.19-2.71,2.97
				c-0.9,0.6-2.01,1.02-3.34,1.27s-3.55,0.37-6.66,0.37H-818.78z M-812.26,704.32h1.17c2.49,0,4.21-0.31,5.17-0.93
				s1.44-1.67,1.44-3.15c0-1.26-0.4-2.16-1.19-2.69s-2.29-0.79-4.49-0.79h-1.07L-812.26,704.32z M-809.74,685.13l-0.92,6.93h0.64
				c2.23,0,3.76-0.29,4.61-0.86s1.27-1.54,1.27-2.91c0-1.17-0.34-1.99-1.03-2.46s-2.03-0.7-4.05-0.7H-809.74z"/>
			<path class="st1" d="M-795.44,709.05l3.75-28.59h6l-3.75,28.59H-795.44z"/>
			<path class="st1" d="M-783.14,709.05l3.77-28.59h6l-1.72,12.87l11.17-12.87h7.07l-12.21,13.71l8.61,14.88h-6.72l-8.09-14.43
				l-1.88,14.43H-783.14z"/>
			<path class="st1" d="M-757.26,709.05l3.77-28.59h16.99l-0.63,5.04h-11.09l-0.84,6.43H-738l-0.64,4.92h-11.07l-0.94,7.17h11.09
				l-0.68,5.04H-757.26z"/>
			<path class="st1" d="M-733.88,706.26c0-0.94,0.33-1.74,0.99-2.4s1.45-1,2.37-1s1.72,0.33,2.37,1s0.99,1.46,0.99,2.4
				c0,0.92-0.33,1.71-0.98,2.35s-1.45,0.97-2.38,0.97s-1.73-0.32-2.38-0.97S-733.88,707.18-733.88,706.26z"/>
			<path class="st1" d="M-698.96,708.02c-1.2,0.6-2.49,1.05-3.88,1.35s-2.87,0.45-4.44,0.45c-4.19,0-7.57-1.25-10.13-3.75
				s-3.84-5.78-3.84-9.84c0-2.12,0.36-4.15,1.07-6.07s1.75-3.65,3.09-5.18c1.5-1.69,3.28-2.98,5.36-3.87s4.35-1.33,6.81-1.33
				c1.75,0,3.38,0.21,4.89,0.64s2.95,1.08,4.31,1.95l-0.84,5.61c-1.45-1.04-2.85-1.81-4.22-2.3s-2.75-0.74-4.14-0.74
				c-3.01,0-5.47,1.03-7.38,3.09s-2.87,4.69-2.87,7.91c0,2.64,0.75,4.75,2.27,6.31s3.54,2.34,6.09,2.34c1.65,0,3.19-0.22,4.6-0.67
				s2.72-1.14,3.94-2.06L-698.96,708.02z"/>
			<path class="st1" d="M-678.88,709.81c-4.28,0-7.71-1.25-10.29-3.75s-3.87-5.83-3.87-9.98c0-2.03,0.36-4.01,1.09-5.94
				s1.76-3.65,3.11-5.18c1.51-1.68,3.3-2.97,5.38-3.86s4.33-1.34,6.75-1.34c4.28,0,7.71,1.23,10.29,3.7s3.87,5.74,3.87,9.81
				c0,2.12-0.33,4.12-0.99,5.99s-1.61,3.53-2.86,4.97c-1.58,1.82-3.42,3.21-5.55,4.15S-676.38,709.81-678.88,709.81z
				 M-677.04,684.97c-2.84,0-5.2,1.04-7.07,3.12s-2.81,4.69-2.81,7.84c0,2.66,0.76,4.77,2.28,6.34s3.54,2.35,6.08,2.35
				c2.83,0,5.18-1.05,7.06-3.16s2.82-4.73,2.82-7.85c0-2.64-0.75-4.74-2.27-6.3S-674.49,684.97-677.04,684.97z"/>
			<path class="st1" d="M-661.32,709.05l8.09-28.59h6.33l2.71,13.07c0.2,1,0.37,2.14,0.52,3.42s0.27,2.66,0.36,4.14
				c0.31-1.16,0.66-2.28,1.05-3.37s0.83-2.15,1.31-3.17l6.43-14.08h6.56l0.37,28.59h-5.64l0.16-13.36c0.03-1.5,0.08-3.01,0.17-4.53
				s0.21-3.07,0.36-4.63c-0.52,1.5-1.04,2.9-1.55,4.21s-1.03,2.5-1.53,3.58l-6.99,14.73h-3.24l-3.48-16.07
				c-0.17-0.82-0.33-1.81-0.47-2.97s-0.27-2.43-0.37-3.83c-0.3,1.75-0.55,3.13-0.74,4.16s-0.35,1.76-0.47,2.19l-4,16.52H-661.32z"/>
		</g>
	</g>
</g>
<g>
	<g>
		<path class="st0" d="M82.75,62.49h-6.02l3.77-28.59h5.53c2.7,0,4.6,0.14,5.72,0.43c1.12,0.29,2.1,0.77,2.95,1.45
			c0.94,0.73,1.65,1.64,2.14,2.72c0.49,1.09,0.73,2.3,0.73,3.64c0,1.58-0.28,3-0.85,4.26c-0.57,1.26-1.4,2.32-2.51,3.16
			c-0.91,0.72-1.99,1.23-3.23,1.54s-3.06,0.47-5.44,0.47h-1.37L82.75,62.49z M84.82,46.69h0.92c2.27,0,3.81-0.33,4.62-0.98
			c0.81-0.65,1.22-1.76,1.22-3.34c0-1.33-0.34-2.26-1.02-2.79c-0.68-0.53-2.02-0.8-4.02-0.8h-0.68L84.82,46.69z"/>
		<path class="st0" d="M105.51,62.49h-6.02l3.77-28.59h5.96c2.49,0,4.28,0.13,5.38,0.39c1.1,0.26,2.07,0.7,2.9,1.33
			c0.92,0.68,1.63,1.51,2.11,2.49c0.48,0.98,0.72,2.07,0.72,3.27c0,2.19-0.62,3.99-1.85,5.42s-3,2.39-5.3,2.9l6.48,12.79h-6.56
			l-5.88-13.13L105.51,62.49z M107.62,46.26h0.88c2.27,0,3.81-0.31,4.62-0.93c0.81-0.62,1.22-1.68,1.22-3.19
			c0-1.29-0.34-2.19-1.03-2.71c-0.68-0.52-2.02-0.78-4.01-0.78h-0.68L107.62,46.26z"/>
		<path class="st0" d="M122.91,62.49l3.75-28.59h6l-3.75,28.59H122.91z"/>
		<path class="st0" d="M133.38,62.49l8.09-28.59h6.33l2.71,13.07c0.2,1,0.37,2.14,0.52,3.42c0.15,1.28,0.27,2.66,0.36,4.14
			c0.31-1.16,0.66-2.28,1.05-3.37c0.39-1.09,0.83-2.15,1.31-3.17l6.43-14.08h6.56l0.37,28.59h-5.64l0.16-13.36
			c0.03-1.5,0.08-3.01,0.17-4.53s0.21-3.07,0.36-4.63c-0.52,1.5-1.04,2.9-1.55,4.21s-1.03,2.5-1.53,3.58l-6.99,14.73h-3.24
			l-3.48-16.07c-0.17-0.82-0.33-1.81-0.47-2.97c-0.14-1.16-0.27-2.43-0.37-3.83c-0.3,1.75-0.55,3.13-0.74,4.16
			c-0.2,1.03-0.35,1.76-0.47,2.19l-4,16.52H133.38z"/>
		<path class="st0" d="M171.37,62.49l3.77-28.59h16.99l-0.63,5.04h-11.09l-0.84,6.43h11.05l-0.64,4.92H178.9l-0.94,7.17h11.09
			l-0.68,5.04H171.37z"/>
		<path class="st0" d="M200.21,62.49h-6.02l3.77-28.59h5.96c2.49,0,4.28,0.13,5.38,0.39c1.1,0.26,2.07,0.7,2.9,1.33
			c0.92,0.68,1.63,1.51,2.11,2.49c0.48,0.98,0.72,2.07,0.72,3.27c0,2.19-0.62,3.99-1.85,5.42s-3,2.39-5.3,2.9l6.48,12.79h-6.56
			l-5.88-13.13L200.21,62.49z M202.32,46.26h0.88c2.27,0,3.81-0.31,4.62-0.93c0.81-0.62,1.22-1.68,1.22-3.19
			c0-1.29-0.34-2.19-1.03-2.71c-0.68-0.52-2.02-0.78-4.01-0.78h-0.68L202.32,46.26z"/>
		<path class="st0" d="M214.88,62.49l14.8-28.59h6.52l6.88,28.59h-6.35l-1.21-6.15h-10.88l-3.09,6.15H214.88z M234.41,51.65
			l-1.37-6.76c-0.13-0.69-0.25-1.53-0.35-2.51c-0.1-0.98-0.2-2.16-0.29-3.53c-0.29,1.04-0.59,2.01-0.92,2.9
			c-0.33,0.89-0.67,1.72-1.04,2.49l-3.48,7.4H234.41z"/>
		<path class="st0" d="M258.1,62.49l3.77-28.59h16.99l-0.63,5.04h-11.09l-0.84,6.43h11.05l-0.64,4.92h-11.07l-0.94,7.17h11.09
			l-0.68,5.04H258.1z"/>
		<path class="st0" d="M285.31,62.49l3.11-23.59h-7.42l0.66-5h20.29l-0.64,5h-6.91l-3.09,23.59H285.31z"/>
		<path class="st0" d="M297.23,62.49l14.8-28.59h6.52l6.88,28.59h-6.35l-1.21-6.15h-10.88l-3.09,6.15H297.23z M316.76,51.65
			l-1.37-6.76c-0.13-0.69-0.25-1.53-0.35-2.51c-0.1-0.98-0.2-2.16-0.29-3.53c-0.29,1.04-0.59,2.01-0.92,2.9
			c-0.33,0.89-0.67,1.72-1.04,2.49l-3.48,7.4H316.76z"/>
		<path class="st0" d="M334.59,62.49h-6.02l3.77-28.59h5.53c2.7,0,4.6,0.14,5.72,0.43c1.12,0.29,2.1,0.77,2.95,1.45
			c0.94,0.73,1.65,1.64,2.14,2.72c0.49,1.09,0.73,2.3,0.73,3.64c0,1.58-0.28,3-0.85,4.26c-0.57,1.26-1.4,2.32-2.51,3.16
			c-0.91,0.72-1.99,1.23-3.23,1.54s-3.06,0.47-5.44,0.47h-1.37L334.59,62.49z M336.66,46.69h0.92c2.27,0,3.81-0.33,4.62-0.98
			c0.81-0.65,1.22-1.76,1.22-3.34c0-1.33-0.34-2.26-1.02-2.79c-0.68-0.53-2.02-0.8-4.02-0.8h-0.68L336.66,46.69z"/>
		<path class="st0" d="M345.78,62.49l14.8-28.59h6.52l6.88,28.59h-6.35l-1.21-6.15h-10.88l-3.09,6.15H345.78z M365.31,51.65
			l-1.37-6.76c-0.13-0.69-0.25-1.53-0.35-2.51c-0.1-0.98-0.2-2.16-0.29-3.53c-0.29,1.04-0.59,2.01-0.92,2.9
			c-0.33,0.89-0.67,1.72-1.04,2.49l-3.48,7.4H365.31z"/>
	</g>
</g>
<g>
	<path d="M68.45,186.91c1.55,2.5,3.21,4.35,5,5.55c1.79,1.2,3.79,1.79,6.01,1.79l2.24-17.04c-5-2.42-8.6-5.01-10.8-7.78
		s-3.29-6.07-3.29-9.89c0-5.03,1.72-9.24,5.17-12.61c3.44-3.37,7.94-5.26,13.48-5.65l0.97-7.26h4.05l-0.93,7.38
		c2.95,0.2,5.59,0.94,7.91,2.21c2.32,1.28,4.28,3.07,5.88,5.38l-6.54,8.1c-1.15-1.77-2.42-3.12-3.8-4.05
		c-1.38-0.93-2.97-1.48-4.77-1.64l-2.07,15.4c5.23,2.47,8.96,5.18,11.18,8.12s3.33,6.62,3.33,11.03c0,5.34-1.78,9.73-5.33,13.16
		c-3.56,3.43-8.26,5.3-14.11,5.61l-1.22,9.15h-4.13l1.31-9.07c-3.21-0.17-6.16-1.01-8.86-2.53s-5.25-3.75-7.63-6.71L68.45,186.91z
		 M83.26,164.52l1.73-12.78c-1.8,0.56-3.17,1.41-4.11,2.53c-0.94,1.13-1.41,2.47-1.41,4.05c0,1.32,0.28,2.45,0.84,3.4
		C80.87,162.65,81.85,163.59,83.26,164.52z M85.41,179.24l-1.98,14.68c1.88-0.53,3.35-1.48,4.39-2.85c1.04-1.36,1.56-3.04,1.56-5.04
		c0-1.35-0.32-2.58-0.97-3.69C87.76,181.23,86.76,180.19,85.41,179.24z"/>
	<path d="M136.03,203.41l1.56-11.85h-25.14l1.31-9.74l31.63-39.57h10.42l-5.23,39.99h6.62l-1.31,9.32h-6.54l-1.56,11.85H136.03z
		 M139.06,182.23l2.53-17.88c0.06-0.51,0.21-1.43,0.46-2.76s0.58-2.85,0.97-4.53l-0.25,0.34c-2.33,3.38-3.85,5.53-4.55,6.45
		l-14.34,18.39H139.06z"/>
	<path d="M205.62,142.25l-15.14,17.97c-0.82,0.96-1.7,1.93-2.66,2.93s-1.97,2.03-3.04,3.1c1.13-0.17,2.12-0.3,2.97-0.38
		c0.86-0.08,1.6-0.13,2.21-0.13c5.23,0,9.48,1.67,12.74,5c3.26,3.33,4.89,7.66,4.89,12.97c0,6.1-2.24,11.2-6.73,15.29
		c-4.49,4.09-10.14,6.14-16.98,6.14c-5.85,0-10.54-1.72-14.09-5.15c-3.54-3.43-5.31-7.96-5.31-13.58c0-3.94,1.12-8.11,3.35-12.53
		c2.24-4.41,6.12-9.95,11.66-16.62l12.53-15.02H205.62z M186.26,175.48c-2.81,0-5.17,1-7.09,2.99c-1.91,2-2.87,4.46-2.87,7.38
		c0,2.67,0.79,4.79,2.38,6.37c1.59,1.58,3.71,2.36,6.35,2.36c3.04,0,5.54-0.97,7.51-2.91c1.97-1.94,2.95-4.4,2.95-7.38
		c0-2.73-0.82-4.88-2.47-6.45C191.39,176.27,189.13,175.48,186.26,175.48z"/>
	<path d="M215.11,197.37c0-2.02,0.71-3.75,2.13-5.19c1.42-1.43,3.13-2.15,5.13-2.15c2,0,3.71,0.72,5.13,2.15
		c1.42,1.43,2.13,3.16,2.13,5.19c0,2-0.7,3.69-2.11,5.08c-1.41,1.39-3.12,2.09-5.15,2.09c-2.02,0-3.74-0.7-5.15-2.09
		C215.82,201.07,215.11,199.37,215.11,197.37z"/>
	<path d="M286.74,167.22c0,11.36-2.38,20.51-7.13,27.44s-10.97,10.4-18.64,10.4c-6.19,0-10.94-2.26-14.26-6.77
		c-3.32-4.51-4.98-11.02-4.98-19.51c0-11.28,2.34-20.39,7.02-27.33c4.68-6.95,10.78-10.42,18.29-10.42c6.38,0,11.26,2.24,14.64,6.73
		C285.05,152.24,286.74,158.72,286.74,167.22z M266.45,152.07c-3.63,0-6.57,2.64-8.82,7.93c-2.25,5.29-3.37,12.3-3.37,21.05
		c0,4.36,0.63,7.61,1.88,9.74c1.25,2.14,3.16,3.21,5.71,3.21c3.71,0,6.69-2.57,8.92-7.7c2.24-5.13,3.35-12.07,3.35-20.82
		c0-4.58-0.63-7.96-1.88-10.14C271,153.16,269.06,152.07,266.45,152.07z"/>
	<path d="M338.15,167.22c0,11.36-2.38,20.51-7.13,27.44s-10.97,10.4-18.64,10.4c-6.19,0-10.94-2.26-14.26-6.77
		c-3.32-4.51-4.98-11.02-4.98-19.51c0-11.28,2.34-20.39,7.02-27.33c4.68-6.95,10.78-10.42,18.29-10.42c6.38,0,11.26,2.24,14.64,6.73
		C336.47,152.24,338.15,158.72,338.15,167.22z M317.86,152.07c-3.63,0-6.57,2.64-8.82,7.93c-2.25,5.29-3.37,12.3-3.37,21.05
		c0,4.36,0.63,7.61,1.88,9.74c1.25,2.14,3.16,3.21,5.71,3.21c3.71,0,6.69-2.57,8.92-7.7c2.24-5.13,3.35-12.07,3.35-20.82
		c0-4.58-0.63-7.96-1.88-10.14C322.41,153.16,320.48,152.07,317.86,152.07z"/>
	<path d="M389.57,167.22c0,11.36-2.38,20.51-7.13,27.44s-10.97,10.4-18.64,10.4c-6.19,0-10.94-2.26-14.26-6.77
		c-3.32-4.51-4.98-11.02-4.98-19.51c0-11.28,2.34-20.39,7.02-27.33c4.68-6.95,10.78-10.42,18.29-10.42c6.38,0,11.26,2.24,14.64,6.73
		C387.88,152.24,389.57,158.72,389.57,167.22z M369.28,152.07c-3.63,0-6.57,2.64-8.82,7.93c-2.25,5.29-3.37,12.3-3.37,21.05
		c0,4.36,0.63,7.61,1.88,9.74c1.25,2.14,3.16,3.21,5.71,3.21c3.71,0,6.69-2.57,8.92-7.7c2.24-5.13,3.35-12.07,3.35-20.82
		c0-4.58-0.63-7.96-1.88-10.14C373.83,153.16,371.9,152.07,369.28,152.07z"/>
</g>
<g>
	<path d="M52.38,109.73l3.75-28.59h3.44L58.1,92.44h14.63l1.48-11.31h3.48l-3.75,28.59h-3.48l1.84-14.16H57.69l-1.88,14.16H52.38z"
		/>
	<path d="M96.42,91.86h3.07l-2.34,17.87h-3.13l0.43-2.68c-0.86,1.16-1.82,2.02-2.88,2.57s-2.27,0.83-3.62,0.83
		c-2.29,0-4.15-0.83-5.59-2.5c-1.43-1.67-2.15-3.83-2.15-6.5c0-2.96,0.87-5.4,2.62-7.33s3.94-2.9,6.58-2.9c1.59,0,2.92,0.35,4,1.05
		s1.92,1.76,2.52,3.18L96.42,91.86z M89.02,107.6c1.75,0,3.22-0.72,4.42-2.17s1.81-3.24,1.81-5.39c0-1.81-0.47-3.27-1.42-4.39
		c-0.94-1.12-2.18-1.68-3.7-1.68c-1.98,0-3.6,0.7-4.86,2.11s-1.89,3.2-1.89,5.37c0,1.84,0.52,3.32,1.57,4.45
		S87.36,107.6,89.02,107.6z"/>
	<path d="M101.78,107.13l1.99-2.36c0.65,1.05,1.39,1.85,2.22,2.37s1.74,0.79,2.74,0.79c1.12,0,2.01-0.26,2.67-0.77
		c0.66-0.51,0.99-1.21,0.99-2.08c0-0.98-0.92-1.89-2.77-2.73c-0.47-0.22-0.84-0.4-1.11-0.55c-1.71-0.82-2.84-1.58-3.4-2.29
		s-0.84-1.59-0.84-2.66c0-1.64,0.61-2.99,1.82-4.05c1.21-1.06,2.77-1.59,4.67-1.59c1.2,0,2.3,0.22,3.32,0.66
		c1.02,0.44,1.93,1.1,2.75,1.97l-1.88,2.25c-0.55-0.73-1.19-1.28-1.93-1.65s-1.57-0.56-2.48-0.56c-0.9,0-1.66,0.26-2.29,0.77
		c-0.63,0.51-0.94,1.12-0.94,1.83c0,0.96,1.1,1.92,3.3,2.87c0.14,0.05,0.25,0.1,0.33,0.14c1.76,0.76,2.94,1.5,3.54,2.25
		s0.9,1.71,0.9,2.91c0,1.81-0.59,3.24-1.76,4.28s-2.77,1.56-4.8,1.56c-1.51,0-2.84-0.27-3.98-0.82S102.66,108.28,101.78,107.13z"/>
	<path d="M120.29,109.73l2.01-15.27h-3.32l0.35-2.6h3.32l0.92-7.21h3.16l-0.96,7.21h3.93l-0.33,2.6h-3.95l-2.01,15.27H120.29z"/>
	<path d="M146.99,91.86h3.07l-2.34,17.87h-3.13l0.43-2.68c-0.86,1.16-1.82,2.02-2.88,2.57s-2.27,0.83-3.62,0.83
		c-2.29,0-4.15-0.83-5.59-2.5c-1.43-1.67-2.15-3.83-2.15-6.5c0-2.96,0.87-5.4,2.62-7.33s3.94-2.9,6.58-2.9c1.59,0,2.92,0.35,4,1.05
		s1.92,1.76,2.52,3.18L146.99,91.86z M139.59,107.6c1.75,0,3.22-0.72,4.42-2.17s1.81-3.24,1.81-5.39c0-1.81-0.47-3.27-1.42-4.39
		c-0.94-1.12-2.18-1.68-3.7-1.68c-1.98,0-3.6,0.7-4.86,2.11s-1.89,3.2-1.89,5.37c0,1.84,0.52,3.32,1.57,4.45
		S137.92,107.6,139.59,107.6z"/>
	<path d="M182.19,101.31l-14.32,0.02v0.31c0,1.91,0.49,3.42,1.46,4.52c0.98,1.1,2.31,1.65,4,1.65c1.05,0,2.02-0.25,2.91-0.76
		s1.75-1.3,2.58-2.36l2.15,1.76c-1.04,1.35-2.19,2.37-3.44,3.04s-2.61,1.01-4.08,1.01c-2.67,0-4.79-0.8-6.36-2.41
		c-1.57-1.61-2.35-3.78-2.35-6.51c0-2.98,0.91-5.45,2.73-7.41c1.82-1.96,4.11-2.94,6.86-2.94c2.5,0,4.44,0.76,5.82,2.29
		s2.07,3.67,2.07,6.43c0,0.38,0,0.66-0.01,0.86S182.2,101.15,182.19,101.31z M179.22,98.77c-0.03-1.61-0.47-2.86-1.32-3.73
		c-0.85-0.87-2.05-1.31-3.6-1.31c-1.54,0-2.86,0.46-3.97,1.37c-1.11,0.91-1.84,2.14-2.18,3.67H179.22z"/>
	<path d="M188.77,109.73h-3.14l3.98-30.27h3.13L188.77,109.73z"/>
	<path d="M224.67,109.73h-19.28l6.68-6.6c2.07-2.04,3.64-3.6,4.7-4.68s1.8-1.83,2.22-2.28c1.71-1.85,2.83-3.31,3.36-4.38
		s0.8-2.2,0.8-3.39c0-1.38-0.48-2.5-1.43-3.37c-0.95-0.87-2.19-1.3-3.73-1.3c-1.93,0-3.41,0.52-4.44,1.57
		c-1.04,1.05-1.62,2.61-1.75,4.7h-3.4c0.13-2.89,1.04-5.14,2.72-6.75c1.69-1.61,3.97-2.41,6.87-2.41c2.67,0,4.77,0.67,6.3,2.02
		s2.29,3.18,2.29,5.5c0,1.73-0.46,3.41-1.37,5.03s-2.68,3.72-5.31,6.3l-7.11,6.99h12.36L224.67,109.73z"/>
	<path d="M229.08,106.64l2.23-2.19c0.99,1.04,1.97,1.81,2.95,2.29s2.01,0.73,3.11,0.73c2.21,0,3.98-0.7,5.31-2.1
		c1.33-1.4,1.99-3.26,1.99-5.58c0-1.9-0.59-3.41-1.76-4.52s-2.77-1.67-4.79-1.67c-1.02,0-2,0.12-2.94,0.36
		c-0.94,0.24-1.88,0.61-2.82,1.1l-0.64-0.39l4.84-13.28h12.15l-0.43,3.09h-9.69l-2.56,7.07c0.69-0.16,1.33-0.27,1.91-0.35
		s1.13-0.12,1.64-0.12c2.57,0,4.62,0.8,6.17,2.4s2.32,3.73,2.32,6.39c0,3.1-0.98,5.64-2.95,7.63c-1.97,1.99-4.48,2.98-7.54,2.98
		c-1.69,0-3.25-0.32-4.66-0.96S230.24,107.93,229.08,106.64z"/>
	<path d="M281.82,79.46h3.11l-4,30.27h-3.11l0.43-2.68c-0.86,1.16-1.82,2.02-2.88,2.57s-2.28,0.83-3.64,0.83
		c-2.28,0-4.13-0.83-5.57-2.5c-1.43-1.67-2.15-3.83-2.15-6.5c0-2.96,0.87-5.4,2.62-7.33s3.94-2.9,6.58-2.9c1.59,0,2.92,0.35,4,1.05
		s1.92,1.76,2.52,3.18L281.82,79.46z M272.81,107.6c1.73,0,3.2-0.72,4.41-2.17s1.82-3.24,1.82-5.39c0-1.81-0.47-3.27-1.42-4.39
		c-0.94-1.12-2.18-1.68-3.7-1.68c-1.98,0-3.59,0.7-4.84,2.1c-1.25,1.4-1.88,3.19-1.88,5.38c0,1.84,0.52,3.32,1.55,4.45
		S271.14,107.6,272.81,107.6z"/>
	<path d="M303.96,101.31l-14.32,0.02v0.31c0,1.91,0.49,3.42,1.46,4.52c0.98,1.1,2.31,1.65,4,1.65c1.05,0,2.02-0.25,2.91-0.76
		s1.75-1.3,2.58-2.36l2.15,1.76c-1.04,1.35-2.19,2.37-3.44,3.04s-2.61,1.01-4.08,1.01c-2.67,0-4.79-0.8-6.36-2.41
		c-1.57-1.61-2.35-3.78-2.35-6.51c0-2.98,0.91-5.45,2.73-7.41c1.82-1.96,4.11-2.94,6.86-2.94c2.5,0,4.44,0.76,5.82,2.29
		s2.07,3.67,2.07,6.43c0,0.38,0,0.66-0.01,0.86S303.98,101.15,303.96,101.31z M300.99,98.77c-0.03-1.61-0.47-2.86-1.32-3.73
		c-0.85-0.87-2.05-1.31-3.6-1.31c-1.54,0-2.86,0.46-3.97,1.37c-1.11,0.91-1.84,2.14-2.18,3.67H300.99z"/>
	<path d="M320.88,118.44h-3.13l3.57-26.58h3.11L320.88,118.44z M321.52,83.4c0-0.57,0.21-1.07,0.63-1.48
		c0.42-0.42,0.93-0.63,1.51-0.63c0.6,0,1.1,0.21,1.51,0.62s0.62,0.91,0.62,1.49c0,0.61-0.21,1.13-0.62,1.54
		c-0.41,0.42-0.92,0.63-1.51,0.63c-0.59,0-1.09-0.21-1.51-0.63C321.73,84.51,321.52,84,321.52,83.4z"/>
	<path d="M330.68,91.86h3.13l-1.04,7.91c-0.03,0.21-0.07,0.51-0.12,0.9c-0.27,1.99-0.41,3.31-0.41,3.95c0,0.96,0.33,1.71,1,2.25
		c0.66,0.53,1.6,0.8,2.81,0.8c1.6,0,2.77-0.43,3.5-1.29s1.28-2.74,1.66-5.64l1.15-8.87h3.09l-1.21,9.08
		c-0.01,0.14-0.04,0.35-0.08,0.63c-0.43,3.27-1.21,5.51-2.34,6.72c-0.68,0.72-1.52,1.26-2.53,1.64s-2.15,0.57-3.41,0.57
		c-2.04,0-3.68-0.5-4.91-1.51s-1.85-2.35-1.85-4.01c0-0.64,0.15-2.15,0.45-4.53l0.04-0.27L330.68,91.86z"/>
	<path d="M352.21,109.73h-3.14l3.98-30.27h3.13L352.21,109.73z"/>
	<path d="M358.75,109.73l2.36-17.87h3.11l-2.36,17.87H358.75z M361.31,83.4c0-0.57,0.21-1.07,0.63-1.48
		c0.42-0.42,0.93-0.63,1.51-0.63c0.6,0,1.1,0.21,1.51,0.62s0.62,0.91,0.62,1.49c0,0.61-0.21,1.13-0.62,1.54
		c-0.41,0.42-0.92,0.63-1.51,0.63c-0.59,0-1.09-0.21-1.51-0.63C361.52,84.51,361.31,84,361.31,83.4z"/>
	<path d="M367.79,101.53c0-2.93,0.96-5.38,2.89-7.35s4.32-2.96,7.19-2.96c2.59,0,4.73,0.82,6.43,2.45c1.69,1.63,2.54,3.67,2.54,6.1
		c0,3.18-0.93,5.76-2.8,7.74c-1.87,1.99-4.28,2.98-7.24,2.98c-2.72,0-4.9-0.82-6.54-2.46S367.79,104.22,367.79,101.53z
		 M377.71,93.73c-1.97,0-3.59,0.73-4.87,2.18c-1.28,1.45-1.92,3.3-1.92,5.54c0,1.97,0.56,3.55,1.67,4.76
		c1.11,1.2,2.58,1.81,4.4,1.81c1.95,0,3.57-0.72,4.84-2.17s1.91-3.28,1.91-5.51c0-1.93-0.56-3.51-1.69-4.75
		C380.93,94.35,379.48,93.73,377.71,93.73z"/>
</g>
<g>
	<g>
		<path class="st0" d="M65.58,284.82c0.68,1.17,1.46,2.04,2.34,2.6c0.89,0.56,1.93,0.84,3.13,0.84c1.28,0,2.28-0.34,3-1.04
			c0.72-0.69,1.08-1.64,1.08-2.85c0-0.78-0.21-1.48-0.63-2.09c-0.42-0.61-1.05-1.15-1.89-1.62c-0.21-0.12-0.51-0.29-0.92-0.51
			c-2.34-1.28-3.92-2.36-4.73-3.26c-0.59-0.66-1.03-1.42-1.34-2.28c-0.31-0.85-0.46-1.77-0.46-2.76c0-2.46,0.89-4.51,2.66-6.16
			c1.77-1.65,4-2.47,6.7-2.47c1.63,0,3.07,0.3,4.34,0.91s2.34,1.51,3.22,2.72l-3.07,3.96c-0.51-0.95-1.13-1.66-1.88-2.13
			s-1.6-0.7-2.58-0.7c-1.11,0-2.02,0.32-2.74,0.96c-0.72,0.64-1.08,1.45-1.08,2.44c0,1.29,1.18,2.6,3.55,3.95
			c0.46,0.26,0.8,0.46,1.04,0.61c2.15,1.26,3.61,2.5,4.38,3.71s1.15,2.77,1.15,4.69c0,2.67-0.9,4.82-2.71,6.46s-4.2,2.46-7.18,2.46
			c-1.81,0-3.42-0.36-4.84-1.07s-2.68-1.81-3.79-3.28L65.58,284.82z"/>
		<path class="st0" d="M84.3,292.5l3.77-28.59h16.99l-0.63,5.04H93.34l-0.84,6.43h11.05l-0.64,4.92H91.83l-0.94,7.17h11.09
			l-0.68,5.04H84.3z"/>
		<path class="st0" d="M131.01,272.61c-0.83-1.39-1.88-2.46-3.14-3.2s-2.67-1.11-4.22-1.11c-2.85,0-5.21,1.05-7.08,3.15
			c-1.87,2.1-2.8,4.76-2.8,7.96c0,2.64,0.77,4.75,2.3,6.31s3.59,2.34,6.15,2.34c1.77,0,3.32-0.48,4.64-1.46
			c1.32-0.97,2.28-2.33,2.88-4.07h-6.78l0.64-5h12.97c-0.3,5-1.73,8.87-4.3,11.61c-2.57,2.74-6.03,4.11-10.39,4.11
			c-4.32,0-7.77-1.25-10.34-3.74c-2.57-2.49-3.86-5.84-3.86-10.03c0-2.06,0.37-4.07,1.1-6.04c0.74-1.97,1.78-3.72,3.13-5.27
			c1.38-1.6,3.08-2.82,5.1-3.66s4.25-1.26,6.7-1.26c2.77,0,5.15,0.5,7.13,1.5c1.98,1,3.58,2.51,4.8,4.53L131.01,272.61z"/>
		<path class="st0" d="M149.02,263.9l-2.17,16.15c-0.05,0.42-0.09,0.87-0.12,1.35c-0.03,0.48-0.04,1.01-0.04,1.58
			c0,1.76,0.43,3.09,1.3,3.99c0.87,0.91,2.13,1.36,3.78,1.36c1.17,0,2.2-0.24,3.09-0.71c0.89-0.47,1.62-1.18,2.21-2.12
			c0.73-1.2,1.32-3.53,1.78-6.99c0.03-0.2,0.05-0.33,0.06-0.41l1.91-14.2h5.92l-2.11,16.07c-0.35,2.64-0.75,4.6-1.2,5.87
			s-1.06,2.39-1.85,3.37c-1.13,1.39-2.53,2.42-4.2,3.09s-3.67,1-6,1c-3.61,0-6.3-0.81-8.07-2.44c-1.77-1.63-2.66-4.08-2.66-7.36
			c0-0.47,0.06-1.26,0.17-2.38c0.11-1.12,0.27-2.5,0.48-4.14l1.72-13.07H149.02z"/>
		<path class="st0" d="M169.1,292.5l3.77-28.59h6.23l8.85,14.75c0.95,1.62,1.63,2.83,2.03,3.65s0.73,1.6,0.98,2.32
			c0.05-1.35,0.12-2.55,0.2-3.58s0.16-1.85,0.23-2.45l1.97-14.69h5.63l-3.79,28.59h-5.8l-9.84-16.64c-0.61-1.02-1.11-1.91-1.48-2.68
			c-0.38-0.77-0.7-1.5-0.96-2.21v0.92c0,0.98-0.03,1.92-0.08,2.83c-0.05,0.91-0.13,1.77-0.23,2.58l-2.13,15.2H169.1z"/>
		<path class="st0" d="M201.5,292.5l3.77-28.59h6c3.39,0,5.78,0.11,7.19,0.32s2.58,0.57,3.54,1.06c2,1.05,3.54,2.62,4.61,4.69
			s1.6,4.54,1.6,7.4c0,2.77-0.48,5.16-1.44,7.15s-2.46,3.73-4.5,5.21c-1.37,0.99-2.96,1.7-4.78,2.12c-1.82,0.42-4.63,0.63-8.45,0.63
			h-2.29H201.5z M208.14,287.38c0.08,0,0.2,0,0.35,0c1.37,0.05,2.34,0.08,2.93,0.08c2.08,0,3.72-0.18,4.92-0.54
			c1.2-0.36,2.2-0.95,3.01-1.79c0.89-0.92,1.56-2.07,2.02-3.45c0.46-1.37,0.69-2.92,0.69-4.64c0-2.81-0.6-4.84-1.79-6.08
			c-1.19-1.24-3.15-1.87-5.89-1.87h-3.85L208.14,287.38z"/>
		<path class="st0" d="M227.81,292.5l14.8-28.59h6.52l6.88,28.59h-6.35l-1.21-6.15h-10.88l-3.09,6.15H227.81z M247.34,281.66
			l-1.37-6.76c-0.13-0.69-0.25-1.53-0.35-2.51c-0.1-0.98-0.2-2.16-0.29-3.53c-0.29,1.04-0.59,2.01-0.92,2.9
			c-0.33,0.89-0.67,1.72-1.04,2.49l-3.48,7.4H247.34z"/>
		<path class="st0" d="M271.03,292.5l3.77-28.59h16.99l-0.63,5.04h-11.09l-0.84,6.43h11.05l-0.64,4.92h-11.07l-0.94,7.17h11.09
			l-0.68,5.04H271.03z"/>
		<path class="st0" d="M298.24,292.5l3.11-23.59h-7.42l0.66-5h20.29l-0.64,5h-6.91l-3.09,23.59H298.24z"/>
		<path class="st0" d="M310.15,292.5l14.8-28.59h6.52l6.88,28.59h-6.35l-1.21-6.15h-10.88l-3.09,6.15H310.15z M329.69,281.66
			l-1.37-6.76c-0.13-0.69-0.25-1.53-0.35-2.51c-0.1-0.98-0.2-2.16-0.29-3.53c-0.29,1.04-0.59,2.01-0.92,2.9
			c-0.33,0.89-0.67,1.72-1.04,2.49l-3.48,7.4H329.69z"/>
		<path class="st0" d="M347.52,292.5h-6.02l3.77-28.59h5.53c2.7,0,4.6,0.14,5.72,0.43c1.12,0.29,2.1,0.77,2.95,1.45
			c0.94,0.73,1.65,1.64,2.14,2.72c0.49,1.09,0.73,2.3,0.73,3.64c0,1.58-0.28,3-0.85,4.26c-0.57,1.26-1.4,2.32-2.51,3.16
			c-0.91,0.72-1.99,1.23-3.23,1.54s-3.06,0.47-5.44,0.47h-1.37L347.52,292.5z M349.59,276.69h0.92c2.27,0,3.81-0.33,4.62-0.98
			c0.81-0.65,1.22-1.76,1.22-3.34c0-1.33-0.34-2.26-1.02-2.79c-0.68-0.53-2.02-0.8-4.02-0.8h-0.68L349.59,276.69z"/>
		<path class="st0" d="M358.71,292.5l14.8-28.59h6.52l6.88,28.59h-6.35l-1.21-6.15h-10.88l-3.09,6.15H358.71z M378.24,281.66
			l-1.37-6.76c-0.13-0.69-0.25-1.53-0.35-2.51c-0.1-0.98-0.2-2.16-0.29-3.53c-0.29,1.04-0.59,2.01-0.92,2.9
			c-0.33,0.89-0.67,1.72-1.04,2.49l-3.48,7.4H378.24z"/>
	</g>
</g>
<g>
	<path d="M68.45,416.92c1.55,2.5,3.21,4.35,5,5.55c1.79,1.2,3.79,1.79,6.01,1.79l2.24-17.04c-5-2.42-8.6-5.01-10.8-7.78
		s-3.29-6.07-3.29-9.89c0-5.03,1.72-9.24,5.17-12.61c3.44-3.37,7.94-5.26,13.48-5.65l0.97-7.26h4.05l-0.93,7.38
		c2.95,0.2,5.59,0.94,7.91,2.21c2.32,1.28,4.28,3.07,5.88,5.38l-6.54,8.1c-1.15-1.77-2.42-3.12-3.8-4.05
		c-1.38-0.93-2.97-1.48-4.77-1.64l-2.07,15.4c5.23,2.47,8.96,5.18,11.18,8.12s3.33,6.62,3.33,11.03c0,5.34-1.78,9.73-5.33,13.16
		c-3.56,3.43-8.26,5.3-14.11,5.61l-1.22,9.15h-4.13l1.31-9.07c-3.21-0.17-6.16-1.01-8.86-2.53s-5.25-3.75-7.63-6.71L68.45,416.92z
		 M83.26,394.52l1.73-12.78c-1.8,0.56-3.17,1.41-4.11,2.53c-0.94,1.13-1.41,2.47-1.41,4.05c0,1.32,0.28,2.45,0.84,3.4
		C80.87,392.66,81.85,393.59,83.26,394.52z M85.41,409.24l-1.98,14.68c1.88-0.53,3.35-1.48,4.39-2.85c1.04-1.36,1.56-3.04,1.56-5.04
		c0-1.35-0.32-2.58-0.97-3.69C87.76,411.23,86.76,410.2,85.41,409.24z"/>
	<path d="M118.52,418.39c1.43,2.11,3.08,3.68,4.96,4.72c1.87,1.04,4.01,1.56,6.43,1.56c3.71,0,6.84-1.19,9.38-3.58
		c2.54-2.39,3.82-5.31,3.82-8.77c0-3.51-1.05-6.29-3.14-8.33c-2.09-2.04-4.96-3.06-8.58-3.06c-2,0-3.97,0.34-5.93,1.03
		c-1.96,0.69-4.04,1.78-6.26,3.27l-2.15-1.9l9.41-31.09h30.58l-1.39,10.04h-21.6l-3.08,10.42c0.62-0.11,1.26-0.2,1.92-0.25
		c0.66-0.06,1.37-0.08,2.13-0.08c5.96,0,10.85,1.86,14.66,5.57s5.72,8.45,5.72,14.21c0,6.41-2.32,11.82-6.96,16.22
		c-4.64,4.4-10.38,6.6-17.21,6.6c-4.7,0-8.72-0.76-12.06-2.28c-3.35-1.52-6.33-3.92-8.94-7.21L118.52,418.39z"/>
	<path d="M205.62,372.25l-15.14,17.97c-0.82,0.96-1.7,1.93-2.66,2.93s-1.97,2.03-3.04,3.1c1.13-0.17,2.12-0.3,2.97-0.38
		c0.86-0.08,1.6-0.13,2.21-0.13c5.23,0,9.48,1.67,12.74,5c3.26,3.33,4.89,7.66,4.89,12.97c0,6.1-2.24,11.2-6.73,15.29
		c-4.49,4.09-10.14,6.14-16.98,6.14c-5.85,0-10.54-1.72-14.09-5.15c-3.54-3.43-5.31-7.96-5.31-13.58c0-3.94,1.12-8.11,3.35-12.53
		c2.24-4.41,6.12-9.95,11.66-16.62l12.53-15.02H205.62z M186.26,405.49c-2.81,0-5.17,1-7.09,2.99c-1.91,2-2.87,4.46-2.87,7.38
		c0,2.67,0.79,4.79,2.38,6.37c1.59,1.58,3.71,2.36,6.35,2.36c3.04,0,5.54-0.97,7.51-2.91c1.97-1.94,2.95-4.4,2.95-7.38
		c0-2.73-0.82-4.88-2.47-6.45C191.39,406.27,189.13,405.49,186.26,405.49z"/>
	<path d="M215.11,427.38c0-2.02,0.71-3.75,2.13-5.19c1.42-1.43,3.13-2.15,5.13-2.15c2,0,3.71,0.72,5.13,2.15
		c1.42,1.43,2.13,3.16,2.13,5.19c0,2-0.7,3.69-2.11,5.08c-1.41,1.39-3.12,2.09-5.15,2.09c-2.02,0-3.74-0.7-5.15-2.09
		C215.82,431.07,215.11,429.37,215.11,427.38z"/>
	<path d="M286.74,397.22c0,11.36-2.38,20.51-7.13,27.44s-10.97,10.4-18.64,10.4c-6.19,0-10.94-2.26-14.26-6.77
		c-3.32-4.51-4.98-11.02-4.98-19.51c0-11.28,2.34-20.39,7.02-27.33c4.68-6.95,10.78-10.42,18.29-10.42c6.38,0,11.26,2.24,14.64,6.73
		C285.05,382.24,286.74,388.73,286.74,397.22z M266.45,382.08c-3.63,0-6.57,2.64-8.82,7.93c-2.25,5.29-3.37,12.3-3.37,21.05
		c0,4.36,0.63,7.61,1.88,9.74c1.25,2.14,3.16,3.21,5.71,3.21c3.71,0,6.69-2.57,8.92-7.7c2.24-5.13,3.35-12.07,3.35-20.82
		c0-4.58-0.63-7.96-1.88-10.14C271,383.17,269.06,382.08,266.45,382.08z"/>
	<path d="M338.15,397.22c0,11.36-2.38,20.51-7.13,27.44s-10.97,10.4-18.64,10.4c-6.19,0-10.94-2.26-14.26-6.77
		c-3.32-4.51-4.98-11.02-4.98-19.51c0-11.28,2.34-20.39,7.02-27.33c4.68-6.95,10.78-10.42,18.29-10.42c6.38,0,11.26,2.24,14.64,6.73
		C336.47,382.24,338.15,388.73,338.15,397.22z M317.86,382.08c-3.63,0-6.57,2.64-8.82,7.93c-2.25,5.29-3.37,12.3-3.37,21.05
		c0,4.36,0.63,7.61,1.88,9.74c1.25,2.14,3.16,3.21,5.71,3.21c3.71,0,6.69-2.57,8.92-7.7c2.24-5.13,3.35-12.07,3.35-20.82
		c0-4.58-0.63-7.96-1.88-10.14C322.41,383.17,320.48,382.08,317.86,382.08z"/>
	<path d="M389.57,397.22c0,11.36-2.38,20.51-7.13,27.44s-10.97,10.4-18.64,10.4c-6.19,0-10.94-2.26-14.26-6.77
		c-3.32-4.51-4.98-11.02-4.98-19.51c0-11.28,2.34-20.39,7.02-27.33c4.68-6.95,10.78-10.42,18.29-10.42c6.38,0,11.26,2.24,14.64,6.73
		C387.88,382.24,389.57,388.73,389.57,397.22z M369.28,382.08c-3.63,0-6.57,2.64-8.82,7.93c-2.25,5.29-3.37,12.3-3.37,21.05
		c0,4.36,0.63,7.61,1.88,9.74c1.25,2.14,3.16,3.21,5.71,3.21c3.71,0,6.69-2.57,8.92-7.7c2.24-5.13,3.35-12.07,3.35-20.82
		c0-4.58-0.63-7.96-1.88-10.14C373.83,383.17,371.9,382.08,369.28,382.08z"/>
</g>
<g>
	<path d="M28.26,339.73l3.75-28.59h3.44l-1.46,11.31h14.63l1.48-11.31h3.48l-3.75,28.59h-3.48l1.84-14.16H33.57l-1.88,14.16H28.26z"
		/>
	<path d="M72.3,321.86h3.07l-2.34,17.87H69.9l0.43-2.68c-0.86,1.16-1.82,2.02-2.88,2.57c-1.06,0.55-2.27,0.83-3.62,0.83
		c-2.29,0-4.15-0.83-5.59-2.5c-1.43-1.67-2.15-3.83-2.15-6.5c0-2.96,0.87-5.4,2.62-7.33s3.94-2.9,6.58-2.9c1.59,0,2.92,0.35,4,1.05
		s1.92,1.76,2.52,3.18L72.3,321.86z M64.9,337.6c1.75,0,3.22-0.72,4.42-2.17s1.81-3.24,1.81-5.39c0-1.81-0.47-3.27-1.42-4.39
		c-0.94-1.12-2.18-1.68-3.7-1.68c-1.98,0-3.6,0.7-4.86,2.11s-1.89,3.2-1.89,5.37c0,1.84,0.52,3.32,1.57,4.45S63.23,337.6,64.9,337.6
		z"/>
	<path d="M77.65,337.13l1.99-2.36c0.65,1.05,1.39,1.85,2.22,2.37s1.74,0.79,2.74,0.79c1.12,0,2.01-0.26,2.67-0.77
		c0.66-0.51,0.99-1.21,0.99-2.08c0-0.98-0.92-1.89-2.77-2.73c-0.47-0.22-0.84-0.4-1.11-0.55c-1.71-0.82-2.84-1.58-3.4-2.29
		s-0.84-1.59-0.84-2.66c0-1.64,0.61-2.99,1.82-4.05c1.21-1.06,2.77-1.59,4.67-1.59c1.2,0,2.3,0.22,3.32,0.66
		c1.02,0.44,1.93,1.1,2.75,1.97l-1.88,2.25c-0.55-0.73-1.19-1.28-1.93-1.65s-1.57-0.56-2.48-0.56c-0.9,0-1.66,0.26-2.29,0.77
		c-0.63,0.51-0.94,1.12-0.94,1.83c0,0.96,1.1,1.92,3.3,2.87c0.14,0.05,0.25,0.1,0.33,0.14c1.76,0.76,2.94,1.5,3.54,2.25
		s0.9,1.71,0.9,2.91c0,1.81-0.59,3.24-1.76,4.28c-1.17,1.04-2.77,1.56-4.8,1.56c-1.51,0-2.84-0.27-3.98-0.82
		S78.54,338.28,77.65,337.13z"/>
	<path d="M96.17,339.73l2.01-15.27h-3.32l0.35-2.6h3.32l0.92-7.21h3.16l-0.96,7.21h3.93l-0.33,2.6h-3.95l-2.01,15.27H96.17z"/>
	<path d="M122.87,321.86h3.07l-2.34,17.87h-3.13l0.43-2.68c-0.86,1.16-1.82,2.02-2.88,2.57c-1.06,0.55-2.27,0.83-3.62,0.83
		c-2.29,0-4.15-0.83-5.59-2.5c-1.43-1.67-2.15-3.83-2.15-6.5c0-2.96,0.87-5.4,2.62-7.33s3.94-2.9,6.58-2.9c1.59,0,2.92,0.35,4,1.05
		s1.92,1.76,2.52,3.18L122.87,321.86z M115.47,337.6c1.75,0,3.22-0.72,4.42-2.17s1.81-3.24,1.81-5.39c0-1.81-0.47-3.27-1.42-4.39
		c-0.94-1.12-2.18-1.68-3.7-1.68c-1.98,0-3.6,0.7-4.86,2.11s-1.89,3.2-1.89,5.37c0,1.84,0.52,3.32,1.57,4.45
		S113.8,337.6,115.47,337.6z"/>
	<path d="M158.07,331.31l-14.32,0.02v0.31c0,1.91,0.49,3.42,1.46,4.52c0.98,1.1,2.31,1.65,4,1.65c1.05,0,2.02-0.25,2.91-0.76
		s1.75-1.29,2.58-2.36l2.15,1.76c-1.04,1.35-2.19,2.37-3.44,3.04c-1.25,0.67-2.61,1.01-4.08,1.01c-2.67,0-4.79-0.8-6.36-2.41
		c-1.57-1.61-2.35-3.78-2.35-6.51c0-2.98,0.91-5.45,2.73-7.41c1.82-1.96,4.11-2.94,6.86-2.94c2.5,0,4.44,0.76,5.82,2.29
		s2.07,3.67,2.07,6.43c0,0.38,0,0.66-0.01,0.86S158.08,331.16,158.07,331.31z M155.1,328.77c-0.03-1.61-0.47-2.86-1.32-3.73
		c-0.85-0.87-2.05-1.31-3.6-1.31c-1.54,0-2.86,0.46-3.97,1.37c-1.11,0.91-1.84,2.14-2.18,3.67H155.1z"/>
	<path d="M164.65,339.73h-3.14l3.98-30.27h3.13L164.65,339.73z"/>
	<path d="M190.31,339.73l3.32-25.23h-5.49l1.25-3.09h8.11l-3.75,28.32H190.31z"/>
	<path d="M223.59,339.73h-19.28l6.68-6.6c2.07-2.04,3.64-3.6,4.7-4.68s1.8-1.83,2.22-2.28c1.71-1.85,2.83-3.31,3.36-4.38
		s0.8-2.2,0.8-3.39c0-1.38-0.48-2.5-1.43-3.37c-0.95-0.87-2.19-1.3-3.73-1.3c-1.93,0-3.41,0.52-4.44,1.57
		c-1.04,1.05-1.62,2.61-1.75,4.7h-3.4c0.13-2.89,1.04-5.14,2.72-6.75c1.69-1.61,3.97-2.41,6.87-2.41c2.67,0,4.77,0.67,6.3,2.02
		s2.29,3.18,2.29,5.5c0,1.73-0.46,3.41-1.37,5.03s-2.68,3.72-5.31,6.3l-7.11,6.99h12.36L223.59,339.73z"/>
	<path d="M257.69,309.46h3.11l-4,30.27h-3.11l0.43-2.68c-0.86,1.16-1.82,2.02-2.88,2.57c-1.06,0.55-2.28,0.83-3.64,0.83
		c-2.28,0-4.13-0.83-5.57-2.5c-1.43-1.67-2.15-3.83-2.15-6.5c0-2.96,0.87-5.4,2.62-7.33s3.94-2.9,6.58-2.9c1.59,0,2.92,0.35,4,1.05
		s1.92,1.76,2.52,3.18L257.69,309.46z M248.69,337.6c1.73,0,3.2-0.72,4.41-2.17s1.82-3.24,1.82-5.39c0-1.81-0.47-3.27-1.42-4.39
		c-0.94-1.12-2.18-1.68-3.7-1.68c-1.98,0-3.59,0.7-4.84,2.1c-1.25,1.4-1.88,3.19-1.88,5.38c0,1.84,0.52,3.32,1.55,4.45
		S247.02,337.6,248.69,337.6z"/>
	<path d="M279.84,331.31l-14.32,0.02v0.31c0,1.91,0.49,3.42,1.46,4.52c0.98,1.1,2.31,1.65,4,1.65c1.05,0,2.02-0.25,2.91-0.76
		s1.75-1.29,2.58-2.36l2.15,1.76c-1.04,1.35-2.19,2.37-3.44,3.04c-1.25,0.67-2.61,1.01-4.08,1.01c-2.67,0-4.79-0.8-6.36-2.41
		c-1.57-1.61-2.35-3.78-2.35-6.51c0-2.98,0.91-5.45,2.73-7.41c1.82-1.96,4.11-2.94,6.86-2.94c2.5,0,4.44,0.76,5.82,2.29
		s2.07,3.67,2.07,6.43c0,0.38,0,0.66-0.01,0.86S279.86,331.16,279.84,331.31z M276.87,328.77c-0.03-1.61-0.47-2.86-1.32-3.73
		c-0.85-0.87-2.05-1.31-3.6-1.31c-1.54,0-2.86,0.46-3.97,1.37c-1.11,0.91-1.84,2.14-2.18,3.67H276.87z"/>
	<path d="M291.56,339.73L308.4,310l9.16,29.73h-3.81l-1.91-7.21h-12.48l-3.89,7.21H291.56z M300.88,329.57h10.2l-3.44-11.41
		L300.88,329.57z"/>
	<path d="M335.76,321.86h3.07l-1.8,14.2c-0.04,0.29-0.09,0.7-0.16,1.23c-0.43,3.54-1.03,5.94-1.8,7.21
		c-0.81,1.34-1.83,2.31-3.08,2.92s-2.86,0.91-4.85,0.91c-2.38,0-4.29-0.66-5.73-1.97s-2.18-3.08-2.22-5.29l3.07-0.41
		c0.05,1.64,0.56,2.9,1.53,3.79s2.33,1.33,4.07,1.33c1.58,0,2.85-0.54,3.82-1.63s1.57-2.63,1.79-4.64l0.31-2.73
		c-0.86,1.16-1.82,2.02-2.88,2.58s-2.27,0.84-3.62,0.84c-2.25,0-4.1-0.82-5.56-2.45c-1.45-1.63-2.18-3.73-2.18-6.28
		c0-2.94,0.88-5.38,2.63-7.32c1.75-1.94,3.94-2.91,6.57-2.91c1.59,0,2.93,0.35,4.02,1.04c1.09,0.7,1.93,1.74,2.5,3.12L335.76,321.86
		z M328.36,337.37c1.73,0,3.2-0.72,4.41-2.15c1.21-1.43,1.82-3.21,1.82-5.33c0-1.8-0.47-3.25-1.42-4.35
		c-0.94-1.1-2.18-1.65-3.7-1.65c-1.98,0-3.6,0.69-4.86,2.07c-1.26,1.38-1.89,3.14-1.89,5.29c0,1.81,0.52,3.28,1.57,4.41
		S326.69,337.37,328.36,337.37z"/>
	<path d="M341.99,331.53c0-2.93,0.96-5.38,2.89-7.35s4.32-2.96,7.19-2.96c2.59,0,4.73,0.82,6.43,2.45c1.69,1.63,2.54,3.67,2.54,6.1
		c0,3.18-0.93,5.76-2.8,7.74c-1.87,1.99-4.28,2.98-7.24,2.98c-2.72,0-4.9-0.82-6.54-2.46S341.99,334.22,341.99,331.53z
		 M351.91,323.73c-1.97,0-3.59,0.73-4.87,2.18c-1.28,1.45-1.92,3.3-1.92,5.54c0,1.97,0.56,3.55,1.67,4.76
		c1.11,1.21,2.58,1.81,4.4,1.81c1.95,0,3.57-0.72,4.84-2.17s1.91-3.28,1.91-5.51c0-1.93-0.56-3.51-1.69-4.75
		C355.13,324.35,353.68,323.73,351.91,323.73z"/>
	<path d="M363.14,337.13l1.99-2.36c0.65,1.05,1.39,1.85,2.22,2.37s1.74,0.79,2.74,0.79c1.12,0,2.01-0.26,2.67-0.77
		c0.66-0.51,0.99-1.21,0.99-2.08c0-0.98-0.92-1.89-2.77-2.73c-0.47-0.22-0.84-0.4-1.11-0.55c-1.71-0.82-2.84-1.58-3.4-2.29
		s-0.84-1.59-0.84-2.66c0-1.64,0.61-2.99,1.82-4.05c1.21-1.06,2.77-1.59,4.67-1.59c1.2,0,2.3,0.22,3.32,0.66
		c1.02,0.44,1.93,1.1,2.75,1.97l-1.88,2.25c-0.55-0.73-1.19-1.28-1.93-1.65s-1.57-0.56-2.48-0.56c-0.9,0-1.66,0.26-2.29,0.77
		c-0.63,0.51-0.94,1.12-0.94,1.83c0,0.96,1.1,1.92,3.3,2.87c0.14,0.05,0.25,0.1,0.33,0.14c1.76,0.76,2.94,1.5,3.54,2.25
		s0.9,1.71,0.9,2.91c0,1.81-0.59,3.24-1.76,4.28c-1.17,1.04-2.77,1.56-4.8,1.56c-1.51,0-2.84-0.27-3.98-0.82
		S364.03,338.28,363.14,337.13z"/>
	<path d="M381.66,339.73l2.01-15.27h-3.32l0.35-2.6h3.32l0.92-7.21h3.16l-0.96,7.21h3.93l-0.33,2.6h-3.95l-2.01,15.27H381.66z"/>
	<path d="M391.91,331.53c0-2.93,0.96-5.38,2.89-7.35s4.32-2.96,7.19-2.96c2.59,0,4.73,0.82,6.43,2.45c1.69,1.63,2.54,3.67,2.54,6.1
		c0,3.18-0.93,5.76-2.8,7.74c-1.87,1.99-4.28,2.98-7.24,2.98c-2.72,0-4.9-0.82-6.54-2.46S391.91,334.22,391.91,331.53z
		 M401.83,323.73c-1.97,0-3.59,0.73-4.87,2.18c-1.28,1.45-1.92,3.3-1.92,5.54c0,1.97,0.56,3.55,1.67,4.76
		c1.11,1.21,2.58,1.81,4.4,1.81c1.95,0,3.57-0.72,4.84-2.17s1.91-3.28,1.91-5.51c0-1.93-0.56-3.51-1.69-4.75
		C405.05,324.35,403.61,323.73,401.83,323.73z"/>
</g>
</svg>
