<?xml version="1.0" encoding="utf-8"?>
<!-- Generator: Adobe Illustrator 23.0.3, SVG Export Plug-In . SVG Version: 6.00 Build 0)  -->
<svg version="1.1" id="Layer_1" xmlns="http://www.w3.org/2000/svg" xmlns:xlink="http://www.w3.org/1999/xlink" x="0px" y="0px"
	 viewBox="0 0 612 540" style="enable-background:new 0 0 612 540;" xml:space="preserve">
<style type="text/css">
	.st0{fill:#FFFFFF;stroke:#000300;stroke-miterlimit:10;}
	.st1{fill:#A83E37;}
	.st2{fill:#040706;}
</style>
<g>
	<path class="st0" d="M560.34,45.03H145.1c-39.14,0-45.79,35.32-45.79,35.32L19.8,500.96l-4.72,24.79c0,0,3.62-28.86,35.48-28.86
		H465.8c39.13,0,45.78-35.32,45.78-35.32L592.2,45.03l4.73-24.78C596.92,20.25,592.2,45.03,560.34,45.03"/>
	<path class="st1" d="M499.16,297.2H113.26c-36.37,0-42.55,31.76-42.55,31.76L59.1,387.93l-4.39,22.29c0,0,4.39-22.29,34-22.29
		h385.9c36.37,0,42.54-31.75,42.54-31.75l11.61-58.98l4.39-22.28C533.16,274.91,528.77,297.2,499.16,297.2"/>
	<path class="st1" d="M189.48,239.08l17.13-33.83h0.25l3.89,33.83H189.48z M198.95,184.11l-51.65,91.62h23.75l9.73-19.09h31.8
		l2.22,19.09h22.96l-15.44-91.62H198.95z"/>
	<path class="st1" d="M309.39,210.89c-1.69,8.2-7.91,10.25-14.4,10.25h-15.45l3.63-18.2h16.74
		C306.42,202.94,310.7,203.97,309.39,210.89 M306.29,244.85c-1.81,9.22-7.91,12.05-17.66,12.05h-16.09l4.28-21.66h17.39
		C303.95,235.24,307.84,236.9,306.29,244.85 M314.46,227.04l1.43-0.26c8.05-2.56,15.19-7.81,17.25-18.45
		c3.24-16.28-5.97-24.22-25.3-24.22h-44.39l-18.04,91.62h46.99c19.21,0,32.57-7.05,36.34-25.88
		C331.46,235.49,323.94,228.7,314.46,227.04"/>
	<path class="st1" d="M397.13,210.89c-1.7,8.2-7.93,10.25-14.41,10.25h-15.44l3.63-18.2h16.74
		C394.13,202.94,398.42,203.97,397.13,210.89 M394,244.85c-1.82,9.22-7.91,12.05-17.64,12.05h-16.1l4.28-21.66h17.41
		C391.66,235.24,395.56,236.9,394,244.85 M402.18,227.04l1.43-0.26c8.05-2.56,15.19-7.81,17.26-18.45
		c3.25-16.28-5.98-24.22-25.31-24.22h-44.38l-18.04,91.62h46.98c19.2,0,32.57-7.05,36.34-25.88
		C419.18,235.49,411.65,228.7,402.18,227.04"/>
	<path class="st1" d="M486.8,212.81c-1.7,8.33-8.05,12.17-17.4,12.17h-15.19l4.42-22.04h16.48
		C484.46,202.95,488.1,205.76,486.8,212.81 M510.28,211.92c3.51-17.94-7.66-27.81-28.29-27.81h-43.09l-18.04,91.62h23.35l6.37-31.91
		h15.19c19.85,0,5.71,27.68,9.61,31.52l23.62,0.39l-0.39-1.15c-5.07-1.54,10.38-37.04-12.08-41.01l1.56-0.26
		C499.9,230.75,507.95,223.45,510.28,211.92"/>
	<path class="st1" d="M164.7,202.94l3.63-18.84h-45.12c-23.24,0-27.25,16.99-27.46,17.96l-14.5,73.66l-3.55,18c0,0,3.55-18,27.47-18
		h-0.56l6.75-33.83h37.26l3.62-18.83h-37.25l4.03-20.12H164.7z"/>
	<path class="st1" d="M526.63,184.11h0.56l-18.04,91.6c22.74-0.28,26.69-16.98,26.9-17.94l14.5-73.66l3.55-18
		C554.1,166.11,550.55,184.11,526.63,184.11"/>
	<path class="st1" d="M543.35,71.97H157.46c-36.37,0-42.55,31.76-42.55,31.76L103.3,162.7l-4.39,22.29c0,0,4.39-22.29,34-22.29
		h385.9c36.37,0,42.54-31.76,42.54-31.76l11.61-58.98l4.39-22.28C577.35,49.69,572.96,71.97,543.35,71.97"/>
	<path class="st2" d="M79.39,428.77h9.44c4.16,0,6.68-2.06,7.48-6.27c0.75-3.92-0.8-5.7-4.96-5.7h-9.63L79.39,428.77z M78.22,413.06
		H91.4c6.12,0,10.42,2.85,9.02,10c-1.36,6.87-6.45,9.45-12.57,9.45h-9.16l-2.76,13.98h-4.21L78.22,413.06z"/>
	<path class="st2" d="M144.59,429.46c1.4-7.06-1.03-13.32-9.35-13.32c-8.51,0-13.65,6.55-15.05,13.88
		c-1.36,7.06,1.03,13.37,9.35,13.37C138.05,443.4,143.19,436.81,144.59,429.46 M116.08,429.46c1.92-9.91,9.77-17.06,19.44-17.06
		c9.96,0,15.15,7.43,13.18,17.62c-1.92,9.91-9.77,17.11-19.49,17.11C119.3,447.13,114.11,439.66,116.08,429.46"/>
	<path class="st2" d="M171.55,429.23h8.28c3.46,0,7.99-0.56,9.16-6.49c1.12-5.66-3.09-5.94-6.55-5.94h-8.46L171.55,429.23z
		 M170.48,413.06h13.46c6.59,0,10.42,3.69,9.25,9.77c-0.94,4.67-3.6,7.25-7.43,8.18l-0.28,0.09c7.15,1.45,1.87,14.59,3.51,15.14
		l0.05,0.24l-4.4-0.09c-1.21-1.41,4.35-13.42-4.11-13.42h-9.68l-2.66,13.51h-4.21L170.48,413.06z"/>
	<polygon class="st2" points="219.47,416.8 208.34,416.8 209.04,413.06 235.5,413.06 234.79,416.8 223.67,416.8 217.88,446.48 
		213.67,446.48 	"/>
	<path class="st2" d="M264.33,434.38l-2.52-17.44h-0.1l-9.35,17.44H264.33z M250.26,438.12l-4.58,8.36h-4.39l18.84-33.42h4.67
		l5.8,33.42h-4.3l-1.31-8.36H250.26z"/>
	<polygon class="st2" points="298.55,416.8 287.42,416.8 288.12,413.06 314.58,413.06 313.88,416.8 302.75,416.8 296.95,446.48 
		292.75,446.48 	"/>
	<path class="st2" d="M338.27,447.14c-9.02,0-12.01-5.1-10.7-11.92l4.3-22.15h4.21l-4.35,22.43c-1.03,5.42,1.17,7.9,6.87,7.9
		c5.89,0,9.35-2.76,10.38-8.18l4.3-22.15h4.2l-4.35,22.43C351.83,442.32,347.11,447.14,338.27,447.14"/>
	<polygon class="st2" points="385.24,416.8 374.12,416.8 374.82,413.06 401.28,413.06 400.57,416.8 389.45,416.8 383.65,446.48 
		379.45,446.48 	"/>
	<polygon class="st2" points="427.97,416.8 416.84,416.8 417.54,413.06 444,413.06 443.3,416.8 432.17,416.8 426.37,446.48 
		422.17,446.48 	"/>
	<path class="st2" d="M484.57,429.46c1.4-7.06-1.03-13.32-9.35-13.32c-8.51,0-13.65,6.55-15.05,13.88
		c-1.36,7.06,1.03,13.37,9.35,13.37C478.02,443.4,483.16,436.81,484.57,429.46 M456.05,429.46c1.92-9.91,9.77-17.06,19.45-17.06
		c9.96,0,15.14,7.43,13.18,17.62c-1.92,9.91-9.77,17.11-19.5,17.11C459.28,447.13,454.09,439.66,456.05,429.46"/>
</g>
</svg>
