<?xml version="1.0" encoding="utf-8"?>
<!-- Generator: Adobe Illustrator 23.0.3, SVG Export Plug-In . SVG Version: 6.00 Build 0)  -->
<svg version="1.1" id="Capa_1" xmlns="http://www.w3.org/2000/svg" xmlns:xlink="http://www.w3.org/1999/xlink" x="0px" y="0px"
	 viewBox="0 0 189 134" style="enable-background:new 0 0 189 134;" xml:space="preserve">
<style type="text/css">
	.st0{fill:#080A00;}
	.st1{fill:#27241F;}
</style>
<g>
	<g>
		<path class="st0" d="M136.09,69.11c0-2.12,1.21-3.39,2.9-3.39c0.87,0,1.44,0.41,1.81,0.8l-0.48,0.53
			c-0.31-0.33-0.7-0.59-1.33-0.59c-1.23,0-2.03,1.01-2.03,2.63c0,1.65,0.73,2.67,2.01,2.67c0.46,0,0.89-0.14,1.13-0.38v-1.71h-1.3
			v-0.69h2.08v2.75c-0.41,0.42-1.11,0.76-1.96,0.76C137.28,72.51,136.09,71.25,136.09,69.11z"/>
		<path class="st0" d="M148.55,68.2h-2.24v-0.67h3.07v4.85h-0.83V68.2z M148.22,65.88c0-0.38,0.28-0.64,0.66-0.64
			s0.66,0.26,0.66,0.64c0,0.39-0.28,0.64-0.66,0.64S148.22,66.27,148.22,65.88z"/>
		<path class="st0" d="M156.05,69.97c0-1.63,1.24-2.55,2.7-2.55c0.79,0,1.37,0.32,1.77,0.71l-0.41,0.53
			c-0.4-0.34-0.82-0.55-1.33-0.55c-1.12,0-1.89,0.75-1.89,1.87c0,1.11,0.76,1.85,1.87,1.85c0.6,0,1.1-0.27,1.5-0.61l0.37,0.54
			c-0.54,0.48-1.21,0.76-1.93,0.76C157.19,72.51,156.05,71.58,156.05,69.97z"/>
		<path class="st0" d="M168.24,68.2H166v-0.67h3.07v4.85h-0.83V68.2z M167.91,65.88c0-0.38,0.28-0.64,0.66-0.64
			c0.38,0,0.66,0.26,0.66,0.64c0,0.39-0.28,0.64-0.66,0.64C168.19,66.52,167.91,66.27,167.91,65.88z"/>
	</g>
	<path class="st0" d="M137.49,44.92c1.35,1.53,2.75,2.96,4.28,4.22c1.52,1.27,3.14,2.4,4.85,3.36c1.72,0.96,3.5,1.78,5.36,2.48
		c0.46,0.18,0.93,0.35,1.4,0.51l1.37,0.52c0.92,0.36,1.87,0.68,2.84,1.09c-1.04,0.25-2.09,0.25-3.14,0.14
		c-0.52-0.07-1.05-0.15-1.54-0.3c-0.49-0.15-0.99-0.29-1.47-0.46c-1.96-0.65-3.85-1.53-5.63-2.61c-1.77-1.09-3.4-2.41-4.82-3.92
		C139.58,48.45,138.38,46.76,137.49,44.92z"/>
	<path class="st1" d="M169.17,50.18c-1.24,0.7-2.6,1.13-3.98,1.38c-1.38,0.24-2.79,0.31-4.17,0.19c-0.69-0.04-1.37-0.15-2.04-0.29
		l-0.5-0.12l-0.49-0.14c-0.32-0.1-0.67-0.21-0.99-0.33c-1.33-0.45-2.52-1.02-3.66-1.79c-0.58-0.38-1.16-0.8-1.75-1.21
		c-0.6-0.41-1.21-0.83-1.75-1.22c-1.11-0.81-2.16-1.73-3.18-2.69c-2.04-1.92-3.89-4.07-5.81-6.23l-0.72-0.82
		c-0.25-0.28-0.53-0.58-0.85-0.88c-0.63-0.59-1.51-1.22-2.7-1.38c-0.61-0.08-1.19,0-1.69,0.15c-0.5,0.15-0.94,0.36-1.33,0.59
		c-0.78,0.47-1.4,1.02-1.97,1.59c-0.56,0.57-1.07,1.18-1.53,1.8l-1.29,1.71c-0.87,1.13-1.75,2.24-2.66,3.33
		c-1.82,2.16-3.75,4.21-5.91,6c-2.18,1.82-4.42,3.52-6.91,4.49c-1.24,0.49-2.54,0.78-3.85,0.81c-0.25,0-0.49,0-0.74-0.02
		c0-0.01,0.01-0.01,0.01-0.02c-1.44-0.12-2.75-0.56-3.72-1.19c-1.38-0.9-2.14-2.53-2.33-4.98c-0.13-1.7,0.09-3.73,0.65-6.02
		c0.57-2.32,1.41-4.7,2.5-7.08c1.16-2.59,2.49-5.09,3.95-7.43c1.45-2.32,2.96-4.28,4.51-5.83c0.39-0.39,0.92-0.83,1.57-1.33
		c0.61-0.46,1.25-0.8,1.89-1.02c0.53-0.18,0.97-0.2,1.3-0.07c0.11,0.04,0.35,0.38,0.47,1.3c0.12,1.04-0.14,2.51-0.79,4.36
		c-0.23,0.65-0.53,1.35-0.89,2.09c-0.01,0.02-0.02,0.04-0.03,0.06c0,0,0,0.01-0.01,0.01c-0.03,0.05-0.05,0.11-0.08,0.16l0.01,0.01
		c-0.01,0.04-0.03,0.07-0.04,0.11c-0.11,0.43-0.06,0.85,0.11,1.22c0.22,0.49,0.64,0.88,1.19,1.02c0.34,0.09,0.69,0.08,1.01-0.02
		c0.4-0.12,0.74-0.38,0.98-0.73l0.02,0.01c0.02-0.04,0.04-0.08,0.06-0.12c0,0,0.01-0.01,0.01-0.01c0.03-0.06,0.06-0.11,0.08-0.17
		c0.01-0.02,0.01-0.04,0.02-0.06c0.48-1.01,0.88-1.97,1.16-2.85c0.77-2.38,1.07-4.28,0.92-5.77c-0.21-2.75-1.67-3.88-2.87-4.35
		c-1.58-0.62-3.3-0.7-5.15-0.23c-1.32,0.37-2.65,0.98-3.97,1.82c-1.29,0.83-2.53,1.83-3.67,2.97c-1.12,1.12-2.18,2.3-3.13,3.5
		c-0.96,1.2-1.76,2.35-2.4,3.41l-0.03,0.06c-0.2,0.39-0.41,0.8-0.65,1.2c-0.24,0.42-0.48,0.85-0.7,1.28
		c-0.83,1.6-1.65,3.33-2.42,5.15c-0.53,1.24-0.97,2.52-1.33,3.8l-1.76,2.89l-0.25,0.4c-0.91,1.45-1.77,2.82-2.8,3.95
		c-2.35,2.64-5.57,4.35-8.74,5.82l-4.1,2.13c0.84-3.24,1.72-6.81,2.53-10.26c0.99-4.19,1.93-8.09,2.86-11.94
		c0.2-0.78-0.06-1.74-0.77-2.92c-0.66-1.09-1.31-1.83-1.99-2.25c-0.97-0.6-1.77-0.52-2.28-0.34c-0.69,0.25-1.2,0.76-1.5,1.5
		c-0.96,1.51-2.06,3.16-3.26,4.89c-1.22,1.77-2.57,3.55-4.01,5.3c-1.42,1.73-2.95,3.34-4.54,4.8c-1.56,1.43-3.16,2.56-4.74,3.35
		c-2.42,1.18-4.01,1.28-4.74,0.3c-0.85-1.15-1.03-3.01-0.53-5.52c0.4-1.93,1.15-4.02,2.22-6.19c1.08-2.19,2.38-4.3,3.87-6.26
		c1.48-1.95,3.14-3.73,4.92-5.28c1.75-1.52,3.56-2.62,5.38-3.27c0.75-0.25,1.55-0.39,2.37-0.43c0.79-0.03,1.57,0.08,2.3,0.32
		c0.71,0.24,1.3,0.6,1.81,1.1c0.46,0.46,0.74,1.07,0.86,1.87l0.01,0.04c0.15,0.79,0.61,1.13,0.96,1.28
		c0.41,0.18,0.85,0.21,1.31,0.09c0.45-0.11,0.84-0.36,1.16-0.73c0.38-0.44,0.51-0.98,0.4-1.56c-0.23-1.48-0.8-2.7-1.68-3.62
		c-0.84-0.88-1.85-1.56-2.99-2.02c-1.12-0.45-2.35-0.7-3.66-0.73c-1.27-0.04-2.5,0.06-3.65,0.27c-3.23,0.58-6.49,2.06-9.7,4.41
		c-3.18,2.33-5.9,5.13-8.09,8.31c-0.99,1.45-1.88,3.03-2.66,4.7c-0.27,0.57-0.49,1.12-0.71,1.65c-0.56,1.36-1.04,2.54-2.04,3.66
		c-0.96,1.1-1.9,2.03-2.85,2.85c-1.98,1.73-4.24,3.15-6.71,4.22l-1.18,0.49c-0.23,0.1-0.44,0.19-0.66,0.25
		c-0.24,0.08-0.48,0.16-0.72,0.24c-0.41,0.14-0.8,0.28-1.18,0.39c-0.25,0.06-0.49,0.13-0.73,0.2c-0.42,0.12-0.82,0.23-1.2,0.32
		c-0.25,0.05-0.49,0.1-0.74,0.16c-0.43,0.09-0.83,0.18-1.25,0.25c-5.35,0.95-10.87,0.49-15.95-1.32l-0.72-0.26l-0.7,1.55l0.67,0.37
		c2.56,1.41,5.36,2.37,8.34,2.85c2.86,0.48,5.85,0.51,8.87,0.1c0.49-0.07,0.97-0.16,1.44-0.25c0.24-0.05,0.48-0.09,0.75-0.14
		c0.49-0.1,0.97-0.23,1.43-0.36c0.24-0.07,0.48-0.13,0.7-0.19c0.3-0.07,0.57-0.17,0.83-0.27c0.09-0.03,0.19-0.07,0.29-0.11l1-0.36
		c0.3-0.1,0.58-0.23,0.85-0.35l1.25-0.56c2.73-1.33,5.2-3.02,7.33-5c0.57-0.52,1.14-1.08,1.7-1.68c0.06,1.11,0.28,2.17,0.63,3.15
		c0.6,1.66,1.51,3,2.69,3.99c1.2,1.01,2.71,1.6,4.46,1.75c1.74,0.15,3.63-0.26,5.63-1.22c1.51-0.72,3.01-1.7,4.44-2.92
		c1.4-1.19,2.76-2.48,4.07-3.85c1.3-1.37,2.52-2.79,3.64-4.22c0.21-0.27,0.41-0.53,0.61-0.79c-0.58,2.46-1.2,5.06-1.87,7.77
		c-1.01,4.13-2.13,8.46-3.33,12.89c-2.49,1.35-5.29,2.92-8.33,4.67c-3.19,1.84-6.51,3.89-9.86,6.11c-3.36,2.22-6.67,4.67-9.84,7.28
		c-3.18,2.62-6.06,5.43-8.57,8.36c-2.53,2.95-4.58,6.09-6.1,9.33c-1.53,3.28-2.31,6.72-2.31,10.22c0,2.77,0.58,5.14,1.73,7.03
		c1.15,1.89,2.67,3.35,4.52,4.35c1.83,0.99,3.9,1.56,6.16,1.71c0.4,0.03,0.81,0.04,1.21,0.04c1.84,0,3.69-0.27,5.51-0.8
		c3.3-0.93,6.37-2.67,9.11-5.17c2.71-2.47,5.2-5.44,7.41-8.84c2.2-3.38,4.19-7.13,5.94-11.14c1.73-3.99,3.31-8.03,4.7-12.01
		c1.39-3.99,2.62-7.89,3.65-11.58c0.45-1.6,0.85-3.02,1.23-4.35c0.49-1.72,0.93-3.26,1.35-4.81c0.24-0.27,1.22-0.88,2.21-1.38
		l0.28-0.14c1.4-0.71,2.85-1.44,4.28-2.14c0.51-0.25,1.02-0.49,1.54-0.73c1.29-0.6,2.63-1.22,3.87-2c1.84-1.16,3.41-2.5,4.68-3.98
		c0.21-0.22,0.39-0.45,0.53-0.64l0.44-0.58c0.03-0.04,0.05-0.07,0.08-0.11c0.13,1.63,0.54,3.21,1.23,4.72
		c1.28,2.77,3.26,4.6,5.91,5.43c6.58,2.07,12.97-0.72,18.06-4.87c2.63-2.15,4.98-4.64,7.18-7.23c2.14-2.52,3.95-5.63,6.61-7.64
		c0.89-0.67,1.58-0.61,2.38,0.09c0.21,0.19,0.43,0.41,0.67,0.66c0,0,0.73,0.79,0.73,0.79c5.04,5.44,11.36,11.6,18.91,13.12
		l0.57,0.11l0.57,0.08c0.76,0.09,1.51,0.13,2.27,0.11c0.75-0.01,1.5-0.08,2.24-0.2c0.74-0.11,1.47-0.28,2.18-0.49
		c0.71-0.22,1.4-0.5,2.07-0.81c0.66-0.34,1.29-0.73,1.87-1.18L169.17,50.18z M64.37,79.11c-1.92,5.59-4.02,10.8-6.25,15.5
		c-2.22,4.68-4.6,8.72-7.08,12.02c-2.43,3.22-5.02,5.42-7.69,6.53c-1.83,0.72-3.62,1.08-5.29,1.03c-1.65-0.03-3.14-0.43-4.43-1.18
		c-1.28-0.75-2.34-1.84-3.13-3.23c-0.79-1.39-1.19-3.11-1.19-5.1c0-2.98,0.69-5.91,2.05-8.73c1.38-2.86,3.23-5.65,5.49-8.29
		c2.29-2.66,4.94-5.23,7.9-7.64c2.98-2.43,6.03-4.72,9.09-6.82c3.05-2.09,6.09-4.02,9.04-5.73c2.26-1.32,4.36-2.5,6.26-3.53
		C67.68,69.02,66.08,74.11,64.37,79.11z"/>
	<g>
		<g>
			<path class="st0" d="M136.09,69.11c0-2.12,1.21-3.39,2.9-3.39c0.87,0,1.44,0.41,1.81,0.8l-0.48,0.53
				c-0.31-0.33-0.7-0.59-1.33-0.59c-1.23,0-2.03,1.01-2.03,2.63c0,1.65,0.73,2.67,2.01,2.67c0.46,0,0.89-0.14,1.13-0.38v-1.71h-1.3
				v-0.69h2.08v2.75c-0.41,0.42-1.11,0.76-1.96,0.76C137.28,72.5,136.09,71.25,136.09,69.11z"/>
			<path class="st0" d="M148.55,68.2h-2.25v-0.67h3.07v4.85h-0.83V68.2z M148.22,65.88c0-0.38,0.28-0.64,0.66-0.64
				s0.66,0.26,0.66,0.64c0,0.39-0.28,0.64-0.66,0.64S148.22,66.27,148.22,65.88z"/>
			<path class="st0" d="M156.05,69.97c0-1.63,1.24-2.55,2.71-2.55c0.79,0,1.37,0.32,1.77,0.71l-0.41,0.53
				c-0.4-0.34-0.82-0.55-1.33-0.55c-1.12,0-1.89,0.75-1.89,1.87c0,1.11,0.76,1.85,1.87,1.85c0.6,0,1.1-0.27,1.5-0.61l0.37,0.54
				c-0.54,0.48-1.21,0.76-1.93,0.76C157.19,72.5,156.05,71.58,156.05,69.97z"/>
			<path class="st0" d="M168.24,68.2H166v-0.67h3.07v4.85h-0.83V68.2z M167.91,65.88c0-0.38,0.28-0.64,0.66-0.64
				c0.38,0,0.66,0.26,0.66,0.64c0,0.39-0.28,0.64-0.66,0.64C168.19,66.52,167.91,66.27,167.91,65.88z"/>
		</g>
	</g>
	<path class="st0" d="M137.49,44.92c1.35,1.53,2.75,2.96,4.28,4.22c1.52,1.27,3.14,2.4,4.85,3.36c1.72,0.96,3.5,1.78,5.36,2.48
		c0.46,0.18,0.93,0.35,1.4,0.51l1.37,0.52c0.92,0.36,1.87,0.68,2.84,1.09c-1.04,0.25-2.09,0.25-3.14,0.14
		c-0.52-0.07-1.05-0.15-1.54-0.3c-0.49-0.15-0.99-0.29-1.47-0.46c-1.96-0.65-3.85-1.53-5.63-2.61c-1.77-1.09-3.4-2.41-4.82-3.92
		C139.58,48.45,138.38,46.76,137.49,44.92z"/>
	<path class="st1" d="M169.17,50.18c-1.24,0.7-2.6,1.13-3.98,1.38c-1.38,0.24-2.79,0.31-4.17,0.19c-0.69-0.04-1.37-0.15-2.04-0.29
		l-0.5-0.12l-0.49-0.14c-0.32-0.1-0.67-0.21-0.99-0.33c-1.33-0.45-2.52-1.02-3.66-1.79c-0.58-0.38-1.16-0.8-1.75-1.21
		c-0.6-0.41-1.21-0.83-1.75-1.22c-1.11-0.81-2.16-1.73-3.18-2.69c-2.04-1.92-3.89-4.07-5.81-6.23l-0.72-0.82
		c-0.25-0.28-0.53-0.58-0.85-0.88c-0.63-0.59-1.51-1.22-2.7-1.38c-0.61-0.08-1.19,0-1.69,0.15c-0.5,0.15-0.94,0.36-1.33,0.59
		c-0.78,0.47-1.4,1.02-1.97,1.59c-0.56,0.57-1.07,1.18-1.53,1.8l-1.29,1.71c-0.87,1.13-1.75,2.24-2.66,3.33
		c-1.82,2.16-3.75,4.21-5.91,6c-2.18,1.82-4.42,3.52-6.91,4.49c-1.24,0.49-2.54,0.78-3.85,0.81c-0.25,0-0.49,0-0.74-0.02
		c0-0.01,0.01-0.01,0.01-0.02c-1.44-0.12-2.75-0.56-3.72-1.19c-1.38-0.9-2.14-2.53-2.33-4.98c-0.13-1.7,0.09-3.73,0.65-6.02
		c0.57-2.32,1.41-4.7,2.5-7.08c1.16-2.59,2.49-5.09,3.95-7.43c1.45-2.32,2.96-4.28,4.51-5.83c0.39-0.39,0.92-0.83,1.57-1.33
		c0.61-0.46,1.25-0.8,1.89-1.02c0.53-0.18,0.97-0.2,1.3-0.07c0.11,0.04,0.35,0.38,0.47,1.3c0.12,1.04-0.14,2.51-0.79,4.36
		c-0.23,0.65-0.53,1.35-0.89,2.09c-0.01,0.02-0.02,0.04-0.03,0.06c0,0,0,0.01-0.01,0.01c-0.03,0.05-0.05,0.11-0.08,0.16l0.01,0.01
		c-0.01,0.04-0.03,0.07-0.04,0.11c-0.11,0.43-0.06,0.85,0.11,1.22c0.22,0.49,0.64,0.88,1.19,1.02c0.34,0.09,0.69,0.08,1.01-0.02
		c0.4-0.12,0.74-0.38,0.98-0.73l0.02,0.01c0.02-0.04,0.04-0.08,0.06-0.12c0,0,0.01-0.01,0.01-0.01c0.03-0.06,0.06-0.11,0.08-0.17
		c0.01-0.02,0.01-0.04,0.02-0.06c0.48-1.01,0.88-1.97,1.16-2.85c0.77-2.38,1.07-4.28,0.92-5.77c-0.21-2.75-1.67-3.88-2.87-4.35
		c-1.58-0.62-3.3-0.7-5.15-0.23c-1.32,0.37-2.65,0.98-3.97,1.82c-1.29,0.83-2.53,1.83-3.67,2.97c-1.12,1.12-2.18,2.3-3.13,3.5
		c-0.96,1.2-1.76,2.35-2.4,3.41l-0.03,0.06c-0.2,0.39-0.41,0.8-0.65,1.2c-0.24,0.42-0.48,0.85-0.7,1.28
		c-0.83,1.6-1.65,3.33-2.42,5.15c-0.53,1.24-0.97,2.52-1.33,3.8l-1.76,2.89l-0.25,0.4c-0.91,1.45-1.77,2.82-2.8,3.95
		c-2.35,2.64-5.57,4.35-8.74,5.82l-4.1,2.13c0.84-3.24,1.72-6.81,2.53-10.26c0.99-4.19,1.93-8.09,2.86-11.94
		c0.2-0.78-0.06-1.74-0.77-2.92c-0.66-1.09-1.31-1.83-1.99-2.25c-0.97-0.6-1.77-0.52-2.28-0.34c-0.69,0.25-1.2,0.76-1.5,1.5
		c-0.96,1.51-2.06,3.16-3.26,4.89c-1.22,1.77-2.57,3.55-4.01,5.3c-1.42,1.73-2.95,3.34-4.54,4.8c-1.56,1.43-3.16,2.56-4.74,3.35
		c-2.42,1.18-4.01,1.28-4.74,0.3c-0.85-1.15-1.03-3.01-0.53-5.52c0.4-1.93,1.15-4.02,2.22-6.19c1.08-2.19,2.38-4.3,3.87-6.26
		c1.48-1.95,3.14-3.73,4.92-5.28c1.75-1.52,3.56-2.62,5.38-3.27c0.75-0.25,1.55-0.39,2.37-0.43c0.79-0.03,1.57,0.08,2.3,0.32
		c0.71,0.24,1.3,0.6,1.81,1.1c0.46,0.46,0.74,1.07,0.86,1.87l0.01,0.04c0.15,0.79,0.61,1.13,0.96,1.28
		c0.41,0.18,0.85,0.21,1.31,0.09c0.45-0.11,0.84-0.36,1.16-0.73c0.38-0.44,0.51-0.98,0.4-1.56c-0.23-1.48-0.8-2.7-1.68-3.62
		c-0.84-0.88-1.85-1.56-2.99-2.02c-1.12-0.45-2.35-0.7-3.66-0.73c-1.27-0.04-2.5,0.06-3.65,0.27c-3.23,0.58-6.49,2.06-9.7,4.41
		c-3.18,2.33-5.9,5.13-8.09,8.31c-0.99,1.45-1.88,3.03-2.66,4.7c-0.27,0.57-0.49,1.12-0.71,1.65c-0.56,1.36-1.04,2.54-2.04,3.66
		c-0.96,1.1-1.9,2.03-2.85,2.85c-1.98,1.73-4.24,3.15-6.71,4.22l-1.18,0.49c-0.23,0.1-0.44,0.19-0.66,0.25
		c-0.24,0.08-0.48,0.16-0.72,0.24c-0.41,0.14-0.8,0.28-1.18,0.39c-0.25,0.06-0.49,0.13-0.73,0.2c-0.42,0.12-0.82,0.23-1.2,0.32
		c-0.25,0.05-0.49,0.1-0.74,0.16c-0.43,0.09-0.83,0.18-1.25,0.25c-5.35,0.95-10.87,0.49-15.95-1.32l-0.72-0.26l-0.7,1.55l0.67,0.37
		c2.56,1.41,5.36,2.37,8.34,2.85c2.86,0.48,5.85,0.51,8.87,0.1c0.49-0.07,0.97-0.16,1.44-0.25c0.24-0.05,0.48-0.09,0.75-0.14
		c0.49-0.1,0.97-0.23,1.43-0.36c0.24-0.07,0.48-0.13,0.7-0.19c0.3-0.07,0.57-0.17,0.83-0.27c0.09-0.03,0.19-0.07,0.29-0.11l1-0.36
		c0.3-0.1,0.58-0.23,0.85-0.35l1.25-0.56c2.73-1.33,5.2-3.02,7.33-5c0.57-0.52,1.14-1.08,1.7-1.68c0.06,1.11,0.28,2.17,0.63,3.15
		c0.6,1.66,1.51,3,2.69,3.99c1.2,1.01,2.71,1.6,4.46,1.75c1.74,0.15,3.63-0.26,5.63-1.22c1.51-0.72,3.01-1.7,4.44-2.92
		c1.4-1.19,2.76-2.48,4.07-3.85c1.3-1.37,2.52-2.79,3.64-4.22c0.21-0.27,0.41-0.53,0.61-0.79c-0.58,2.46-1.2,5.06-1.87,7.77
		c-1.01,4.13-2.13,8.46-3.33,12.89c-2.49,1.35-5.29,2.92-8.33,4.67c-3.19,1.84-6.51,3.89-9.86,6.11c-3.36,2.22-6.67,4.67-9.84,7.28
		c-3.18,2.62-6.06,5.43-8.57,8.36c-2.53,2.95-4.58,6.09-6.1,9.33c-1.53,3.28-2.31,6.72-2.31,10.22c0,2.77,0.58,5.14,1.73,7.03
		c1.15,1.89,2.67,3.35,4.52,4.35c1.83,0.99,3.9,1.56,6.16,1.71c0.4,0.03,0.81,0.04,1.21,0.04c1.84,0,3.69-0.27,5.51-0.8
		c3.3-0.93,6.37-2.67,9.11-5.17c2.71-2.47,5.2-5.44,7.41-8.84c2.2-3.38,4.19-7.13,5.94-11.14c1.73-3.99,3.31-8.03,4.7-12.01
		c1.39-3.99,2.62-7.89,3.65-11.58c0.45-1.6,0.85-3.02,1.23-4.35c0.49-1.72,0.93-3.26,1.35-4.81c0.24-0.27,1.22-0.88,2.21-1.38
		l0.28-0.14c1.4-0.71,2.85-1.44,4.28-2.14c0.51-0.25,1.02-0.49,1.54-0.73c1.29-0.6,2.63-1.22,3.87-2c1.84-1.16,3.41-2.5,4.68-3.98
		c0.21-0.22,0.39-0.45,0.53-0.64l0.44-0.58c0.03-0.04,0.05-0.07,0.08-0.11c0.13,1.63,0.54,3.21,1.23,4.72
		c1.28,2.77,3.26,4.6,5.91,5.43c6.58,2.07,12.97-0.72,18.06-4.87c2.63-2.15,4.98-4.64,7.18-7.23c2.14-2.52,3.95-5.63,6.61-7.64
		c0.89-0.67,1.58-0.61,2.38,0.09c0.21,0.19,0.43,0.41,0.67,0.66c0,0,0.73,0.79,0.73,0.79c5.04,5.44,11.36,11.6,18.91,13.12
		l0.57,0.11l0.57,0.08c0.76,0.09,1.51,0.13,2.27,0.11c0.75-0.01,1.5-0.08,2.24-0.2c0.74-0.11,1.47-0.28,2.18-0.49
		c0.71-0.22,1.4-0.5,2.07-0.81c0.66-0.34,1.29-0.73,1.87-1.18L169.17,50.18z M64.37,79.11c-1.92,5.59-4.02,10.8-6.25,15.5
		c-2.22,4.68-4.6,8.72-7.08,12.02c-2.43,3.22-5.02,5.42-7.69,6.53c-1.83,0.72-3.62,1.08-5.29,1.03c-1.65-0.03-3.14-0.43-4.43-1.18
		c-1.28-0.75-2.34-1.84-3.13-3.23c-0.79-1.39-1.19-3.11-1.19-5.1c0-2.98,0.69-5.91,2.05-8.73c1.38-2.86,3.23-5.65,5.49-8.29
		c2.29-2.66,4.94-5.23,7.9-7.64c2.98-2.43,6.03-4.72,9.09-6.82c3.05-2.09,6.09-4.02,9.04-5.73c2.26-1.32,4.36-2.5,6.26-3.53
		C67.68,69.02,66.08,74.11,64.37,79.11z"/>
	<g>
		<path class="st0" d="M136.09,69.11c0-2.12,1.21-3.39,2.9-3.39c0.87,0,1.44,0.41,1.81,0.8l-0.48,0.53
			c-0.31-0.33-0.7-0.59-1.33-0.59c-1.23,0-2.03,1.01-2.03,2.63c0,1.65,0.73,2.67,2.01,2.67c0.46,0,0.89-0.14,1.13-0.38v-1.71h-1.3
			v-0.69h2.08v2.75c-0.41,0.42-1.11,0.76-1.96,0.76C137.28,72.51,136.09,71.25,136.09,69.11z"/>
		<path class="st0" d="M148.55,68.2h-2.24v-0.67h3.07v4.85h-0.83V68.2z M148.22,65.88c0-0.38,0.28-0.64,0.66-0.64
			s0.66,0.26,0.66,0.64c0,0.39-0.28,0.64-0.66,0.64S148.22,66.27,148.22,65.88z"/>
		<path class="st0" d="M156.05,69.97c0-1.63,1.24-2.55,2.7-2.55c0.79,0,1.37,0.32,1.77,0.71l-0.41,0.53
			c-0.4-0.34-0.82-0.55-1.33-0.55c-1.12,0-1.89,0.75-1.89,1.87c0,1.11,0.76,1.85,1.87,1.85c0.6,0,1.1-0.27,1.5-0.61l0.37,0.54
			c-0.54,0.48-1.21,0.76-1.93,0.76C157.19,72.51,156.05,71.58,156.05,69.97z"/>
		<path class="st0" d="M168.24,68.2H166v-0.67h3.07v4.85h-0.83V68.2z M167.91,65.88c0-0.38,0.28-0.64,0.66-0.64
			c0.38,0,0.66,0.26,0.66,0.64c0,0.39-0.28,0.64-0.66,0.64C168.19,66.52,167.91,66.27,167.91,65.88z"/>
	</g>
	<path class="st0" d="M137.49,44.92c1.35,1.53,2.75,2.96,4.28,4.22c1.52,1.27,3.14,2.4,4.85,3.36c1.72,0.96,3.5,1.78,5.36,2.48
		c0.46,0.18,0.93,0.35,1.4,0.51l1.37,0.52c0.92,0.36,1.87,0.68,2.84,1.09c-1.04,0.25-2.09,0.25-3.14,0.14
		c-0.52-0.07-1.05-0.15-1.54-0.3c-0.49-0.15-0.99-0.29-1.47-0.46c-1.96-0.65-3.85-1.53-5.63-2.61c-1.77-1.09-3.4-2.41-4.82-3.92
		C139.58,48.45,138.38,46.76,137.49,44.92z"/>
	<path class="st1" d="M169.17,50.18c-1.24,0.7-2.6,1.13-3.98,1.38c-1.38,0.24-2.79,0.31-4.17,0.19c-0.69-0.04-1.37-0.15-2.04-0.29
		l-0.5-0.12l-0.49-0.14c-0.32-0.1-0.67-0.21-0.99-0.33c-1.33-0.45-2.52-1.02-3.66-1.79c-0.58-0.38-1.16-0.8-1.75-1.21
		c-0.6-0.41-1.21-0.83-1.75-1.22c-1.11-0.81-2.16-1.73-3.18-2.69c-2.04-1.92-3.89-4.07-5.81-6.23l-0.72-0.82
		c-0.25-0.28-0.53-0.58-0.85-0.88c-0.63-0.59-1.51-1.22-2.7-1.38c-0.61-0.08-1.19,0-1.69,0.15c-0.5,0.15-0.94,0.36-1.33,0.59
		c-0.78,0.47-1.4,1.02-1.97,1.59c-0.56,0.57-1.07,1.18-1.53,1.8l-1.29,1.71c-0.87,1.13-1.75,2.24-2.66,3.33
		c-1.82,2.16-3.75,4.21-5.91,6c-2.18,1.82-4.42,3.52-6.91,4.49c-1.24,0.49-2.54,0.78-3.85,0.81c-0.25,0-0.49,0-0.74-0.02
		c0-0.01,0.01-0.01,0.01-0.02c-1.44-0.12-2.75-0.56-3.72-1.19c-1.38-0.9-2.14-2.53-2.33-4.98c-0.13-1.7,0.09-3.73,0.65-6.02
		c0.57-2.32,1.41-4.7,2.5-7.08c1.16-2.59,2.49-5.09,3.95-7.43c1.45-2.32,2.96-4.28,4.51-5.83c0.39-0.39,0.92-0.83,1.57-1.33
		c0.61-0.46,1.25-0.8,1.89-1.02c0.53-0.18,0.97-0.2,1.3-0.07c0.11,0.04,0.35,0.38,0.47,1.3c0.12,1.04-0.14,2.51-0.79,4.36
		c-0.23,0.65-0.53,1.35-0.89,2.09c-0.01,0.02-0.02,0.04-0.03,0.06c0,0,0,0.01-0.01,0.01c-0.03,0.05-0.05,0.11-0.08,0.16l0.01,0.01
		c-0.01,0.04-0.03,0.07-0.04,0.11c-0.11,0.43-0.06,0.85,0.11,1.22c0.22,0.49,0.64,0.88,1.19,1.02c0.34,0.09,0.69,0.08,1.01-0.02
		c0.4-0.12,0.74-0.38,0.98-0.73l0.02,0.01c0.02-0.04,0.04-0.08,0.06-0.12c0,0,0.01-0.01,0.01-0.01c0.03-0.06,0.06-0.11,0.08-0.17
		c0.01-0.02,0.01-0.04,0.02-0.06c0.48-1.01,0.88-1.97,1.16-2.85c0.77-2.38,1.07-4.28,0.92-5.77c-0.21-2.75-1.67-3.88-2.87-4.35
		c-1.58-0.62-3.3-0.7-5.15-0.23c-1.32,0.37-2.65,0.98-3.97,1.82c-1.29,0.83-2.53,1.83-3.67,2.97c-1.12,1.12-2.18,2.3-3.13,3.5
		c-0.96,1.2-1.76,2.35-2.4,3.41l-0.03,0.06c-0.2,0.39-0.41,0.8-0.65,1.2c-0.24,0.42-0.48,0.85-0.7,1.28
		c-0.83,1.6-1.65,3.33-2.42,5.15c-0.53,1.24-0.97,2.52-1.33,3.8l-1.76,2.89l-0.25,0.4c-0.91,1.45-1.77,2.82-2.8,3.95
		c-2.35,2.64-5.57,4.35-8.74,5.82l-4.1,2.13c0.84-3.24,1.72-6.81,2.53-10.26c0.99-4.19,1.93-8.09,2.86-11.94
		c0.2-0.78-0.06-1.74-0.77-2.92c-0.66-1.09-1.31-1.83-1.99-2.25c-0.97-0.6-1.77-0.52-2.28-0.34c-0.69,0.25-1.2,0.76-1.5,1.5
		c-0.96,1.51-2.06,3.16-3.26,4.89c-1.22,1.77-2.57,3.55-4.01,5.3c-1.42,1.73-2.95,3.34-4.54,4.8c-1.56,1.43-3.16,2.56-4.74,3.35
		c-2.42,1.18-4.01,1.28-4.74,0.3c-0.85-1.15-1.03-3.01-0.53-5.52c0.4-1.93,1.15-4.02,2.22-6.19c1.08-2.19,2.38-4.3,3.87-6.26
		c1.48-1.95,3.14-3.73,4.92-5.28c1.75-1.52,3.56-2.62,5.38-3.27c0.75-0.25,1.55-0.39,2.37-0.43c0.79-0.03,1.57,0.08,2.3,0.32
		c0.71,0.24,1.3,0.6,1.81,1.1c0.46,0.46,0.74,1.07,0.86,1.87l0.01,0.04c0.15,0.79,0.61,1.13,0.96,1.28
		c0.41,0.18,0.85,0.21,1.31,0.09c0.45-0.11,0.84-0.36,1.16-0.73c0.38-0.44,0.51-0.98,0.4-1.56c-0.23-1.48-0.8-2.7-1.68-3.62
		c-0.84-0.88-1.85-1.56-2.99-2.02c-1.12-0.45-2.35-0.7-3.66-0.73c-1.27-0.04-2.5,0.06-3.65,0.27c-3.23,0.58-6.49,2.06-9.7,4.41
		c-3.18,2.33-5.9,5.13-8.09,8.31c-0.99,1.45-1.88,3.03-2.66,4.7c-0.27,0.57-0.49,1.12-0.71,1.65c-0.56,1.36-1.04,2.54-2.04,3.66
		c-0.96,1.1-1.9,2.03-2.85,2.85c-1.98,1.73-4.24,3.15-6.71,4.22l-1.18,0.49c-0.23,0.1-0.44,0.19-0.66,0.25
		c-0.24,0.08-0.48,0.16-0.72,0.24c-0.41,0.14-0.8,0.28-1.18,0.39c-0.25,0.06-0.49,0.13-0.73,0.2c-0.42,0.12-0.82,0.23-1.2,0.32
		c-0.25,0.05-0.49,0.1-0.74,0.16c-0.43,0.09-0.83,0.18-1.25,0.25c-5.35,0.95-10.87,0.49-15.95-1.32l-0.72-0.26l-0.7,1.55l0.67,0.37
		c2.56,1.41,5.36,2.37,8.34,2.85c2.86,0.48,5.85,0.51,8.87,0.1c0.49-0.07,0.97-0.16,1.44-0.25c0.24-0.05,0.48-0.09,0.75-0.14
		c0.49-0.1,0.97-0.23,1.43-0.36c0.24-0.07,0.48-0.13,0.7-0.19c0.3-0.07,0.57-0.17,0.83-0.27c0.09-0.03,0.19-0.07,0.29-0.11l1-0.36
		c0.3-0.1,0.58-0.23,0.85-0.35l1.25-0.56c2.73-1.33,5.2-3.02,7.33-5c0.57-0.52,1.14-1.08,1.7-1.68c0.06,1.11,0.28,2.17,0.63,3.15
		c0.6,1.66,1.51,3,2.69,3.99c1.2,1.01,2.71,1.6,4.46,1.75c1.74,0.15,3.63-0.26,5.63-1.22c1.51-0.72,3.01-1.7,4.44-2.92
		c1.4-1.19,2.76-2.48,4.07-3.85c1.3-1.37,2.52-2.79,3.64-4.22c0.21-0.27,0.41-0.53,0.61-0.79c-0.58,2.46-1.2,5.06-1.87,7.77
		c-1.01,4.13-2.13,8.46-3.33,12.89c-2.49,1.35-5.29,2.92-8.33,4.67c-3.19,1.84-6.51,3.89-9.86,6.11c-3.36,2.22-6.67,4.67-9.84,7.28
		c-3.18,2.62-6.06,5.43-8.57,8.36c-2.53,2.95-4.58,6.09-6.1,9.33c-1.53,3.28-2.31,6.72-2.31,10.22c0,2.77,0.58,5.14,1.73,7.03
		c1.15,1.89,2.67,3.35,4.52,4.35c1.83,0.99,3.9,1.56,6.16,1.71c0.4,0.03,0.81,0.04,1.21,0.04c1.84,0,3.69-0.27,5.51-0.8
		c3.3-0.93,6.37-2.67,9.11-5.17c2.71-2.47,5.2-5.44,7.41-8.84c2.2-3.38,4.19-7.13,5.94-11.14c1.73-3.99,3.31-8.03,4.7-12.01
		c1.39-3.99,2.62-7.89,3.65-11.58c0.45-1.6,0.85-3.02,1.23-4.35c0.49-1.72,0.93-3.26,1.35-4.81c0.24-0.27,1.22-0.88,2.21-1.38
		l0.28-0.14c1.4-0.71,2.85-1.44,4.28-2.14c0.51-0.25,1.02-0.49,1.54-0.73c1.29-0.6,2.63-1.22,3.87-2c1.84-1.16,3.41-2.5,4.68-3.98
		c0.21-0.22,0.39-0.45,0.53-0.64l0.44-0.58c0.03-0.04,0.05-0.07,0.08-0.11c0.13,1.63,0.54,3.21,1.23,4.72
		c1.28,2.77,3.26,4.6,5.91,5.43c6.58,2.07,12.97-0.72,18.06-4.87c2.63-2.15,4.98-4.64,7.18-7.23c2.14-2.52,3.95-5.63,6.61-7.64
		c0.89-0.67,1.58-0.61,2.38,0.09c0.21,0.19,0.43,0.41,0.67,0.66c0,0,0.73,0.79,0.73,0.79c5.04,5.44,11.36,11.6,18.91,13.12
		l0.57,0.11l0.57,0.08c0.76,0.09,1.51,0.13,2.27,0.11c0.75-0.01,1.5-0.08,2.24-0.2c0.74-0.11,1.47-0.28,2.18-0.49
		c0.71-0.22,1.4-0.5,2.07-0.81c0.66-0.34,1.29-0.73,1.87-1.18L169.17,50.18z M64.37,79.11c-1.92,5.59-4.02,10.8-6.25,15.5
		c-2.22,4.68-4.6,8.72-7.08,12.02c-2.43,3.22-5.02,5.42-7.69,6.53c-1.83,0.72-3.62,1.08-5.29,1.03c-1.65-0.03-3.14-0.43-4.43-1.18
		c-1.28-0.75-2.34-1.84-3.13-3.23c-0.79-1.39-1.19-3.11-1.19-5.1c0-2.98,0.69-5.91,2.05-8.73c1.38-2.86,3.23-5.65,5.49-8.29
		c2.29-2.66,4.94-5.23,7.9-7.64c2.98-2.43,6.03-4.72,9.09-6.82c3.05-2.09,6.09-4.02,9.04-5.73c2.26-1.32,4.36-2.5,6.26-3.53
		C67.68,69.02,66.08,74.11,64.37,79.11z"/>
</g>
</svg>
