<?xml version="1.0" encoding="utf-8"?>
<!-- Generator: Adobe Illustrator 23.0.3, SVG Export Plug-In . SVG Version: 6.00 Build 0)  -->
<svg version="1.1" id="Capa_1" xmlns="http://www.w3.org/2000/svg" xmlns:xlink="http://www.w3.org/1999/xlink" x="0px" y="0px"
	 viewBox="0 0 325.38 566.93" style="enable-background:new 0 0 325.38 566.93;" xml:space="preserve">
<style type="text/css">
	.st0{fill:#070809;}
</style>
<g>
	<g>
		<polygon class="st0" points="123.12,477.92 291.58,535.86 291.58,464.69 123.12,406.75 		"/>
		<polygon class="st0" points="22.5,372.13 22.5,443.3 83.15,464.17 83.15,392.99 		"/>
		<path class="st0" d="M22.82,134.17V326c0,2.04,0.07,4.2,0.23,6.8l0.29,5.02l59.8,20.57V63.85C48.53,62.2,22.82,90.29,22.82,134.17
			"/>
		<path class="st0" d="M123.12,77.9v294.25l168.46,57.94V232.75c0-55.17-38.14-113.17-85.02-129.3c-19.25-6.62-37.86-5.32-52.88,3.6
			C144.68,95.12,134.27,85.22,123.12,77.9 M206.56,174.63c13.29,4.57,24.11,21.25,24.11,37.18v126.16l-48.24-16.59V195.22
			C182.44,179.29,193.26,170.05,206.56,174.63"/>
	</g>
	<path class="st0" d="M274.26,62.63c9.64,0,17.45,7.89,17.45,17.63S283.9,97.9,274.26,97.9c-9.65,0-17.46-7.89-17.46-17.63
		S264.61,62.63,274.26,62.63 M287.43,80.27c0-7.65-5.88-13.83-13.17-13.83s-13.17,6.18-13.17,13.83c0,7.65,5.88,13.83,13.17,13.83
		S287.43,87.92,287.43,80.27 M273.17,81.84h-2.96v8.51h-3.48V70.19h7.76c4.94,0,7.48,1.71,7.48,5.8c0,3.66-2.31,5.18-5.13,5.7
		l5.46,8.65h-4.05L273.17,81.84z M273.78,78.89c2.49,0,4.7-0.24,4.7-3.04c0-2.33-2.45-2.71-4.42-2.71h-3.86v5.75H273.78z"/>
</g>
</svg>
