<?xml version="1.0" encoding="utf-8"?>
<!-- Generator: Adobe Illustrator 23.0.3, SVG Export Plug-In . SVG Version: 6.00 Build 0)  -->
<svg version="1.1" id="Capa_1" xmlns="http://www.w3.org/2000/svg" xmlns:xlink="http://www.w3.org/1999/xlink" x="0px" y="0px"
	 viewBox="0 0 269.29 170.08" style="enable-background:new 0 0 269.29 170.08;" xml:space="preserve">
<style type="text/css">
	.st0{fill:#BF0811;}
	.st1{fill:#FFFFFF;}
	.st2{fill:url(#SVGID_1_);}
	.st3{fill:url(#SVGID_2_);}
	.st4{fill:url(#SVGID_3_);}
	.st5{fill:url(#SVGID_4_);}
	.st6{fill:url(#SVGID_5_);}
</style>
<g>
	<g>
		<path d="M156.17,148.54h-8.12l6.24-17.98h8.1L156.17,148.54z"/>
		<path d="M175.71,148.54h-8.37l0.97-6.25h-0.29l-2.15,6.25h-8.12l6.22-17.98h8.1l-2.52,7.29h0.29l4.01-7.29h8.1l-5.06,9.03
			L175.71,148.54z"/>
		<path d="M189.29,148.54h-12.95l6.17-17.98h13.47l-2.45,5.91h-4.94l-0.36,1.04h4.83l-1.93,4.81h-4.54l-0.36,1.04h5.26
			L189.29,148.54z"/>
		<g>
			<g>
				<path class="st0" d="M135.42,134.77c-0.86-1.4-2.45-2.1-4.74-2.1c-0.61,0-53.52,0.15-53.52,0.15l-3.85,13.49
					c0,0,52.25,0.15,54.74,0.15c2.03,0,3.71-0.58,4.99-1.73c1.19-1.07,2.08-2.65,2.63-4.71
					C136.28,137.74,136.2,136.03,135.42,134.77z"/>
			</g>
			<g>
				<g>
					<path class="st1" d="M85.17,139.35c-0.92,3.24-2.86,4.86-5.82,4.86h-3.62l2.66-9.32h3.68c1.59,0,2.6,0.38,3.04,1.15
						C85.56,136.81,85.58,137.91,85.17,139.35z M81.11,141.35c0.25-0.35,0.49-0.93,0.72-1.75c0.23-0.82,0.31-1.4,0.25-1.74
						c-0.07-0.35-0.36-0.52-0.88-0.52h-0.31l-1.29,4.53h0.37C80.48,141.87,80.86,141.7,81.11,141.35z"/>
				</g>
				<g>
					<path class="st1" d="M87.98,144.22h-3.17l2.63-9.32h3.16L87.98,144.22z"/>
				</g>
				<g>
					<path class="st1" d="M90.6,137.88c0.28-0.99,0.8-1.76,1.55-2.31c0.75-0.55,1.66-0.83,2.72-0.83c1.06,0,2.13,0.1,3.2,0.3
						l-1.08,2.64c-1.18-0.25-1.96-0.38-2.35-0.38s-0.62,0.12-0.69,0.36c-0.03,0.09-0.01,0.15,0.04,0.19
						c0.05,0.04,0.09,0.06,0.11,0.08c0.02,0.02,0.07,0.05,0.15,0.08c0.08,0.03,0.14,0.06,0.19,0.08c0.05,0.03,0.21,0.1,0.48,0.23
						c0.27,0.13,0.47,0.23,0.6,0.3c0.13,0.08,0.31,0.2,0.53,0.37c0.64,0.51,0.82,1.26,0.54,2.25c-0.28,0.99-0.79,1.76-1.53,2.3
						c-0.74,0.55-1.67,0.82-2.77,0.82s-2.15-0.14-3.13-0.41l0.92-2.54c1.24,0.34,2.1,0.51,2.57,0.51c0.31,0,0.5-0.11,0.56-0.33
						c0.03-0.1,0.01-0.18-0.05-0.24c-0.06-0.06-0.15-0.12-0.28-0.2c-0.13-0.07-0.31-0.16-0.56-0.28c-0.25-0.11-0.45-0.21-0.62-0.3
						c-0.17-0.08-0.35-0.22-0.56-0.4C90.51,139.64,90.32,138.87,90.6,137.88z"/>
				</g>
				<g>
					<path class="st1" d="M104.91,137.43h-1.98l-1.89,6.78h-3.2l1.89-6.78h-2.08l0.84-2.54h7.29L104.91,137.43z"/>
				</g>
				<g>
					<path class="st1" d="M112.77,137.9c-0.17,0.6-0.39,1.08-0.69,1.43c-0.29,0.36-0.68,0.67-1.17,0.94l0.31,3.95h-3.32l-0.04-3.21
						h-0.24l-0.89,3.21h-3.08l2.59-9.32h3.97c1.16,0,1.94,0.24,2.36,0.73C112.98,136.11,113.05,136.87,112.77,137.9z M108.99,138.97
						c0.13-0.14,0.25-0.37,0.34-0.71c0.09-0.34,0.11-0.58,0.05-0.71c-0.06-0.13-0.2-0.2-0.41-0.2h-0.39l-0.5,1.82h0.37
						C108.67,139.17,108.86,139.11,108.99,138.97z"/>
				</g>
				<g>
					<path class="st1" d="M115.36,144.22h-3.17l2.56-9.32h3.16L115.36,144.22z"/>
				</g>
				<g>
					<path class="st1" d="M125.01,137.43h-1.98l-1.85,6.78h-3.2l1.85-6.78h-2.08l0.83-2.54h7.29L125.01,137.43z"/>
				</g>
				<g>
					<path class="st1" d="M124.78,139.5c0.45-1.67,1.11-2.87,1.98-3.62c0.87-0.75,2.06-1.13,3.58-1.13c1.52,0,2.51,0.37,2.96,1.11
						c0.45,0.74,0.46,1.94,0.01,3.61c-0.45,1.67-1.12,2.9-2.01,3.7c-0.89,0.8-2.09,1.2-3.6,1.2c-1.51,0-2.48-0.4-2.93-1.19
						C124.32,142.39,124.33,141.16,124.78,139.5z M130.37,137.71c-0.06-0.26-0.31-0.38-0.74-0.38c-0.43,0-0.74,0.13-0.93,0.38
						c-0.19,0.25-0.39,0.79-0.61,1.61l-0.18,0.66c-0.23,0.84-0.31,1.39-0.25,1.64c0.06,0.25,0.31,0.38,0.75,0.38
						s0.75-0.12,0.92-0.36c0.17-0.24,0.37-0.78,0.6-1.61l0.19-0.69C130.35,138.5,130.43,137.97,130.37,137.71z"/>
				</g>
			</g>
		</g>
		<path d="M147.03,130.57h-10.85l-0.95,2.72c0.34,0.3,0.64,0.66,0.88,1.06c0.9,1.46,1,3.38,0.33,5.87c-0.59,2.2-1.56,3.92-2.87,5.09
			c-0.88,0.79-1.93,1.35-3.13,1.65l-0.55,1.58h10.99c2.32,0,4.14-0.45,5.44-1.35c1.31-0.9,2.26-2.21,2.86-3.95
			c0.77-2.22,0.56-3.6-0.63-4.14l0.04-0.12c0.8-0.39,1.42-0.85,1.85-1.39c0.43-0.54,0.81-1.3,1.15-2.29
			C152.7,132.15,151.18,130.57,147.03,130.57z M140.15,144.87h-0.92l1.24-3.56h0.92L140.15,144.87z M142.53,138.01h-0.92l1.05-3.01
			h0.92L142.53,138.01z"/>
	</g>
	<polygon class="st0" points="52.81,45.99 47.46,45.99 41.05,96.34 52.81,96.34 204.53,96.34 209.9,45.99 	"/>
	<g>
		<path class="st1" d="M76.97,87.15c-1.24,0.62-2.57,1.08-4.01,1.39c-1.43,0.31-2.97,0.46-4.59,0.46c-4.34,0-7.82-1.29-10.47-3.88
			c-2.65-2.58-3.97-5.98-3.97-10.18c0-2.19,0.37-4.29,1.11-6.28c0.74-1.99,1.8-3.78,3.19-5.35c1.55-1.75,3.4-3.08,5.54-4
			c2.15-0.92,4.49-1.37,7.04-1.37c1.8,0,3.49,0.22,5.06,0.67c1.57,0.44,3.05,1.12,4.45,2.02l-0.87,5.8
			c-1.49-1.08-2.95-1.87-4.36-2.38c-1.41-0.51-2.84-0.77-4.28-0.77c-3.11,0-5.65,1.06-7.63,3.19c-1.98,2.13-2.97,4.85-2.97,8.18
			c0,2.73,0.78,4.91,2.34,6.52c1.56,1.62,3.66,2.42,6.3,2.42c1.71,0,3.29-0.23,4.76-0.7c1.46-0.46,2.82-1.17,4.07-2.13L76.97,87.15z
			"/>
		<path class="st1" d="M86.7,88.22h-6.22l3.9-29.56h6.16c2.57,0,4.43,0.13,5.56,0.4c1.14,0.27,2.14,0.73,3,1.37
			c0.96,0.7,1.68,1.56,2.18,2.57c0.5,1.02,0.75,2.14,0.75,3.38c0,2.26-0.64,4.13-1.91,5.6c-1.27,1.47-3.1,2.47-5.48,3l6.7,13.23
			h-6.79l-6.08-13.57L86.7,88.22z M88.88,71.44h0.91c2.34,0,3.93-0.32,4.78-0.96c0.84-0.64,1.26-1.74,1.26-3.3
			c0-1.33-0.35-2.27-1.06-2.81c-0.71-0.54-2.09-0.81-4.15-0.81h-0.71L88.88,71.44z"/>
		<path class="st1" d="M117.71,89.01c-4.43,0-7.98-1.29-10.64-3.88c-2.67-2.58-4-6.02-4-10.32c0-2.1,0.38-4.15,1.13-6.14
			c0.75-1.99,1.82-3.78,3.21-5.35c1.56-1.74,3.42-3.07,5.56-3.99c2.15-0.92,4.47-1.38,6.98-1.38c4.43,0,7.98,1.28,10.64,3.83
			c2.67,2.55,4,5.93,4,10.15c0,2.19-0.34,4.26-1.02,6.19c-0.68,1.93-1.67,3.65-2.96,5.14c-1.63,1.88-3.54,3.32-5.73,4.29
			C122.68,88.52,120.29,89.01,117.71,89.01z M119.61,63.32c-2.93,0-5.37,1.07-7.31,3.22c-1.94,2.15-2.91,4.85-2.91,8.11
			c0,2.75,0.78,4.93,2.35,6.55c1.57,1.62,3.67,2.43,6.29,2.43c2.92,0,5.35-1.09,7.3-3.27c1.95-2.18,2.92-4.89,2.92-8.12
			c0-2.73-0.78-4.9-2.34-6.51C124.34,64.13,122.24,63.32,119.61,63.32z"/>
		<path class="st1" d="M135.69,88.22l3.9-29.56h6.44l9.15,15.25c0.98,1.67,1.68,2.93,2.1,3.78c0.42,0.85,0.75,1.65,1.01,2.4
			c0.05-1.4,0.12-2.64,0.2-3.71c0.08-1.07,0.16-1.91,0.24-2.53l2.04-15.19h5.82l-3.92,29.56h-6l-10.18-17.2
			c-0.63-1.05-1.14-1.97-1.54-2.77c-0.39-0.79-0.72-1.55-0.99-2.28v0.95c0,1.01-0.03,1.99-0.08,2.93c-0.05,0.94-0.13,1.83-0.24,2.67
			l-2.2,15.71H135.69z"/>
		<path class="st1" d="M182.31,89.01c-4.43,0-7.98-1.29-10.64-3.88c-2.67-2.58-4-6.02-4-10.32c0-2.1,0.38-4.15,1.13-6.14
			c0.75-1.99,1.82-3.78,3.21-5.35c1.56-1.74,3.42-3.07,5.56-3.99c2.15-0.92,4.47-1.38,6.98-1.38c4.43,0,7.98,1.28,10.64,3.83
			c2.67,2.55,4,5.93,4,10.15c0,2.19-0.34,4.26-1.02,6.19c-0.68,1.93-1.67,3.65-2.96,5.14c-1.63,1.88-3.54,3.32-5.73,4.29
			C187.28,88.52,184.89,89.01,182.31,89.01z M184.21,63.32c-2.93,0-5.37,1.07-7.31,3.22c-1.94,2.15-2.91,4.85-2.91,8.11
			c0,2.75,0.78,4.93,2.35,6.55c1.57,1.62,3.67,2.43,6.29,2.43c2.92,0,5.35-1.09,7.3-3.27s2.92-4.89,2.92-8.12
			c0-2.73-0.78-4.9-2.34-6.51C188.95,64.13,186.85,63.32,184.21,63.32z"/>
	</g>
	<g>
		<path d="M149.88,105.12c-0.08-0.75-0.15-1.64-0.22-2.68c-0.22,0.79-0.45,1.53-0.7,2.21c-0.25,0.68-0.51,1.31-0.79,1.89l-2.64,5.63
			h5.66l-1.04-5.14C150.05,106.5,149.96,105.86,149.88,105.12z"/>
		<path d="M116.26,105.12c-0.08-0.75-0.15-1.64-0.22-2.68c-0.22,0.79-0.45,1.53-0.7,2.21c-0.25,0.68-0.51,1.31-0.79,1.89l-2.64,5.63
			h5.66l-1.04-5.14C116.43,106.5,116.34,105.86,116.26,105.12z"/>
		<path d="M168.46,102.61h-2.93l-1.83,13.9c0.06,0,0.15,0,0.27,0c1.04,0.04,1.78,0.06,2.23,0.06c1.58,0,2.83-0.14,3.74-0.41
			c0.91-0.27,1.67-0.73,2.29-1.36c0.67-0.7,1.19-1.58,1.54-2.62c0.35-1.04,0.53-2.22,0.53-3.53c0-2.14-0.45-3.68-1.36-4.63
			C172.03,103.09,170.54,102.61,168.46,102.61z"/>
		<path d="M57.35,90.74h-5.2l-6.22,35.93h11.42h147.34l5.22-35.93H57.35z M69.02,111.12H60.6l-0.71,5.45h8.44l-0.52,3.83H54.87
			l2.87-21.74h12.92l-0.48,3.83h-8.44l-0.64,4.89h8.41L69.02,111.12z M78.68,107.35c0.35,0.2,0.61,0.35,0.79,0.46
			c1.63,0.96,2.74,1.9,3.33,2.82c0.58,0.92,0.88,2.11,0.88,3.56c0,2.03-0.69,3.67-2.06,4.92c-1.37,1.25-3.19,1.87-5.46,1.87
			c-1.38,0-2.6-0.27-3.68-0.82c-1.08-0.54-2.04-1.38-2.88-2.5l2.47-3.1c0.51,0.89,1.11,1.55,1.78,1.98
			c0.67,0.43,1.47,0.64,2.38,0.64c0.97,0,1.73-0.26,2.28-0.79c0.55-0.52,0.82-1.25,0.82-2.17c0-0.59-0.16-1.12-0.48-1.59
			c-0.32-0.47-0.8-0.88-1.44-1.23c-0.16-0.09-0.39-0.22-0.7-0.39c-1.78-0.97-2.98-1.8-3.59-2.48c-0.45-0.51-0.78-1.08-1.02-1.73
			c-0.23-0.65-0.35-1.35-0.35-2.1c0-1.87,0.67-3.43,2.02-4.69c1.35-1.25,3.04-1.88,5.09-1.88c1.24,0,2.34,0.23,3.3,0.69
			c0.96,0.46,1.78,1.15,2.45,2.07l-2.33,3.01c-0.39-0.72-0.86-1.26-1.43-1.62c-0.56-0.36-1.22-0.53-1.96-0.53
			c-0.84,0-1.54,0.24-2.09,0.73c-0.55,0.49-0.82,1.1-0.82,1.86C75.98,105.33,76.88,106.33,78.68,107.35z M102.14,119.62
			c-0.91,0.46-1.89,0.8-2.95,1.02c-1.05,0.23-2.18,0.34-3.38,0.34c-3.19,0-5.75-0.95-7.7-2.85c-1.95-1.9-2.92-4.4-2.92-7.48
			c0-1.61,0.27-3.15,0.82-4.62c0.54-1.47,1.33-2.78,2.35-3.94c1.14-1.29,2.5-2.27,4.08-2.94c1.58-0.67,3.3-1.01,5.18-1.01
			c1.33,0,2.57,0.16,3.72,0.49c1.15,0.33,2.24,0.82,3.27,1.49l-0.64,4.26c-1.1-0.79-2.17-1.38-3.21-1.75
			c-1.04-0.38-2.09-0.56-3.15-0.56c-2.29,0-4.16,0.78-5.61,2.35c-1.46,1.56-2.18,3.57-2.18,6.01c0,2.01,0.57,3.61,1.72,4.8
			c1.15,1.19,2.69,1.78,4.63,1.78c1.26,0,2.42-0.17,3.5-0.51c1.07-0.34,2.07-0.86,2.99-1.57L102.14,119.62z M119.33,120.41
			l-0.92-4.68h-8.27l-2.35,4.68h-5.08l11.26-21.74h4.96l5.23,21.74H119.33z M152.96,120.41l-0.92-4.68h-8.27l-2.35,4.68h-4.3h-0.78
			h-11.31l2.87-21.74h4.56l-2.38,17.88h7.54l-0.24,1.85l10.22-19.73h4.96l5.23,21.74H152.96z M174.44,118.31
			c-1.04,0.75-2.25,1.29-3.63,1.61c-1.38,0.32-3.52,0.48-6.42,0.48h-1.74h-3.99l2.87-21.74h4.56c2.57,0,4.4,0.08,5.46,0.25
			c1.07,0.16,1.97,0.43,2.69,0.81c1.52,0.8,2.69,1.99,3.5,3.56c0.81,1.57,1.22,3.45,1.22,5.63c0,2.11-0.36,3.92-1.09,5.44
			C177.14,115.86,176,117.18,174.44,118.31z M193.76,120.41l-0.92-4.68h-8.27l-2.35,4.68h-5.08l11.26-21.74h4.96l5.23,21.74H193.76z
			"/>
		<path d="M190.68,105.12c-0.08-0.75-0.15-1.64-0.22-2.68c-0.22,0.79-0.45,1.53-0.7,2.21c-0.25,0.68-0.51,1.31-0.79,1.89l-2.64,5.63
			h5.66l-1.04-5.14C190.85,106.5,190.76,105.86,190.68,105.12z"/>
	</g>
	<g>
		<radialGradient id="SVGID_1_" cx="198.8938" cy="24.347" r="52.0651" gradientUnits="userSpaceOnUse">
			<stop  offset="0" style="stop-color:#E8C84C"/>
			<stop  offset="0.9949" style="stop-color:#DD9D34"/>
		</radialGradient>
		<path class="st2" d="M199.5,29.71c0,0-11.71,10.57-2.08,21.81c9.63,11.24,15.15,22.16,6.27,36.57c0,0,4.32-12.72-7.08-24.61
			C188.1,54.61,180.79,39.87,199.5,29.71z"/>
		<radialGradient id="SVGID_2_" cx="198.759" cy="31.7015" r="39.4486" gradientUnits="userSpaceOnUse">
			<stop  offset="0" style="stop-color:#E0A433"/>
			<stop  offset="0.9949" style="stop-color:#D27C35"/>
		</radialGradient>
		<path class="st3" d="M205.87,79.85c-0.41-4.89-2.32-11.22-8.22-17.37c-3.6-3.75-9.47-11.2-8.27-18.86
			c0.44-2.85,1.86-5.48,4.22-7.87c-1.93,4.45-2.59,10.49,2.74,16.7c5.53,6.45,8.54,11.54,9.77,16.51
			C207,72.56,206.92,76.16,205.87,79.85z"/>
		<radialGradient id="SVGID_3_" cx="198.8935" cy="24.3474" r="52.0648" gradientUnits="userSpaceOnUse">
			<stop  offset="0" style="stop-color:#E8C84C"/>
			<stop  offset="0.9949" style="stop-color:#DD9D34"/>
		</radialGradient>
		<path class="st4" d="M215.65,21.53c0,0-18.92,2.81-17.12,21.54c1.8,18.73,24.66,23.04,6.93,46.27c0,0,25.12-6.3,22.6-26.46
			C225.54,42.71,202.52,38.89,215.65,21.53z"/>
		
			<radialGradient id="SVGID_4_" cx="200.6434" cy="30.1556" r="41.8831" gradientTransform="matrix(0.999 0.045 -0.045 0.999 4.7121 -5.5679)" gradientUnits="userSpaceOnUse">
			<stop  offset="0" style="stop-color:#E0A433"/>
			<stop  offset="0.9949" style="stop-color:#D27C35"/>
		</radialGradient>
		<path class="st5" d="M209.19,86.37c7.85-11.16,3.7-17.62-0.68-24.42c-2.63-4.1-5.36-8.33-5.65-14.02
			c-0.56-10.9,7.11-14.8,11.58-16.14c-4.82,7.74-0.83,12.99,3.36,18.52c3.27,4.31,6.98,9.2,7.54,16.23
			c0.54,6.81-2.56,12.38-9.21,16.54C213.68,84.62,211.15,85.68,209.19,86.37z"/>
		
			<radialGradient id="SVGID_5_" cx="199.9476" cy="33.1041" r="34.5123" gradientTransform="matrix(0.9955 0.095 -0.095 0.9955 10.7009 -11.5037)" gradientUnits="userSpaceOnUse">
			<stop  offset="0" style="stop-color:#D0742E"/>
			<stop  offset="0.9949" style="stop-color:#C4422E"/>
		</radialGradient>
		<path class="st6" d="M211.39,84.83c4.53-8.62,1.12-15.23-1.95-21.18c-2.2-4.26-4.28-8.29-4.05-13.4
			c0.27-6.03,3.08-9.37,6.41-11.21c-1.9,6.11,1.33,11.32,4.24,16.04c2.82,4.56,5.74,9.28,5.64,15.7c-0.1,6.05-3.22,10.53-9.54,13.69
			C211.9,84.59,211.65,84.71,211.39,84.83z"/>
	</g>
</g>
</svg>
